  0
SECTION
  2
HEADER
  9
$ACADVER
  1
AC1009
  9
$EXTMAX
 10
21.1680908203125
 20
21.1680908203125
 30
0.0
  9
$EXTMIN
 10
-21.1680908203125
 20
-21.1680908203125
 30
0.0
  9
$INSUNITS
 70
     4
  9
$LUNITS
 70
     2
  9
$LUPREC
 70
     4
  9
$MEASUREMENT
 70
     1
  0
ENDSEC
  0
SECTION
  2
TABLES
  0
TABLE
  2
LAYER
 70
     1
  0
LAYER
  2
0
 70
     0
 62
     7
  6
Continuous
  0
LAYER
  2
OpenJsCad
 70
     0
 62
     7
  6
Continuous
  0
ENDTAB
  0
TABLE
  2
APPID
 70
     1
  0
APPID
  2
ACAD
 70
     0
  0
ENDTAB
  0
ENDSEC
  0
SECTION
  2
ENTITIES
  0
LINE
  8
OpenJsCad
 10
-21.1680914537682
 20
1.7594551027768
 30
0.0
 11
-21.1046051746589
 21
2.4040421118487
 31
0.0
  0
LINE
  8
OpenJsCad
 10
-21.1046051746589
 20
2.4040421118487
 30
0.0
 11
-21.0049158929343
 21
2.5986654297052
 31
0.0
  0
LINE
  8
OpenJsCad
 10
-21.0049158929343
 20
2.5986654297052
 30
0.0
 11
-20.9940125015055
 21
2.634609094225
 31
0.0
  0
LINE
  8
OpenJsCad
 10
-20.9940125015055
 20
2.634609094225
 30
0.0
 11
-20.8358385194578
 21
2.7264163800768
 31
0.0
  0
LINE
  8
OpenJsCad
 10
-20.8358385194578
 20
2.7264163800768
 30
0.0
 11
-20.2086360034361
 21
2.9012862752192
 31
0.0
  0
LINE
  8
OpenJsCad
 10
-20.2086360034361
 20
2.9012862752192
 30
0.0
 11
-20.0182516027244
 21
2.9475039362954
 31
0.0
  0
LINE
  8
OpenJsCad
 10
-20.0182516027244
 20
2.9475039362954
 30
0.0
 11
-19.6980448510713
 21
3.0040700078925
 31
0.0
  0
LINE
  8
OpenJsCad
 10
-19.6980448510713
 20
3.0040700078925
 30
0.0
 11
-19.6495128386026
 21
3.0108506877403
 31
0.0
  0
LINE
  8
OpenJsCad
 10
-19.6495128386026
 20
3.0108506877403
 30
0.0
 11
-19.4565222722554
 21
3.0367098846438
 31
0.0
  0
LINE
  8
OpenJsCad
 10
-19.4565222722554
 20
3.0367098846438
 30
0.0
 11
-19.1639908624004
 21
3.0648660291566
 31
0.0
  0
LINE
  8
OpenJsCad
 10
-19.1639908624004
 20
3.0648660291566
 30
0.0
 11
-18.6630487692321
 21
3.0988562828139
 31
0.0
  0
LINE
  8
OpenJsCad
 10
-18.6630487692321
 20
3.0988562828139
 30
0.0
 11
-18.5846272505786
 21
3.1374794452508
 31
0.0
  0
LINE
  8
OpenJsCad
 10
-18.5846272505786
 20
3.1374794452508
 30
0.0
 11
-18.5369583170925
 21
3.1740182286928
 31
0.0
  0
LINE
  8
OpenJsCad
 10
-18.5369583170925
 20
3.1740182286928
 30
0.0
 11
-18.3405605743221
 21
4.1613763570865
 31
0.0
  0
LINE
  8
OpenJsCad
 10
-18.3405605743221
 20
4.1613763570865
 30
0.0
 11
-18.3706181392446
 21
4.2133759023352
 31
0.0
  0
LINE
  8
OpenJsCad
 10
-18.3706181392446
 20
4.2133759023352
 30
0.0
 11
-18.4282897308668
 21
4.279069667521
 31
0.0
  0
LINE
  8
OpenJsCad
 10
-18.4282897308668
 20
4.279069667521
 30
0.0
 11
-18.8780923707819
 21
4.5021748068097
 31
0.0
  0
LINE
  8
OpenJsCad
 10
-18.8780923707819
 20
4.5021748068097
 30
0.0
 11
-19.1375812629393
 21
4.6401346164374
 31
0.0
  0
LINE
  8
OpenJsCad
 10
-19.1375812629393
 20
4.6401346164374
 30
0.0
 11
-19.305985410926
 21
4.7378796915275
 31
0.0
  0
LINE
  8
OpenJsCad
 10
-19.305985410926
 20
4.7378796915275
 30
0.0
 11
-19.3482282900795
 21
4.7627166199666
 31
0.0
  0
LINE
  8
OpenJsCad
 10
-19.3482282900795
 20
4.7627166199666
 30
0.0
 11
-19.6224138556695
 21
4.9375146745388
 31
0.0
  0
LINE
  8
OpenJsCad
 10
-19.6224138556695
 20
4.9375146745388
 30
0.0
 11
-19.7806193736199
 21
5.0530711815808
 31
0.0
  0
LINE
  8
OpenJsCad
 10
-19.7806193736199
 20
5.0530711815808
 30
0.0
 11
-20.2931591292215
 21
5.4546499101745
 31
0.0
  0
LINE
  8
OpenJsCad
 10
-20.2931591292215
 20
5.4546499101745
 30
0.0
 11
-20.4041597065471
 21
5.5999993448693
 31
0.0
  0
LINE
  8
OpenJsCad
 10
-20.4041597065471
 20
5.5999993448693
 30
0.0
 11
-20.4004780818129
 21
5.637379508099
 31
0.0
  0
LINE
  8
OpenJsCad
 10
-20.4004780818129
 20
5.637379508099
 30
0.0
 11
-20.4180998495116
 21
5.8553374445163
 31
0.0
  0
LINE
  8
OpenJsCad
 10
-20.4180998495116
 20
5.8553374445163
 30
0.0
 11
-20.2300807542864
 21
6.4751533363181
 31
0.0
  0
LINE
  8
OpenJsCad
 10
-20.2300807542864
 20
6.4751533363181
 30
0.0
 11
-20.094337848406
 21
6.6465886076227
 31
0.0
  0
LINE
  8
OpenJsCad
 10
-20.094337848406
 20
6.6465886076227
 30
0.0
 11
-20.0766317015006
 21
6.6797144785625
 31
0.0
  0
LINE
  8
OpenJsCad
 10
-20.0766317015006
 20
6.6797144785625
 30
0.0
 11
-19.9035862752036
 21
6.7388995000666
 31
0.0
  0
LINE
  8
OpenJsCad
 10
-19.9035862752036
 20
6.7388995000666
 30
0.0
 11
-19.2543198555035
 21
6.7880481783879
 31
0.0
  0
LINE
  8
OpenJsCad
 10
-19.2543198555035
 20
6.7880481783879
 30
0.0
 11
-19.0585770192848
 21
6.7962356260245
 31
0.0
  0
LINE
  8
OpenJsCad
 10
-19.0585770192848
 20
6.7962356260245
 30
0.0
 11
-18.7334874574547
 21
6.7892455581254
 31
0.0
  0
LINE
  8
OpenJsCad
 10
-18.7334874574547
 20
6.7892455581254
 30
0.0
 11
-18.684565128982
 21
6.7864278231707
 31
0.0
  0
LINE
  8
OpenJsCad
 10
-18.684565128982
 20
6.7864278231707
 30
0.0
 11
-18.490237943201
 21
6.7741395511219
 31
0.0
  0
LINE
  8
OpenJsCad
 10
-18.490237943201
 20
6.7741395511219
 30
0.0
 11
-18.1978344510599
 21
6.7446846362645
 31
0.0
  0
LINE
  8
OpenJsCad
 10
-18.1978344510599
 20
6.7446846362645
 30
0.0
 11
-17.6998866502146
 21
6.6802928224612
 31
0.0
  0
LINE
  8
OpenJsCad
 10
-17.6998866502146
 20
6.6802928224612
 30
0.0
 11
-17.6154369738553
 21
6.7028745723347
 31
0.0
  0
LINE
  8
OpenJsCad
 10
-17.6154369738553
 20
6.7028745723347
 30
0.0
 11
-17.5615556225318
 21
6.7294115257146
 31
0.0
  0
LINE
  8
OpenJsCad
 10
-17.5615556225318
 20
6.7294115257146
 30
0.0
 11
-17.1763075921046
 21
7.6594825456493
 31
0.0
  0
LINE
  8
OpenJsCad
 10
-17.1763075921046
 20
7.6594825456493
 30
0.0
 11
-17.1956430013181
 21
7.7163468742366
 31
0.0
  0
LINE
  8
OpenJsCad
 10
-17.1956430013181
 20
7.7163468742366
 30
0.0
 11
-17.2393902316741
 21
7.7920295215259
 31
0.0
  0
LINE
  8
OpenJsCad
 10
-17.2393902316741
 20
7.7920295215259
 30
0.0
 11
-17.637024386522
 21
8.0985998999873
 31
0.0
  0
LINE
  8
OpenJsCad
 10
-17.637024386522
 20
8.0985998999873
 30
0.0
 11
-17.8646126486925
 21
8.2845326220879
 31
0.0
  0
LINE
  8
OpenJsCad
 10
-17.8646126486925
 20
8.2845326220879
 30
0.0
 11
-18.0107118400219
 21
8.4132535724278
 31
0.0
  0
LINE
  8
OpenJsCad
 10
-18.0107118400219
 20
8.4132535724278
 30
0.0
 11
-18.0472975897305
 21
8.4458544431482
 31
0.0
  0
LINE
  8
OpenJsCad
 10
-18.0472975897305
 20
8.4458544431482
 30
0.0
 11
-18.2821133478059
 21
8.6707847523989
 31
0.0
  0
LINE
  8
OpenJsCad
 10
-18.2821133478059
 20
8.6707847523989
 30
0.0
 11
-18.4147350349204
 21
8.8149852390022
 31
0.0
  0
LINE
  8
OpenJsCad
 10
-18.4147350349204
 20
8.8149852390022
 30
0.0
 11
-18.8390823593597
 21
9.3088392908963
 31
0.0
  0
LINE
  8
OpenJsCad
 10
-18.8390823593597
 20
9.3088392908963
 30
0.0
 11
-18.9195938236976
 21
9.4730510153344
 31
0.0
  0
LINE
  8
OpenJsCad
 10
-18.9195938236976
 20
9.4730510153344
 30
0.0
 11
-18.9086904322688
 21
9.5089946798542
 31
0.0
  0
LINE
  8
OpenJsCad
 10
-18.9086904322688
 20
9.5089946798542
 30
0.0
 11
-18.8834521186407
 21
9.7262024519741
 31
0.0
  0
LINE
  8
OpenJsCad
 10
-18.8834521186407
 20
9.7262024519741
 30
0.0
 11
-18.5781256756867
 21
10.2974280493807
 31
0.0
  0
LINE
  8
OpenJsCad
 10
-18.5781256756867
 20
10.2974280493807
 30
0.0
 11
-18.4115456693951
 21
10.4390871127976
 31
0.0
  0
LINE
  8
OpenJsCad
 10
-18.4115456693951
 20
10.4390871127976
 30
0.0
 11
-18.3877172043089
 21
10.4681221815145
 31
0.0
  0
LINE
  8
OpenJsCad
 10
-18.3877172043089
 20
10.4681221815145
 30
0.0
 11
-18.2064503724532
 21
10.4924104914873
 31
0.0
  0
LINE
  8
OpenJsCad
 10
-18.2064503724532
 20
10.4924104914873
 30
0.0
 11
-17.5600709934708
 21
10.4139491968425
 31
0.0
  0
LINE
  8
OpenJsCad
 10
-17.5600709934708
 20
10.4139491968425
 30
0.0
 11
-17.3664920091672
 21
10.3837917920183
 31
0.0
  0
LINE
  8
OpenJsCad
 10
-17.3664920091672
 20
10.3837917920183
 30
0.0
 11
-17.0490126467088
 21
10.3135142090123
 31
0.0
  0
LINE
  8
OpenJsCad
 10
-17.0490126467088
 20
10.3135142090123
 30
0.0
 11
-17.0015800598794
 21
10.3012063432292
 31
0.0
  0
LINE
  8
OpenJsCad
 10
-17.0015800598794
 20
10.3012063432292
 30
0.0
 11
-16.8133841394343
 21
10.2512428336316
 31
0.0
  0
LINE
  8
OpenJsCad
 10
-16.8133841394343
 20
10.2512428336316
 30
0.0
 11
-16.5323454672283
 21
10.1653087952635
 31
0.0
  0
LINE
  8
OpenJsCad
 10
-16.5323454672283
 20
10.1653087952635
 30
0.0
 11
-16.0565278134401
 21
10.0050094552926
 31
0.0
  0
LINE
  8
OpenJsCad
 10
-16.0565278134401
 20
10.0050094552926
 30
0.0
 11
-15.9692953330776
 21
10.0106819886192
 31
0.0
  0
LINE
  8
OpenJsCad
 10
-15.9692953330776
 20
10.0106819886192
 30
0.0
 11
-15.9112721940311
 21
10.0261973117006
 31
0.0
  0
LINE
  8
OpenJsCad
 10
-15.9112721940311
 20
10.0261973117006
 30
0.0
 11
-15.3519787417069
 21
10.86323911547
 31
0.0
  0
LINE
  8
OpenJsCad
 10
-15.3519787417069
 20
10.86323911547
 30
0.0
 11
-15.3598489462787
 21
10.9227829631382
 31
0.0
  0
LINE
  8
OpenJsCad
 10
-15.3598489462787
 20
10.9227829631382
 30
0.0
 11
-15.3879906338395
 21
11.005546050839
 31
0.0
  0
LINE
  8
OpenJsCad
 10
-15.3879906338395
 20
11.005546050839
 30
0.0
 11
-15.7181754460453
 21
11.3838003407555
 31
0.0
  0
LINE
  8
OpenJsCad
 10
-15.7181754460453
 20
11.3838003407555
 30
0.0
 11
-15.9051169889468
 21
11.610560685091
 31
0.0
  0
LINE
  8
OpenJsCad
 10
-15.9051169889468
 20
11.610560685091
 30
0.0
 11
-16.0232967136294
 21
11.7653108367467
 31
0.0
  0
LINE
  8
OpenJsCad
 10
-16.0232967136294
 20
11.7653108367467
 30
0.0
 11
-16.0528193640492
 21
11.8044228165694
 31
0.0
  0
LINE
  8
OpenJsCad
 10
-16.0528193640492
 20
11.8044228165694
 30
0.0
 11
-16.2392414767134
 21
12.0708414348564
 31
0.0
  0
LINE
  8
OpenJsCad
 10
-16.2392414767134
 20
12.0708414348564
 30
0.0
 11
-16.3411827559312
 21
12.2381443571894
 31
0.0
  0
LINE
  8
OpenJsCad
 10
-16.3411827559312
 20
12.2381443571894
 30
0.0
 11
-16.6610302195069
 21
12.8052951981261
 31
0.0
  0
LINE
  8
OpenJsCad
 10
-16.6610302195069
 20
12.8052951981261
 30
0.0
 11
-16.7079585604337
 21
12.9820586478284
 31
0.0
  0
LINE
  8
OpenJsCad
 10
-16.7079585604337
 20
12.9820586478284
 30
0.0
 11
-16.6902524135283
 21
13.0151845187682
 31
0.0
  0
LINE
  8
OpenJsCad
 10
-16.6902524135283
 20
13.0151845187682
 30
0.0
 11
-16.6231239128123
 21
13.2232949537198
 31
0.0
  0
LINE
  8
OpenJsCad
 10
-16.6231239128123
 20
13.2232949537198
 30
0.0
 11
-16.2122236461033
 21
13.7239783773698
 31
0.0
  0
LINE
  8
OpenJsCad
 10
-16.2122236461033
 20
13.7239783773698
 30
0.0
 11
-16.0212081156245
 21
13.8304173545358
 31
0.0
  0
LINE
  8
OpenJsCad
 10
-16.0212081156245
 20
13.8304173545358
 30
0.0
 11
-15.9921730469076
 21
13.8542458196221
 31
0.0
  0
LINE
  8
OpenJsCad
 10
-15.9921730469076
 20
13.8542458196221
 30
0.0
 11
-15.8096507921843
 21
13.8427040319317
 31
0.0
  0
LINE
  8
OpenJsCad
 10
-15.8096507921843
 20
13.8427040319317
 30
0.0
 11
-15.1909984509603
 21
13.6396479878725
 31
0.0
  0
LINE
  8
OpenJsCad
 10
-15.1909984509603
 20
13.6396479878725
 30
0.0
 11
-15.0070224503783
 21
13.5723046627423
 31
0.0
  0
LINE
  8
OpenJsCad
 10
-15.0070224503783
 20
13.5723046627423
 30
0.0
 11
-14.7093538411464
 21
13.4414402927323
 31
0.0
  0
LINE
  8
OpenJsCad
 10
-14.7093538411464
 20
13.4414402927323
 30
0.0
 11
-14.6652338036717
 21
13.4201152805004
 31
0.0
  0
LINE
  8
OpenJsCad
 10
-14.6652338036717
 20
13.4201152805004
 30
0.0
 11
-14.4904014122436
 21
13.3343966030081
 31
0.0
  0
LINE
  8
OpenJsCad
 10
-14.4904014122436
 20
13.3343966030081
 30
0.0
 11
-14.2315277185372
 21
13.1952858380314
 31
0.0
  0
LINE
  8
OpenJsCad
 10
-14.2315277185372
 20
13.1952858380314
 30
0.0
 11
-13.7961256173997
 21
12.9452391856311
 31
0.0
  0
LINE
  8
OpenJsCad
 10
-13.7961256173997
 20
12.9452391856311
 30
0.0
 11
-13.7094626283338
 21
12.9337845101362
 31
0.0
  0
LINE
  8
OpenJsCad
 10
-13.7094626283338
 20
12.9337845101362
 30
0.0
 11
-13.649527498258
 21
12.9376819577541
 31
0.0
  0
LINE
  8
OpenJsCad
 10
-13.649527498258
 20
12.9376819577541
 30
0.0
 11
-12.9376819577542
 21
13.649527498258
 31
0.0
  0
LINE
  8
OpenJsCad
 10
-12.9376819577542
 20
13.649527498258
 30
0.0
 11
-12.9337845101363
 21
13.7094626283337
 31
0.0
  0
LINE
  8
OpenJsCad
 10
-12.9337845101363
 20
13.7094626283337
 30
0.0
 11
-12.9452391856311
 21
13.7961256173997
 31
0.0
  0
LINE
  8
OpenJsCad
 10
-12.9452391856311
 20
13.7961256173997
 30
0.0
 11
-13.1952858380314
 21
14.2315277185372
 31
0.0
  0
LINE
  8
OpenJsCad
 10
-13.1952858380314
 20
14.2315277185372
 30
0.0
 11
-13.3343966030081
 21
14.4904014122435
 31
0.0
  0
LINE
  8
OpenJsCad
 10
-13.3343966030081
 20
14.4904014122435
 30
0.0
 11
-13.4201152805004
 21
14.6652338036717
 31
0.0
  0
LINE
  8
OpenJsCad
 10
-13.4201152805004
 20
14.6652338036717
 30
0.0
 11
-13.4414402927324
 21
14.7093538411464
 31
0.0
  0
LINE
  8
OpenJsCad
 10
-13.4414402927324
 20
14.7093538411464
 30
0.0
 11
-13.5723046627424
 21
15.0070224503783
 31
0.0
  0
LINE
  8
OpenJsCad
 10
-13.5723046627424
 20
15.0070224503783
 30
0.0
 11
-13.6396479878725
 21
15.1909984509602
 31
0.0
  0
LINE
  8
OpenJsCad
 10
-13.6396479878725
 20
15.1909984509602
 30
0.0
 11
-13.8427040319317
 21
15.8096507921843
 31
0.0
  0
LINE
  8
OpenJsCad
 10
-13.8427040319317
 20
15.8096507921843
 30
0.0
 11
-13.8542458196234
 21
15.9921730469087
 31
0.0
  0
LINE
  8
OpenJsCad
 10
-13.8542458196234
 20
15.9921730469087
 30
0.0
 11
-13.8304173545372
 21
16.0212081156256
 31
0.0
  0
LINE
  8
OpenJsCad
 10
-13.8304173545372
 20
16.0212081156256
 30
0.0
 11
-13.7239783773698
 21
16.2122236461032
 31
0.0
  0
LINE
  8
OpenJsCad
 10
-13.7239783773698
 20
16.2122236461032
 30
0.0
 11
-13.2232949537198
 21
16.6231239128123
 31
0.0
  0
LINE
  8
OpenJsCad
 10
-13.2232949537198
 20
16.6231239128123
 30
0.0
 11
-13.0151845187677
 21
16.6902524135273
 31
0.0
  0
LINE
  8
OpenJsCad
 10
-13.0151845187677
 20
16.6902524135273
 30
0.0
 11
-12.9820586478278
 21
16.7079585604327
 31
0.0
  0
LINE
  8
OpenJsCad
 10
-12.9820586478278
 20
16.7079585604327
 30
0.0
 11
-12.8052951981261
 21
16.6610302195069
 31
0.0
  0
LINE
  8
OpenJsCad
 10
-12.8052951981261
 20
16.6610302195069
 30
0.0
 11
-12.2381443571894
 21
16.3411827559312
 31
0.0
  0
LINE
  8
OpenJsCad
 10
-12.2381443571894
 20
16.3411827559312
 30
0.0
 11
-12.0708414348564
 21
16.2392414767134
 31
0.0
  0
LINE
  8
OpenJsCad
 10
-12.0708414348564
 20
16.2392414767134
 30
0.0
 11
-11.8044228165694
 21
16.0528193640492
 31
0.0
  0
LINE
  8
OpenJsCad
 10
-11.8044228165694
 20
16.0528193640492
 30
0.0
 11
-11.7653108367467
 21
16.0232967136294
 31
0.0
  0
LINE
  8
OpenJsCad
 10
-11.7653108367467
 20
16.0232967136294
 30
0.0
 11
-11.610560685091
 21
15.9051169889468
 31
0.0
  0
LINE
  8
OpenJsCad
 10
-11.610560685091
 20
15.9051169889468
 30
0.0
 11
-11.3838003407555
 21
15.7181754460453
 31
0.0
  0
LINE
  8
OpenJsCad
 10
-11.3838003407555
 20
15.7181754460453
 30
0.0
 11
-11.005546050839
 21
15.3879906338395
 31
0.0
  0
LINE
  8
OpenJsCad
 10
-11.005546050839
 20
15.3879906338395
 30
0.0
 11
-10.9227829631382
 21
15.3598489462787
 31
0.0
  0
LINE
  8
OpenJsCad
 10
-10.9227829631382
 20
15.3598489462787
 30
0.0
 11
-10.86323911547
 21
15.3519787417069
 31
0.0
  0
LINE
  8
OpenJsCad
 10
-10.86323911547
 20
15.3519787417069
 30
0.0
 11
-10.0261973117006
 21
15.9112721940311
 31
0.0
  0
LINE
  8
OpenJsCad
 10
-10.0261973117006
 20
15.9112721940311
 30
0.0
 11
-10.0106819886192
 21
15.9692953330776
 31
0.0
  0
LINE
  8
OpenJsCad
 10
-10.0106819886192
 20
15.9692953330776
 30
0.0
 11
-10.0050094552926
 21
16.0565278134401
 31
0.0
  0
LINE
  8
OpenJsCad
 10
-10.0050094552926
 20
16.0565278134401
 30
0.0
 11
-10.1653087952635
 21
16.5323454672283
 31
0.0
  0
LINE
  8
OpenJsCad
 10
-10.1653087952635
 20
16.5323454672283
 30
0.0
 11
-10.2512428336316
 21
16.8133841394343
 31
0.0
  0
LINE
  8
OpenJsCad
 10
-10.2512428336316
 20
16.8133841394343
 30
0.0
 11
-10.3012063432292
 21
17.0015800598794
 31
0.0
  0
LINE
  8
OpenJsCad
 10
-10.3012063432292
 20
17.0015800598794
 30
0.0
 11
-10.3135142090123
 21
17.0490126467088
 31
0.0
  0
LINE
  8
OpenJsCad
 10
-10.3135142090123
 20
17.0490126467088
 30
0.0
 11
-10.3837917920183
 21
17.3664920091672
 31
0.0
  0
LINE
  8
OpenJsCad
 10
-10.3837917920183
 20
17.3664920091672
 30
0.0
 11
-10.4139491968425
 21
17.5600709934708
 31
0.0
  0
LINE
  8
OpenJsCad
 10
-10.4139491968425
 20
17.5600709934708
 30
0.0
 11
-10.4924104914873
 21
18.2064503724532
 31
0.0
  0
LINE
  8
OpenJsCad
 10
-10.4924104914873
 20
18.2064503724532
 30
0.0
 11
-10.4681221815155
 21
18.3877172043102
 31
0.0
  0
LINE
  8
OpenJsCad
 10
-10.4681221815155
 20
18.3877172043102
 30
0.0
 11
-10.4390871127987
 21
18.4115456693964
 31
0.0
  0
LINE
  8
OpenJsCad
 10
-10.4390871127987
 20
18.4115456693964
 30
0.0
 11
-10.2974280493807
 21
18.5781256756867
 31
0.0
  0
LINE
  8
OpenJsCad
 10
-10.2974280493807
 20
18.5781256756867
 30
0.0
 11
-9.7262024519742
 21
18.8834521186407
 31
0.0
  0
LINE
  8
OpenJsCad
 10
-9.7262024519742
 20
18.8834521186407
 30
0.0
 11
-9.508994679854
 21
18.9086904322681
 31
0.0
  0
LINE
  8
OpenJsCad
 10
-9.508994679854
 20
18.9086904322681
 30
0.0
 11
-9.4730510153342
 21
18.9195938236969
 31
0.0
  0
LINE
  8
OpenJsCad
 10
-9.4730510153342
 20
18.9195938236969
 30
0.0
 11
-9.3088392908963
 21
18.8390823593597
 31
0.0
  0
LINE
  8
OpenJsCad
 10
-9.3088392908963
 20
18.8390823593597
 30
0.0
 11
-8.8149852390022
 21
18.4147350349204
 31
0.0
  0
LINE
  8
OpenJsCad
 10
-8.8149852390022
 20
18.4147350349204
 30
0.0
 11
-8.6707847523989
 21
18.2821133478059
 31
0.0
  0
LINE
  8
OpenJsCad
 10
-8.6707847523989
 20
18.2821133478059
 30
0.0
 11
-8.4458544431482
 21
18.0472975897305
 31
0.0
  0
LINE
  8
OpenJsCad
 10
-8.4458544431482
 20
18.0472975897305
 30
0.0
 11
-8.4132535724278
 21
18.0107118400219
 31
0.0
  0
LINE
  8
OpenJsCad
 10
-8.4132535724278
 20
18.0107118400219
 30
0.0
 11
-8.2845326220879
 21
17.8646126486925
 31
0.0
  0
LINE
  8
OpenJsCad
 10
-8.2845326220879
 20
17.8646126486925
 30
0.0
 11
-8.0985998999873
 21
17.637024386522
 31
0.0
  0
LINE
  8
OpenJsCad
 10
-8.0985998999873
 20
17.637024386522
 30
0.0
 11
-7.7920295215259
 21
17.2393902316741
 31
0.0
  0
LINE
  8
OpenJsCad
 10
-7.7920295215259
 20
17.2393902316741
 30
0.0
 11
-7.7163468742366
 21
17.1956430013181
 31
0.0
  0
LINE
  8
OpenJsCad
 10
-7.7163468742366
 20
17.1956430013181
 30
0.0
 11
-7.6594825456493
 21
17.1763075921046
 31
0.0
  0
LINE
  8
OpenJsCad
 10
-7.6594825456493
 20
17.1763075921046
 30
0.0
 11
-6.7294115257146
 21
17.5615556225318
 31
0.0
  0
LINE
  8
OpenJsCad
 10
-6.7294115257146
 20
17.5615556225318
 30
0.0
 11
-6.7028745723347
 21
17.6154369738553
 31
0.0
  0
LINE
  8
OpenJsCad
 10
-6.7028745723347
 20
17.6154369738553
 30
0.0
 11
-6.6802928224612
 21
17.6998866502146
 31
0.0
  0
LINE
  8
OpenJsCad
 10
-6.6802928224612
 20
17.6998866502146
 30
0.0
 11
-6.7446846362645
 21
18.1978344510599
 31
0.0
  0
LINE
  8
OpenJsCad
 10
-6.7446846362645
 20
18.1978344510599
 30
0.0
 11
-6.7741395511219
 21
18.490237943201
 31
0.0
  0
LINE
  8
OpenJsCad
 10
-6.7741395511219
 20
18.490237943201
 30
0.0
 11
-6.7864278231707
 21
18.684565128982
 31
0.0
  0
LINE
  8
OpenJsCad
 10
-6.7864278231707
 20
18.684565128982
 30
0.0
 11
-6.7892455581254
 21
18.7334874574547
 31
0.0
  0
LINE
  8
OpenJsCad
 10
-6.7892455581254
 20
18.7334874574547
 30
0.0
 11
-6.7962356260245
 21
19.0585770192848
 31
0.0
  0
LINE
  8
OpenJsCad
 10
-6.7962356260245
 20
19.0585770192848
 30
0.0
 11
-6.7880481783879
 21
19.2543198555035
 31
0.0
  0
LINE
  8
OpenJsCad
 10
-6.7880481783879
 20
19.2543198555035
 30
0.0
 11
-6.7388995000666
 21
19.9035862752036
 31
0.0
  0
LINE
  8
OpenJsCad
 10
-6.7388995000666
 20
19.9035862752036
 30
0.0
 11
-6.6797144785626
 21
20.0766317015008
 31
0.0
  0
LINE
  8
OpenJsCad
 10
-6.6797144785626
 20
20.0766317015008
 30
0.0
 11
-6.6465886076228
 21
20.0943378484062
 31
0.0
  0
LINE
  8
OpenJsCad
 10
-6.6465886076228
 20
20.0943378484062
 30
0.0
 11
-6.4751533363181
 21
20.2300807542864
 31
0.0
  0
LINE
  8
OpenJsCad
 10
-6.4751533363181
 20
20.2300807542864
 30
0.0
 11
-5.8553374445163
 21
20.4180998495116
 31
0.0
  0
LINE
  8
OpenJsCad
 10
-5.8553374445163
 20
20.4180998495116
 30
0.0
 11
-5.6373795080989
 21
20.4004780818122
 31
0.0
  0
LINE
  8
OpenJsCad
 10
-5.6373795080989
 20
20.4004780818122
 30
0.0
 11
-5.5999993448693
 21
20.4041597065464
 31
0.0
  0
LINE
  8
OpenJsCad
 10
-5.5999993448693
 20
20.4041597065464
 30
0.0
 11
-5.4546499101744
 21
20.2931591292215
 31
0.0
  0
LINE
  8
OpenJsCad
 10
-5.4546499101744
 20
20.2931591292215
 30
0.0
 11
-5.0530711815808
 21
19.7806193736199
 31
0.0
  0
LINE
  8
OpenJsCad
 10
-5.0530711815808
 20
19.7806193736199
 30
0.0
 11
-4.9375146745388
 21
19.6224138556695
 31
0.0
  0
LINE
  8
OpenJsCad
 10
-4.9375146745388
 20
19.6224138556695
 30
0.0
 11
-4.7627166199666
 21
19.3482282900795
 31
0.0
  0
LINE
  8
OpenJsCad
 10
-4.7627166199666
 20
19.3482282900795
 30
0.0
 11
-4.7378796915275
 21
19.305985410926
 31
0.0
  0
LINE
  8
OpenJsCad
 10
-4.7378796915275
 20
19.305985410926
 30
0.0
 11
-4.6401346164374
 21
19.1375812629393
 31
0.0
  0
LINE
  8
OpenJsCad
 10
-4.6401346164374
 20
19.1375812629393
 30
0.0
 11
-4.5021748068097
 21
18.8780923707819
 31
0.0
  0
LINE
  8
OpenJsCad
 10
-4.5021748068097
 20
18.8780923707819
 30
0.0
 11
-4.279069667521
 21
18.4282897308668
 31
0.0
  0
LINE
  8
OpenJsCad
 10
-4.279069667521
 20
18.4282897308668
 30
0.0
 11
-4.2133759023352
 21
18.3706181392446
 31
0.0
  0
LINE
  8
OpenJsCad
 10
-4.2133759023352
 20
18.3706181392446
 30
0.0
 11
-4.1613763570865
 21
18.3405605743221
 31
0.0
  0
LINE
  8
OpenJsCad
 10
-4.1613763570865
 20
18.3405605743221
 30
0.0
 11
-3.1740182286928
 21
18.5369583170925
 31
0.0
  0
LINE
  8
OpenJsCad
 10
-3.1740182286928
 20
18.5369583170925
 30
0.0
 11
-3.1374794452508
 21
18.5846272505786
 31
0.0
  0
LINE
  8
OpenJsCad
 10
-3.1374794452508
 20
18.5846272505786
 30
0.0
 11
-3.0988562828139
 21
18.6630487692321
 31
0.0
  0
LINE
  8
OpenJsCad
 10
-3.0988562828139
 20
18.6630487692321
 30
0.0
 11
-3.0648660291566
 21
19.1639908624004
 31
0.0
  0
LINE
  8
OpenJsCad
 10
-3.0648660291566
 20
19.1639908624004
 30
0.0
 11
-3.0367098846438
 21
19.4565222722554
 31
0.0
  0
LINE
  8
OpenJsCad
 10
-3.0367098846438
 20
19.4565222722554
 30
0.0
 11
-3.0108506877403
 21
19.6495128386026
 31
0.0
  0
LINE
  8
OpenJsCad
 10
-3.0108506877403
 20
19.6495128386026
 30
0.0
 11
-3.0040700078925
 21
19.6980448510713
 31
0.0
  0
LINE
  8
OpenJsCad
 10
-3.0040700078925
 20
19.6980448510713
 30
0.0
 11
-2.9475039362954
 21
20.0182516027244
 31
0.0
  0
LINE
  8
OpenJsCad
 10
-2.9475039362954
 20
20.0182516027244
 30
0.0
 11
-2.9012862752191
 21
20.2086360034362
 31
0.0
  0
LINE
  8
OpenJsCad
 10
-2.9012862752191
 20
20.2086360034362
 30
0.0
 11
-2.7264163800768
 21
20.8358385194578
 31
0.0
  0
LINE
  8
OpenJsCad
 10
-2.7264163800768
 20
20.8358385194578
 30
0.0
 11
-2.6346090942256
 21
20.9940125015074
 31
0.0
  0
LINE
  8
OpenJsCad
 10
-2.6346090942256
 20
20.9940125015074
 30
0.0
 11
-2.5986654297058
 21
21.0049158929362
 31
0.0
  0
LINE
  8
OpenJsCad
 10
-2.5986654297058
 20
21.0049158929362
 30
0.0
 11
-2.4040421118487
 21
21.1046051746589
 31
0.0
  0
LINE
  8
OpenJsCad
 10
-2.4040421118487
 20
21.1046051746589
 30
0.0
 11
-1.7594551027768
 21
21.1680914537682
 31
0.0
  0
LINE
  8
OpenJsCad
 10
-1.7594551027768
 20
21.1680914537682
 30
0.0
 11
-1.5491230033265
 21
21.1082867993919
 31
0.0
  0
LINE
  8
OpenJsCad
 10
-1.5491230033265
 20
21.1082867993919
 30
0.0
 11
-1.5117428400969
 21
21.1046051746577
 31
0.0
  0
LINE
  8
OpenJsCad
 10
-1.5117428400969
 20
21.1046051746577
 30
0.0
 11
-1.3908413924075
 21
20.9673811742821
 31
0.0
  0
LINE
  8
OpenJsCad
 10
-1.3908413924075
 20
20.9673811742821
 30
0.0
 11
-1.0969704324462
 21
20.3863456028904
 31
0.0
  0
LINE
  8
OpenJsCad
 10
-1.0969704324462
 20
20.3863456028904
 30
0.0
 11
-1.0144986767263
 21
20.2086360034361
 31
0.0
  0
LINE
  8
OpenJsCad
 10
-1.0144986767263
 20
20.2086360034361
 30
0.0
 11
-0.8965502680419
 21
19.9056174278521
 31
0.0
  0
LINE
  8
OpenJsCad
 10
-0.8965502680419
 20
19.9056174278521
 30
0.0
 11
-0.8804317511154
 21
19.8593407894095
 31
0.0
  0
LINE
  8
OpenJsCad
 10
-0.8804317511154
 20
19.8593407894095
 30
0.0
 11
-0.8174188396946
 21
19.6751033617304
 31
0.0
  0
LINE
  8
OpenJsCad
 10
-0.8174188396946
 20
19.6751033617304
 30
0.0
 11
-0.7327336606552
 21
19.3936858521888
 31
0.0
  0
LINE
  8
OpenJsCad
 10
-0.7327336606552
 20
19.3936858521888
 30
0.0
 11
-0.6016675659232
 21
18.9090003904063
 31
0.0
  0
LINE
  8
OpenJsCad
 10
-0.6016675659232
 20
18.9090003904063
 30
0.0
 11
-0.5484872573955
 21
18.8396207244412
 31
0.0
  0
LINE
  8
OpenJsCad
 10
-0.5484872573955
 20
18.8396207244412
 30
0.0
 11
-0.5033508088477
 21
18.7999960991733
 31
0.0
  0
LINE
  8
OpenJsCad
 10
-0.5033508088477
 20
18.7999960991733
 30
0.0
 11
0.5033508088477
 21
18.7999960991733
 31
0.0
  0
LINE
  8
OpenJsCad
 10
0.5033508088477
 20
18.7999960991733
 30
0.0
 11
0.5484872573955
 21
18.8396207244412
 31
0.0
  0
LINE
  8
OpenJsCad
 10
0.5484872573955
 20
18.8396207244412
 30
0.0
 11
0.6016675659232
 21
18.9090003904063
 31
0.0
  0
LINE
  8
OpenJsCad
 10
0.6016675659232
 20
18.9090003904063
 30
0.0
 11
0.7327336606552
 21
19.3936858521888
 31
0.0
  0
LINE
  8
OpenJsCad
 10
0.7327336606552
 20
19.3936858521888
 30
0.0
 11
0.8174188396946
 21
19.6751033617304
 31
0.0
  0
LINE
  8
OpenJsCad
 10
0.8174188396946
 20
19.6751033617304
 30
0.0
 11
0.8804317511154
 21
19.8593407894095
 31
0.0
  0
LINE
  8
OpenJsCad
 10
0.8804317511154
 20
19.8593407894095
 30
0.0
 11
0.8965502680419
 21
19.9056174278521
 31
0.0
  0
LINE
  8
OpenJsCad
 10
0.8965502680419
 20
19.9056174278521
 30
0.0
 11
1.0144986767263
 21
20.2086360034361
 31
0.0
  0
LINE
  8
OpenJsCad
 10
1.0144986767263
 20
20.2086360034361
 30
0.0
 11
1.0969704324462
 21
20.3863456028904
 31
0.0
  0
LINE
  8
OpenJsCad
 10
1.0969704324462
 20
20.3863456028904
 30
0.0
 11
1.3908413924075
 21
20.9673811742821
 31
0.0
  0
LINE
  8
OpenJsCad
 10
1.3908413924075
 20
20.9673811742821
 30
0.0
 11
1.5117428400968
 21
21.1046051746589
 31
0.0
  0
LINE
  8
OpenJsCad
 10
1.5117428400968
 20
21.1046051746589
 30
0.0
 11
1.5491230033264
 21
21.1082867993931
 31
0.0
  0
LINE
  8
OpenJsCad
 10
1.5491230033264
 20
21.1082867993931
 30
0.0
 11
1.7594551027768
 21
21.1680914537682
 31
0.0
  0
LINE
  8
OpenJsCad
 10
1.7594551027768
 20
21.1680914537682
 30
0.0
 11
2.4040421118487
 21
21.1046051746589
 31
0.0
  0
LINE
  8
OpenJsCad
 10
2.4040421118487
 20
21.1046051746589
 30
0.0
 11
2.5986654297052
 21
21.0049158929341
 31
0.0
  0
LINE
  8
OpenJsCad
 10
2.5986654297052
 20
21.0049158929341
 30
0.0
 11
2.634609094225
 21
20.9940125015053
 31
0.0
  0
LINE
  8
OpenJsCad
 10
2.634609094225
 20
20.9940125015053
 30
0.0
 11
2.7264163800768
 21
20.8358385194578
 31
0.0
  0
LINE
  8
OpenJsCad
 10
2.7264163800768
 20
20.8358385194578
 30
0.0
 11
2.9012862752192
 21
20.2086360034361
 31
0.0
  0
LINE
  8
OpenJsCad
 10
2.9012862752192
 20
20.2086360034361
 30
0.0
 11
2.9475039362954
 21
20.0182516027244
 31
0.0
  0
LINE
  8
OpenJsCad
 10
2.9475039362954
 20
20.0182516027244
 30
0.0
 11
3.0040700078925
 21
19.6980448510713
 31
0.0
  0
LINE
  8
OpenJsCad
 10
3.0040700078925
 20
19.6980448510713
 30
0.0
 11
3.0108506877403
 21
19.6495128386026
 31
0.0
  0
LINE
  8
OpenJsCad
 10
3.0108506877403
 20
19.6495128386026
 30
0.0
 11
3.0367098846438
 21
19.4565222722554
 31
0.0
  0
LINE
  8
OpenJsCad
 10
3.0367098846438
 20
19.4565222722554
 30
0.0
 11
3.0648660291566
 21
19.1639908624004
 31
0.0
  0
LINE
  8
OpenJsCad
 10
3.0648660291566
 20
19.1639908624004
 30
0.0
 11
3.0988562828139
 21
18.6630487692321
 31
0.0
  0
LINE
  8
OpenJsCad
 10
3.0988562828139
 20
18.6630487692321
 30
0.0
 11
3.1374794452508
 21
18.5846272505786
 31
0.0
  0
LINE
  8
OpenJsCad
 10
3.1374794452508
 20
18.5846272505786
 30
0.0
 11
3.1740182286928
 21
18.5369583170925
 31
0.0
  0
LINE
  8
OpenJsCad
 10
3.1740182286928
 20
18.5369583170925
 30
0.0
 11
4.1613763570865
 21
18.3405605743221
 31
0.0
  0
LINE
  8
OpenJsCad
 10
4.1613763570865
 20
18.3405605743221
 30
0.0
 11
4.2133759023352
 21
18.3706181392446
 31
0.0
  0
LINE
  8
OpenJsCad
 10
4.2133759023352
 20
18.3706181392446
 30
0.0
 11
4.279069667521
 21
18.4282897308668
 31
0.0
  0
LINE
  8
OpenJsCad
 10
4.279069667521
 20
18.4282897308668
 30
0.0
 11
4.5021748068097
 21
18.8780923707819
 31
0.0
  0
LINE
  8
OpenJsCad
 10
4.5021748068097
 20
18.8780923707819
 30
0.0
 11
4.6401346164374
 21
19.1375812629393
 31
0.0
  0
LINE
  8
OpenJsCad
 10
4.6401346164374
 20
19.1375812629393
 30
0.0
 11
4.7378796915275
 21
19.305985410926
 31
0.0
  0
LINE
  8
OpenJsCad
 10
4.7378796915275
 20
19.305985410926
 30
0.0
 11
4.7627166199666
 21
19.3482282900795
 31
0.0
  0
LINE
  8
OpenJsCad
 10
4.7627166199666
 20
19.3482282900795
 30
0.0
 11
4.9375146745388
 21
19.6224138556695
 31
0.0
  0
LINE
  8
OpenJsCad
 10
4.9375146745388
 20
19.6224138556695
 30
0.0
 11
5.0530711815808
 21
19.7806193736199
 31
0.0
  0
LINE
  8
OpenJsCad
 10
5.0530711815808
 20
19.7806193736199
 30
0.0
 11
5.4546499101745
 21
20.2931591292215
 31
0.0
  0
LINE
  8
OpenJsCad
 10
5.4546499101745
 20
20.2931591292215
 30
0.0
 11
5.5999993448694
 21
20.4041597065473
 31
0.0
  0
LINE
  8
OpenJsCad
 10
5.5999993448694
 20
20.4041597065473
 30
0.0
 11
5.637379508099
 21
20.4004780818131
 31
0.0
  0
LINE
  8
OpenJsCad
 10
5.637379508099
 20
20.4004780818131
 30
0.0
 11
5.8553374445163
 21
20.4180998495116
 31
0.0
  0
LINE
  8
OpenJsCad
 10
5.8553374445163
 20
20.4180998495116
 30
0.0
 11
6.4751533363181
 21
20.2300807542864
 31
0.0
  0
LINE
  8
OpenJsCad
 10
6.4751533363181
 20
20.2300807542864
 30
0.0
 11
6.6465886076227
 21
20.094337848406
 31
0.0
  0
LINE
  8
OpenJsCad
 10
6.6465886076227
 20
20.094337848406
 30
0.0
 11
6.6797144785625
 21
20.0766317015006
 31
0.0
  0
LINE
  8
OpenJsCad
 10
6.6797144785625
 20
20.0766317015006
 30
0.0
 11
6.7388995000666
 21
19.9035862752036
 31
0.0
  0
LINE
  8
OpenJsCad
 10
6.7388995000666
 20
19.9035862752036
 30
0.0
 11
6.7880481783879
 21
19.2543198555035
 31
0.0
  0
LINE
  8
OpenJsCad
 10
6.7880481783879
 20
19.2543198555035
 30
0.0
 11
6.7962356260244
 21
19.0585770192848
 31
0.0
  0
LINE
  8
OpenJsCad
 10
6.7962356260244
 20
19.0585770192848
 30
0.0
 11
6.7892455581254
 21
18.7334874574547
 31
0.0
  0
LINE
  8
OpenJsCad
 10
6.7892455581254
 20
18.7334874574547
 30
0.0
 11
6.7864278231707
 21
18.684565128982
 31
0.0
  0
LINE
  8
OpenJsCad
 10
6.7864278231707
 20
18.684565128982
 30
0.0
 11
6.7741395511219
 21
18.490237943201
 31
0.0
  0
LINE
  8
OpenJsCad
 10
6.7741395511219
 20
18.490237943201
 30
0.0
 11
6.7446846362645
 21
18.1978344510599
 31
0.0
  0
LINE
  8
OpenJsCad
 10
6.7446846362645
 20
18.1978344510599
 30
0.0
 11
6.6802928224612
 21
17.6998866502146
 31
0.0
  0
LINE
  8
OpenJsCad
 10
6.6802928224612
 20
17.6998866502146
 30
0.0
 11
6.7028745723347
 21
17.6154369738553
 31
0.0
  0
LINE
  8
OpenJsCad
 10
6.7028745723347
 20
17.6154369738553
 30
0.0
 11
6.7294115257146
 21
17.5615556225318
 31
0.0
  0
LINE
  8
OpenJsCad
 10
6.7294115257146
 20
17.5615556225318
 30
0.0
 11
7.6594825456493
 21
17.1763075921046
 31
0.0
  0
LINE
  8
OpenJsCad
 10
7.6594825456493
 20
17.1763075921046
 30
0.0
 11
7.7163468742366
 21
17.1956430013181
 31
0.0
  0
LINE
  8
OpenJsCad
 10
7.7163468742366
 20
17.1956430013181
 30
0.0
 11
7.7920295215259
 21
17.2393902316741
 31
0.0
  0
LINE
  8
OpenJsCad
 10
7.7920295215259
 20
17.2393902316741
 30
0.0
 11
8.0985998999873
 21
17.637024386522
 31
0.0
  0
LINE
  8
OpenJsCad
 10
8.0985998999873
 20
17.637024386522
 30
0.0
 11
8.2845326220879
 21
17.8646126486925
 31
0.0
  0
LINE
  8
OpenJsCad
 10
8.2845326220879
 20
17.8646126486925
 30
0.0
 11
8.4132535724278
 21
18.0107118400219
 31
0.0
  0
LINE
  8
OpenJsCad
 10
8.4132535724278
 20
18.0107118400219
 30
0.0
 11
8.4458544431482
 21
18.0472975897305
 31
0.0
  0
LINE
  8
OpenJsCad
 10
8.4458544431482
 20
18.0472975897305
 30
0.0
 11
8.6707847523989
 21
18.2821133478059
 31
0.0
  0
LINE
  8
OpenJsCad
 10
8.6707847523989
 20
18.2821133478059
 30
0.0
 11
8.8149852390022
 21
18.4147350349204
 31
0.0
  0
LINE
  8
OpenJsCad
 10
8.8149852390022
 20
18.4147350349204
 30
0.0
 11
9.3088392908963
 21
18.8390823593597
 31
0.0
  0
LINE
  8
OpenJsCad
 10
9.3088392908963
 20
18.8390823593597
 30
0.0
 11
9.4730510153344
 21
18.9195938236976
 31
0.0
  0
LINE
  8
OpenJsCad
 10
9.4730510153344
 20
18.9195938236976
 30
0.0
 11
9.5089946798542
 21
18.9086904322688
 31
0.0
  0
LINE
  8
OpenJsCad
 10
9.5089946798542
 20
18.9086904322688
 30
0.0
 11
9.7262024519741
 21
18.8834521186407
 31
0.0
  0
LINE
  8
OpenJsCad
 10
9.7262024519741
 20
18.8834521186407
 30
0.0
 11
10.2974280493807
 21
18.5781256756867
 31
0.0
  0
LINE
  8
OpenJsCad
 10
10.2974280493807
 20
18.5781256756867
 30
0.0
 11
10.439087112798
 21
18.4115456693956
 31
0.0
  0
LINE
  8
OpenJsCad
 10
10.439087112798
 20
18.4115456693956
 30
0.0
 11
10.4681221815149
 21
18.3877172043094
 31
0.0
  0
LINE
  8
OpenJsCad
 10
10.4681221815149
 20
18.3877172043094
 30
0.0
 11
10.4924104914873
 21
18.2064503724532
 31
0.0
  0
LINE
  8
OpenJsCad
 10
10.4924104914873
 20
18.2064503724532
 30
0.0
 11
10.4139491968425
 21
17.5600709934708
 31
0.0
  0
LINE
  8
OpenJsCad
 10
10.4139491968425
 20
17.5600709934708
 30
0.0
 11
10.3837917920183
 21
17.3664920091672
 31
0.0
  0
LINE
  8
OpenJsCad
 10
10.3837917920183
 20
17.3664920091672
 30
0.0
 11
10.3135142090123
 21
17.0490126467088
 31
0.0
  0
LINE
  8
OpenJsCad
 10
10.3135142090123
 20
17.0490126467088
 30
0.0
 11
10.3012063432292
 21
17.0015800598794
 31
0.0
  0
LINE
  8
OpenJsCad
 10
10.3012063432292
 20
17.0015800598794
 30
0.0
 11
10.2512428336316
 21
16.8133841394343
 31
0.0
  0
LINE
  8
OpenJsCad
 10
10.2512428336316
 20
16.8133841394343
 30
0.0
 11
10.1653087952635
 21
16.5323454672283
 31
0.0
  0
LINE
  8
OpenJsCad
 10
10.1653087952635
 20
16.5323454672283
 30
0.0
 11
10.0050094552926
 21
16.0565278134401
 31
0.0
  0
LINE
  8
OpenJsCad
 10
10.0050094552926
 20
16.0565278134401
 30
0.0
 11
10.0106819886192
 21
15.9692953330776
 31
0.0
  0
LINE
  8
OpenJsCad
 10
10.0106819886192
 20
15.9692953330776
 30
0.0
 11
10.0261973117006
 21
15.9112721940311
 31
0.0
  0
LINE
  8
OpenJsCad
 10
10.0261973117006
 20
15.9112721940311
 30
0.0
 11
10.86323911547
 21
15.3519787417069
 31
0.0
  0
LINE
  8
OpenJsCad
 10
10.86323911547
 20
15.3519787417069
 30
0.0
 11
10.9227829631382
 21
15.3598489462787
 31
0.0
  0
LINE
  8
OpenJsCad
 10
10.9227829631382
 20
15.3598489462787
 30
0.0
 11
11.005546050839
 21
15.3879906338395
 31
0.0
  0
LINE
  8
OpenJsCad
 10
11.005546050839
 20
15.3879906338395
 30
0.0
 11
11.3838003407555
 21
15.7181754460453
 31
0.0
  0
LINE
  8
OpenJsCad
 10
11.3838003407555
 20
15.7181754460453
 30
0.0
 11
11.610560685091
 21
15.9051169889468
 31
0.0
  0
LINE
  8
OpenJsCad
 10
11.610560685091
 20
15.9051169889468
 30
0.0
 11
11.7653108367467
 21
16.0232967136294
 31
0.0
  0
LINE
  8
OpenJsCad
 10
11.7653108367467
 20
16.0232967136294
 30
0.0
 11
11.8044228165694
 21
16.0528193640492
 31
0.0
  0
LINE
  8
OpenJsCad
 10
11.8044228165694
 20
16.0528193640492
 30
0.0
 11
12.0708414348564
 21
16.2392414767134
 31
0.0
  0
LINE
  8
OpenJsCad
 10
12.0708414348564
 20
16.2392414767134
 30
0.0
 11
12.2381443571894
 21
16.3411827559312
 31
0.0
  0
LINE
  8
OpenJsCad
 10
12.2381443571894
 20
16.3411827559312
 30
0.0
 11
12.8052951981261
 21
16.6610302195069
 31
0.0
  0
LINE
  8
OpenJsCad
 10
12.8052951981261
 20
16.6610302195069
 30
0.0
 11
12.9820586478284
 21
16.7079585604337
 31
0.0
  0
LINE
  8
OpenJsCad
 10
12.9820586478284
 20
16.7079585604337
 30
0.0
 11
13.0151845187682
 21
16.6902524135283
 31
0.0
  0
LINE
  8
OpenJsCad
 10
13.0151845187682
 20
16.6902524135283
 30
0.0
 11
13.2232949537198
 21
16.6231239128122
 31
0.0
  0
LINE
  8
OpenJsCad
 10
13.2232949537198
 20
16.6231239128122
 30
0.0
 11
13.7239783773698
 21
16.2122236461032
 31
0.0
  0
LINE
  8
OpenJsCad
 10
13.7239783773698
 20
16.2122236461032
 30
0.0
 11
13.8304173545368
 21
16.0212081156253
 31
0.0
  0
LINE
  8
OpenJsCad
 10
13.8304173545368
 20
16.0212081156253
 30
0.0
 11
13.854245819623
 21
15.9921730469084
 31
0.0
  0
LINE
  8
OpenJsCad
 10
13.854245819623
 20
15.9921730469084
 30
0.0
 11
13.8427040319317
 21
15.8096507921843
 31
0.0
  0
LINE
  8
OpenJsCad
 10
13.8427040319317
 20
15.8096507921843
 30
0.0
 11
13.6396479878725
 21
15.1909984509602
 31
0.0
  0
LINE
  8
OpenJsCad
 10
13.6396479878725
 20
15.1909984509602
 30
0.0
 11
13.5723046627424
 21
15.0070224503783
 31
0.0
  0
LINE
  8
OpenJsCad
 10
13.5723046627424
 20
15.0070224503783
 30
0.0
 11
13.4414402927323
 21
14.7093538411464
 31
0.0
  0
LINE
  8
OpenJsCad
 10
13.4414402927323
 20
14.7093538411464
 30
0.0
 11
13.4201152805004
 21
14.6652338036717
 31
0.0
  0
LINE
  8
OpenJsCad
 10
13.4201152805004
 20
14.6652338036717
 30
0.0
 11
13.3343966030081
 21
14.4904014122435
 31
0.0
  0
LINE
  8
OpenJsCad
 10
13.3343966030081
 20
14.4904014122435
 30
0.0
 11
13.1952858380314
 21
14.2315277185372
 31
0.0
  0
LINE
  8
OpenJsCad
 10
13.1952858380314
 20
14.2315277185372
 30
0.0
 11
12.9452391856311
 21
13.7961256173997
 31
0.0
  0
LINE
  8
OpenJsCad
 10
12.9452391856311
 20
13.7961256173997
 30
0.0
 11
12.9337845101363
 21
13.7094626283338
 31
0.0
  0
LINE
  8
OpenJsCad
 10
12.9337845101363
 20
13.7094626283338
 30
0.0
 11
12.9376819577541
 21
13.649527498258
 31
0.0
  0
LINE
  8
OpenJsCad
 10
12.9376819577541
 20
13.649527498258
 30
0.0
 11
13.649527498258
 21
12.9376819577541
 31
0.0
  0
LINE
  8
OpenJsCad
 10
13.649527498258
 20
12.9376819577541
 30
0.0
 11
13.7094626283338
 21
12.9337845101363
 31
0.0
  0
LINE
  8
OpenJsCad
 10
13.7094626283338
 20
12.9337845101363
 30
0.0
 11
13.7961256173997
 21
12.9452391856311
 31
0.0
  0
LINE
  8
OpenJsCad
 10
13.7961256173997
 20
12.9452391856311
 30
0.0
 11
14.2315277185372
 21
13.1952858380314
 31
0.0
  0
LINE
  8
OpenJsCad
 10
14.2315277185372
 20
13.1952858380314
 30
0.0
 11
14.4904014122435
 21
13.3343966030081
 31
0.0
  0
LINE
  8
OpenJsCad
 10
14.4904014122435
 20
13.3343966030081
 30
0.0
 11
14.6652338036717
 21
13.4201152805004
 31
0.0
  0
LINE
  8
OpenJsCad
 10
14.6652338036717
 20
13.4201152805004
 30
0.0
 11
14.7093538411464
 21
13.4414402927323
 31
0.0
  0
LINE
  8
OpenJsCad
 10
14.7093538411464
 20
13.4414402927323
 30
0.0
 11
15.0070224503783
 21
13.5723046627424
 31
0.0
  0
LINE
  8
OpenJsCad
 10
15.0070224503783
 20
13.5723046627424
 30
0.0
 11
15.1909984509602
 21
13.6396479878725
 31
0.0
  0
LINE
  8
OpenJsCad
 10
15.1909984509602
 20
13.6396479878725
 30
0.0
 11
15.8096507921843
 21
13.8427040319317
 31
0.0
  0
LINE
  8
OpenJsCad
 10
15.8096507921843
 20
13.8427040319317
 30
0.0
 11
15.9921730469087
 21
13.8542458196234
 31
0.0
  0
LINE
  8
OpenJsCad
 10
15.9921730469087
 20
13.8542458196234
 30
0.0
 11
16.0212081156256
 21
13.8304173545372
 31
0.0
  0
LINE
  8
OpenJsCad
 10
16.0212081156256
 20
13.8304173545372
 30
0.0
 11
16.2122236461032
 21
13.7239783773698
 31
0.0
  0
LINE
  8
OpenJsCad
 10
16.2122236461032
 20
13.7239783773698
 30
0.0
 11
16.6231239128123
 21
13.2232949537198
 31
0.0
  0
LINE
  8
OpenJsCad
 10
16.6231239128123
 20
13.2232949537198
 30
0.0
 11
16.6902524135267
 21
13.0151845187674
 31
0.0
  0
LINE
  8
OpenJsCad
 10
16.6902524135267
 20
13.0151845187674
 30
0.0
 11
16.7079585604321
 21
12.9820586478275
 31
0.0
  0
LINE
  8
OpenJsCad
 10
16.7079585604321
 20
12.9820586478275
 30
0.0
 11
16.6610302195069
 21
12.8052951981261
 31
0.0
  0
LINE
  8
OpenJsCad
 10
16.6610302195069
 20
12.8052951981261
 30
0.0
 11
16.3411827559312
 21
12.2381443571894
 31
0.0
  0
LINE
  8
OpenJsCad
 10
16.3411827559312
 20
12.2381443571894
 30
0.0
 11
16.2392414767134
 21
12.0708414348564
 31
0.0
  0
LINE
  8
OpenJsCad
 10
16.2392414767134
 20
12.0708414348564
 30
0.0
 11
16.0528193640492
 21
11.8044228165694
 31
0.0
  0
LINE
  8
OpenJsCad
 10
16.0528193640492
 20
11.8044228165694
 30
0.0
 11
16.0232967136294
 21
11.7653108367467
 31
0.0
  0
LINE
  8
OpenJsCad
 10
16.0232967136294
 20
11.7653108367467
 30
0.0
 11
15.9051169889468
 21
11.610560685091
 31
0.0
  0
LINE
  8
OpenJsCad
 10
15.9051169889468
 20
11.610560685091
 30
0.0
 11
15.7181754460453
 21
11.3838003407555
 31
0.0
  0
LINE
  8
OpenJsCad
 10
15.7181754460453
 20
11.3838003407555
 30
0.0
 11
15.3879906338395
 21
11.005546050839
 31
0.0
  0
LINE
  8
OpenJsCad
 10
15.3879906338395
 20
11.005546050839
 30
0.0
 11
15.3598489462787
 21
10.9227829631382
 31
0.0
  0
LINE
  8
OpenJsCad
 10
15.3598489462787
 20
10.9227829631382
 30
0.0
 11
15.3519787417069
 21
10.86323911547
 31
0.0
  0
LINE
  8
OpenJsCad
 10
15.3519787417069
 20
10.86323911547
 30
0.0
 11
15.911272194031
 21
10.0261973117006
 31
0.0
  0
LINE
  8
OpenJsCad
 10
15.911272194031
 20
10.0261973117006
 30
0.0
 11
15.9692953330776
 21
10.0106819886192
 31
0.0
  0
LINE
  8
OpenJsCad
 10
15.9692953330776
 20
10.0106819886192
 30
0.0
 11
16.0565278134401
 21
10.0050094552926
 31
0.0
  0
LINE
  8
OpenJsCad
 10
16.0565278134401
 20
10.0050094552926
 30
0.0
 11
16.5323454672283
 21
10.1653087952635
 31
0.0
  0
LINE
  8
OpenJsCad
 10
16.5323454672283
 20
10.1653087952635
 30
0.0
 11
16.8133841394343
 21
10.2512428336317
 31
0.0
  0
LINE
  8
OpenJsCad
 10
16.8133841394343
 20
10.2512428336317
 30
0.0
 11
17.0015800598794
 21
10.3012063432292
 31
0.0
  0
LINE
  8
OpenJsCad
 10
17.0015800598794
 20
10.3012063432292
 30
0.0
 11
17.0490126467088
 21
10.3135142090123
 31
0.0
  0
LINE
  8
OpenJsCad
 10
17.0490126467088
 20
10.3135142090123
 30
0.0
 11
17.3664920091672
 21
10.3837917920183
 31
0.0
  0
LINE
  8
OpenJsCad
 10
17.3664920091672
 20
10.3837917920183
 30
0.0
 11
17.5600709934708
 21
10.4139491968426
 31
0.0
  0
LINE
  8
OpenJsCad
 10
17.5600709934708
 20
10.4139491968426
 30
0.0
 11
18.2064503724532
 21
10.4924104914873
 31
0.0
  0
LINE
  8
OpenJsCad
 10
18.2064503724532
 20
10.4924104914873
 30
0.0
 11
18.3877172043102
 21
10.4681221815156
 31
0.0
  0
LINE
  8
OpenJsCad
 10
18.3877172043102
 20
10.4681221815156
 30
0.0
 11
18.4115456693964
 21
10.4390871127987
 31
0.0
  0
LINE
  8
OpenJsCad
 10
18.4115456693964
 20
10.4390871127987
 30
0.0
 11
18.5781256756867
 21
10.2974280493807
 31
0.0
  0
LINE
  8
OpenJsCad
 10
18.5781256756867
 20
10.2974280493807
 30
0.0
 11
18.8834521186407
 21
9.7262024519742
 31
0.0
  0
LINE
  8
OpenJsCad
 10
18.8834521186407
 20
9.7262024519742
 30
0.0
 11
18.9086904322674
 21
9.5089946798538
 31
0.0
  0
LINE
  8
OpenJsCad
 10
18.9086904322674
 20
9.5089946798538
 30
0.0
 11
18.9195938236962
 21
9.473051015334
 31
0.0
  0
LINE
  8
OpenJsCad
 10
18.9195938236962
 20
9.473051015334
 30
0.0
 11
18.8390823593597
 21
9.3088392908963
 31
0.0
  0
LINE
  8
OpenJsCad
 10
18.8390823593597
 20
9.3088392908963
 30
0.0
 11
18.4147350349204
 21
8.8149852390022
 31
0.0
  0
LINE
  8
OpenJsCad
 10
18.4147350349204
 20
8.8149852390022
 30
0.0
 11
18.2821133478059
 21
8.6707847523989
 31
0.0
  0
LINE
  8
OpenJsCad
 10
18.2821133478059
 20
8.6707847523989
 30
0.0
 11
18.0472975897305
 21
8.4458544431482
 31
0.0
  0
LINE
  8
OpenJsCad
 10
18.0472975897305
 20
8.4458544431482
 30
0.0
 11
18.0107118400219
 21
8.4132535724278
 31
0.0
  0
LINE
  8
OpenJsCad
 10
18.0107118400219
 20
8.4132535724278
 30
0.0
 11
17.8646126486925
 21
8.2845326220879
 31
0.0
  0
LINE
  8
OpenJsCad
 10
17.8646126486925
 20
8.2845326220879
 30
0.0
 11
17.637024386522
 21
8.0985998999873
 31
0.0
  0
LINE
  8
OpenJsCad
 10
17.637024386522
 20
8.0985998999873
 30
0.0
 11
17.2393902316741
 21
7.7920295215259
 31
0.0
  0
LINE
  8
OpenJsCad
 10
17.2393902316741
 20
7.7920295215259
 30
0.0
 11
17.1956430013181
 21
7.7163468742366
 31
0.0
  0
LINE
  8
OpenJsCad
 10
17.1956430013181
 20
7.7163468742366
 30
0.0
 11
17.1763075921046
 21
7.6594825456493
 31
0.0
  0
LINE
  8
OpenJsCad
 10
17.1763075921046
 20
7.6594825456493
 30
0.0
 11
17.5615556225318
 21
6.7294115257146
 31
0.0
  0
LINE
  8
OpenJsCad
 10
17.5615556225318
 20
6.7294115257146
 30
0.0
 11
17.6154369738553
 21
6.7028745723347
 31
0.0
  0
LINE
  8
OpenJsCad
 10
17.6154369738553
 20
6.7028745723347
 30
0.0
 11
17.6998866502146
 21
6.6802928224612
 31
0.0
  0
LINE
  8
OpenJsCad
 10
17.6998866502146
 20
6.6802928224612
 30
0.0
 11
18.1978344510599
 21
6.7446846362645
 31
0.0
  0
LINE
  8
OpenJsCad
 10
18.1978344510599
 20
6.7446846362645
 30
0.0
 11
18.490237943201
 21
6.7741395511219
 31
0.0
  0
LINE
  8
OpenJsCad
 10
18.490237943201
 20
6.7741395511219
 30
0.0
 11
18.684565128982
 21
6.7864278231707
 31
0.0
  0
LINE
  8
OpenJsCad
 10
18.684565128982
 20
6.7864278231707
 30
0.0
 11
18.7334874574547
 21
6.7892455581254
 31
0.0
  0
LINE
  8
OpenJsCad
 10
18.7334874574547
 20
6.7892455581254
 30
0.0
 11
19.0585770192848
 21
6.7962356260245
 31
0.0
  0
LINE
  8
OpenJsCad
 10
19.0585770192848
 20
6.7962356260245
 30
0.0
 11
19.2543198555035
 21
6.7880481783879
 31
0.0
  0
LINE
  8
OpenJsCad
 10
19.2543198555035
 20
6.7880481783879
 30
0.0
 11
19.9035862752036
 21
6.7388995000666
 31
0.0
  0
LINE
  8
OpenJsCad
 10
19.9035862752036
 20
6.7388995000666
 30
0.0
 11
20.0766317015008
 21
6.6797144785626
 31
0.0
  0
LINE
  8
OpenJsCad
 10
20.0766317015008
 20
6.6797144785626
 30
0.0
 11
20.0943378484062
 21
6.6465886076228
 31
0.0
  0
LINE
  8
OpenJsCad
 10
20.0943378484062
 20
6.6465886076228
 30
0.0
 11
20.2300807542864
 21
6.4751533363181
 31
0.0
  0
LINE
  8
OpenJsCad
 10
20.2300807542864
 20
6.4751533363181
 30
0.0
 11
20.4180998495116
 21
5.8553374445163
 31
0.0
  0
LINE
  8
OpenJsCad
 10
20.4180998495116
 20
5.8553374445163
 30
0.0
 11
20.4004780818122
 21
5.6373795080989
 31
0.0
  0
LINE
  8
OpenJsCad
 10
20.4004780818122
 20
5.6373795080989
 30
0.0
 11
20.4041597065464
 21
5.5999993448693
 31
0.0
  0
LINE
  8
OpenJsCad
 10
20.4041597065464
 20
5.5999993448693
 30
0.0
 11
20.2931591292215
 21
5.4546499101744
 31
0.0
  0
LINE
  8
OpenJsCad
 10
20.2931591292215
 20
5.4546499101744
 30
0.0
 11
19.7806193736199
 21
5.0530711815808
 31
0.0
  0
LINE
  8
OpenJsCad
 10
19.7806193736199
 20
5.0530711815808
 30
0.0
 11
19.6224138556695
 21
4.9375146745388
 31
0.0
  0
LINE
  8
OpenJsCad
 10
19.6224138556695
 20
4.9375146745388
 30
0.0
 11
19.3482282900795
 21
4.7627166199666
 31
0.0
  0
LINE
  8
OpenJsCad
 10
19.3482282900795
 20
4.7627166199666
 30
0.0
 11
19.305985410926
 21
4.7378796915275
 31
0.0
  0
LINE
  8
OpenJsCad
 10
19.305985410926
 20
4.7378796915275
 30
0.0
 11
19.1375812629393
 21
4.6401346164374
 31
0.0
  0
LINE
  8
OpenJsCad
 10
19.1375812629393
 20
4.6401346164374
 30
0.0
 11
18.8780923707819
 21
4.5021748068097
 31
0.0
  0
LINE
  8
OpenJsCad
 10
18.8780923707819
 20
4.5021748068097
 30
0.0
 11
18.4282897308668
 21
4.279069667521
 31
0.0
  0
LINE
  8
OpenJsCad
 10
18.4282897308668
 20
4.279069667521
 30
0.0
 11
18.3706181392446
 21
4.2133759023352
 31
0.0
  0
LINE
  8
OpenJsCad
 10
18.3706181392446
 20
4.2133759023352
 30
0.0
 11
18.3405605743221
 21
4.1613763570865
 31
0.0
  0
LINE
  8
OpenJsCad
 10
18.3405605743221
 20
4.1613763570865
 30
0.0
 11
18.5369583170925
 21
3.1740182286928
 31
0.0
  0
LINE
  8
OpenJsCad
 10
18.5369583170925
 20
3.1740182286928
 30
0.0
 11
18.5846272505786
 21
3.1374794452508
 31
0.0
  0
LINE
  8
OpenJsCad
 10
18.5846272505786
 20
3.1374794452508
 30
0.0
 11
18.6630487692321
 21
3.0988562828139
 31
0.0
  0
LINE
  8
OpenJsCad
 10
18.6630487692321
 20
3.0988562828139
 30
0.0
 11
19.1639908624004
 21
3.0648660291566
 31
0.0
  0
LINE
  8
OpenJsCad
 10
19.1639908624004
 20
3.0648660291566
 30
0.0
 11
19.4565222722554
 21
3.0367098846438
 31
0.0
  0
LINE
  8
OpenJsCad
 10
19.4565222722554
 20
3.0367098846438
 30
0.0
 11
19.6495128386026
 21
3.0108506877403
 31
0.0
  0
LINE
  8
OpenJsCad
 10
19.6495128386026
 20
3.0108506877403
 30
0.0
 11
19.6980448510713
 21
3.0040700078925
 31
0.0
  0
LINE
  8
OpenJsCad
 10
19.6980448510713
 20
3.0040700078925
 30
0.0
 11
20.0182516027244
 21
2.9475039362954
 31
0.0
  0
LINE
  8
OpenJsCad
 10
20.0182516027244
 20
2.9475039362954
 30
0.0
 11
20.2086360034362
 21
2.9012862752191
 31
0.0
  0
LINE
  8
OpenJsCad
 10
20.2086360034362
 20
2.9012862752191
 30
0.0
 11
20.8358385194578
 21
2.7264163800768
 31
0.0
  0
LINE
  8
OpenJsCad
 10
20.8358385194578
 20
2.7264163800768
 30
0.0
 11
20.9940125015074
 21
2.6346090942256
 31
0.0
  0
LINE
  8
OpenJsCad
 10
20.9940125015074
 20
2.6346090942256
 30
0.0
 11
21.0049158929362
 21
2.5986654297058
 31
0.0
  0
LINE
  8
OpenJsCad
 10
21.0049158929362
 20
2.5986654297058
 30
0.0
 11
21.1046051746589
 21
2.4040421118487
 31
0.0
  0
LINE
  8
OpenJsCad
 10
21.1046051746589
 20
2.4040421118487
 30
0.0
 11
21.1680914537682
 21
1.7594551027768
 31
0.0
  0
LINE
  8
OpenJsCad
 10
21.1680914537682
 20
1.7594551027768
 30
0.0
 11
21.108286799392
 21
1.5491230033265
 31
0.0
  0
LINE
  8
OpenJsCad
 10
21.108286799392
 20
1.5491230033265
 30
0.0
 11
21.1046051746578
 21
1.5117428400969
 31
0.0
  0
LINE
  8
OpenJsCad
 10
21.1046051746578
 20
1.5117428400969
 30
0.0
 11
20.9673811742821
 21
1.3908413924075
 31
0.0
  0
LINE
  8
OpenJsCad
 10
20.9673811742821
 20
1.3908413924075
 30
0.0
 11
20.3863456028904
 21
1.0969704324462
 31
0.0
  0
LINE
  8
OpenJsCad
 10
20.3863456028904
 20
1.0969704324462
 30
0.0
 11
20.2086360034361
 21
1.0144986767263
 31
0.0
  0
LINE
  8
OpenJsCad
 10
20.2086360034361
 20
1.0144986767263
 30
0.0
 11
19.9056174278521
 21
0.8965502680419
 31
0.0
  0
LINE
  8
OpenJsCad
 10
19.9056174278521
 20
0.8965502680419
 30
0.0
 11
19.8593407894095
 21
0.8804317511154
 31
0.0
  0
LINE
  8
OpenJsCad
 10
19.8593407894095
 20
0.8804317511154
 30
0.0
 11
19.6751033617304
 21
0.8174188396946
 31
0.0
  0
LINE
  8
OpenJsCad
 10
19.6751033617304
 20
0.8174188396946
 30
0.0
 11
19.3936858521888
 21
0.7327336606552
 31
0.0
  0
LINE
  8
OpenJsCad
 10
19.3936858521888
 20
0.7327336606552
 30
0.0
 11
18.9090003904063
 21
0.6016675659232
 31
0.0
  0
LINE
  8
OpenJsCad
 10
18.9090003904063
 20
0.6016675659232
 30
0.0
 11
18.8396207244412
 21
0.5484872573955
 31
0.0
  0
LINE
  8
OpenJsCad
 10
18.8396207244412
 20
0.5484872573955
 30
0.0
 11
18.7999960991733
 21
0.5033508088477
 31
0.0
  0
LINE
  8
OpenJsCad
 10
18.7999960991733
 20
0.5033508088477
 30
0.0
 11
18.7999960991733
 21
-0.5033508088477
 31
0.0
  0
LINE
  8
OpenJsCad
 10
18.7999960991733
 20
-0.5033508088477
 30
0.0
 11
18.8396207244412
 21
-0.5484872573955
 31
0.0
  0
LINE
  8
OpenJsCad
 10
18.8396207244412
 20
-0.5484872573955
 30
0.0
 11
18.9090003904063
 21
-0.6016675659232
 31
0.0
  0
LINE
  8
OpenJsCad
 10
18.9090003904063
 20
-0.6016675659232
 30
0.0
 11
19.3936858521888
 21
-0.7327336606552
 31
0.0
  0
LINE
  8
OpenJsCad
 10
19.3936858521888
 20
-0.7327336606552
 30
0.0
 11
19.6751033617304
 21
-0.8174188396946
 31
0.0
  0
LINE
  8
OpenJsCad
 10
19.6751033617304
 20
-0.8174188396946
 30
0.0
 11
19.8593407894095
 21
-0.8804317511154
 31
0.0
  0
LINE
  8
OpenJsCad
 10
19.8593407894095
 20
-0.8804317511154
 30
0.0
 11
19.9056174278521
 21
-0.8965502680419
 31
0.0
  0
LINE
  8
OpenJsCad
 10
19.9056174278521
 20
-0.8965502680419
 30
0.0
 11
20.2086360034361
 21
-1.0144986767263
 31
0.0
  0
LINE
  8
OpenJsCad
 10
20.2086360034361
 20
-1.0144986767263
 30
0.0
 11
20.3863456028904
 21
-1.0969704324462
 31
0.0
  0
LINE
  8
OpenJsCad
 10
20.3863456028904
 20
-1.0969704324462
 30
0.0
 11
20.9673811742821
 21
-1.3908413924075
 31
0.0
  0
LINE
  8
OpenJsCad
 10
20.9673811742821
 20
-1.3908413924075
 30
0.0
 11
21.1046051746589
 21
-1.5117428400968
 31
0.0
  0
LINE
  8
OpenJsCad
 10
21.1046051746589
 20
-1.5117428400968
 30
0.0
 11
21.1082867993931
 21
-1.5491230033264
 31
0.0
  0
LINE
  8
OpenJsCad
 10
21.1082867993931
 20
-1.5491230033264
 30
0.0
 11
21.1680914537682
 21
-1.7594551027768
 31
0.0
  0
LINE
  8
OpenJsCad
 10
21.1680914537682
 20
-1.7594551027768
 30
0.0
 11
21.1046051746589
 21
-2.4040421118487
 31
0.0
  0
LINE
  8
OpenJsCad
 10
21.1046051746589
 20
-2.4040421118487
 30
0.0
 11
21.0049158929341
 21
-2.5986654297052
 31
0.0
  0
LINE
  8
OpenJsCad
 10
21.0049158929341
 20
-2.5986654297052
 30
0.0
 11
20.9940125015053
 21
-2.6346090942249
 31
0.0
  0
LINE
  8
OpenJsCad
 10
20.9940125015053
 20
-2.6346090942249
 30
0.0
 11
20.8358385194578
 21
-2.7264163800768
 31
0.0
  0
LINE
  8
OpenJsCad
 10
20.8358385194578
 20
-2.7264163800768
 30
0.0
 11
20.2086360034362
 21
-2.9012862752191
 31
0.0
  0
LINE
  8
OpenJsCad
 10
20.2086360034362
 20
-2.9012862752191
 30
0.0
 11
20.0182516027244
 21
-2.9475039362954
 31
0.0
  0
LINE
  8
OpenJsCad
 10
20.0182516027244
 20
-2.9475039362954
 30
0.0
 11
19.6980448510713
 21
-3.0040700078925
 31
0.0
  0
LINE
  8
OpenJsCad
 10
19.6980448510713
 20
-3.0040700078925
 30
0.0
 11
19.6495128386026
 21
-3.0108506877403
 31
0.0
  0
LINE
  8
OpenJsCad
 10
19.6495128386026
 20
-3.0108506877403
 30
0.0
 11
19.4565222722554
 21
-3.0367098846438
 31
0.0
  0
LINE
  8
OpenJsCad
 10
19.4565222722554
 20
-3.0367098846438
 30
0.0
 11
19.1639908624004
 21
-3.0648660291566
 31
0.0
  0
LINE
  8
OpenJsCad
 10
19.1639908624004
 20
-3.0648660291566
 30
0.0
 11
18.6630487692321
 21
-3.0988562828139
 31
0.0
  0
LINE
  8
OpenJsCad
 10
18.6630487692321
 20
-3.0988562828139
 30
0.0
 11
18.5846272505786
 21
-3.1374794452507
 31
0.0
  0
LINE
  8
OpenJsCad
 10
18.5846272505786
 20
-3.1374794452507
 30
0.0
 11
18.5369583170925
 21
-3.1740182286928
 31
0.0
  0
LINE
  8
OpenJsCad
 10
18.5369583170925
 20
-3.1740182286928
 30
0.0
 11
18.3405605743221
 21
-4.1613763570865
 31
0.0
  0
LINE
  8
OpenJsCad
 10
18.3405605743221
 20
-4.1613763570865
 30
0.0
 11
18.3706181392446
 21
-4.2133759023352
 31
0.0
  0
LINE
  8
OpenJsCad
 10
18.3706181392446
 20
-4.2133759023352
 30
0.0
 11
18.4282897308668
 21
-4.279069667521
 31
0.0
  0
LINE
  8
OpenJsCad
 10
18.4282897308668
 20
-4.279069667521
 30
0.0
 11
18.8780923707819
 21
-4.5021748068097
 31
0.0
  0
LINE
  8
OpenJsCad
 10
18.8780923707819
 20
-4.5021748068097
 30
0.0
 11
19.1375812629393
 21
-4.6401346164374
 31
0.0
  0
LINE
  8
OpenJsCad
 10
19.1375812629393
 20
-4.6401346164374
 30
0.0
 11
19.305985410926
 21
-4.7378796915275
 31
0.0
  0
LINE
  8
OpenJsCad
 10
19.305985410926
 20
-4.7378796915275
 30
0.0
 11
19.3482282900795
 21
-4.7627166199666
 31
0.0
  0
LINE
  8
OpenJsCad
 10
19.3482282900795
 20
-4.7627166199666
 30
0.0
 11
19.6224138556695
 21
-4.9375146745388
 31
0.0
  0
LINE
  8
OpenJsCad
 10
19.6224138556695
 20
-4.9375146745388
 30
0.0
 11
19.7806193736199
 21
-5.0530711815808
 31
0.0
  0
LINE
  8
OpenJsCad
 10
19.7806193736199
 20
-5.0530711815808
 30
0.0
 11
20.2931591292215
 21
-5.4546499101744
 31
0.0
  0
LINE
  8
OpenJsCad
 10
20.2931591292215
 20
-5.4546499101744
 30
0.0
 11
20.4041597065473
 21
-5.5999993448693
 31
0.0
  0
LINE
  8
OpenJsCad
 10
20.4041597065473
 20
-5.5999993448693
 30
0.0
 11
20.4004780818131
 21
-5.637379508099
 31
0.0
  0
LINE
  8
OpenJsCad
 10
20.4004780818131
 20
-5.637379508099
 30
0.0
 11
20.4180998495117
 21
-5.8553374445163
 31
0.0
  0
LINE
  8
OpenJsCad
 10
20.4180998495117
 20
-5.8553374445163
 30
0.0
 11
20.2300807542864
 21
-6.4751533363181
 31
0.0
  0
LINE
  8
OpenJsCad
 10
20.2300807542864
 20
-6.4751533363181
 30
0.0
 11
20.0943378484048
 21
-6.646588607622
 31
0.0
  0
LINE
  8
OpenJsCad
 10
20.0943378484048
 20
-6.646588607622
 30
0.0
 11
20.0766317014994
 21
-6.6797144785619
 31
0.0
  0
LINE
  8
OpenJsCad
 10
20.0766317014994
 20
-6.6797144785619
 30
0.0
 11
19.9035862752036
 21
-6.7388995000666
 31
0.0
  0
LINE
  8
OpenJsCad
 10
19.9035862752036
 20
-6.7388995000666
 30
0.0
 11
19.2543198555035
 21
-6.7880481783879
 31
0.0
  0
LINE
  8
OpenJsCad
 10
19.2543198555035
 20
-6.7880481783879
 30
0.0
 11
19.0585770192848
 21
-6.7962356260244
 31
0.0
  0
LINE
  8
OpenJsCad
 10
19.0585770192848
 20
-6.7962356260244
 30
0.0
 11
18.7334874574547
 21
-6.7892455581254
 31
0.0
  0
LINE
  8
OpenJsCad
 10
18.7334874574547
 20
-6.7892455581254
 30
0.0
 11
18.684565128982
 21
-6.7864278231707
 31
0.0
  0
LINE
  8
OpenJsCad
 10
18.684565128982
 20
-6.7864278231707
 30
0.0
 11
18.490237943201
 21
-6.7741395511219
 31
0.0
  0
LINE
  8
OpenJsCad
 10
18.490237943201
 20
-6.7741395511219
 30
0.0
 11
18.1978344510599
 21
-6.7446846362645
 31
0.0
  0
LINE
  8
OpenJsCad
 10
18.1978344510599
 20
-6.7446846362645
 30
0.0
 11
17.6998866502146
 21
-6.6802928224612
 31
0.0
  0
LINE
  8
OpenJsCad
 10
17.6998866502146
 20
-6.6802928224612
 30
0.0
 11
17.6154369738553
 21
-6.7028745723347
 31
0.0
  0
LINE
  8
OpenJsCad
 10
17.6154369738553
 20
-6.7028745723347
 30
0.0
 11
17.5615556225318
 21
-6.7294115257146
 31
0.0
  0
LINE
  8
OpenJsCad
 10
17.5615556225318
 20
-6.7294115257146
 30
0.0
 11
17.1763075921046
 21
-7.6594825456493
 31
0.0
  0
LINE
  8
OpenJsCad
 10
17.1763075921046
 20
-7.6594825456493
 30
0.0
 11
17.1956430013181
 21
-7.7163468742366
 31
0.0
  0
LINE
  8
OpenJsCad
 10
17.1956430013181
 20
-7.7163468742366
 30
0.0
 11
17.2393902316741
 21
-7.7920295215259
 31
0.0
  0
LINE
  8
OpenJsCad
 10
17.2393902316741
 20
-7.7920295215259
 30
0.0
 11
17.637024386522
 21
-8.0985998999873
 31
0.0
  0
LINE
  8
OpenJsCad
 10
17.637024386522
 20
-8.0985998999873
 30
0.0
 11
17.8646126486925
 21
-8.2845326220879
 31
0.0
  0
LINE
  8
OpenJsCad
 10
17.8646126486925
 20
-8.2845326220879
 30
0.0
 11
18.0107118400219
 21
-8.4132535724278
 31
0.0
  0
LINE
  8
OpenJsCad
 10
18.0107118400219
 20
-8.4132535724278
 30
0.0
 11
18.0472975897305
 21
-8.4458544431482
 31
0.0
  0
LINE
  8
OpenJsCad
 10
18.0472975897305
 20
-8.4458544431482
 30
0.0
 11
18.2821133478059
 21
-8.6707847523989
 31
0.0
  0
LINE
  8
OpenJsCad
 10
18.2821133478059
 20
-8.6707847523989
 30
0.0
 11
18.4147350349204
 21
-8.8149852390022
 31
0.0
  0
LINE
  8
OpenJsCad
 10
18.4147350349204
 20
-8.8149852390022
 30
0.0
 11
18.8390823593597
 21
-9.3088392908963
 31
0.0
  0
LINE
  8
OpenJsCad
 10
18.8390823593597
 20
-9.3088392908963
 30
0.0
 11
18.9195938236976
 21
-9.4730510153344
 31
0.0
  0
LINE
  8
OpenJsCad
 10
18.9195938236976
 20
-9.4730510153344
 30
0.0
 11
18.9086904322688
 21
-9.5089946798542
 31
0.0
  0
LINE
  8
OpenJsCad
 10
18.9086904322688
 20
-9.5089946798542
 30
0.0
 11
18.8834521186406
 21
-9.7262024519741
 31
0.0
  0
LINE
  8
OpenJsCad
 10
18.8834521186406
 20
-9.7262024519741
 30
0.0
 11
18.5781256756867
 21
-10.2974280493807
 31
0.0
  0
LINE
  8
OpenJsCad
 10
18.5781256756867
 20
-10.2974280493807
 30
0.0
 11
18.4115456693953
 21
-10.4390871127977
 31
0.0
  0
LINE
  8
OpenJsCad
 10
18.4115456693953
 20
-10.4390871127977
 30
0.0
 11
18.3877172043091
 21
-10.4681221815146
 31
0.0
  0
LINE
  8
OpenJsCad
 10
18.3877172043091
 20
-10.4681221815146
 30
0.0
 11
18.2064503724532
 21
-10.4924104914873
 31
0.0
  0
LINE
  8
OpenJsCad
 10
18.2064503724532
 20
-10.4924104914873
 30
0.0
 11
17.5600709934708
 21
-10.4139491968425
 31
0.0
  0
LINE
  8
OpenJsCad
 10
17.5600709934708
 20
-10.4139491968425
 30
0.0
 11
17.3664920091672
 21
-10.3837917920183
 31
0.0
  0
LINE
  8
OpenJsCad
 10
17.3664920091672
 20
-10.3837917920183
 30
0.0
 11
17.0490126467088
 21
-10.3135142090123
 31
0.0
  0
LINE
  8
OpenJsCad
 10
17.0490126467088
 20
-10.3135142090123
 30
0.0
 11
17.0015800598794
 21
-10.3012063432292
 31
0.0
  0
LINE
  8
OpenJsCad
 10
17.0015800598794
 20
-10.3012063432292
 30
0.0
 11
16.8133841394343
 21
-10.2512428336316
 31
0.0
  0
LINE
  8
OpenJsCad
 10
16.8133841394343
 20
-10.2512428336316
 30
0.0
 11
16.5323454672283
 21
-10.1653087952635
 31
0.0
  0
LINE
  8
OpenJsCad
 10
16.5323454672283
 20
-10.1653087952635
 30
0.0
 11
16.0565278134401
 21
-10.0050094552926
 31
0.0
  0
LINE
  8
OpenJsCad
 10
16.0565278134401
 20
-10.0050094552926
 30
0.0
 11
15.9692953330776
 21
-10.0106819886192
 31
0.0
  0
LINE
  8
OpenJsCad
 10
15.9692953330776
 20
-10.0106819886192
 30
0.0
 11
15.9112721940311
 21
-10.0261973117006
 31
0.0
  0
LINE
  8
OpenJsCad
 10
15.9112721940311
 20
-10.0261973117006
 30
0.0
 11
15.3519787417069
 21
-10.86323911547
 31
0.0
  0
LINE
  8
OpenJsCad
 10
15.3519787417069
 20
-10.86323911547
 30
0.0
 11
15.3598489462787
 21
-10.9227829631382
 31
0.0
  0
LINE
  8
OpenJsCad
 10
15.3598489462787
 20
-10.9227829631382
 30
0.0
 11
15.3879906338395
 21
-11.005546050839
 31
0.0
  0
LINE
  8
OpenJsCad
 10
15.3879906338395
 20
-11.005546050839
 30
0.0
 11
15.7181754460453
 21
-11.3838003407555
 31
0.0
  0
LINE
  8
OpenJsCad
 10
15.7181754460453
 20
-11.3838003407555
 30
0.0
 11
15.9051169889468
 21
-11.610560685091
 31
0.0
  0
LINE
  8
OpenJsCad
 10
15.9051169889468
 20
-11.610560685091
 30
0.0
 11
16.0232967136294
 21
-11.7653108367467
 31
0.0
  0
LINE
  8
OpenJsCad
 10
16.0232967136294
 20
-11.7653108367467
 30
0.0
 11
16.0528193640492
 21
-11.8044228165694
 31
0.0
  0
LINE
  8
OpenJsCad
 10
16.0528193640492
 20
-11.8044228165694
 30
0.0
 11
16.2392414767134
 21
-12.0708414348564
 31
0.0
  0
LINE
  8
OpenJsCad
 10
16.2392414767134
 20
-12.0708414348564
 30
0.0
 11
16.3411827559312
 21
-12.2381443571894
 31
0.0
  0
LINE
  8
OpenJsCad
 10
16.3411827559312
 20
-12.2381443571894
 30
0.0
 11
16.6610302195069
 21
-12.8052951981261
 31
0.0
  0
LINE
  8
OpenJsCad
 10
16.6610302195069
 20
-12.8052951981261
 30
0.0
 11
16.7079585604337
 21
-12.9820586478284
 31
0.0
  0
LINE
  8
OpenJsCad
 10
16.7079585604337
 20
-12.9820586478284
 30
0.0
 11
16.6902524135283
 21
-13.0151845187682
 31
0.0
  0
LINE
  8
OpenJsCad
 10
16.6902524135283
 20
-13.0151845187682
 30
0.0
 11
16.6231239128122
 21
-13.2232949537198
 31
0.0
  0
LINE
  8
OpenJsCad
 10
16.6231239128122
 20
-13.2232949537198
 30
0.0
 11
16.2122236461032
 21
-13.7239783773698
 31
0.0
  0
LINE
  8
OpenJsCad
 10
16.2122236461032
 20
-13.7239783773698
 30
0.0
 11
16.0212081156245
 21
-13.8304173545359
 31
0.0
  0
LINE
  8
OpenJsCad
 10
16.0212081156245
 20
-13.8304173545359
 30
0.0
 11
15.9921730469076
 21
-13.8542458196221
 31
0.0
  0
LINE
  8
OpenJsCad
 10
15.9921730469076
 20
-13.8542458196221
 30
0.0
 11
15.8096507921843
 21
-13.8427040319317
 31
0.0
  0
LINE
  8
OpenJsCad
 10
15.8096507921843
 20
-13.8427040319317
 30
0.0
 11
15.1909984509602
 21
-13.6396479878725
 31
0.0
  0
LINE
  8
OpenJsCad
 10
15.1909984509602
 20
-13.6396479878725
 30
0.0
 11
15.0070224503783
 21
-13.5723046627424
 31
0.0
  0
LINE
  8
OpenJsCad
 10
15.0070224503783
 20
-13.5723046627424
 30
0.0
 11
14.7093538411464
 21
-13.4414402927323
 31
0.0
  0
LINE
  8
OpenJsCad
 10
14.7093538411464
 20
-13.4414402927323
 30
0.0
 11
14.6652338036717
 21
-13.4201152805004
 31
0.0
  0
LINE
  8
OpenJsCad
 10
14.6652338036717
 20
-13.4201152805004
 30
0.0
 11
14.4904014122435
 21
-13.3343966030081
 31
0.0
  0
LINE
  8
OpenJsCad
 10
14.4904014122435
 20
-13.3343966030081
 30
0.0
 11
14.2315277185372
 21
-13.1952858380314
 31
0.0
  0
LINE
  8
OpenJsCad
 10
14.2315277185372
 20
-13.1952858380314
 30
0.0
 11
13.7961256173997
 21
-12.9452391856311
 31
0.0
  0
LINE
  8
OpenJsCad
 10
13.7961256173997
 20
-12.9452391856311
 30
0.0
 11
13.7094626283338
 21
-12.9337845101363
 31
0.0
  0
LINE
  8
OpenJsCad
 10
13.7094626283338
 20
-12.9337845101363
 30
0.0
 11
13.649527498258
 21
-12.9376819577541
 31
0.0
  0
LINE
  8
OpenJsCad
 10
13.649527498258
 20
-12.9376819577541
 30
0.0
 11
12.9376819577541
 21
-13.649527498258
 31
0.0
  0
LINE
  8
OpenJsCad
 10
12.9376819577541
 20
-13.649527498258
 30
0.0
 11
12.9337845101363
 21
-13.7094626283338
 31
0.0
  0
LINE
  8
OpenJsCad
 10
12.9337845101363
 20
-13.7094626283338
 30
0.0
 11
12.9452391856311
 21
-13.7961256173997
 31
0.0
  0
LINE
  8
OpenJsCad
 10
12.9452391856311
 20
-13.7961256173997
 30
0.0
 11
13.1952858380314
 21
-14.2315277185372
 31
0.0
  0
LINE
  8
OpenJsCad
 10
13.1952858380314
 20
-14.2315277185372
 30
0.0
 11
13.3343966030081
 21
-14.4904014122435
 31
0.0
  0
LINE
  8
OpenJsCad
 10
13.3343966030081
 20
-14.4904014122435
 30
0.0
 11
13.4201152805004
 21
-14.6652338036717
 31
0.0
  0
LINE
  8
OpenJsCad
 10
13.4201152805004
 20
-14.6652338036717
 30
0.0
 11
13.4414402927323
 21
-14.7093538411464
 31
0.0
  0
LINE
  8
OpenJsCad
 10
13.4414402927323
 20
-14.7093538411464
 30
0.0
 11
13.5723046627424
 21
-15.0070224503783
 31
0.0
  0
LINE
  8
OpenJsCad
 10
13.5723046627424
 20
-15.0070224503783
 30
0.0
 11
13.6396479878725
 21
-15.1909984509602
 31
0.0
  0
LINE
  8
OpenJsCad
 10
13.6396479878725
 20
-15.1909984509602
 30
0.0
 11
13.8427040319317
 21
-15.8096507921843
 31
0.0
  0
LINE
  8
OpenJsCad
 10
13.8427040319317
 20
-15.8096507921843
 30
0.0
 11
13.8542458196234
 21
-15.9921730469087
 31
0.0
  0
LINE
  8
OpenJsCad
 10
13.8542458196234
 20
-15.9921730469087
 30
0.0
 11
13.8304173545372
 21
-16.0212081156256
 31
0.0
  0
LINE
  8
OpenJsCad
 10
13.8304173545372
 20
-16.0212081156256
 30
0.0
 11
13.7239783773698
 21
-16.2122236461032
 31
0.0
  0
LINE
  8
OpenJsCad
 10
13.7239783773698
 20
-16.2122236461032
 30
0.0
 11
13.2232949537198
 21
-16.6231239128123
 31
0.0
  0
LINE
  8
OpenJsCad
 10
13.2232949537198
 20
-16.6231239128123
 30
0.0
 11
13.0151845187672
 21
-16.6902524135264
 31
0.0
  0
LINE
  8
OpenJsCad
 10
13.0151845187672
 20
-16.6902524135264
 30
0.0
 11
12.9820586478274
 21
-16.7079585604318
 31
0.0
  0
LINE
  8
OpenJsCad
 10
12.9820586478274
 20
-16.7079585604318
 30
0.0
 11
12.8052951981261
 21
-16.6610302195068
 31
0.0
  0
LINE
  8
OpenJsCad
 10
12.8052951981261
 20
-16.6610302195068
 30
0.0
 11
12.2381443571894
 21
-16.3411827559312
 31
0.0
  0
LINE
  8
OpenJsCad
 10
12.2381443571894
 20
-16.3411827559312
 30
0.0
 11
12.0708414348564
 21
-16.2392414767134
 31
0.0
  0
LINE
  8
OpenJsCad
 10
12.0708414348564
 20
-16.2392414767134
 30
0.0
 11
11.8044228165694
 21
-16.0528193640492
 31
0.0
  0
LINE
  8
OpenJsCad
 10
11.8044228165694
 20
-16.0528193640492
 30
0.0
 11
11.7653108367467
 21
-16.0232967136294
 31
0.0
  0
LINE
  8
OpenJsCad
 10
11.7653108367467
 20
-16.0232967136294
 30
0.0
 11
11.610560685091
 21
-15.9051169889467
 31
0.0
  0
LINE
  8
OpenJsCad
 10
11.610560685091
 20
-15.9051169889467
 30
0.0
 11
11.3838003407555
 21
-15.7181754460453
 31
0.0
  0
LINE
  8
OpenJsCad
 10
11.3838003407555
 20
-15.7181754460453
 30
0.0
 11
11.005546050839
 21
-15.3879906338395
 31
0.0
  0
LINE
  8
OpenJsCad
 10
11.005546050839
 20
-15.3879906338395
 30
0.0
 11
10.9227829631382
 21
-15.3598489462787
 31
0.0
  0
LINE
  8
OpenJsCad
 10
10.9227829631382
 20
-15.3598489462787
 30
0.0
 11
10.86323911547
 21
-15.3519787417069
 31
0.0
  0
LINE
  8
OpenJsCad
 10
10.86323911547
 20
-15.3519787417069
 30
0.0
 11
10.0261973117006
 21
-15.911272194031
 31
0.0
  0
LINE
  8
OpenJsCad
 10
10.0261973117006
 20
-15.911272194031
 30
0.0
 11
10.0106819886192
 21
-15.9692953330776
 31
0.0
  0
LINE
  8
OpenJsCad
 10
10.0106819886192
 20
-15.9692953330776
 30
0.0
 11
10.0050094552926
 21
-16.0565278134401
 31
0.0
  0
LINE
  8
OpenJsCad
 10
10.0050094552926
 20
-16.0565278134401
 30
0.0
 11
10.1653087952635
 21
-16.5323454672283
 31
0.0
  0
LINE
  8
OpenJsCad
 10
10.1653087952635
 20
-16.5323454672283
 30
0.0
 11
10.2512428336317
 21
-16.8133841394343
 31
0.0
  0
LINE
  8
OpenJsCad
 10
10.2512428336317
 20
-16.8133841394343
 30
0.0
 11
10.3012063432292
 21
-17.0015800598794
 31
0.0
  0
LINE
  8
OpenJsCad
 10
10.3012063432292
 20
-17.0015800598794
 30
0.0
 11
10.3135142090123
 21
-17.0490126467088
 31
0.0
  0
LINE
  8
OpenJsCad
 10
10.3135142090123
 20
-17.0490126467088
 30
0.0
 11
10.3837917920183
 21
-17.3664920091672
 31
0.0
  0
LINE
  8
OpenJsCad
 10
10.3837917920183
 20
-17.3664920091672
 30
0.0
 11
10.4139491968426
 21
-17.5600709934708
 31
0.0
  0
LINE
  8
OpenJsCad
 10
10.4139491968426
 20
-17.5600709934708
 30
0.0
 11
10.4924104914873
 21
-18.2064503724532
 31
0.0
  0
LINE
  8
OpenJsCad
 10
10.4924104914873
 20
-18.2064503724532
 30
0.0
 11
10.4681221815156
 21
-18.3877172043102
 31
0.0
  0
LINE
  8
OpenJsCad
 10
10.4681221815156
 20
-18.3877172043102
 30
0.0
 11
10.4390871127987
 21
-18.4115456693964
 31
0.0
  0
LINE
  8
OpenJsCad
 10
10.4390871127987
 20
-18.4115456693964
 30
0.0
 11
10.2974280493807
 21
-18.5781256756867
 31
0.0
  0
LINE
  8
OpenJsCad
 10
10.2974280493807
 20
-18.5781256756867
 30
0.0
 11
9.7262024519742
 21
-18.8834521186407
 31
0.0
  0
LINE
  8
OpenJsCad
 10
9.7262024519742
 20
-18.8834521186407
 30
0.0
 11
9.5089946798539
 21
-18.908690432268
 31
0.0
  0
LINE
  8
OpenJsCad
 10
9.5089946798539
 20
-18.908690432268
 30
0.0
 11
9.4730510153342
 21
-18.9195938236968
 31
0.0
  0
LINE
  8
OpenJsCad
 10
9.4730510153342
 20
-18.9195938236968
 30
0.0
 11
9.3088392908963
 21
-18.8390823593597
 31
0.0
  0
LINE
  8
OpenJsCad
 10
9.3088392908963
 20
-18.8390823593597
 30
0.0
 11
8.8149852390022
 21
-18.4147350349204
 31
0.0
  0
LINE
  8
OpenJsCad
 10
8.8149852390022
 20
-18.4147350349204
 30
0.0
 11
8.6707847523989
 21
-18.2821133478059
 31
0.0
  0
LINE
  8
OpenJsCad
 10
8.6707847523989
 20
-18.2821133478059
 30
0.0
 11
8.4458544431482
 21
-18.0472975897305
 31
0.0
  0
LINE
  8
OpenJsCad
 10
8.4458544431482
 20
-18.0472975897305
 30
0.0
 11
8.4132535724278
 21
-18.0107118400219
 31
0.0
  0
LINE
  8
OpenJsCad
 10
8.4132535724278
 20
-18.0107118400219
 30
0.0
 11
8.2845326220879
 21
-17.8646126486925
 31
0.0
  0
LINE
  8
OpenJsCad
 10
8.2845326220879
 20
-17.8646126486925
 30
0.0
 11
8.0985998999873
 21
-17.637024386522
 31
0.0
  0
LINE
  8
OpenJsCad
 10
8.0985998999873
 20
-17.637024386522
 30
0.0
 11
7.7920295215259
 21
-17.2393902316741
 31
0.0
  0
LINE
  8
OpenJsCad
 10
7.7920295215259
 20
-17.2393902316741
 30
0.0
 11
7.7163468742366
 21
-17.1956430013181
 31
0.0
  0
LINE
  8
OpenJsCad
 10
7.7163468742366
 20
-17.1956430013181
 30
0.0
 11
7.6594825456493
 21
-17.1763075921046
 31
0.0
  0
LINE
  8
OpenJsCad
 10
7.6594825456493
 20
-17.1763075921046
 30
0.0
 11
6.7294115257146
 21
-17.5615556225318
 31
0.0
  0
LINE
  8
OpenJsCad
 10
6.7294115257146
 20
-17.5615556225318
 30
0.0
 11
6.7028745723347
 21
-17.6154369738553
 31
0.0
  0
LINE
  8
OpenJsCad
 10
6.7028745723347
 20
-17.6154369738553
 30
0.0
 11
6.6802928224612
 21
-17.6998866502146
 31
0.0
  0
LINE
  8
OpenJsCad
 10
6.6802928224612
 20
-17.6998866502146
 30
0.0
 11
6.7446846362645
 21
-18.1978344510599
 31
0.0
  0
LINE
  8
OpenJsCad
 10
6.7446846362645
 20
-18.1978344510599
 30
0.0
 11
6.7741395511219
 21
-18.490237943201
 31
0.0
  0
LINE
  8
OpenJsCad
 10
6.7741395511219
 20
-18.490237943201
 30
0.0
 11
6.7864278231707
 21
-18.684565128982
 31
0.0
  0
LINE
  8
OpenJsCad
 10
6.7864278231707
 20
-18.684565128982
 30
0.0
 11
6.7892455581254
 21
-18.7334874574547
 31
0.0
  0
LINE
  8
OpenJsCad
 10
6.7892455581254
 20
-18.7334874574547
 30
0.0
 11
6.7962356260245
 21
-19.0585770192848
 31
0.0
  0
LINE
  8
OpenJsCad
 10
6.7962356260245
 20
-19.0585770192848
 30
0.0
 11
6.7880481783879
 21
-19.2543198555035
 31
0.0
  0
LINE
  8
OpenJsCad
 10
6.7880481783879
 20
-19.2543198555035
 30
0.0
 11
6.7388995000666
 21
-19.9035862752036
 31
0.0
  0
LINE
  8
OpenJsCad
 10
6.7388995000666
 20
-19.9035862752036
 30
0.0
 11
6.6797144785626
 21
-20.0766317015008
 31
0.0
  0
LINE
  8
OpenJsCad
 10
6.6797144785626
 20
-20.0766317015008
 30
0.0
 11
6.6465886076228
 21
-20.0943378484062
 31
0.0
  0
LINE
  8
OpenJsCad
 10
6.6465886076228
 20
-20.0943378484062
 30
0.0
 11
6.4751533363181
 21
-20.2300807542864
 31
0.0
  0
LINE
  8
OpenJsCad
 10
6.4751533363181
 20
-20.2300807542864
 30
0.0
 11
5.8553374445163
 21
-20.4180998495116
 31
0.0
  0
LINE
  8
OpenJsCad
 10
5.8553374445163
 20
-20.4180998495116
 30
0.0
 11
5.6373795080989
 21
-20.4004780818122
 31
0.0
  0
LINE
  8
OpenJsCad
 10
5.6373795080989
 20
-20.4004780818122
 30
0.0
 11
5.5999993448693
 21
-20.4041597065464
 31
0.0
  0
LINE
  8
OpenJsCad
 10
5.5999993448693
 20
-20.4041597065464
 30
0.0
 11
5.4546499101744
 21
-20.2931591292215
 31
0.0
  0
LINE
  8
OpenJsCad
 10
5.4546499101744
 20
-20.2931591292215
 30
0.0
 11
5.0530711815808
 21
-19.7806193736199
 31
0.0
  0
LINE
  8
OpenJsCad
 10
5.0530711815808
 20
-19.7806193736199
 30
0.0
 11
4.9375146745388
 21
-19.6224138556695
 31
0.0
  0
LINE
  8
OpenJsCad
 10
4.9375146745388
 20
-19.6224138556695
 30
0.0
 11
4.7627166199666
 21
-19.3482282900795
 31
0.0
  0
LINE
  8
OpenJsCad
 10
4.7627166199666
 20
-19.3482282900795
 30
0.0
 11
4.7378796915275
 21
-19.305985410926
 31
0.0
  0
LINE
  8
OpenJsCad
 10
4.7378796915275
 20
-19.305985410926
 30
0.0
 11
4.6401346164374
 21
-19.1375812629393
 31
0.0
  0
LINE
  8
OpenJsCad
 10
4.6401346164374
 20
-19.1375812629393
 30
0.0
 11
4.5021748068097
 21
-18.8780923707819
 31
0.0
  0
LINE
  8
OpenJsCad
 10
4.5021748068097
 20
-18.8780923707819
 30
0.0
 11
4.279069667521
 21
-18.4282897308668
 31
0.0
  0
LINE
  8
OpenJsCad
 10
4.279069667521
 20
-18.4282897308668
 30
0.0
 11
4.2133759023352
 21
-18.3706181392446
 31
0.0
  0
LINE
  8
OpenJsCad
 10
4.2133759023352
 20
-18.3706181392446
 30
0.0
 11
4.1613763570865
 21
-18.3405605743221
 31
0.0
  0
LINE
  8
OpenJsCad
 10
4.1613763570865
 20
-18.3405605743221
 30
0.0
 11
3.1740182286928
 21
-18.5369583170925
 31
0.0
  0
LINE
  8
OpenJsCad
 10
3.1740182286928
 20
-18.5369583170925
 30
0.0
 11
3.1374794452508
 21
-18.5846272505786
 31
0.0
  0
LINE
  8
OpenJsCad
 10
3.1374794452508
 20
-18.5846272505786
 30
0.0
 11
3.0988562828139
 21
-18.6630487692321
 31
0.0
  0
LINE
  8
OpenJsCad
 10
3.0988562828139
 20
-18.6630487692321
 30
0.0
 11
3.0648660291566
 21
-19.1639908624004
 31
0.0
  0
LINE
  8
OpenJsCad
 10
3.0648660291566
 20
-19.1639908624004
 30
0.0
 11
3.0367098846438
 21
-19.4565222722554
 31
0.0
  0
LINE
  8
OpenJsCad
 10
3.0367098846438
 20
-19.4565222722554
 30
0.0
 11
3.0108506877403
 21
-19.6495128386026
 31
0.0
  0
LINE
  8
OpenJsCad
 10
3.0108506877403
 20
-19.6495128386026
 30
0.0
 11
3.0040700078925
 21
-19.6980448510713
 31
0.0
  0
LINE
  8
OpenJsCad
 10
3.0040700078925
 20
-19.6980448510713
 30
0.0
 11
2.9475039362954
 21
-20.0182516027244
 31
0.0
  0
LINE
  8
OpenJsCad
 10
2.9475039362954
 20
-20.0182516027244
 30
0.0
 11
2.9012862752191
 21
-20.2086360034362
 31
0.0
  0
LINE
  8
OpenJsCad
 10
2.9012862752191
 20
-20.2086360034362
 30
0.0
 11
2.7264163800768
 21
-20.8358385194578
 31
0.0
  0
LINE
  8
OpenJsCad
 10
2.7264163800768
 20
-20.8358385194578
 30
0.0
 11
2.6346090942256
 21
-20.9940125015074
 31
0.0
  0
LINE
  8
OpenJsCad
 10
2.6346090942256
 20
-20.9940125015074
 30
0.0
 11
2.5986654297058
 21
-21.0049158929362
 31
0.0
  0
LINE
  8
OpenJsCad
 10
2.5986654297058
 20
-21.0049158929362
 30
0.0
 11
2.4040421118487
 21
-21.1046051746589
 31
0.0
  0
LINE
  8
OpenJsCad
 10
2.4040421118487
 20
-21.1046051746589
 30
0.0
 11
1.7594551027768
 21
-21.1680914537682
 31
0.0
  0
LINE
  8
OpenJsCad
 10
1.7594551027768
 20
-21.1680914537682
 30
0.0
 11
1.5491230033265
 21
-21.108286799392
 31
0.0
  0
LINE
  8
OpenJsCad
 10
1.5491230033265
 20
-21.108286799392
 30
0.0
 11
1.5117428400969
 21
-21.1046051746578
 31
0.0
  0
LINE
  8
OpenJsCad
 10
1.5117428400969
 20
-21.1046051746578
 30
0.0
 11
1.3908413924075
 21
-20.9673811742821
 31
0.0
  0
LINE
  8
OpenJsCad
 10
1.3908413924075
 20
-20.9673811742821
 30
0.0
 11
1.0969704324462
 21
-20.3863456028904
 31
0.0
  0
LINE
  8
OpenJsCad
 10
1.0969704324462
 20
-20.3863456028904
 30
0.0
 11
1.0144986767263
 21
-20.2086360034361
 31
0.0
  0
LINE
  8
OpenJsCad
 10
1.0144986767263
 20
-20.2086360034361
 30
0.0
 11
0.8965502680419
 21
-19.9056174278521
 31
0.0
  0
LINE
  8
OpenJsCad
 10
0.8965502680419
 20
-19.9056174278521
 30
0.0
 11
0.8804317511154
 21
-19.8593407894095
 31
0.0
  0
LINE
  8
OpenJsCad
 10
0.8804317511154
 20
-19.8593407894095
 30
0.0
 11
0.8174188396946
 21
-19.6751033617304
 31
0.0
  0
LINE
  8
OpenJsCad
 10
0.8174188396946
 20
-19.6751033617304
 30
0.0
 11
0.7327336606552
 21
-19.3936858521888
 31
0.0
  0
LINE
  8
OpenJsCad
 10
0.7327336606552
 20
-19.3936858521888
 30
0.0
 11
0.6016675659232
 21
-18.9090003904063
 31
0.0
  0
LINE
  8
OpenJsCad
 10
0.6016675659232
 20
-18.9090003904063
 30
0.0
 11
0.5484872573955
 21
-18.8396207244412
 31
0.0
  0
LINE
  8
OpenJsCad
 10
0.5484872573955
 20
-18.8396207244412
 30
0.0
 11
0.5033508088477
 21
-18.7999960991733
 31
0.0
  0
LINE
  8
OpenJsCad
 10
0.5033508088477
 20
-18.7999960991733
 30
0.0
 11
-0.5033508088477
 21
-18.7999960991733
 31
0.0
  0
LINE
  8
OpenJsCad
 10
-0.5033508088477
 20
-18.7999960991733
 30
0.0
 11
-0.5484872573955
 21
-18.8396207244412
 31
0.0
  0
LINE
  8
OpenJsCad
 10
-0.5484872573955
 20
-18.8396207244412
 30
0.0
 11
-0.6016675659232
 21
-18.9090003904063
 31
0.0
  0
LINE
  8
OpenJsCad
 10
-0.6016675659232
 20
-18.9090003904063
 30
0.0
 11
-0.7327336606552
 21
-19.3936858521888
 31
0.0
  0
LINE
  8
OpenJsCad
 10
-0.7327336606552
 20
-19.3936858521888
 30
0.0
 11
-0.8174188396946
 21
-19.6751033617304
 31
0.0
  0
LINE
  8
OpenJsCad
 10
-0.8174188396946
 20
-19.6751033617304
 30
0.0
 11
-0.8804317511154
 21
-19.8593407894095
 31
0.0
  0
LINE
  8
OpenJsCad
 10
-0.8804317511154
 20
-19.8593407894095
 30
0.0
 11
-0.8965502680419
 21
-19.9056174278521
 31
0.0
  0
LINE
  8
OpenJsCad
 10
-0.8965502680419
 20
-19.9056174278521
 30
0.0
 11
-1.0144986767263
 21
-20.2086360034361
 31
0.0
  0
LINE
  8
OpenJsCad
 10
-1.0144986767263
 20
-20.2086360034361
 30
0.0
 11
-1.0969704324462
 21
-20.3863456028904
 31
0.0
  0
LINE
  8
OpenJsCad
 10
-1.0969704324462
 20
-20.3863456028904
 30
0.0
 11
-1.3908413924075
 21
-20.9673811742821
 31
0.0
  0
LINE
  8
OpenJsCad
 10
-1.3908413924075
 20
-20.9673811742821
 30
0.0
 11
-1.5117428400968
 21
-21.1046051746589
 31
0.0
  0
LINE
  8
OpenJsCad
 10
-1.5117428400968
 20
-21.1046051746589
 30
0.0
 11
-1.5491230033264
 21
-21.1082867993931
 31
0.0
  0
LINE
  8
OpenJsCad
 10
-1.5491230033264
 20
-21.1082867993931
 30
0.0
 11
-1.7594551027768
 21
-21.1680914537682
 31
0.0
  0
LINE
  8
OpenJsCad
 10
-1.7594551027768
 20
-21.1680914537682
 30
0.0
 11
-2.4040421118487
 21
-21.1046051746589
 31
0.0
  0
LINE
  8
OpenJsCad
 10
-2.4040421118487
 20
-21.1046051746589
 30
0.0
 11
-2.5986654297052
 21
-21.0049158929343
 31
0.0
  0
LINE
  8
OpenJsCad
 10
-2.5986654297052
 20
-21.0049158929343
 30
0.0
 11
-2.634609094225
 21
-20.9940125015055
 31
0.0
  0
LINE
  8
OpenJsCad
 10
-2.634609094225
 20
-20.9940125015055
 30
0.0
 11
-2.7264163800768
 21
-20.8358385194578
 31
0.0
  0
LINE
  8
OpenJsCad
 10
-2.7264163800768
 20
-20.8358385194578
 30
0.0
 11
-2.9012862752191
 21
-20.2086360034362
 31
0.0
  0
LINE
  8
OpenJsCad
 10
-2.9012862752191
 20
-20.2086360034362
 30
0.0
 11
-2.9475039362954
 21
-20.0182516027244
 31
0.0
  0
LINE
  8
OpenJsCad
 10
-2.9475039362954
 20
-20.0182516027244
 30
0.0
 11
-3.0040700078925
 21
-19.6980448510713
 31
0.0
  0
LINE
  8
OpenJsCad
 10
-3.0040700078925
 20
-19.6980448510713
 30
0.0
 11
-3.0108506877403
 21
-19.6495128386026
 31
0.0
  0
LINE
  8
OpenJsCad
 10
-3.0108506877403
 20
-19.6495128386026
 30
0.0
 11
-3.0367098846438
 21
-19.4565222722554
 31
0.0
  0
LINE
  8
OpenJsCad
 10
-3.0367098846438
 20
-19.4565222722554
 30
0.0
 11
-3.0648660291566
 21
-19.1639908624004
 31
0.0
  0
LINE
  8
OpenJsCad
 10
-3.0648660291566
 20
-19.1639908624004
 30
0.0
 11
-3.0988562828139
 21
-18.6630487692321
 31
0.0
  0
LINE
  8
OpenJsCad
 10
-3.0988562828139
 20
-18.6630487692321
 30
0.0
 11
-3.1374794452507
 21
-18.5846272505786
 31
0.0
  0
LINE
  8
OpenJsCad
 10
-3.1374794452507
 20
-18.5846272505786
 30
0.0
 11
-3.1740182286928
 21
-18.5369583170925
 31
0.0
  0
LINE
  8
OpenJsCad
 10
-3.1740182286928
 20
-18.5369583170925
 30
0.0
 11
-4.1613763570865
 21
-18.3405605743221
 31
0.0
  0
LINE
  8
OpenJsCad
 10
-4.1613763570865
 20
-18.3405605743221
 30
0.0
 11
-4.2133759023352
 21
-18.3706181392446
 31
0.0
  0
LINE
  8
OpenJsCad
 10
-4.2133759023352
 20
-18.3706181392446
 30
0.0
 11
-4.279069667521
 21
-18.4282897308668
 31
0.0
  0
LINE
  8
OpenJsCad
 10
-4.279069667521
 20
-18.4282897308668
 30
0.0
 11
-4.5021748068097
 21
-18.8780923707819
 31
0.0
  0
LINE
  8
OpenJsCad
 10
-4.5021748068097
 20
-18.8780923707819
 30
0.0
 11
-4.6401346164374
 21
-19.1375812629393
 31
0.0
  0
LINE
  8
OpenJsCad
 10
-4.6401346164374
 20
-19.1375812629393
 30
0.0
 11
-4.7378796915275
 21
-19.305985410926
 31
0.0
  0
LINE
  8
OpenJsCad
 10
-4.7378796915275
 20
-19.305985410926
 30
0.0
 11
-4.7627166199666
 21
-19.3482282900795
 31
0.0
  0
LINE
  8
OpenJsCad
 10
-4.7627166199666
 20
-19.3482282900795
 30
0.0
 11
-4.9375146745388
 21
-19.6224138556695
 31
0.0
  0
LINE
  8
OpenJsCad
 10
-4.9375146745388
 20
-19.6224138556695
 30
0.0
 11
-5.0530711815808
 21
-19.7806193736199
 31
0.0
  0
LINE
  8
OpenJsCad
 10
-5.0530711815808
 20
-19.7806193736199
 30
0.0
 11
-5.4546499101744
 21
-20.2931591292215
 31
0.0
  0
LINE
  8
OpenJsCad
 10
-5.4546499101744
 20
-20.2931591292215
 30
0.0
 11
-5.5999993448693
 21
-20.4041597065473
 31
0.0
  0
LINE
  8
OpenJsCad
 10
-5.5999993448693
 20
-20.4041597065473
 30
0.0
 11
-5.637379508099
 21
-20.4004780818131
 31
0.0
  0
LINE
  8
OpenJsCad
 10
-5.637379508099
 20
-20.4004780818131
 30
0.0
 11
-5.8553374445163
 21
-20.4180998495116
 31
0.0
  0
LINE
  8
OpenJsCad
 10
-5.8553374445163
 20
-20.4180998495116
 30
0.0
 11
-6.4751533363181
 21
-20.2300807542864
 31
0.0
  0
LINE
  8
OpenJsCad
 10
-6.4751533363181
 20
-20.2300807542864
 30
0.0
 11
-6.6465886076224
 21
-20.0943378484055
 31
0.0
  0
LINE
  8
OpenJsCad
 10
-6.6465886076224
 20
-20.0943378484055
 30
0.0
 11
-6.6797144785623
 21
-20.0766317015
 31
0.0
  0
LINE
  8
OpenJsCad
 10
-6.6797144785623
 20
-20.0766317015
 30
0.0
 11
-6.7388995000666
 21
-19.9035862752036
 31
0.0
  0
LINE
  8
OpenJsCad
 10
-6.7388995000666
 20
-19.9035862752036
 30
0.0
 11
-6.7880481783879
 21
-19.2543198555035
 31
0.0
  0
LINE
  8
OpenJsCad
 10
-6.7880481783879
 20
-19.2543198555035
 30
0.0
 11
-6.7962356260245
 21
-19.0585770192848
 31
0.0
  0
LINE
  8
OpenJsCad
 10
-6.7962356260245
 20
-19.0585770192848
 30
0.0
 11
-6.7892455581254
 21
-18.7334874574547
 31
0.0
  0
LINE
  8
OpenJsCad
 10
-6.7892455581254
 20
-18.7334874574547
 30
0.0
 11
-6.7864278231707
 21
-18.684565128982
 31
0.0
  0
LINE
  8
OpenJsCad
 10
-6.7864278231707
 20
-18.684565128982
 30
0.0
 11
-6.7741395511219
 21
-18.490237943201
 31
0.0
  0
LINE
  8
OpenJsCad
 10
-6.7741395511219
 20
-18.490237943201
 30
0.0
 11
-6.7446846362645
 21
-18.1978344510599
 31
0.0
  0
LINE
  8
OpenJsCad
 10
-6.7446846362645
 20
-18.1978344510599
 30
0.0
 11
-6.6802928224612
 21
-17.6998866502146
 31
0.0
  0
LINE
  8
OpenJsCad
 10
-6.6802928224612
 20
-17.6998866502146
 30
0.0
 11
-6.7028745723347
 21
-17.6154369738553
 31
0.0
  0
LINE
  8
OpenJsCad
 10
-6.7028745723347
 20
-17.6154369738553
 30
0.0
 11
-6.7294115257146
 21
-17.5615556225318
 31
0.0
  0
LINE
  8
OpenJsCad
 10
-6.7294115257146
 20
-17.5615556225318
 30
0.0
 11
-7.6594825456493
 21
-17.1763075921046
 31
0.0
  0
LINE
  8
OpenJsCad
 10
-7.6594825456493
 20
-17.1763075921046
 30
0.0
 11
-7.7163468742366
 21
-17.1956430013181
 31
0.0
  0
LINE
  8
OpenJsCad
 10
-7.7163468742366
 20
-17.1956430013181
 30
0.0
 11
-7.7920295215259
 21
-17.2393902316741
 31
0.0
  0
LINE
  8
OpenJsCad
 10
-7.7920295215259
 20
-17.2393902316741
 30
0.0
 11
-8.0985998999873
 21
-17.637024386522
 31
0.0
  0
LINE
  8
OpenJsCad
 10
-8.0985998999873
 20
-17.637024386522
 30
0.0
 11
-8.2845326220879
 21
-17.8646126486925
 31
0.0
  0
LINE
  8
OpenJsCad
 10
-8.2845326220879
 20
-17.8646126486925
 30
0.0
 11
-8.4132535724278
 21
-18.0107118400219
 31
0.0
  0
LINE
  8
OpenJsCad
 10
-8.4132535724278
 20
-18.0107118400219
 30
0.0
 11
-8.4458544431482
 21
-18.0472975897304
 31
0.0
  0
LINE
  8
OpenJsCad
 10
-8.4458544431482
 20
-18.0472975897304
 30
0.0
 11
-8.6707847523989
 21
-18.2821133478059
 31
0.0
  0
LINE
  8
OpenJsCad
 10
-8.6707847523989
 20
-18.2821133478059
 30
0.0
 11
-8.8149852390022
 21
-18.4147350349204
 31
0.0
  0
LINE
  8
OpenJsCad
 10
-8.8149852390022
 20
-18.4147350349204
 30
0.0
 11
-9.3088392908963
 21
-18.8390823593597
 31
0.0
  0
LINE
  8
OpenJsCad
 10
-9.3088392908963
 20
-18.8390823593597
 30
0.0
 11
-9.4730510153344
 21
-18.9195938236976
 31
0.0
  0
LINE
  8
OpenJsCad
 10
-9.4730510153344
 20
-18.9195938236976
 30
0.0
 11
-9.5089946798542
 21
-18.9086904322688
 31
0.0
  0
LINE
  8
OpenJsCad
 10
-9.5089946798542
 20
-18.9086904322688
 30
0.0
 11
-9.7262024519742
 21
-18.8834521186407
 31
0.0
  0
LINE
  8
OpenJsCad
 10
-9.7262024519742
 20
-18.8834521186407
 30
0.0
 11
-10.2974280493807
 21
-18.5781256756867
 31
0.0
  0
LINE
  8
OpenJsCad
 10
-10.2974280493807
 20
-18.5781256756867
 30
0.0
 11
-10.4390871127977
 21
-18.4115456693953
 31
0.0
  0
LINE
  8
OpenJsCad
 10
-10.4390871127977
 20
-18.4115456693953
 30
0.0
 11
-10.4681221815146
 21
-18.3877172043091
 31
0.0
  0
LINE
  8
OpenJsCad
 10
-10.4681221815146
 20
-18.3877172043091
 30
0.0
 11
-10.4924104914873
 21
-18.2064503724532
 31
0.0
  0
LINE
  8
OpenJsCad
 10
-10.4924104914873
 20
-18.2064503724532
 30
0.0
 11
-10.4139491968425
 21
-17.5600709934708
 31
0.0
  0
LINE
  8
OpenJsCad
 10
-10.4139491968425
 20
-17.5600709934708
 30
0.0
 11
-10.3837917920183
 21
-17.3664920091672
 31
0.0
  0
LINE
  8
OpenJsCad
 10
-10.3837917920183
 20
-17.3664920091672
 30
0.0
 11
-10.3135142090123
 21
-17.0490126467088
 31
0.0
  0
LINE
  8
OpenJsCad
 10
-10.3135142090123
 20
-17.0490126467088
 30
0.0
 11
-10.3012063432292
 21
-17.0015800598794
 31
0.0
  0
LINE
  8
OpenJsCad
 10
-10.3012063432292
 20
-17.0015800598794
 30
0.0
 11
-10.2512428336316
 21
-16.8133841394343
 31
0.0
  0
LINE
  8
OpenJsCad
 10
-10.2512428336316
 20
-16.8133841394343
 30
0.0
 11
-10.1653087952635
 21
-16.5323454672283
 31
0.0
  0
LINE
  8
OpenJsCad
 10
-10.1653087952635
 20
-16.5323454672283
 30
0.0
 11
-10.0050094552926
 21
-16.0565278134401
 31
0.0
  0
LINE
  8
OpenJsCad
 10
-10.0050094552926
 20
-16.0565278134401
 30
0.0
 11
-10.0106819886192
 21
-15.9692953330776
 31
0.0
  0
LINE
  8
OpenJsCad
 10
-10.0106819886192
 20
-15.9692953330776
 30
0.0
 11
-10.0261973117006
 21
-15.9112721940311
 31
0.0
  0
LINE
  8
OpenJsCad
 10
-10.0261973117006
 20
-15.9112721940311
 30
0.0
 11
-10.86323911547
 21
-15.3519787417069
 31
0.0
  0
LINE
  8
OpenJsCad
 10
-10.86323911547
 20
-15.3519787417069
 30
0.0
 11
-10.9227829631382
 21
-15.3598489462787
 31
0.0
  0
LINE
  8
OpenJsCad
 10
-10.9227829631382
 20
-15.3598489462787
 30
0.0
 11
-11.005546050839
 21
-15.3879906338395
 31
0.0
  0
LINE
  8
OpenJsCad
 10
-11.005546050839
 20
-15.3879906338395
 30
0.0
 11
-11.3838003407555
 21
-15.7181754460453
 31
0.0
  0
LINE
  8
OpenJsCad
 10
-11.3838003407555
 20
-15.7181754460453
 30
0.0
 11
-11.610560685091
 21
-15.9051169889468
 31
0.0
  0
LINE
  8
OpenJsCad
 10
-11.610560685091
 20
-15.9051169889468
 30
0.0
 11
-11.7653108367467
 21
-16.0232967136294
 31
0.0
  0
LINE
  8
OpenJsCad
 10
-11.7653108367467
 20
-16.0232967136294
 30
0.0
 11
-11.8044228165694
 21
-16.0528193640492
 31
0.0
  0
LINE
  8
OpenJsCad
 10
-11.8044228165694
 20
-16.0528193640492
 30
0.0
 11
-12.0708414348564
 21
-16.2392414767134
 31
0.0
  0
LINE
  8
OpenJsCad
 10
-12.0708414348564
 20
-16.2392414767134
 30
0.0
 11
-12.2381443571894
 21
-16.3411827559312
 31
0.0
  0
LINE
  8
OpenJsCad
 10
-12.2381443571894
 20
-16.3411827559312
 30
0.0
 11
-12.8052951981261
 21
-16.6610302195069
 31
0.0
  0
LINE
  8
OpenJsCad
 10
-12.8052951981261
 20
-16.6610302195069
 30
0.0
 11
-12.9820586478284
 21
-16.7079585604337
 31
0.0
  0
LINE
  8
OpenJsCad
 10
-12.9820586478284
 20
-16.7079585604337
 30
0.0
 11
-13.0151845187682
 21
-16.6902524135283
 31
0.0
  0
LINE
  8
OpenJsCad
 10
-13.0151845187682
 20
-16.6902524135283
 30
0.0
 11
-13.2232949537198
 21
-16.6231239128122
 31
0.0
  0
LINE
  8
OpenJsCad
 10
-13.2232949537198
 20
-16.6231239128122
 30
0.0
 11
-13.7239783773698
 21
-16.2122236461032
 31
0.0
  0
LINE
  8
OpenJsCad
 10
-13.7239783773698
 20
-16.2122236461032
 30
0.0
 11
-13.8304173545353
 21
-16.021208115624
 31
0.0
  0
LINE
  8
OpenJsCad
 10
-13.8304173545353
 20
-16.021208115624
 30
0.0
 11
-13.8542458196216
 21
-15.9921730469072
 31
0.0
  0
LINE
  8
OpenJsCad
 10
-13.8542458196216
 20
-15.9921730469072
 30
0.0
 11
-13.8427040319317
 21
-15.8096507921843
 31
0.0
  0
LINE
  8
OpenJsCad
 10
-13.8427040319317
 20
-15.8096507921843
 30
0.0
 11
-13.6396479878725
 21
-15.1909984509602
 31
0.0
  0
LINE
  8
OpenJsCad
 10
-13.6396479878725
 20
-15.1909984509602
 30
0.0
 11
-13.5723046627424
 21
-15.0070224503783
 31
0.0
  0
LINE
  8
OpenJsCad
 10
-13.5723046627424
 20
-15.0070224503783
 30
0.0
 11
-13.4414402927323
 21
-14.7093538411464
 31
0.0
  0
LINE
  8
OpenJsCad
 10
-13.4414402927323
 20
-14.7093538411464
 30
0.0
 11
-13.4201152805004
 21
-14.6652338036717
 31
0.0
  0
LINE
  8
OpenJsCad
 10
-13.4201152805004
 20
-14.6652338036717
 30
0.0
 11
-13.3343966030081
 21
-14.4904014122435
 31
0.0
  0
LINE
  8
OpenJsCad
 10
-13.3343966030081
 20
-14.4904014122435
 30
0.0
 11
-13.1952858380314
 21
-14.2315277185372
 31
0.0
  0
LINE
  8
OpenJsCad
 10
-13.1952858380314
 20
-14.2315277185372
 30
0.0
 11
-12.9452391856311
 21
-13.7961256173997
 31
0.0
  0
LINE
  8
OpenJsCad
 10
-12.9452391856311
 20
-13.7961256173997
 30
0.0
 11
-12.9337845101363
 21
-13.7094626283338
 31
0.0
  0
LINE
  8
OpenJsCad
 10
-12.9337845101363
 20
-13.7094626283338
 30
0.0
 11
-12.9376819577541
 21
-13.649527498258
 31
0.0
  0
LINE
  8
OpenJsCad
 10
-12.9376819577541
 20
-13.649527498258
 30
0.0
 11
-13.649527498258
 21
-12.9376819577541
 31
0.0
  0
LINE
  8
OpenJsCad
 10
-13.649527498258
 20
-12.9376819577541
 30
0.0
 11
-13.7094626283338
 21
-12.9337845101363
 31
0.0
  0
LINE
  8
OpenJsCad
 10
-13.7094626283338
 20
-12.9337845101363
 30
0.0
 11
-13.7961256173997
 21
-12.9452391856311
 31
0.0
  0
LINE
  8
OpenJsCad
 10
-13.7961256173997
 20
-12.9452391856311
 30
0.0
 11
-14.2315277185372
 21
-13.1952858380314
 31
0.0
  0
LINE
  8
OpenJsCad
 10
-14.2315277185372
 20
-13.1952858380314
 30
0.0
 11
-14.4904014122435
 21
-13.3343966030081
 31
0.0
  0
LINE
  8
OpenJsCad
 10
-14.4904014122435
 20
-13.3343966030081
 30
0.0
 11
-14.6652338036717
 21
-13.4201152805004
 31
0.0
  0
LINE
  8
OpenJsCad
 10
-14.6652338036717
 20
-13.4201152805004
 30
0.0
 11
-14.7093538411464
 21
-13.4414402927323
 31
0.0
  0
LINE
  8
OpenJsCad
 10
-14.7093538411464
 20
-13.4414402927323
 30
0.0
 11
-15.0070224503783
 21
-13.5723046627424
 31
0.0
  0
LINE
  8
OpenJsCad
 10
-15.0070224503783
 20
-13.5723046627424
 30
0.0
 11
-15.1909984509602
 21
-13.6396479878725
 31
0.0
  0
LINE
  8
OpenJsCad
 10
-15.1909984509602
 20
-13.6396479878725
 30
0.0
 11
-15.8096507921843
 21
-13.8427040319317
 31
0.0
  0
LINE
  8
OpenJsCad
 10
-15.8096507921843
 20
-13.8427040319317
 30
0.0
 11
-15.9921730469087
 21
-13.8542458196234
 31
0.0
  0
LINE
  8
OpenJsCad
 10
-15.9921730469087
 20
-13.8542458196234
 30
0.0
 11
-16.0212081156256
 21
-13.8304173545372
 31
0.0
  0
LINE
  8
OpenJsCad
 10
-16.0212081156256
 20
-13.8304173545372
 30
0.0
 11
-16.2122236461032
 21
-13.7239783773698
 31
0.0
  0
LINE
  8
OpenJsCad
 10
-16.2122236461032
 20
-13.7239783773698
 30
0.0
 11
-16.6231239128123
 21
-13.2232949537198
 31
0.0
  0
LINE
  8
OpenJsCad
 10
-16.6231239128123
 20
-13.2232949537198
 30
0.0
 11
-16.6902524135262
 21
-13.0151845187671
 31
0.0
  0
LINE
  8
OpenJsCad
 10
-16.6902524135262
 20
-13.0151845187671
 30
0.0
 11
-16.7079585604316
 21
-12.9820586478273
 31
0.0
  0
LINE
  8
OpenJsCad
 10
-16.7079585604316
 20
-12.9820586478273
 30
0.0
 11
-16.6610302195069
 21
-12.8052951981261
 31
0.0
  0
LINE
  8
OpenJsCad
 10
-16.6610302195069
 20
-12.8052951981261
 30
0.0
 11
-16.3411827559312
 21
-12.2381443571894
 31
0.0
  0
LINE
  8
OpenJsCad
 10
-16.3411827559312
 20
-12.2381443571894
 30
0.0
 11
-16.2392414767134
 21
-12.0708414348564
 31
0.0
  0
LINE
  8
OpenJsCad
 10
-16.2392414767134
 20
-12.0708414348564
 30
0.0
 11
-16.0528193640492
 21
-11.8044228165694
 31
0.0
  0
LINE
  8
OpenJsCad
 10
-16.0528193640492
 20
-11.8044228165694
 30
0.0
 11
-16.0232967136294
 21
-11.7653108367467
 31
0.0
  0
LINE
  8
OpenJsCad
 10
-16.0232967136294
 20
-11.7653108367467
 30
0.0
 11
-15.9051169889468
 21
-11.610560685091
 31
0.0
  0
LINE
  8
OpenJsCad
 10
-15.9051169889468
 20
-11.610560685091
 30
0.0
 11
-15.7181754460453
 21
-11.3838003407555
 31
0.0
  0
LINE
  8
OpenJsCad
 10
-15.7181754460453
 20
-11.3838003407555
 30
0.0
 11
-15.3879906338395
 21
-11.005546050839
 31
0.0
  0
LINE
  8
OpenJsCad
 10
-15.3879906338395
 20
-11.005546050839
 30
0.0
 11
-15.3598489462787
 21
-10.9227829631382
 31
0.0
  0
LINE
  8
OpenJsCad
 10
-15.3598489462787
 20
-10.9227829631382
 30
0.0
 11
-15.3519787417069
 21
-10.86323911547
 31
0.0
  0
LINE
  8
OpenJsCad
 10
-15.3519787417069
 20
-10.86323911547
 30
0.0
 11
-15.911272194031
 21
-10.0261973117006
 31
0.0
  0
LINE
  8
OpenJsCad
 10
-15.911272194031
 20
-10.0261973117006
 30
0.0
 11
-15.9692953330776
 21
-10.0106819886192
 31
0.0
  0
LINE
  8
OpenJsCad
 10
-15.9692953330776
 20
-10.0106819886192
 30
0.0
 11
-16.0565278134401
 21
-10.0050094552926
 31
0.0
  0
LINE
  8
OpenJsCad
 10
-16.0565278134401
 20
-10.0050094552926
 30
0.0
 11
-16.5323454672283
 21
-10.1653087952635
 31
0.0
  0
LINE
  8
OpenJsCad
 10
-16.5323454672283
 20
-10.1653087952635
 30
0.0
 11
-16.8133841394343
 21
-10.2512428336316
 31
0.0
  0
LINE
  8
OpenJsCad
 10
-16.8133841394343
 20
-10.2512428336316
 30
0.0
 11
-17.0015800598794
 21
-10.3012063432292
 31
0.0
  0
LINE
  8
OpenJsCad
 10
-17.0015800598794
 20
-10.3012063432292
 30
0.0
 11
-17.0490126467088
 21
-10.3135142090123
 31
0.0
  0
LINE
  8
OpenJsCad
 10
-17.0490126467088
 20
-10.3135142090123
 30
0.0
 11
-17.3664920091672
 21
-10.3837917920183
 31
0.0
  0
LINE
  8
OpenJsCad
 10
-17.3664920091672
 20
-10.3837917920183
 30
0.0
 11
-17.5600709934708
 21
-10.4139491968425
 31
0.0
  0
LINE
  8
OpenJsCad
 10
-17.5600709934708
 20
-10.4139491968425
 30
0.0
 11
-18.2064503724532
 21
-10.4924104914873
 31
0.0
  0
LINE
  8
OpenJsCad
 10
-18.2064503724532
 20
-10.4924104914873
 30
0.0
 11
-18.3877172043102
 21
-10.4681221815155
 31
0.0
  0
LINE
  8
OpenJsCad
 10
-18.3877172043102
 20
-10.4681221815155
 30
0.0
 11
-18.4115456693964
 21
-10.4390871127987
 31
0.0
  0
LINE
  8
OpenJsCad
 10
-18.4115456693964
 20
-10.4390871127987
 30
0.0
 11
-18.5781256756867
 21
-10.2974280493807
 31
0.0
  0
LINE
  8
OpenJsCad
 10
-18.5781256756867
 20
-10.2974280493807
 30
0.0
 11
-18.8834521186407
 21
-9.7262024519742
 31
0.0
  0
LINE
  8
OpenJsCad
 10
-18.8834521186407
 20
-9.7262024519742
 30
0.0
 11
-18.9086904322674
 21
-9.5089946798538
 31
0.0
  0
LINE
  8
OpenJsCad
 10
-18.9086904322674
 20
-9.5089946798538
 30
0.0
 11
-18.9195938236962
 21
-9.473051015334
 31
0.0
  0
LINE
  8
OpenJsCad
 10
-18.9195938236962
 20
-9.473051015334
 30
0.0
 11
-18.8390823593597
 21
-9.3088392908963
 31
0.0
  0
LINE
  8
OpenJsCad
 10
-18.8390823593597
 20
-9.3088392908963
 30
0.0
 11
-18.4147350349204
 21
-8.8149852390022
 31
0.0
  0
LINE
  8
OpenJsCad
 10
-18.4147350349204
 20
-8.8149852390022
 30
0.0
 11
-18.2821133478059
 21
-8.6707847523989
 31
0.0
  0
LINE
  8
OpenJsCad
 10
-18.2821133478059
 20
-8.6707847523989
 30
0.0
 11
-18.0472975897305
 21
-8.4458544431482
 31
0.0
  0
LINE
  8
OpenJsCad
 10
-18.0472975897305
 20
-8.4458544431482
 30
0.0
 11
-18.0107118400219
 21
-8.4132535724278
 31
0.0
  0
LINE
  8
OpenJsCad
 10
-18.0107118400219
 20
-8.4132535724278
 30
0.0
 11
-17.8646126486925
 21
-8.2845326220879
 31
0.0
  0
LINE
  8
OpenJsCad
 10
-17.8646126486925
 20
-8.2845326220879
 30
0.0
 11
-17.637024386522
 21
-8.0985998999873
 31
0.0
  0
LINE
  8
OpenJsCad
 10
-17.637024386522
 20
-8.0985998999873
 30
0.0
 11
-17.2393902316741
 21
-7.7920295215259
 31
0.0
  0
LINE
  8
OpenJsCad
 10
-17.2393902316741
 20
-7.7920295215259
 30
0.0
 11
-17.1956430013181
 21
-7.7163468742366
 31
0.0
  0
LINE
  8
OpenJsCad
 10
-17.1956430013181
 20
-7.7163468742366
 30
0.0
 11
-17.1763075921046
 21
-7.6594825456493
 31
0.0
  0
LINE
  8
OpenJsCad
 10
-17.1763075921046
 20
-7.6594825456493
 30
0.0
 11
-17.5615556225318
 21
-6.7294115257146
 31
0.0
  0
LINE
  8
OpenJsCad
 10
-17.5615556225318
 20
-6.7294115257146
 30
0.0
 11
-17.6154369738553
 21
-6.7028745723347
 31
0.0
  0
LINE
  8
OpenJsCad
 10
-17.6154369738553
 20
-6.7028745723347
 30
0.0
 11
-17.6998866502146
 21
-6.6802928224612
 31
0.0
  0
LINE
  8
OpenJsCad
 10
-17.6998866502146
 20
-6.6802928224612
 30
0.0
 11
-18.1978344510599
 21
-6.7446846362645
 31
0.0
  0
LINE
  8
OpenJsCad
 10
-18.1978344510599
 20
-6.7446846362645
 30
0.0
 11
-18.490237943201
 21
-6.7741395511219
 31
0.0
  0
LINE
  8
OpenJsCad
 10
-18.490237943201
 20
-6.7741395511219
 30
0.0
 11
-18.684565128982
 21
-6.7864278231707
 31
0.0
  0
LINE
  8
OpenJsCad
 10
-18.684565128982
 20
-6.7864278231707
 30
0.0
 11
-18.7334874574547
 21
-6.7892455581254
 31
0.0
  0
LINE
  8
OpenJsCad
 10
-18.7334874574547
 20
-6.7892455581254
 30
0.0
 11
-19.0585770192848
 21
-6.7962356260245
 31
0.0
  0
LINE
  8
OpenJsCad
 10
-19.0585770192848
 20
-6.7962356260245
 30
0.0
 11
-19.2543198555035
 21
-6.7880481783879
 31
0.0
  0
LINE
  8
OpenJsCad
 10
-19.2543198555035
 20
-6.7880481783879
 30
0.0
 11
-19.9035862752036
 21
-6.7388995000666
 31
0.0
  0
LINE
  8
OpenJsCad
 10
-19.9035862752036
 20
-6.7388995000666
 30
0.0
 11
-20.0766317015008
 21
-6.6797144785626
 31
0.0
  0
LINE
  8
OpenJsCad
 10
-20.0766317015008
 20
-6.6797144785626
 30
0.0
 11
-20.0943378484062
 21
-6.6465886076228
 31
0.0
  0
LINE
  8
OpenJsCad
 10
-20.0943378484062
 20
-6.6465886076228
 30
0.0
 11
-20.2300807542864
 21
-6.4751533363181
 31
0.0
  0
LINE
  8
OpenJsCad
 10
-20.2300807542864
 20
-6.4751533363181
 30
0.0
 11
-20.4180998495116
 21
-5.8553374445163
 31
0.0
  0
LINE
  8
OpenJsCad
 10
-20.4180998495116
 20
-5.8553374445163
 30
0.0
 11
-20.4004780818122
 21
-5.6373795080989
 31
0.0
  0
LINE
  8
OpenJsCad
 10
-20.4004780818122
 20
-5.6373795080989
 30
0.0
 11
-20.4041597065464
 21
-5.5999993448693
 31
0.0
  0
LINE
  8
OpenJsCad
 10
-20.4041597065464
 20
-5.5999993448693
 30
0.0
 11
-20.2931591292215
 21
-5.4546499101744
 31
0.0
  0
LINE
  8
OpenJsCad
 10
-20.2931591292215
 20
-5.4546499101744
 30
0.0
 11
-19.7806193736199
 21
-5.0530711815808
 31
0.0
  0
LINE
  8
OpenJsCad
 10
-19.7806193736199
 20
-5.0530711815808
 30
0.0
 11
-19.6224138556695
 21
-4.9375146745388
 31
0.0
  0
LINE
  8
OpenJsCad
 10
-19.6224138556695
 20
-4.9375146745388
 30
0.0
 11
-19.3482282900795
 21
-4.7627166199666
 31
0.0
  0
LINE
  8
OpenJsCad
 10
-19.3482282900795
 20
-4.7627166199666
 30
0.0
 11
-19.305985410926
 21
-4.7378796915275
 31
0.0
  0
LINE
  8
OpenJsCad
 10
-19.305985410926
 20
-4.7378796915275
 30
0.0
 11
-19.1375812629393
 21
-4.6401346164374
 31
0.0
  0
LINE
  8
OpenJsCad
 10
-19.1375812629393
 20
-4.6401346164374
 30
0.0
 11
-18.8780923707819
 21
-4.5021748068097
 31
0.0
  0
LINE
  8
OpenJsCad
 10
-18.8780923707819
 20
-4.5021748068097
 30
0.0
 11
-18.4282897308668
 21
-4.279069667521
 31
0.0
  0
LINE
  8
OpenJsCad
 10
-18.4282897308668
 20
-4.279069667521
 30
0.0
 11
-18.3706181392446
 21
-4.2133759023352
 31
0.0
  0
LINE
  8
OpenJsCad
 10
-18.3706181392446
 20
-4.2133759023352
 30
0.0
 11
-18.3405605743221
 21
-4.1613763570865
 31
0.0
  0
LINE
  8
OpenJsCad
 10
-18.3405605743221
 20
-4.1613763570865
 30
0.0
 11
-18.5369583170925
 21
-3.1740182286928
 31
0.0
  0
LINE
  8
OpenJsCad
 10
-18.5369583170925
 20
-3.1740182286928
 30
0.0
 11
-18.5846272505786
 21
-3.1374794452508
 31
0.0
  0
LINE
  8
OpenJsCad
 10
-18.5846272505786
 20
-3.1374794452508
 30
0.0
 11
-18.6630487692321
 21
-3.0988562828139
 31
0.0
  0
LINE
  8
OpenJsCad
 10
-18.6630487692321
 20
-3.0988562828139
 30
0.0
 11
-19.1639908624004
 21
-3.0648660291566
 31
0.0
  0
LINE
  8
OpenJsCad
 10
-19.1639908624004
 20
-3.0648660291566
 30
0.0
 11
-19.4565222722554
 21
-3.0367098846438
 31
0.0
  0
LINE
  8
OpenJsCad
 10
-19.4565222722554
 20
-3.0367098846438
 30
0.0
 11
-19.6495128386026
 21
-3.0108506877403
 31
0.0
  0
LINE
  8
OpenJsCad
 10
-19.6495128386026
 20
-3.0108506877403
 30
0.0
 11
-19.6980448510713
 21
-3.0040700078925
 31
0.0
  0
LINE
  8
OpenJsCad
 10
-19.6980448510713
 20
-3.0040700078925
 30
0.0
 11
-20.0182516027244
 21
-2.9475039362954
 31
0.0
  0
LINE
  8
OpenJsCad
 10
-20.0182516027244
 20
-2.9475039362954
 30
0.0
 11
-20.2086360034362
 21
-2.9012862752191
 31
0.0
  0
LINE
  8
OpenJsCad
 10
-20.2086360034362
 20
-2.9012862752191
 30
0.0
 11
-20.8358385194578
 21
-2.7264163800768
 31
0.0
  0
LINE
  8
OpenJsCad
 10
-20.8358385194578
 20
-2.7264163800768
 30
0.0
 11
-20.9940125015074
 21
-2.6346090942256
 31
0.0
  0
LINE
  8
OpenJsCad
 10
-20.9940125015074
 20
-2.6346090942256
 30
0.0
 11
-21.0049158929362
 21
-2.5986654297058
 31
0.0
  0
LINE
  8
OpenJsCad
 10
-21.0049158929362
 20
-2.5986654297058
 30
0.0
 11
-21.1046051746589
 21
-2.4040421118487
 31
0.0
  0
LINE
  8
OpenJsCad
 10
-21.1046051746589
 20
-2.4040421118487
 30
0.0
 11
-21.1680914537682
 21
-1.7594551027768
 31
0.0
  0
LINE
  8
OpenJsCad
 10
-21.1680914537682
 20
-1.7594551027768
 30
0.0
 11
-21.1082867993932
 21
-1.5491230033264
 31
0.0
  0
LINE
  8
OpenJsCad
 10
-21.1082867993932
 20
-1.5491230033264
 30
0.0
 11
-21.1046051746589
 21
-1.5117428400968
 31
0.0
  0
LINE
  8
OpenJsCad
 10
-21.1046051746589
 20
-1.5117428400968
 30
0.0
 11
-20.9673811742821
 21
-1.3908413924075
 31
0.0
  0
LINE
  8
OpenJsCad
 10
-20.9673811742821
 20
-1.3908413924075
 30
0.0
 11
-20.3863456028904
 21
-1.0969704324462
 31
0.0
  0
LINE
  8
OpenJsCad
 10
-20.3863456028904
 20
-1.0969704324462
 30
0.0
 11
-20.2086360034361
 21
-1.0144986767263
 31
0.0
  0
LINE
  8
OpenJsCad
 10
-20.2086360034361
 20
-1.0144986767263
 30
0.0
 11
-19.9056174278521
 21
-0.8965502680419
 31
0.0
  0
LINE
  8
OpenJsCad
 10
-19.9056174278521
 20
-0.8965502680419
 30
0.0
 11
-19.8593407894095
 21
-0.8804317511154
 31
0.0
  0
LINE
  8
OpenJsCad
 10
-19.8593407894095
 20
-0.8804317511154
 30
0.0
 11
-19.6751033617304
 21
-0.8174188396946
 31
0.0
  0
LINE
  8
OpenJsCad
 10
-19.6751033617304
 20
-0.8174188396946
 30
0.0
 11
-19.3936858521888
 21
-0.7327336606552
 31
0.0
  0
LINE
  8
OpenJsCad
 10
-19.3936858521888
 20
-0.7327336606552
 30
0.0
 11
-18.9090003904063
 21
-0.6016675659232
 31
0.0
  0
LINE
  8
OpenJsCad
 10
-18.9090003904063
 20
-0.6016675659232
 30
0.0
 11
-18.8396207244412
 21
-0.5484872573955
 31
0.0
  0
LINE
  8
OpenJsCad
 10
-18.8396207244412
 20
-0.5484872573955
 30
0.0
 11
-18.7999960991733
 21
-0.5033508088477
 31
0.0
  0
LINE
  8
OpenJsCad
 10
-18.7999960991733
 20
-0.5033508088477
 30
0.0
 11
-18.7999960991733
 21
0.5033508088476
 31
0.0
  0
LINE
  8
OpenJsCad
 10
-18.7999960991733
 20
0.5033508088476
 30
0.0
 11
-18.8396207244412
 21
0.5484872573955
 31
0.0
  0
LINE
  8
OpenJsCad
 10
-18.8396207244412
 20
0.5484872573955
 30
0.0
 11
-18.9090003904063
 21
0.6016675659232
 31
0.0
  0
LINE
  8
OpenJsCad
 10
-18.9090003904063
 20
0.6016675659232
 30
0.0
 11
-19.3936858521888
 21
0.7327336606552
 31
0.0
  0
LINE
  8
OpenJsCad
 10
-19.3936858521888
 20
0.7327336606552
 30
0.0
 11
-19.6751033617304
 21
0.8174188396946
 31
0.0
  0
LINE
  8
OpenJsCad
 10
-19.6751033617304
 20
0.8174188396946
 30
0.0
 11
-19.8593407894095
 21
0.8804317511154
 31
0.0
  0
LINE
  8
OpenJsCad
 10
-19.8593407894095
 20
0.8804317511154
 30
0.0
 11
-19.9056174278521
 21
0.8965502680419
 31
0.0
  0
LINE
  8
OpenJsCad
 10
-19.9056174278521
 20
0.8965502680419
 30
0.0
 11
-20.2086360034361
 21
1.0144986767263
 31
0.0
  0
LINE
  8
OpenJsCad
 10
-20.2086360034361
 20
1.0144986767263
 30
0.0
 11
-20.3863456028904
 21
1.0969704324462
 31
0.0
  0
LINE
  8
OpenJsCad
 10
-20.3863456028904
 20
1.0969704324462
 30
0.0
 11
-20.9673811742821
 21
1.3908413924075
 31
0.0
  0
LINE
  8
OpenJsCad
 10
-20.9673811742821
 20
1.3908413924075
 30
0.0
 11
-21.1046051746589
 21
1.5117428400968
 31
0.0
  0
LINE
  8
OpenJsCad
 10
-21.1046051746589
 20
1.5117428400968
 30
0.0
 11
-21.1082867993931
 21
1.5491230033264
 31
0.0
  0
LINE
  8
OpenJsCad
 10
-21.1082867993931
 20
1.5491230033264
 30
0.0
 11
-21.1680914537682
 21
1.7594551027768
 31
0.0
  0
ENDSEC
  0
EOF
