**ABCDEFGHIJKLMNOPQRSTUVWXYZabcdefghijklmnopqrstuvwxyz**************************
**PARASOLID !"#$%&'()*+,-./:;<=>?@[\]^_`{|}~0123456789**************************
**PART1;
MC=x64/Windows NT;
MC_MODEL=genuineintel family 6 model 10 stepping 5, intel(r) xeon(r) cpu           w3550  @ 3.07ghz;
MC_ID=pc1401;
OS=windows nt (x64);
OS_RELEASE=6.1 windows 7 professional (build 7601) service pack 1;
FRU=mdc_ugii_v7.0_djl_can_vrh;
APPL=unigraphics;
SITE=unknown;
USER=huge;
FORMAT=text;
GUISE=transmit;
KEY=20-1_flange_d;
FILE=D:\Daten-Huge\PLM_Export\A_Internet_Modelle\Getriebe\20-x\20-1\20-1_flange_d.x_t;
DATE=26-aug-2016;
**PART2;
SCH=SCH_2701211_26105;
USFLD_SIZE=0;
**PART3;
**END_OF_HEADER*****************************************************************
T51 : TRANSMIT FILE created by modeller version 270121123 SCH_2701211_26105_1300
6200 0 12 30 CCCCCCCCCCCCCDI5 owner1040 0 CCCCCCCCCA13 boundary_mesh1006 0 A16 i
ndex_map_offset0 0 1 dA9 index_map82 0 A17 node_id_index_map82 0 A20 schema_embe
dding_map82 0 A5 child12 0 A14 lowest_node_id0 0 1 dZ1 1075 2 3 0 0 0 0 1e3 1e-8
 0 0 0 1 0 1 1 4 5 6 7 8 9 10 0 0 0 0 0 0 0 81 255 1 2 1075 11 1 12 0 0 0 13 70
 11 CI9 list_type0 0 1 uI10 notransmit0 0 1 lCCCDCCDI12 finger_index0 0 1 dI12 f
inger_block1012 0 CZ3 0 4 T1 0 0 6 20 1 14 14 13 255 4 3 0 1 0 15 0 0 16 0 54 25
5 5 874 0 17 18 0 0 +0 0 .0071 0 0 1 .00815 1e-4 1 0 0 31 255 6 853 0 9 19 0 0 +
0 0 .007 0 0 1 1 0 0 .00815 29 255 7 840 0 10 20 0 0 .00815 .007 19 8 CCCCCCCA5
 owner12 0 Z8 100 0 1 16 0 21 V0 16 255 9 851 22 ?23 0 24 6 0 0 1 18 255 10 838
 0 25 0 26 7 ?1 17 255 25 0 27 28 29 10 30 24 0 31 +18 26 835 0 32 10 33 20 ?1 1
7 32 0 34 35 31 26 36 37 0 38 +18 33 832 0 30 26 39 40 ?1 29 20 837 0 26 40 7 -.
00705810704084318 -.004075 .007 29 40 834 0 33 41 20 .00705810704084317 -.004075
 .007 29 41 710 0 39 42 40 .003735826939130015 .000325725468562819 .0042 18 39 7
08 0 43 33 44 41 ?1 29 42 585 0 44 45 41 -.001585826939130015 -.0033981837677102
65 .0042 18 44 583 0 46 39 47 42 ?1 29 45 456 0 47 48 42 -.00215 .00307245829914
7445 .0042 18 47 454 0 49 44 50 45 ?1 29 48 555 0 51 52 45 .00215 .006 .007 18 5
1 505 0 53 54 55 48 ?1 29 52 556 0 55 56 48 .00215 .003072458299147445 .007 18 5
5 503 0 57 51 58 52 ?1 29 56 557 0 58 59 52 -.00215 .003072458299147445 .007 18
 58 501 0 60 55 61 56 ?1 29 59 558 0 61 62 56 -.00215 .006 .007 18 61 507 0 63 5
8 64 59 ?1 29 62 559 0 50 65 59 .00215 .006 .0042 18 50 506 0 66 47 67 62 ?1 29
 65 560 0 67 68 62 .00215 .003072458299147445 .0042 18 67 504 0 69 50 54 65 ?1 2
9 68 562 0 54 70 65 -.00215 .006 .0042 18 54 500 0 71 67 51 68 ?1 29 70 684 0 72
 73 68 -.00627115242270663 -.001138045381863456 .007 18 72 634 0 74 75 76 70 ?1
 29 73 685 0 76 77 70 -.003735826939130015 .0003257254685628205 .007 18 76 632 0
 78 72 79 73 ?1 29 77 686 0 79 80 73 -.001585826939130015 -.003398183767710265 .
007 18 79 630 0 81 76 82 77 ?1 29 80 687 0 82 83 77 -.004121152422706635 -.00486
195461813654 .007 18 82 636 0 84 79 85 80 ?1 29 83 688 0 64 86 80 -.006271152422
70663 -.001138045381863456 .0042 18 64 635 0 87 61 88 83 ?1 29 86 689 0 88 89 83
 -.003735826939130015 .0003257254685628205 .0042 18 88 633 0 90 64 75 86 ?1 29 8
9 691 0 75 91 86 -.004121152422706635 -.00486195461813654 .0042 18 75 629 0 92 8
8 72 89 ?1 29 91 809 0 93 94 89 .00412115242270663 -.00486195461813654 .007 18 9
3 759 0 95 96 97 91 ?1 29 94 810 0 97 98 91 .001585826939130015 -.00339818376771
0265 .007 18 97 757 0 99 93 100 94 ?1 29 98 811 0 100 101 94 .003735826939130015
 .0003257254685628195 .007 18 100 755 0 102 97 103 98 ?1 29 101 812 0 103 104 98
 .00627115242270663 -.00113804538186346 .007 18 103 761 0 105 100 0 101 ?1 29 10
4 813 0 85 106 101 .00412115242270663 -.00486195461813654 .0042 18 85 760 0 107
 82 108 104 ?1 29 106 814 0 108 109 104 .001585826939130015 -.003398183767710265
 .0042 18 108 758 0 110 85 96 106 ?1 29 109 816 0 96 0 106 .00627115242270663 -.
00113804538186346 .0042 18 96 754 0 111 108 93 109 ?1 17 111 0 112 113 105 96 11
4 115 0 116 -15 255 112 781 0 117 118 0 17 113 0 112 95 111 85 116 119 0 0 -17 1
05 0 112 111 117 103 29 120 0 114 +17 114 0 121 102 122 103 111 115 0 123 +16 11
5 752 124 ?114 125 119 126 0 0 1 17 116 0 127 43 128 96 113 119 0 122 +15 127 76
4 0 43 129 130 17 43 0 127 110 116 39 122 131 0 132 +17 128 0 127 116 110 85 133
 134 0 113 +16 119 751 135 ?116 115 134 136 0 0 1 17 122 0 121 114 132 96 43 131
 0 0 -15 121 772 0 102 137 0 17 132 0 121 122 102 39 138 139 0 140 -16 131 745 1
41 ?43 142 143 144 0 0 1 81 1 141 966 145 131 0 0 146 147 148 16 142 747 149 ?11
0 134 131 150 0 0 1 16 143 744 151 ?117 131 120 152 120 120 1 30 255 144 808 0 1
31 0 150 0 +.00627115242270663 -.00113804538186346 .0042 -.866025403784438 .5 0
 31 150 807 0 142 144 153 0 +0 0 .0042 0 0 -1 -.5 -.866025403784439 0 .00375 30
 153 806 0 134 150 136 0 +.001585826939130015 -.003398183767710265 .0042 .866025
403784439 -.5 0 16 134 749 154 ?128 119 142 153 0 0 1 31 136 805 0 119 153 155 0
 +.00519615242270663 -.003 .0042 0 0 1 -.5 -.866025403784438 0 .00215 30 155 804
 0 156 136 157 0 +.00627115242270663 -.00113804538186346 .007 -.866025403784438
 .5 0 16 156 741 158 ?102 159 0 155 0 0 1 30 157 802 0 159 155 152 0 +.001585826
939130015 -.003398183767710265 .007 .866025403784439 -.5 0 16 159 743 160 ?161 1
20 156 157 0 0 1 31 152 801 0 143 157 162 0 +.00519615242270663 -.003 .007 0 0 1
 -.5 -.866025403784438 0 .00215 30 162 800 0 125 152 163 0 +.00412115242270663 -
.00486195461813654 .0042 0 0 1 16 125 750 164 ?95 165 115 162 0 0 1 30 163 799 0
 165 162 166 0 +.001585826939130015 -.003398183767710265 .0042 0 0 1 16 165 748
 167 ?99 139 125 163 0 0 1 30 166 798 0 139 163 126 0 +.003735826939130015 .0003
257254685628195 .0042 0 0 1 16 139 746 147 ?138 168 165 166 0 0 1 30 126 797 0 1
15 166 169 0 +.00627115242270663 -.00113804538186346 .0042 0 0 1 30 169 683 0 17
0 126 171 0 +-.004121152422706635 -.00486195461813654 .0042 .866025403784439 .5
 0 16 170 620 172 ?46 173 174 169 0 0 1 31 171 682 0 173 169 175 0 +0 0 .0042 0
 0 -1 -.5 .866025403784439 0 .00375 16 173 622 176 ?90 177 170 171 0 0 1 30 175
 681 0 177 171 178 0 +-.003735826939130015 .000325725468562822 .0042 -.866025403
784439 -.5 0 16 177 624 179 ?180 181 173 175 0 0 1 31 178 680 0 181 175 182 0 +-
.00519615242270663 -.003 .0042 0 0 1 -.5 .866025403784439 0 .00215 16 181 626 18
3 ?184 185 177 178 0 0 1 30 182 679 0 186 178 187 0 +-.004121152422706635 -.0048
6195461813654 .007 .866025403784439 .5 0 16 186 616 188 ?189 190 168 182 0 0 1 3
0 187 677 0 190 182 191 0 +-.003735826939130015 .000325725468562822 .007 -.86602
5403784439 -.5 0 16 190 618 192 ?193 194 186 187 0 0 1 31 191 676 0 174 187 195
 0 +-.00519615242270663 -.003 .007 0 0 1 -.5 .866025403784439 0 .00215 16 174 61
9 196 ?197 170 194 191 194 194 1 30 195 675 0 198 191 199 0 +-.00627115242270663
 -.001138045381863456 .0042 0 0 1 16 198 625 146 ?74 200 185 195 0 0 1 30 199 67
4 0 200 195 201 0 +-.003735826939130015 .0003257254685628205 .0042 0 0 1 16 200
 623 202 ?78 203 198 199 0 0 1 30 201 673 0 203 199 204 0 +-.001585826939130015
 -.003398183767710265 .0042 0 0 1 16 203 621 205 ?206 207 200 201 0 0 1 30 204 6
72 0 185 201 208 0 +-.004121152422706635 -.00486195461813654 .0042 0 0 1 16 185
 627 209 ?210 198 181 204 0 0 1 30 208 554 0 211 204 212 0 +-.00215 .006 .0042 0
 -1 0 16 211 491 213 ?49 214 215 208 0 0 1 31 212 553 0 214 208 216 0 +0 0 .0042
 0 0 -1 1 1224646799147352e-31 0 .00375 16 214 493 217 ?69 218 211 212 0 0 1 30
 216 552 0 218 212 219 0 +.00215 .003072458299147445 .0042 -148138237917467e-30
 1 0 16 218 495 220 ?221 222 214 216 0 0 1 31 219 551 0 222 216 223 0 +0 .006 .0
042 0 0 1 1 0 0 .00215 16 222 497 224 ?225 226 218 219 0 0 1 30 223 550 0 227 21
9 228 0 +-.00215 .006 .007 0 -1 0 16 227 487 229 ?230 231 207 223 0 0 1 30 228 5
48 0 231 223 232 0 +.00215 .003072458299147445 .007 -148138237917467e-30 1 0 16
 231 489 233 ?234 235 227 228 0 0 1 31 232 547 0 215 228 236 0 +0 .006 .007 0 0
 1 1 0 0 .00215 16 215 490 237 ?238 211 235 232 235 235 1 30 236 546 0 239 232 2
40 0 +.00215 .006 .0042 0 0 1 16 239 496 241 ?53 242 226 236 0 0 1 30 240 545 0
 242 236 243 0 +.00215 .003072458299147445 .0042 0 0 1 16 242 494 244 ?57 245 23
9 240 0 0 1 30 243 544 0 245 240 246 0 +-.00215 .003072458299147445 .0042 0 0 1
 16 245 492 247 ?248 249 242 243 0 0 1 30 246 543 0 226 243 250 0 +-.00215 .006
 .0042 0 0 1 16 226 498 251 ?252 239 222 246 0 0 1 31 250 192 0 253 246 254 0 +0
 0 0 0 0 -1 -1 0 0 .01 16 253 102 255 ?256 257 258 250 0 0 1 31 254 193 0 257 25
0 259 0 +0 0 0 0 0 -1 -1 0 0 .0045 16 257 104 260 ?261 262 253 254 0 0 1 31 259
 194 0 262 254 263 0 +0 0 .002 0 0 -1 -1 0 0 .0045 16 262 109 264 ?265 266 257 2
59 0 0 1 31 263 195 0 266 259 267 0 +0 0 .002 0 0 -1 -1 0 0 .00375 16 266 114 26
8 ?269 270 262 263 0 0 1 31 267 196 0 271 263 272 0 +0 0 .007 0 0 -1 -1 0 0 .003
75 16 271 119 273 ?274 275 276 267 276 270 1 31 272 198 0 275 267 277 0 +0 0 .00
9 0 0 -1 -1 0 0 .00825 16 275 129 278 ?279 280 271 272 0 0 1 31 277 199 0 280 27
2 281 0 +0 0 .0092 0 0 -1 -1 0 0 .00830358983848623 16 280 134 282 ?283 284 275
 277 0 0 1 31 281 200 0 284 277 285 0 +0 0 .0092 0 0 -1 -1 0 0 .009 16 284 139 2
86 ?287 288 280 281 0 0 1 31 285 201 0 288 281 289 0 +0 0 .0098 0 0 -1 -1 0 0 .0
09 16 288 144 290 ?291 292 284 285 0 0 1 31 289 202 0 292 285 293 0 +0 0 .0098 0
 0 -1 -1 0 0 .008479375 16 292 149 294 ?295 296 288 289 0 0 1 31 293 203 0 296 2
89 297 0 +0 0 .0118 0 0 -1 -1 0 0 .008479375 16 296 154 298 ?299 300 292 293 0 0
 1 31 297 204 0 300 293 301 0 +0 0 .0118 0 0 -1 -1 0 0 .009 16 300 159 302 ?303
 304 296 297 0 0 1 31 301 205 0 304 297 305 0 +0 0 .0124 0 0 -1 -1 0 0 .009 16 3
04 164 306 ?307 308 300 301 0 0 1 31 305 206 0 308 301 309 0 +0 0 .0124 0 0 -1 -
1 0 0 .01 16 308 169 310 ?311 312 304 305 0 0 1 31 309 312 0 258 305 313 0 +0 .0
06 0 0 0 -1 -1 0 0 .0011 16 258 325 314 ?315 253 316 309 0 0 1 31 313 358 0 316
 309 317 0 +-.00519615242270663 -.003 0 0 0 -1 -1 0 0 .0011 16 316 371 318 ?319
 258 320 313 0 0 1 31 317 400 0 320 313 321 0 +.00519615242270663 -.003 0 0 0 -1
 -1 0 0 .0011 16 320 413 322 ?323 316 249 317 0 0 1 31 321 446 0 249 317 324 0 -
0 .006 .0042 0 0 -1 -1 0 0 .0011 16 249 486 325 ?326 320 245 321 0 0 1 31 324 57
4 0 207 321 327 0 --.00519615242270663 -.003 .0042 0 0 -1 -1 0 0 .0011 16 207 61
5 328 ?329 227 203 324 0 0 1 31 327 699 0 168 324 330 0 -.00519615242270663 -.00
3 .0042 0 0 -1 -1 0 0 .0011 16 168 740 331 ?332 186 139 327 0 0 1 31 330 829 0 3
12 327 333 0 -0 0 .0071 0 0 1 1 0 0 .00825 16 312 826 334 ?335 37 308 330 0 0 1
 31 333 843 0 37 330 19 0 +0 0 .007 0 0 1 1 0 0 .00815 16 37 841 336 ?32 24 312
 333 0 0 1 31 19 848 0 24 333 6 0 +0 0 .007 0 0 1 1 0 0 .00815 16 24 846 337 ?25
 9 37 19 0 0 1 81 1 337 971 145 24 0 0 336 22 338 80 255 1 145 339 340 9000 1 1
 1 1 1 1 1 1 0 FFFFTFTFFFFFFF3 81 1 336 970 145 37 0 0 202 337 341 81 1 22 972 1
45 9 0 0 337 237 342 84 255 32 338 f4c84bad851eaec6994022272359b75681 1 237 973
 145 215 0 0 22 196 343 84 32 342 773fd876135b1e0d21b31079286b8bf081 1 196 974 1
45 174 0 0 237 151 344 84 32 343 f51dbc344b073874c6970db8452bf77a81 1 151 975 14
5 143 0 0 196 345 346 84 32 344 edb9ee5933c7dd40987c49cedfdaee3381 1 345 976 145
 347 0 348 151 349 350 84 32 346 c03e910599636596a8f7f91fdab2e95214 255 347 142
 351 ?352 353 354 4 355 +0 0 352 353 21 81 1 348 1027 356 347 345 351 357 358 35
9 81 1 349 977 145 360 0 361 345 362 363 84 32 350 fd16123f2188d94117e1ce8d9ec86
c5514 360 132 364 ?365 352 366 4 367 +0 0 365 352 21 81 1 361 1031 356 360 349 3
64 358 368 369 81 1 362 978 145 370 0 371 349 372 373 84 32 363 c86ac18ff9b72fa1
fec2954b78c6d0c314 370 172 374 ?375 376 377 4 378 +0 0 375 376 21 81 1 371 1015
 356 370 362 374 379 380 381 81 1 372 979 145 365 0 368 362 382 383 84 32 373 97
81d85758afeba0b07f1f4b881c12dd14 365 127 384 ?385 360 34 4 386 +15 387 385 360 2
1 81 1 368 1033 356 365 372 384 361 388 389 81 1 382 980 145 375 0 380 372 390 3
91 84 32 383 125c7d6b535d6d58d8b33b311051e86414 375 167 392 ?393 370 394 4 395 +
0 0 393 370 21 81 1 380 1017 356 375 382 392 371 396 397 81 1 390 981 145 376 0
 379 382 398 399 84 32 391 05f344ad8efdee6fcb22927dc537b3f814 376 175 400 ?370 3
87 401 4 18 +0 0 370 387 21 81 1 379 1013 356 376 390 400 402 371 403 81 1 398 9
82 145 385 0 388 390 404 405 84 32 399 4494e1799b97e44300482bf860de7b9d14 385 12
2 406 ?407 365 408 4 409 +0 0 407 365 21 81 1 388 1035 356 385 398 406 368 410 4
11 81 1 404 983 145 393 0 396 398 412 413 84 32 405 e8136b49d42819102ebbafaa9a6b
dd8f14 393 162 414 ?415 375 416 4 417 +0 0 415 375 21 81 1 396 1019 356 393 404
 414 380 418 419 81 1 412 984 145 407 0 410 404 420 421 84 32 413 0d651d70845e38
95b2ceb599a067d23314 407 117 422 ?423 385 424 4 425 +0 0 423 385 21 81 1 410 103
7 356 407 412 422 388 426 427 81 1 420 985 145 415 0 418 412 428 429 84 32 421 4
5e61e75b221f4a03ffad11a07e63eaf14 415 157 430 ?431 393 432 4 433 +0 0 431 393 21
 81 1 418 1021 356 415 420 430 396 434 435 81 1 428 986 145 423 0 426 420 436 43
7 84 32 429 c6e41c03edf3d1034a0161a839c8038f14 423 112 438 ?439 407 440 4 441 +0
 0 439 407 21 81 1 426 1039 356 423 428 438 410 442 443 81 1 436 987 145 431 0 4
34 428 444 445 84 32 437 647cd9702c70f05e4edb1b4901e6e99014 431 152 446 ?353 415
 447 4 448 +0 0 353 415 21 81 1 434 1023 356 431 436 446 418 357 449 81 1 444 98
8 145 439 0 442 436 450 451 84 32 445 0362155fb451a838cd98a23c64be5a5814 439 107
 452 ?453 423 454 4 455 +0 0 453 423 21 81 1 442 1041 356 439 444 452 426 456 45
7 81 1 450 989 145 353 0 357 444 458 459 84 32 451 d4038a50a6c325ce5061b02764c82
a0014 353 147 460 ?347 431 461 4 462 +0 0 347 431 21 81 1 357 1025 356 353 450 4
60 434 348 463 81 1 458 990 145 352 0 358 450 464 465 84 32 459 58f0797a60b05834
f24eeba3336faa4814 352 137 466 ?360 347 467 4 468 +0 0 360 347 21 81 1 358 1029
 356 352 458 466 348 361 469 81 1 464 991 145 453 0 456 458 470 471 84 32 465 1d
e9083b7068f82f0fe5d4017669617f14 453 338 472 ?473 439 474 4 475 -0 0 473 439 21
 81 1 456 1043 356 453 464 472 442 476 477 81 1 470 992 145 478 0 479 464 480 48
1 84 32 471 27a364e63486fe05460916f8ae697f0214 478 426 482 ?483 473 484 4 485 -0
 0 483 473 21 81 1 479 1047 356 478 470 482 476 486 487 81 1 480 993 145 473 0 4
76 470 488 489 84 32 481 0dc753361d9d205561f84005da69117d14 473 384 490 ?478 453
 491 4 492 -0 0 478 453 21 81 1 476 1045 356 473 480 490 456 479 493 81 1 488 99
4 145 494 0 495 480 496 497 84 32 489 86800ab26f37fdbbc4e98708d82cedfd14 494 522
 498 ?499 500 501 4 502 -0 0 499 500 21 81 1 495 1053 356 494 488 498 503 504 50
5 81 1 496 995 145 499 0 504 488 506 507 84 32 497 a126ba793472c27728a23a544006d
86514 499 525 508 ?509 494 510 4 511 -0 0 509 494 21 81 1 504 1055 356 499 496 5
08 495 512 513 81 1 506 996 145 483 0 486 496 514 515 84 32 507 f5142ee59ddffd99
db027b0bfca335bb14 483 528 516 ?500 478 517 4 518 -0 0 500 478 21 81 1 486 1049
 356 483 506 516 479 503 519 81 1 514 997 145 500 0 503 506 520 521 84 32 515 fd
f5bb01ffab26de356bdacac71d884014 500 516 522 ?494 483 523 4 524 -0 0 494 483 21
 81 1 503 1051 356 500 514 522 486 495 525 81 1 520 998 145 509 0 512 514 526 52
7 84 32 521 f3c1b9a110d789e77b2c5c583d57e3e714 509 657 528 ?529 499 530 4 531 -0
 0 529 499 21 81 1 512 1057 356 509 520 528 504 532 533 81 1 526 999 145 129 0 5
34 520 535 536 84 32 527 547eddfd9fa668f2e61c82440ff22eca14 129 782 537 ?137 538
 127 4 539 -0 0 137 538 21 81 1 534 1065 356 129 526 537 540 541 542 81 1 535 10
00 145 529 0 532 526 543 544 84 32 536 8545b65aa9dad99b7b031191cadee08114 529 64
5 545 ?546 509 547 4 548 -0 0 546 509 21 81 1 532 1059 356 529 535 545 512 549 5
50 81 1 543 1001 145 538 0 540 535 551 552 84 32 544 d6b00191b056c2785315812b224
92cc914 538 654 553 ?129 546 554 4 555 -0 0 129 546 21 81 1 540 1063 356 538 543
 553 549 534 556 81 1 551 1002 145 137 0 541 543 557 558 84 32 552 c00014aa8ebed
2d550d94e166c33184314 137 770 559 ?560 129 121 4 561 -0 0 560 129 21 81 1 541 10
67 356 137 551 559 534 562 563 81 1 557 1003 145 118 0 564 551 565 566 84 32 558
 23197d55e0a2724720846fba2df1e6e114 118 779 567 ?17 560 112 4 568 -0 0 17 560 21
 81 1 564 1071 356 118 557 567 562 569 570 81 1 565 1004 145 546 0 549 557 571 5
72 84 32 566 8ad378bff4c8323acd08c4b7a883042814 546 651 573 ?538 529 574 4 575 -
0 0 538 529 21 81 1 549 1061 356 546 565 573 532 540 576 81 1 571 1005 145 560 0
 562 565 577 578 84 32 572 84b35a2328894e4244293c970d53aa7614 560 776 579 ?118 1
37 580 4 581 -0 0 118 137 21 81 1 562 1069 356 560 571 579 541 564 582 81 1 577
 1006 145 17 0 569 571 583 584 84 32 578 83056bc5e62630616415cbc7f35364f014 17 8
62 585 ?0 118 586 4 5 -0 0 0 118 21 81 1 569 1073 356 17 577 585 564 0 587 81 1
 583 1007 145 387 0 402 577 588 589 84 32 584 6ab1e9e6c22ec8b75eec446463db3fe114
 387 844 590 ?376 15 27 4 386 +365 15 376 15 21 81 1 402 1011 356 387 583 590 59
1 379 592 81 1 588 1008 145 15 0 591 583 0 593 84 32 589 45be9cf52589b320371aef1
2dec0052414 15 849 594 ?387 0 595 4 386 +387 365 387 0 21 81 1 591 1009 356 15 5
88 594 0 402 596 84 32 593 097b4972613813ffca7259a19219fa6580 1 356 597 598 8015
 0 0 0 0 3 5 0 0 0 FFFFTFFFFFFFFF2 81 1 594 1010 599 15 591 0 0 590 600 83 255 1
 596 0 80 1 599 0 601 8001 0 0 0 0 3 5 0 0 0 FFFFTFTFFFFFFF2 81 1 590 1012 599 3
87 402 0 594 400 602 83 3 600 .6 .6 .6 81 1 400 1014 599 376 379 0 590 374 603 8
3 3 602 .6 .6 .6 81 1 374 1016 599 370 371 0 400 392 604 83 3 603 .6 .6 .6 81 1
 392 1018 599 375 380 0 374 414 605 83 3 604 .6 .6 .6 81 1 414 1020 599 393 396
 0 392 430 606 83 3 605 .6 .6 .6 81 1 430 1022 599 415 418 0 414 446 607 83 3 60
6 .6 .6 .6 81 1 446 1024 599 431 434 0 430 460 608 83 3 607 .6 .6 .6 81 1 460 10
26 599 353 357 0 446 351 609 83 3 608 .6 .6 .6 81 1 351 1028 599 347 348 0 460 4
66 610 83 3 609 .6 .6 .6 81 1 466 1030 599 352 358 0 351 364 611 83 3 610 .6 .6
 .6 81 1 364 1032 599 360 361 0 466 384 612 83 3 611 .6 .6 .6 81 1 384 1034 599
 365 368 0 364 406 613 83 3 612 .6 .6 .6 81 1 406 1036 599 385 388 0 384 422 614
 83 3 613 .6 .6 .6 81 1 422 1038 599 407 410 0 406 438 615 83 3 614 .6 .6 .6 81
 1 438 1040 599 423 426 0 422 452 616 83 3 615 .6 .6 .6 81 1 452 1042 599 439 44
2 0 438 472 617 83 3 616 .6 .6 .6 81 1 472 1044 599 453 456 0 452 490 618 83 3 6
17 .6 .6 .6 81 1 490 1046 599 473 476 0 472 482 619 83 3 618 .6 .6 .6 81 1 482 1
048 599 478 479 0 490 516 620 83 3 619 .6 .6 .6 81 1 516 1050 599 483 486 0 482
 522 621 83 3 620 .6 .6 .6 81 1 522 1052 599 500 503 0 516 498 622 83 3 621 .6 .
6 .6 81 1 498 1054 599 494 495 0 522 508 623 83 3 622 .6 .6 .6 81 1 508 1056 599
 499 504 0 498 528 624 83 3 623 .6 .6 .6 81 1 528 1058 599 509 512 0 508 545 625
 83 3 624 .6 .6 .6 81 1 545 1060 599 529 532 0 528 573 626 83 3 625 .6 .6 .6 81
 1 573 1062 599 546 549 0 545 553 627 83 3 626 .6 .6 .6 81 1 553 1064 599 538 54
0 0 573 537 628 83 3 627 .6 .6 .6 81 1 537 1066 599 129 534 0 553 559 629 83 3 6
28 .6 .6 .6 81 1 559 1068 599 137 541 0 537 579 630 83 3 629 .6 .6 .6 81 1 579 1
070 599 560 562 0 559 567 631 83 3 630 .6 .6 .6 81 1 567 1072 599 118 564 0 579
 585 632 83 3 631 .6 .6 .6 81 1 585 1074 599 17 569 0 567 0 633 83 3 632 .6 .6 .
6 83 3 633 .6 .6 .6 79 255 15 601 SDL/TYSA_COLOUR79 21 598 SDL/TYSA_TRANSLUCENCY
15 595 847 0 38 15 0 50 255 386 181 0 365 409 367 0 +0 .00825 .007 0 0 1 1 0 0 1
3 21 99 0 0 0 0 0 0 8 15 51 255 409 180 0 385 425 386 0 -0 0 0 0 0 -1 .00375 -1
 0 0 51 367 182 0 360 386 468 0 -0 0 0 0 0 -1 .00825 -1 0 0 52 255 468 183 0 352
 367 355 0 -0 0 .0092 0 0 1 .00830358983848623 .2588190451025305 .96592582628906
6 1 0 0 50 355 184 0 347 468 462 0 +0 .009 .0092 0 0 1 1 0 0 51 462 185 0 353 35
5 448 0 -0 0 0 0 0 -1 .009 -1 0 0 50 448 186 0 431 462 433 0 +0 .008479375 .0098
 0 0 -1 -1 0 0 51 433 187 0 415 448 417 0 -0 0 0 0 0 -1 .008479375 -1 0 0 50 417
 188 0 393 433 395 0 +0 .009 .0118 0 0 1 1 0 0 51 395 189 0 375 417 378 0 -0 0 0
 0 0 -1 .009 -1 0 0 50 378 190 0 370 395 18 0 +0 .01 .0124 0 0 1 1 0 0 51 18 191
 0 376 378 5 0 +0 0 0 0 0 -1 .01 -1 0 0 50 425 179 0 407 441 409 0 +0 .00375 .00
2 0 0 -1 -1 0 0 51 441 178 0 423 455 425 0 -0 0 0 0 0 -1 .0045 -1 0 0 50 455 177
 0 439 475 441 0 +0 .0045 0 0 0 -1 -1 0 0 51 475 344 0 453 492 455 0 +0 .006 .00
7 0 0 -1 .0011 -1 0 0 51 492 390 0 473 485 475 0 +-.00519615242270663 -.003 .007
 0 0 -1 .0011 .5 -.866025403784439 0 51 485 432 0 478 524 492 0 +.00519615242270
663 -.003 .007 0 0 -1 .0011 .5 .866025403784438 0 50 524 536 0 500 502 485 0 +-.
00215 .006 .0042 -1 0 0 0 0 1 50 502 538 0 494 511 524 0 +.00215 .00307245829914
7445 .0042 1 148138237917467e-30 0 -148138237917467e-30 1 0 51 511 539 0 499 518
 502 0 +0 .006 .0042 0 0 1 .00215 1 0 0 50 518 541 0 483 548 511 0 +0 0 .0042 0
 0 -1 -1 0 0 50 548 665 0 529 575 518 0 +-.004121152422706635 -.0048619546181365
4 .0042 .5 -.866025403784439 0 0 0 1 50 575 667 0 546 555 548 0 +-.0037358269391
30015 .000325725468562822 .0042 -.5 .866025403784439 0 -.866025403784439 -.5 0 5
1 555 668 0 538 531 575 0 +-.00519615242270663 -.003 .0042 0 0 1 .00215 -.5 .866
025403784439 0 50 531 670 0 509 561 555 0 +0 0 .0042 0 0 -1 .5 -.866025403784439
 0 50 561 790 0 137 581 531 0 +.00627115242270663 -.00113804538186346 .0042 .5 .
866025403784438 0 0 0 1 50 581 792 0 560 568 561 0 +.001585826939130015 -.003398
183767710265 .0042 -.5 -.866025403784439 0 .866025403784439 -.5 0 51 568 793 0 1
18 539 581 0 +.00519615242270663 -.003 .0042 0 0 1 .00215 -.5 -.866025403784438
 0 50 539 795 0 129 0 568 0 +0 0 .0042 0 0 -1 .5 .866025403784438 0 17 38 0 595
 23 634 26 84 194 0 197 -17 23 0 595 635 38 33 636 9 0 29 +17 634 0 595 38 81 82
 189 186 0 0 -17 84 0 554 92 197 82 38 194 0 210 +16 194 836 637 ?84 174 190 191
 174 174 1 17 197 0 554 84 74 26 35 174 0 636 +15 554 656 0 197 538 0 17 74 0 55
4 197 638 72 87 198 0 193 +17 35 0 34 639 32 72 197 174 0 0 -17 636 0 586 36 30
 26 23 9 0 0 -15 586 863 0 30 17 640 17 36 0 586 30 636 10 32 37 0 0 -17 30 0 58
6 636 36 33 25 24 0 23 -15 640 864 0 641 17 0 17 641 0 640 641 641 0 335 312 0 0
 -17 335 0 366 335 335 0 641 312 0 0 +15 366 827 0 335 360 642 15 642 131 0 643
 360 0 17 643 0 642 643 643 0 279 275 0 0 -17 279 0 467 279 279 0 643 275 0 0 +1
5 467 289 0 279 352 644 15 644 136 0 645 352 0 17 645 0 644 645 645 0 283 280 0
 0 -17 283 0 354 283 283 0 645 280 0 0 +15 354 290 0 283 347 646 15 646 141 0 64
7 347 0 17 647 0 646 647 647 0 287 284 0 0 -17 287 0 461 287 287 0 647 284 0 0 +
15 461 291 0 287 353 648 15 648 146 0 649 353 0 17 649 0 648 649 649 0 291 288 0
 0 -17 291 0 447 291 291 0 649 288 0 0 +15 447 292 0 291 431 650 15 650 151 0 65
1 431 0 17 651 0 650 651 651 0 295 292 0 0 -17 295 0 432 295 295 0 651 292 0 0 +
15 432 293 0 295 415 652 15 652 156 0 653 415 0 17 653 0 652 653 653 0 299 296 0
 0 -17 299 0 416 299 299 0 653 296 0 0 +15 416 294 0 299 393 654 15 654 161 0 65
5 393 0 17 655 0 654 655 655 0 303 300 0 0 -17 303 0 394 303 303 0 655 300 0 0 +
15 394 295 0 303 375 656 15 656 166 0 657 375 0 17 657 0 656 657 657 0 307 304 0
 0 -17 307 0 377 307 307 0 657 304 0 0 +15 377 296 0 307 370 658 15 658 171 0 65
9 370 0 17 659 0 658 659 659 0 311 308 0 0 -17 311 0 401 311 311 0 659 308 0 0 +
15 401 297 0 311 376 660 15 660 174 0 661 376 0 17 661 0 660 661 661 0 256 253 0
 0 -17 256 0 662 256 256 0 661 253 0 0 +15 662 283 0 256 439 663 15 663 106 0 66
4 439 0 17 664 0 663 664 664 0 261 257 0 0 -17 261 0 440 261 261 0 664 257 0 0 +
15 440 284 0 261 423 665 15 665 111 0 666 423 0 17 666 0 665 666 666 0 265 262 0
 0 -17 265 0 424 265 265 0 666 262 0 0 +15 424 285 0 265 407 667 15 667 116 0 66
8 407 0 17 668 0 667 668 668 0 269 266 0 0 -17 269 0 669 269 269 0 668 266 0 0 +
15 669 286 0 269 385 0 15 34 732 0 31 365 0 17 639 0 34 60 35 76 193 190 0 670 -
17 60 0 34 671 639 58 670 270 0 230 +17 193 0 574 87 78 72 639 190 0 35 +17 670
 0 408 672 248 76 60 270 0 0 -15 408 718 0 138 385 669 17 672 0 408 673 670 88 7
8 200 0 0 -17 248 0 408 670 674 58 675 245 0 0 +16 270 581 676 ?60 276 266 267 2
71 276 1 81 1 676 934 145 270 0 0 334 251 677 16 276 706 678 ?81 271 270 267 270
 271 1 81 1 678 946 145 276 0 0 224 160 679 17 81 0 595 634 680 79 681 276 0 189
 +17 680 0 595 81 635 97 161 159 0 681 -17 681 0 408 682 206 97 81 276 0 0 -17 1
89 0 547 683 210 79 634 186 0 206 +15 547 647 0 189 529 0 17 683 0 547 684 189 4
4 206 203 0 673 -17 210 0 547 189 684 82 92 185 0 634 +17 206 0 408 681 673 79 6
83 203 0 0 +17 673 0 408 206 672 44 90 173 0 0 -17 90 0 530 180 46 88 673 173 0
 685 +15 530 639 0 46 509 686 17 180 0 530 184 90 64 685 177 0 638 +17 46 0 530
 90 184 44 684 170 0 683 +17 685 0 574 78 87 88 180 177 0 672 -15 574 653 0 193
 546 0 17 78 0 574 193 685 76 672 200 0 639 +17 87 0 574 685 193 64 74 198 0 180
 -17 184 0 530 46 180 75 638 181 0 684 +17 684 0 547 210 683 75 46 170 0 0 -17 6
38 0 554 74 92 64 184 181 0 0 -17 92 0 554 638 84 75 210 185 0 184 -15 686 640 0
 687 509 0 17 687 0 686 687 687 0 329 207 0 0 -17 329 0 491 329 329 0 687 207 0
 0 +15 491 572 0 329 473 688 15 688 386 0 319 473 0 17 319 0 688 319 319 0 689 3
16 0 0 +17 689 0 690 689 689 0 319 316 0 0 -15 690 357 0 689 439 691 15 691 311
 0 692 439 662 17 692 0 691 692 692 0 315 258 0 0 -17 315 0 693 315 315 0 692 25
8 0 0 +15 693 340 0 315 453 0 17 682 0 408 140 681 108 99 165 0 0 -17 140 0 408
 138 682 39 110 142 0 0 -17 99 0 580 161 133 97 682 165 0 680 +15 580 778 0 161
 560 0 17 161 0 580 107 99 93 680 159 0 635 +17 133 0 580 99 107 108 128 134 0 6
82 -17 107 0 580 133 161 85 95 125 0 128 -17 95 0 112 117 113 93 107 125 0 161 +
17 117 0 112 105 95 33 635 143 0 0 +17 635 0 595 680 23 93 117 143 0 0 -17 138 0
 408 694 140 100 132 139 0 274 +17 110 0 127 128 43 108 140 142 0 133 +17 694 0
 408 695 138 55 274 271 0 0 -17 274 0 27 123 696 100 694 271 0 0 +15 27 842 0 29
 387 0 17 123 0 27 29 274 103 102 156 0 0 -17 696 0 27 274 28 55 234 231 0 694 -
17 28 0 27 696 25 51 238 215 0 0 -17 234 0 501 66 57 51 696 231 0 28 +15 501 524
 0 234 494 0 17 66 0 501 697 234 50 53 239 0 221 -17 57 0 501 234 697 55 695 242
 0 696 +17 697 0 501 57 66 67 221 218 0 695 -17 695 0 408 674 694 67 57 242 0 0
 -17 674 0 408 248 695 47 69 214 0 0 -17 69 0 517 221 49 67 674 214 0 697 +15 51
7 510 0 49 483 698 17 221 0 517 225 69 50 697 218 0 699 +17 49 0 517 69 225 47 7
00 211 0 675 +17 225 0 517 49 221 54 699 222 0 700 +17 700 0 523 252 675 54 49 2
11 0 0 -17 675 0 523 700 230 47 248 245 0 674 -15 523 518 0 230 500 0 17 230 0 5
23 675 252 58 671 227 0 248 +17 252 0 523 230 700 61 71 226 0 671 +17 671 0 34 3
1 60 61 230 227 0 0 -17 31 0 34 32 671 10 63 235 0 238 -17 63 0 510 71 238 61 31
 235 0 252 +16 235 839 701 ?63 215 231 232 215 215 1 17 238 0 510 63 53 10 28 21
5 0 36 +15 510 527 0 238 499 0 17 53 0 510 238 699 51 66 239 0 234 +17 699 0 510
 53 71 50 225 222 0 0 -17 71 0 510 699 63 54 252 226 0 225 -81 1 701 942 145 235
 0 0 241 244 702 81 1 241 941 145 239 0 0 213 701 703 81 1 244 943 145 242 0 0 7
01 247 704 84 32 702 a21264a20b64220c427f1af566466eb181 1 247 944 145 245 0 0 24
4 224 705 84 32 704 90ad65c92a251b654c4570b888ce8d4581 1 224 945 145 222 0 0 247
 678 706 84 32 705 2f51a86bd37d909900ccd96bac09e75384 32 706 2db90cb7333c5cc080e
f79a95592e79b81 1 213 940 145 211 0 0 217 241 707 84 32 703 51a634dc3f3e9c3d81b4
9378fa1bbeb781 1 217 939 145 214 0 0 229 213 708 84 32 707 1fb08e86d06cee8afd451
4ac4e2806da81 1 229 938 145 227 0 0 233 217 709 84 32 708 ca3f95f1ed410ae7a97188
665ceaa51681 1 233 937 145 231 0 0 220 229 710 84 32 709 f72a52e7a091c197698f17f
f51772dfc81 1 220 936 145 218 0 0 251 233 711 84 32 710 e6992f5f231399e0ba4d1788
8e3918da81 1 251 935 145 226 0 0 676 220 712 84 32 711 9cfb55d66851a8850bc47ba4c
bf2f63c84 32 712 2602ad5deeaaed68344bb8a588571f2415 698 511 0 713 483 0 17 713 0
 698 713 713 0 326 249 0 0 -17 326 0 474 326 326 0 713 249 0 0 +15 474 444 0 326
 453 693 17 29 0 27 25 123 33 105 120 0 117 -17 102 0 121 132 114 100 123 156 0
 138 +16 120 833 714 ?105 143 159 152 143 143 1 81 1 714 955 145 120 0 0 183 135
 715 81 1 183 954 145 181 0 0 637 714 716 81 1 135 956 145 119 0 0 714 205 717 8
4 32 715 2a107b749ee73f7cee07f0a3c591500481 1 205 957 145 203 0 0 135 164 718 84
 32 717 12c854ccaf8a657fdae01bd84f14a05981 1 164 958 145 125 0 0 205 179 719 84
 32 718 16d3f742060ba044a399c6aa272831de81 1 179 959 145 177 0 0 164 192 720 84
 32 719 1184fa6e5425d5ae5ec5662e60e3279881 1 192 960 145 190 0 0 179 154 721 84
 32 720 1847eb3e8b28bcfff06fae3f233c0f4d81 1 154 961 145 134 0 0 192 172 722 84
 32 721 a2e7a13205e92167b7c406cdf0154f6181 1 172 962 145 170 0 0 154 209 723 84
 32 722 f2e90fecdd25df849564b5829e68942081 1 209 963 145 185 0 0 172 167 724 84
 32 723 28902b0da8076ab3e962ff7595c7153f81 1 167 964 145 165 0 0 209 146 725 84
 32 724 4c7fe93ca84dae462c17260d1d90b53e81 1 146 965 145 198 0 0 167 141 726 84
 32 725 e5c29bb32e47357f23d7acec4ea7ca5584 32 726 139fca8200f0b9436c609d4a4e85e3
c381 1 637 953 145 194 0 0 273 183 727 84 32 716 3599ccd2dabdf1f7ca1d74d15dc3d2f
e81 1 273 952 145 271 0 0 158 637 728 84 32 727 57e689dc340b3017c9938143ba8c6104
81 1 158 951 145 156 0 0 149 273 729 84 32 728 6f16c2d4a561462b89ebd415948e96d08
1 1 149 950 145 142 0 0 188 158 730 84 32 729 78ce20285159fbbc0d2ce60da3fa077081
 1 188 949 145 186 0 0 176 149 731 84 32 730 08cbe60f55b05711a98e62e1f27a439c81
 1 176 948 145 173 0 0 160 188 732 84 32 731 31100e9ae5d3db671b67147c5665198681
 1 160 947 145 159 0 0 678 176 733 84 32 732 853ba73598e390c1f9d4d755dd7eb2b384
 32 733 1e2d6110348eed60c1ceaab07253dc6184 32 679 8c8eebb43ae27109361602ff99440f
5881 1 334 933 145 312 0 0 328 676 734 84 32 677 6c3f5b4094427ab59d6be513849cf0f
f81 1 328 932 145 207 0 0 331 334 735 84 32 734 dc563f4262b41c044a0fa7017518776f
81 1 331 931 145 168 0 0 325 328 736 84 32 735 b68cf9a3165810e0bac0d24125eac38f8
1 1 325 930 145 249 0 0 322 331 737 84 32 736 0de8f76207ecfdfca74b919e04d44c9f81
 1 322 929 145 320 0 0 318 325 738 84 32 737 b6cd84da9bdd53e9c6fca71379bfd15181
 1 318 928 145 316 0 0 314 322 739 84 32 738 14e963b4ed30ad4d553342d8f754810381
 1 314 927 145 258 0 0 278 318 740 84 32 739 015b9ed41234b77a2ae9904fa17f0e9381
 1 278 926 145 275 0 0 282 314 741 84 32 740 d7af8085eb1247e083eab14d1d36a9ba81
 1 282 925 145 280 0 0 290 278 742 84 32 741 b993ccc5ce51043c4996ee85be613ca681
 1 290 924 145 288 0 0 260 282 743 84 32 742 aa5d0c00270903ebbf647940ad2c38e281
 1 260 923 145 257 0 0 294 290 744 84 32 743 eb290c57fca5631271557ca57b73d5dc81
 1 294 922 145 292 0 0 264 260 745 84 32 744 422bd9854f33e6ef5397dadd5efa3e7a81
 1 264 921 145 262 0 0 298 294 746 84 32 745 73b021272c8da3f7c059ce2150a285cc81
 1 298 920 145 296 0 0 268 264 747 84 32 746 a973f033887d8291e7b248544c96367281
 1 268 919 145 266 0 0 302 298 748 84 32 747 6b83bfe31e08b505b89fc6fdb424344281
 1 302 918 145 300 0 0 306 268 749 84 32 748 45078d17786458eeb74cefc56fedc89481
 1 306 917 145 304 0 0 310 302 750 84 32 749 b4933b603b1fc538689d1c2f68c437b281
 1 310 916 145 308 0 0 255 306 751 84 32 750 8314655192d7d1401f9b98b8f51dbf6581
 1 255 915 145 253 0 0 286 310 752 84 32 751 c4f585ade53220b337ab26bebc228f2f81
 1 286 914 145 284 0 0 0 255 753 84 32 752 9720427cc6f2705f70f85d66a1da1c7f84 32
 753 b60cb64784a5aa64e38159fbcd9121a583 1 592 0 83 1 587 0 83 1 582 0 83 1 576 0
 83 1 570 0 83 1 563 0 83 1 556 0 83 1 550 0 83 1 542 0 83 1 533 0 83 1 525 0 83
 1 519 0 83 1 513 0 83 1 505 0 83 1 493 0 83 1 487 0 15 484 697 0 332 478 754 17
 332 0 484 332 332 0 755 168 0 0 +15 754 428 0 323 478 0 17 323 0 754 323 323 0
 756 320 0 0 +17 756 0 454 756 756 0 323 320 0 0 -15 454 399 0 756 439 690 17 75
5 0 130 755 755 0 332 168 0 0 -15 130 765 0 755 129 0 83 1 477 0 83 1 469 0 83 1
 463 0 83 1 457 0 83 1 449 0 83 1 443 0 83 1 435 0 83 1 427 0 83 1 419 0 83 1 41
1 0 83 1 403 0 83 1 397 0 83 1 389 0 83 1 381 0 83 1 369 0 83 1 359 0 81 1 202 9
69 145 200 0 0 124 336 757 84 32 341 4bae3b31e22c336d38bced65c933d43981 1 124 96
8 145 115 0 0 147 202 758 84 32 757 0ac930b2a2c32d609ad7a51b094317eb81 1 147 967
 145 139 0 0 141 124 759 84 32 758 d7fd0831dc252adb4457e491210842a284 32 759 c56
af9f735afee5cb45a7d903455877c79 15 340 UGS/ObjectState84 32 148 e3dc7439ea02b18b
e42ee36af46b7e5c19 16 1 0 1 0 8 4 S0 74 4 CI16 index_map_offset0 0 1 dCCZ20 14 6
 0 0 760 12 588 569 585 2 0 0 0 0 0 0 0 0 0 0 0 0 0 0 81 2 760 899 761 1 0 12 0
 0 762 763 81 1 12 912 764 1 760 2 0 0 765 80 1 764 766 767 9000 0 0 0 0 3 5 0 0
 0 FFTFFFFFFFFFFF1 82 255 1 765 -1 79 19 767 UG2/PMARK_ATTRIBUTE80 2 761 768 769
 8004 0 0 0 0 3 5 0 0 0 FFTFFFFFFFFFFF2 3 83 1 762 .001 84 8 763 Kg/Cu M 79 16 7
69 SDL/TYSA_DENSITY80 1 11 770 771 9000 0 0 0 0 3 5 0 0 0 FFTFFFFFFFFFFF1 82 1 1
3 87 79 24 771 UG2/BODY_COLOR_ATTRIBUTE1 0 
