**ABCDEFGHIJKLMNOPQRSTUVWXYZabcdefghijklmnopqrstuvwxyz**************************
**PARASOLID !"#$%&'()*+,-./:;<=>?@[\]^_`{|}~0123456789**************************
**PART1;
MC=x64/Windows NT;
MC_MODEL=genuineintel family 6 model 10 stepping 5, intel(r) xeon(r) cpu           w3550  @ 3.07ghz;
MC_ID=pc1401;
OS=windows nt (x64);
OS_RELEASE=6.1 windows 7 professional (build 7601) service pack 1;
FRU=mdc_ugii_v7.0_djl_can_vrh;
APPL=unigraphics;
SITE=unknown;
USER=huge;
FORMAT=text;
GUISE=transmit;
KEY=20-1_flange_d;
FILE=D:\Daten-Huge\PLM_Export\A_Internet_Modelle\Getriebe\20-x\20-1\20-1_flange_d.x_t;
DATE=26-aug-2016;
**PART2;
SCH=SCH_2701211_26105;
USFLD_SIZE=0;
**PART3;
**END_OF_HEADER*****************************************************************
T51 : TRANSMIT FILE created by modeller version 270121123 SCH_2701211_26105_1300
6200 0 12 30 CCCCCCCCCCCCCDI5 owner1040 0 CCCCCCCCCA13 boundary_mesh1006 0 A16 i
ndex_map_offset0 0 1 dA9 index_map82 0 A17 node_id_index_map82 0 A20 schema_embe
dding_map82 0 A5 child12 0 A14 lowest_node_id0 0 1 dZ1 639 2 3 0 0 0 0 1e3 1e-8
 0 0 0 1 0 1 1 4 5 6 7 8 9 10 0 0 0 0 0 0 0 81 255 1 2 639 11 1 12 0 0 0 13 70 1
1 CI9 list_type0 0 1 uI10 notransmit0 0 1 lCCCDCCDI12 finger_index0 0 1 dI12 fin
ger_block1012 0 CZ3 0 4 T1 0 0 6 20 1 14 14 13 255 4 3 0 1 0 15 0 0 16 0 54 255
 5 332 0 17 18 0 0 +0 0 .0126 0 0 1 .00815 1e-4 1 0 0 31 255 6 316 0 9 19 0 0 +0
 0 .0125 0 0 1 1 0 0 .00815 29 255 7 460 0 10 20 0 .00705810704084317 -.004075 .
0125 19 8 CCCCCCCA5 owner12 0 Z8 100 0 1 16 0 21 V0 16 255 9 313 22 ?23 0 24 6 2
5 24 1 18 255 10 458 0 26 0 27 7 ?1 17 255 26 0 28 26 26 10 29 30 0 29 -18 27 40
2 0 31 10 32 20 ?1 17 31 0 33 31 31 27 34 35 0 34 -18 32 343 0 36 27 0 37 ?1 29
 20 404 0 27 37 7 -.00705810704084318 -.004075 .0125 29 37 344 0 32 0 20 -991274
96688665e-30 .00815 .0125 17 36 0 38 39 29 32 40 25 0 41 +15 255 38 314 0 42 43
 44 17 39 0 38 23 36 32 41 45 0 46 +17 29 0 38 36 42 10 26 30 0 40 +17 40 0 47 4
8 46 10 36 25 0 42 -16 25 459 49 ?36 24 50 6 24 9 1 17 41 0 51 41 41 32 39 45 0
 39 -15 51 382 0 41 52 0 16 45 363 53 ?39 54 55 56 0 0 1 81 1 53 551 57 45 0 0 5
8 59 60 16 54 362 61 ?62 63 45 64 0 0 1 16 55 420 65 ?66 45 67 68 0 0 1 31 56 39
3 0 45 68 64 0 +0 .006 .0125 0 0 -1 -1 0 0 .00215 31 68 450 0 55 69 56 0 +-.0051
9615242270663 -.003 0 0 0 -1 .5 -.866025403784439 0 .0011 31 64 392 0 54 56 70 0
 +0 .006 .0042 0 0 -1 -1 0 0 .00215 31 70 391 0 63 64 71 0 +0 .006 .0042 0 0 -1
 -1 0 0 .0011 16 63 361 72 ?73 74 54 70 0 0 1 31 71 390 0 74 70 75 0 +0 .006 0 0
 0 -1 -1 0 0 .0011 16 74 360 58 ?76 77 63 71 0 0 1 31 75 192 0 77 71 78 0 +0 0 .
0125 0 0 -1 -1 0 0 .0035 16 77 102 79 ?80 81 74 75 0 0 1 31 78 194 0 81 75 82 0
 +0 0 .0145 0 0 -1 -1 0 0 .00825 16 81 109 83 ?84 85 77 78 0 0 1 31 82 195 0 85
 78 86 0 +0 0 .0147 0 0 -1 -1 0 0 .00830358983848622 16 85 114 87 ?88 89 81 82 0
 0 1 31 86 196 0 89 82 90 0 +0 0 .0147 0 0 -1 -1 0 0 .009 16 89 119 91 ?92 93 85
 86 0 0 1 31 90 197 0 93 86 94 0 +0 0 .0153 0 0 -1 -1 0 0 .009 16 93 124 95 ?96
 97 89 90 0 0 1 31 94 198 0 97 90 98 0 +0 0 .0153 0 0 -1 -1 0 0 .0085 16 97 129
 99 ?100 101 93 94 0 0 1 31 98 199 0 101 94 102 0 +0 0 .0173 0 0 -1 -1 0 0 .0085
 16 101 134 103 ?104 105 97 98 0 0 1 31 102 200 0 105 98 106 0 +0 0 .0173 0 0 -1
 -1 0 0 .009 16 105 139 107 ?108 109 101 102 0 0 1 31 106 201 0 109 102 110 0 +0
 0 .0179 0 0 -1 -1 0 0 .009 16 109 144 111 ?112 113 105 106 0 0 1 31 110 202 0 1
13 106 114 0 +0 0 .0179 0 0 -1 -1 0 0 .01 16 113 149 115 ?116 117 109 110 0 0 1
 31 114 203 0 117 110 118 0 +0 0 0 0 0 -1 -1 0 0 .01 16 117 154 119 ?120 121 113
 114 0 0 1 31 118 204 0 121 114 122 0 +0 0 0 0 0 -1 -1 0 0 .0045 16 121 159 123
 ?124 125 117 118 0 0 1 31 122 205 0 125 118 126 0 +0 0 .002 0 0 -1 -1 0 0 .0045
 16 125 164 127 ?128 129 121 122 0 0 1 31 126 206 0 129 122 19 0 +0 0 .002 0 0 -
1 -1 0 0 .0035 16 129 169 130 ?131 50 125 126 0 0 1 31 19 310 0 50 126 6 0 -0 0
 .0126 0 0 1 1 0 0 .00825 16 50 307 132 ?133 25 129 19 0 0 1 81 1 132 560 57 50
 0 0 134 22 135 17 133 0 136 133 133 0 137 50 0 0 +15 136 308 0 133 138 139 17 1
37 0 140 137 137 0 133 50 0 0 -15 140 327 0 137 17 0 14 255 17 325 141 ?142 43 4
7 4 5 -0 0 142 43 21 81 1 141 620 143 17 144 0 145 146 147 14 142 371 146 ?148 1
7 149 4 150 -0 0 148 17 21 14 43 107 145 ?17 138 38 4 151 +0 0 17 138 21 15 47 3
26 0 46 17 140 13 21 99 0 0 0 0 0 0 8 15 14 15 175 152 ?153 0 154 4 18 +0 0 153
 0 21 81 1 152 590 143 15 155 0 0 156 157 14 153 172 156 ?158 15 159 4 160 +0 0
 158 15 21 15 154 297 0 131 15 161 51 255 18 191 0 15 160 5 0 -0 0 0 0 0 -1 .003
5 -1 0 0 50 255 160 190 0 153 162 18 0 +-.0035 0 .002 0 0 -1 -1 0 0 51 162 189 0
 158 163 160 0 -0 0 0 0 0 -1 .0045 -1 0 0 14 158 167 164 ?165 153 166 4 162 +0 0
 165 153 21 50 163 188 0 165 167 162 0 +-.0045 0 0 0 0 -1 -1 0 0 14 165 162 168
 ?169 158 170 4 163 +0 0 169 158 21 51 167 187 0 169 171 163 0 +0 0 0 0 0 -1 .01
 -1 0 0 14 169 157 172 ?173 165 174 4 167 +0 0 173 165 21 50 171 186 0 173 175 1
67 0 +-.01 0 .0179 0 0 1 1 0 0 14 173 152 176 ?177 169 178 4 171 +0 0 177 169 21
 51 175 185 0 177 179 171 0 -0 0 0 0 0 -1 .009 -1 0 0 14 177 147 180 ?181 173 18
2 4 175 +0 0 181 173 21 50 179 184 0 181 183 175 0 +-.009 0 .0173 0 0 1 1 0 0 14
 181 142 184 ?185 177 186 4 179 +0 0 185 177 21 51 183 183 0 185 187 179 0 -0 0
 0 0 0 -1 .0085 -1 0 0 14 185 137 188 ?189 181 190 4 183 +0 0 189 181 21 50 187
 182 0 189 191 183 0 +-.0085 0 .0153 0 0 -1 -1 0 0 14 189 132 192 ?193 185 194 4
 187 +0 0 193 185 21 51 191 181 0 193 195 187 0 -0 0 0 0 0 -1 .009 -1 0 0 14 193
 127 196 ?197 189 198 4 191 +0 0 197 189 21 50 195 180 0 197 199 191 0 +-.009 0
 .0147 0 0 1 1 0 0 14 197 122 200 ?201 193 202 4 195 +0 0 201 193 21 52 255 199
 179 0 201 203 195 0 -0 0 .0147 0 0 1 .00830358983848622 .258819045102511 .96592
5826289071 1 0 0 14 201 117 204 ?138 197 205 4 199 +0 0 138 197 21 51 203 178 0
 138 151 199 0 -0 0 0 0 0 -1 .00825 -1 0 0 14 138 112 206 ?43 201 136 4 203 +0 0
 43 201 21 50 151 177 0 43 207 203 0 +-.00825 0 .0125 0 0 1 1 0 0 51 207 385 0 5
2 208 151 0 +0 .006 .0125 0 0 -1 .00215 -1 0 0 14 52 379 209 ?210 148 211 4 207
 -0 0 210 148 21 50 208 386 0 148 150 207 0 +0 .006 .0042 0 0 -1 -1 0 0 14 148 3
75 212 ?52 142 213 4 208 -0 0 52 142 21 51 150 387 0 142 214 208 0 +0 .006 0 0 0
 -1 .0011 -1 0 0 51 214 445 0 215 216 150 0 +-.00519615242270663 -.003 .0125 0 0
 -1 .00215 .5 -.866025403784439 0 14 215 439 217 ?218 219 220 4 214 -0 0 218 219
 21 50 216 446 0 219 221 214 0 +-.00519615242270663 -.003 .0042 0 0 -1 .5 -.8660
25403784439 0 14 219 435 222 ?215 210 223 4 216 -0 0 215 210 21 51 221 447 0 210
 224 216 0 +-.00519615242270663 -.003 0 0 0 -1 .0011 .5 -.866025403784439 0 14 2
10 431 225 ?219 52 226 4 221 -0 0 219 52 21 51 224 501 0 227 228 221 0 +.0051961
5242270663 -.003 .0125 0 0 -1 .00215 .5 .866025403784438 0 14 227 495 229 ?0 230
 231 4 224 -0 0 0 230 21 50 228 502 0 230 232 224 0 +.00519615242270663 -.003 .0
042 0 0 -1 .5 .866025403784438 0 14 230 491 233 ?227 218 234 4 228 -0 0 227 218
 21 51 232 503 0 218 0 228 0 +.00519615242270663 -.003 0 0 0 -1 .0011 .5 .866025
403784438 0 14 218 487 235 ?230 215 236 4 232 -0 0 230 215 21 81 1 235 634 143 2
18 237 0 217 233 238 15 236 489 0 239 218 240 17 239 0 236 239 239 0 241 242 0 0
 +15 240 490 0 243 218 0 17 243 0 240 243 243 0 244 245 0 0 -17 244 0 234 244 24
4 0 243 245 0 0 +16 245 477 246 ?244 242 247 248 0 0 1 81 1 246 558 57 245 0 0 2
49 134 250 16 242 476 251 ?239 35 245 252 0 0 1 16 247 478 249 ?253 245 30 254 0
 0 1 31 248 507 0 245 254 252 0 +.00519615242270663 -.003 .0042 0 0 -1 .5 .86602
5403784438 0 .0011 31 254 508 0 247 255 248 0 +.00519615242270663 -.003 .0042 0
 0 -1 .5 .866025403784438 0 .00215 31 252 506 0 242 248 256 0 +.0051961524227066
3 -.003 0 0 0 -1 .5 .866025403784438 0 .0011 31 256 453 0 35 252 257 0 +-.005196
15242270663 -.003 .0125 0 0 -1 .5 -.866025403784439 0 .00215 16 35 423 59 ?34 25
8 242 256 0 0 1 31 257 452 0 258 256 69 0 +-.00519615242270663 -.003 .0042 0 0 -
1 .5 -.866025403784439 0 .00215 16 258 422 259 ?260 67 35 257 0 0 1 31 69 451 0
 67 257 68 0 +-.00519615242270663 -.003 .0042 0 0 -1 .5 -.866025403784439 0 .001
1 16 67 421 134 ?261 55 258 69 0 0 1 81 1 134 559 57 67 0 0 246 132 262 17 261 0
 223 261 261 0 263 67 0 0 +15 223 437 0 261 219 264 17 263 0 265 263 263 0 261 6
7 0 0 -15 265 434 0 263 210 0 15 264 438 0 266 219 0 17 266 0 264 266 266 0 260
 258 0 0 -17 260 0 220 260 260 0 266 258 0 0 +15 220 441 0 260 215 33 15 33 442
 0 31 215 0 80 255 1 57 267 268 9000 1 1 1 1 1 1 1 1 0 FFFFTFTFFFFFFF3 84 255 32
 262 31dfc44c6a7bc049ec0c76479438f8ad79 255 15 268 UGS/ObjectState81 1 259 553 5
7 258 0 0 59 269 270 81 1 59 552 57 35 0 0 53 259 271 81 1 269 554 57 30 0 0 259
 251 272 84 32 270 003811119b859b32c3203a68e8908b7e16 30 479 269 ?29 247 0 255 0
 0 1 81 1 251 555 57 242 0 0 269 65 273 84 32 272 d1e0546e05084138a32226a20e7df5
7481 1 65 556 57 55 0 0 251 249 274 84 32 273 c525686767517405f1860f393bc771e781
 1 249 557 57 247 0 0 65 246 275 84 32 274 08c2f2141abd52fda8b6b2c3db556ab084 32
 275 60018ca9cc6cae657f11ebb666f696fb31 255 509 0 30 0 254 0 +.00519615242270663
 -.003 .0125 0 0 -1 .5 .866025403784438 0 .00215 84 32 271 a51fad25afb0428cc628d
545319d565b17 34 0 38 42 23 27 31 35 0 48 +17 42 0 38 29 34 10 48 24 0 0 +17 23
 0 38 34 39 27 46 9 0 0 +17 48 0 47 46 40 27 42 24 0 23 -17 46 0 47 40 48 32 23
 9 0 0 -16 24 403 276 ?42 9 25 6 9 25 1 81 1 276 562 57 24 0 0 22 49 277 81 1 22
 561 57 9 0 0 132 276 278 81 1 49 563 57 25 0 0 276 279 280 84 32 277 e7fe753354
5735d5ad6731938422446e81 1 279 564 57 158 0 281 49 282 283 84 32 280 f6363610156
faf7357ff13a68b9f7d0d81 1 281 593 284 158 279 164 285 286 287 81 1 282 565 57 15
 0 155 279 288 289 84 32 283 647cd9702c70f05e4edb1b4901e6e99081 1 155 589 284 15
 282 152 0 285 290 81 1 288 566 57 177 0 291 282 292 293 84 32 289 08443462ad885
0541b1bb924d73f7f2281 1 291 601 284 177 288 180 294 295 296 81 1 292 567 57 193
 0 297 288 298 299 84 32 293 f4ce81f7eed01eae48fa646e9262418181 1 297 609 284 19
3 292 196 300 301 302 81 1 298 568 57 165 0 286 292 303 304 84 32 299 913a5b6636
33a39b1d9aee01db2848c181 1 286 595 284 165 298 168 281 305 306 81 1 303 569 57 1
81 0 295 298 307 308 84 32 304 968c81a2fcd807e9887389b8380bb81681 1 295 603 284
 181 303 184 291 309 310 81 1 307 570 57 197 0 301 303 311 312 84 32 308 3e64d60
ec999b972f3df29074ce070f681 1 301 611 284 197 307 200 297 313 314 81 1 311 571 5
7 169 0 305 307 315 316 84 32 312 310f578cb7351abbb57dd4e65fb4640e81 1 305 597 2
84 169 311 172 286 294 317 81 1 315 572 57 185 0 309 311 318 319 84 32 316 fb172
a70287d8eca0cd63141628f501d81 1 309 605 284 185 315 188 295 300 320 81 1 318 573
 57 201 0 313 315 321 322 84 32 319 b7a80cf54813909a8d6e01b4148de28581 1 313 613
 284 201 318 204 301 323 324 81 1 321 574 57 153 0 285 318 325 326 84 32 322 ddf
f581ed9a31ca5d442d89c313f4b5981 1 285 591 284 153 321 156 155 281 327 81 1 325 5
75 57 173 0 294 321 328 329 84 32 326 93b9ba9ebe723e95273bab0fef0d538081 1 294 5
99 284 173 325 176 305 291 330 81 1 328 576 57 189 0 300 325 331 332 84 32 329 0
89717b8855c141bf3bcef4976f1cc2881 1 300 607 284 189 328 192 309 297 333 81 1 331
 577 57 138 0 323 328 334 335 84 32 332 72f919e9502416b38b709e1ad809c4b981 1 323
 615 284 138 331 206 313 336 337 81 1 334 578 57 43 0 336 331 338 339 84 32 335
 d0da199e116aec1ec0a45535802a4f1781 1 336 617 284 43 334 145 323 144 340 81 1 33
8 579 57 142 0 341 334 342 343 84 32 339 b73b5b817c45f74d2969e778f83d677d81 1 34
1 621 284 142 338 146 144 344 345 81 1 342 580 57 148 0 344 338 346 347 84 32 34
3 1e7602f8a128856f91e399d8396dc02781 1 344 623 284 148 342 212 341 348 349 81 1
 346 581 57 52 0 348 342 350 351 84 32 347 8ae16108d07733f1d8fcc66c6ad1457681 1
 348 625 284 52 346 209 344 352 353 81 1 350 582 57 230 0 354 346 355 356 84 32
 351 5f01e6724b205fb4b68c23c67b50605081 1 354 635 284 230 350 233 237 357 358 81
 1 355 583 57 215 0 359 350 360 361 84 32 356 b0b82996bf66fc49911e66b0460a46c181
 1 359 631 284 215 355 217 362 237 363 81 1 360 584 57 219 0 362 355 364 365 84
 32 361 463a2114817bfe1afe636d556bbb00f581 1 362 629 284 219 360 222 352 359 366
 81 1 364 585 57 210 0 352 360 367 368 84 32 365 ad0e35333041f5ce729d7c1084cc27d
d81 1 352 627 284 210 364 225 348 362 369 81 1 367 586 57 227 0 357 364 370 371
 84 32 368 6de6098da966f099475135c3e34d11e781 1 357 637 284 227 367 229 354 0 37
2 81 1 370 587 57 218 0 237 367 373 374 84 32 371 4c4796936467b07f7d70e4af08442b
0581 1 237 633 284 218 370 235 359 354 375 81 1 373 588 57 17 0 144 370 0 376 84
 32 374 e3bbc29fc277ed30d9455b4d3042fb3c81 1 144 619 284 17 373 141 336 341 377
 84 32 376 051b304b88fc3baf9972b813d922010380 1 284 378 379 8015 0 0 0 0 3 5 0 0
 0 FFFFTFFFFFFFFF2 83 255 1 377 0 79 21 379 SDL/TYSA_TRANSLUCENCY83 1 375 0 81 1
 229 638 143 227 357 0 233 0 380 83 1 372 0 80 1 143 0 381 8001 0 0 0 0 3 5 0 0
 0 FFFFTFTFFFFFFF2 81 1 233 636 143 230 354 0 235 229 382 83 3 380 .6 .6 .6 83 3
 382 .6 .6 .6 79 15 381 SDL/TYSA_COLOUR81 1 225 628 143 210 352 0 209 222 383 83
 1 369 0 81 1 209 626 143 52 348 0 212 225 384 81 1 222 630 143 219 362 0 225 21
7 385 83 3 383 .6 .6 .6 81 1 217 632 143 215 359 0 222 235 386 83 3 385 .6 .6 .6
 83 3 386 .6 .6 .6 81 1 212 624 143 148 344 0 146 209 387 83 3 384 .6 .6 .6 81 1
 146 622 143 142 341 0 141 212 388 83 3 387 .6 .6 .6 83 3 388 .6 .6 .6 83 1 366
 0 83 1 363 0 83 1 358 0 83 1 353 0 83 1 349 0 83 1 345 0 81 1 145 618 143 43 33
6 0 206 141 389 83 1 340 0 81 1 206 616 143 138 323 0 204 145 390 83 3 389 .6 .6
 .6 81 1 204 614 143 201 313 0 200 206 391 83 3 390 .6 .6 .6 81 1 200 612 143 19
7 301 0 196 204 392 83 3 391 .6 .6 .6 81 1 196 610 143 193 297 0 192 200 393 83
 3 392 .6 .6 .6 81 1 192 608 143 189 300 0 188 196 394 83 3 393 .6 .6 .6 81 1 18
8 606 143 185 309 0 184 192 395 83 3 394 .6 .6 .6 81 1 184 604 143 181 295 0 180
 188 396 83 3 395 .6 .6 .6 81 1 180 602 143 177 291 0 176 184 397 83 3 396 .6 .6
 .6 81 1 176 600 143 173 294 0 172 180 398 83 3 397 .6 .6 .6 81 1 172 598 143 16
9 305 0 168 176 399 83 3 398 .6 .6 .6 81 1 168 596 143 165 286 0 164 172 400 83
 3 399 .6 .6 .6 81 1 164 594 143 158 281 0 156 168 401 83 3 400 .6 .6 .6 81 1 15
6 592 143 153 285 0 152 164 402 83 3 401 .6 .6 .6 83 3 402 .6 .6 .6 83 1 337 0 8
3 1 333 0 83 1 330 0 83 1 327 0 83 1 324 0 83 1 320 0 83 1 317 0 83 1 314 0 83 1
 310 0 83 1 306 0 83 1 302 0 83 1 296 0 83 1 290 0 83 1 287 0 84 32 278 6b1530b8
5dd11a79a6a2edeb43b936e817 253 0 231 253 253 0 403 247 0 0 +15 231 497 0 253 227
 28 17 403 0 404 403 403 0 253 247 0 0 -15 404 494 0 403 230 0 15 28 498 0 26 22
7 0 84 32 250 6e7f4500131c558f8a2acefde7e6540a15 234 493 0 244 230 404 17 241 0
 170 241 241 0 239 242 0 0 -15 170 468 0 241 165 405 15 405 412 0 406 165 407 17
 406 0 405 406 406 0 66 55 0 0 -15 407 352 0 408 165 409 17 408 0 407 408 408 0
 76 74 0 0 -15 409 294 0 120 165 410 17 120 0 409 120 120 0 411 117 0 0 +15 410
 161 0 412 165 0 17 412 0 410 412 412 0 124 121 0 0 -17 124 0 166 124 124 0 412
 121 0 0 +15 166 295 0 124 158 413 15 413 166 0 414 158 0 17 414 0 413 414 414 0
 128 125 0 0 -17 128 0 159 128 128 0 414 125 0 0 +15 159 296 0 128 153 415 15 41
5 171 0 416 153 0 17 416 0 415 416 416 0 131 129 0 0 -17 131 0 154 131 131 0 416
 129 0 0 +17 411 0 417 411 411 0 120 117 0 0 -15 417 156 0 411 169 0 17 76 0 149
 76 76 0 408 74 0 0 +15 149 373 0 76 142 418 15 418 374 0 419 142 0 17 419 0 418
 419 419 0 73 63 0 0 -17 73 0 213 73 73 0 419 63 0 0 +15 213 377 0 73 148 420 15
 420 378 0 421 148 0 17 421 0 420 421 421 0 62 54 0 0 -17 62 0 211 62 62 0 421 5
4 0 0 +15 211 381 0 62 52 51 17 66 0 226 66 66 0 406 55 0 0 +15 226 433 0 66 210
 265 83 3 238 .6 .6 .6 15 205 285 0 84 201 422 17 84 0 205 84 84 0 423 81 0 0 +1
5 422 116 0 424 201 0 17 424 0 422 424 424 0 88 85 0 0 -17 88 0 202 88 88 0 424
 85 0 0 +15 202 286 0 88 197 425 15 425 121 0 426 197 0 17 426 0 425 426 426 0 9
2 89 0 0 -17 92 0 198 92 92 0 426 89 0 0 +15 198 287 0 92 193 427 15 427 126 0 4
28 193 0 17 428 0 427 428 428 0 96 93 0 0 -17 96 0 194 96 96 0 428 93 0 0 +15 19
4 288 0 96 189 429 15 429 131 0 430 189 0 17 430 0 429 430 430 0 100 97 0 0 -17
 100 0 190 100 100 0 430 97 0 0 +15 190 289 0 100 185 431 15 431 136 0 432 185 0
 17 432 0 431 432 432 0 104 101 0 0 -17 104 0 186 104 104 0 432 101 0 0 +15 186
 290 0 104 181 433 15 433 141 0 434 181 0 17 434 0 433 434 434 0 108 105 0 0 -17
 108 0 182 108 108 0 434 105 0 0 +15 182 291 0 108 177 435 15 435 146 0 436 177
 0 17 436 0 435 436 436 0 112 109 0 0 -17 112 0 178 112 112 0 436 109 0 0 +15 17
8 292 0 112 173 437 15 437 151 0 438 173 0 17 438 0 437 438 438 0 116 113 0 0 -1
7 116 0 174 116 116 0 438 113 0 0 +15 174 293 0 116 169 417 17 423 0 139 423 423
 0 84 81 0 0 -15 139 111 0 423 138 0 15 161 174 0 439 15 0 17 439 0 161 439 439
 0 80 77 0 0 -17 80 0 44 80 80 0 439 77 0 0 +15 44 283 0 80 43 0 83 3 157 .6 .6
 .6 83 3 147 .6 .6 .6 84 32 135 f2aeb4593e8056f82cc19852a4c064e281 1 130 543 57
 129 0 0 87 115 440 81 1 87 542 57 85 0 0 103 130 441 81 1 115 544 57 113 0 0 13
0 99 442 84 32 440 517e1bdbad001de18e256f19d3c549fb81 1 99 545 57 97 0 0 115 83
 443 84 32 442 3bcf38c7f4a951872289b20c98fe135981 1 83 546 57 81 0 0 99 79 444 8
4 32 443 3f4f309099ea27bbfc4374a2491ce20181 1 79 547 57 77 0 0 83 72 445 84 32 4
44 b7c916dbfc7208d41e2842c51d8331f581 1 72 548 57 63 0 0 79 61 446 84 32 445 946
e0bc0b280a1482c277dfb024e326981 1 61 549 57 54 0 0 72 58 447 84 32 446 c14368357
ff3ee06f7a5308ef1518a1c81 1 58 550 57 74 0 0 61 53 448 84 32 447 69a350a35c0c140
cbe4de625c48c5dfb84 32 448 d7af8085eb1247e083eab14d1d36a9ba81 1 103 541 57 101 0
 0 119 87 449 84 32 441 eaebc3a590a8a1e57733012302d4a61881 1 119 540 57 117 0 0
 91 103 450 84 32 449 5f9f303be04d01358960ddb449185bae81 1 91 539 57 89 0 0 107
 119 451 84 32 450 9720427cc6f2705f70f85d66a1da1c7f81 1 107 538 57 105 0 0 123 9
1 452 84 32 451 27de4188106a16ed276b9081855a945781 1 123 537 57 121 0 0 95 107 4
53 84 32 452 795ad1e30cfb54699242dbe2eeb0c3c081 1 95 536 57 93 0 0 111 123 454 8
4 32 453 422bd9854f33e6ef5397dadd5efa3e7a81 1 111 535 57 109 0 0 127 95 455 84 3
2 454 d9e0be610c30c05c89de9397c17697d381 1 127 534 57 125 0 0 0 111 456 84 32 45
5 99f963409ca9151069c3b62b2bd39cc984 32 456 a973f033887d8291e7b248544c96367284 3
2 60 d1265b06bc3ef43483d29220c457fdda19 16 1 0 1 0 8 4 S0 74 4 CI16 index_map_of
fset0 0 1 dCCZ20 14 6 0 0 457 12 373 357 229 2 0 0 0 0 0 0 0 0 0 0 0 0 0 0 81 2
 457 514 458 1 0 12 0 0 459 460 81 1 12 532 461 1 457 2 0 0 462 80 1 461 463 464
 9000 0 0 0 0 3 5 0 0 0 FFTFFFFFFFFFFF1 82 255 1 462 -1 79 19 464 UG2/PMARK_ATTR
IBUTE80 2 458 465 466 8004 0 0 0 0 3 5 0 0 0 FFTFFFFFFFFFFF2 3 83 1 459 .001 84
 8 460 Kg/Cu M 79 16 466 SDL/TYSA_DENSITY80 1 11 467 468 9000 0 0 0 0 3 5 0 0 0
 FFTFFFFFFFFFFF1 82 1 13 87 79 24 468 UG2/BODY_COLOR_ATTRIBUTE1 0 
