**ABCDEFGHIJKLMNOPQRSTUVWXYZabcdefghijklmnopqrstuvwxyz**************************
**PARASOLID !"#$%&'()*+,-./:;<=>?@[\]^_`{|}~0123456789**************************
**PART1;
MC=x64/Windows NT;
MC_MODEL=genuineintel family 6 model 10 stepping 5, intel(r) xeon(r) cpu           w3550  @ 3.07ghz;
MC_ID=pc1401;
OS=windows nt (x64);
OS_RELEASE=6.1 windows 7 professional (build 7601) service pack 1;
FRU=mdc_ugii_v7.0_djl_can_vrh;
APPL=unigraphics;
SITE=unknown;
USER=huge;
FORMAT=text;
GUISE=transmit;
KEY=20-1R_4stage;
FILE=D:\Daten-Huge\PLM_Export\A_Internet_Modelle\Getriebe\20-x\20-1R\20-1R_4stage.x_t;
DATE=22-mar-2017;
**PART2;
SCH=SCH_2701211_26105;
USFLD_SIZE=0;
**PART3;
**END_OF_HEADER*****************************************************************
T51 : TRANSMIT FILE created by modeller version 270121123 SCH_2701211_26105_1300
6200 0 12 30 CCCCCCCCCCCCCDI5 owner1040 0 CCCCCCCCCA13 boundary_mesh1006 0 A16 i
ndex_map_offset0 0 1 dA9 index_map82 0 A17 node_id_index_map82 0 A20 schema_embe
dding_map82 0 A5 child12 0 A14 lowest_node_id0 0 1 dZ1 3087 2 3 0 0 0 0 1e3 1e-8
 0 0 0 1 0 1 1 4 5 6 7 8 9 10 0 0 0 0 0 0 0 81 255 1 2 3087 11 1 12 0 0 0 13 70
 11 CI9 list_type0 0 1 uI10 notransmit0 0 1 lCCCDCCDI12 finger_index0 0 1 dI12 f
inger_block1012 0 CZ3 0 4 T1 0 0 5 20 1 14 14 13 255 4 3 0 1 0 15 0 0 16 0 52 25
5 5 2309 0 17 18 0 0 +0 0 -.0255113248654052 0 0 1 .00875 .866025403784439 .5 1
 0 0 31 255 6 2399 0 19 20 0 0 +0 0 -.02805 0 0 1 1 0 0 .0037 29 255 7 1483 0 10
 21 0 .00931227189477186 .003644391877644615 -.002 19 8 CCCCCCCA5 owner12 0 Z8 1
 0 1 16 0 22 V0 16 255 9 2704 23 ?24 0 25 26 0 0 1 18 255 10 1481 0 27 0 28 7 ?1
 17 255 27 0 29 30 31 10 32 33 0 34 +18 28 1203 0 35 10 36 21 ?1 17 35 0 29 37 3
8 28 39 40 0 41 +18 36 931 0 42 28 43 44 ?1 29 21 1205 0 28 44 7 -.0015 -.009886
85996664259 -.002 29 44 933 0 36 45 21 -.00781227189477186 .00624246808899795 -.
002 29 45 709 0 43 46 44 -.000994987437106621 -.0015 .0143 18 43 706 0 47 36 48
 45 ?1 29 46 705 0 48 49 45 .000994987437106624 -.0015 .0143 18 48 702 0 50 43 5
1 46 ?1 29 49 694 0 51 52 46 -.0013228756555323 -.0015 .0141 18 51 690 0 53 48 5
4 49 ?1 29 52 689 0 54 55 49 .0013228756555323 -.0015 .0141 18 54 685 0 56 51 57
 52 ?1 29 55 648 0 57 58 52 -.001322875655532304 -.0015 .0063 18 57 570 0 59 54
 60 55 ?1 29 58 649 0 60 61 55 .001322875655532304 -.0015 .0063 18 60 563 0 62 5
7 63 58 ?1 29 61 1128 0 63 64 58 -.00931227189477185 .003644391877644635 -.002 1
8 63 1039 0 65 60 66 61 ?1 29 64 1129 0 66 67 61 -.00931227189477185 .0036443918
77644635 0 18 66 1051 0 68 63 69 64 ?1 29 67 1131 0 69 70 64 -.00781227189477185
 .00624246808899795 0 18 69 1042 0 71 66 72 67 ?1 29 70 1135 0 73 74 67 -.006784
42101292462 .00564903810567666 0 18 73 1046 0 75 76 77 70 ?1 29 74 1136 0 77 78
 70 -.00828442101292462 .00305096189432334 0 18 77 1052 0 79 73 80 74 ?1 29 78 1
139 0 72 81 74 -.00678442101292462 .00564903810567666 -.002 18 72 1047 0 82 69 7
6 78 ?1 29 81 1140 0 76 83 78 -.00828442101292462 .00305096189432334 -.002 18 76
 1045 0 84 72 73 81 ?1 29 83 1401 0 80 85 81 .001499999999999988 -.0098868599666
426 -.002 18 80 1311 0 86 77 87 83 ?1 29 85 1402 0 87 88 83 .001499999999999988
 -.0098868599666426 0 18 87 1323 0 89 80 90 85 ?1 29 88 1404 0 90 91 85 -.0015 -
.00988685996664259 0 18 90 1314 0 92 87 93 88 ?1 29 91 1408 0 94 95 88 -.0015 -.
0087 0 18 94 1318 0 96 97 98 91 ?1 29 95 1409 0 98 99 91 .0015 -.0087 0 18 98 13
24 0 100 94 101 95 ?1 29 99 1412 0 93 102 95 -.0015 -.0087 -.002 18 93 1319 0 10
3 90 97 99 ?1 29 102 1413 0 97 104 99 .0015 -.0087 -.002 18 97 1317 0 105 93 94
 102 ?1 29 104 1679 0 101 106 102 .00781227189477187 .00624246808899793 -.002 18
 101 1589 0 107 98 108 104 ?1 29 106 1680 0 108 109 104 .00781227189477187 .0062
4246808899793 0 18 108 1601 0 110 101 111 106 ?1 29 109 1682 0 111 112 106 .0093
1227189477186 .003644391877644615 0 18 111 1592 0 113 108 114 109 ?1 29 112 1686
 0 115 116 109 .00828442101292462 .00305096189432334 0 18 115 1596 0 117 118 119
 112 ?1 29 116 1687 0 119 120 112 .00678442101292463 .00564903810567664 0 18 119
 1602 0 121 115 122 116 ?1 29 120 1690 0 114 123 116 .00828442101292462 .0030509
6189432334 -.002 18 114 1597 0 124 111 118 120 ?1 29 123 1691 0 118 125 120 .006
78442101292463 .00564903810567664 -.002 18 118 1595 0 126 114 115 123 ?1 29 125
 2823 0 122 127 123 -.00866025403784441 .005 -.002 18 122 2804 0 128 119 129 125
 ?1 29 127 2870 0 129 130 125 -2991354665902615e-33 -.01 -.002 18 129 2851 0 38
 122 131 127 ?1 29 130 2917 0 131 0 127 .0086602540378444 .005 -.002 18 131 2898
 0 31 129 0 130 ?1 17 31 0 29 27 132 131 107 133 0 32 +15 255 29 1490 0 132 134
 135 17 132 0 29 31 136 101 110 137 0 0 -17 107 0 138 126 139 101 31 133 0 140 -
16 133 1482 141 ?31 25 33 142 33 33 1 17 32 0 138 139 34 131 27 33 0 139 -15 138
 1650 0 32 143 0 17 139 0 138 107 32 131 144 145 0 144 -17 34 0 138 32 146 10 14
7 148 0 149 -16 33 2873 150 ?27 133 151 142 133 133 1 81 1 150 2959 152 33 0 0 1
53 154 155 16 151 1204 153 ?38 33 40 156 40 40 1 31 142 1484 0 133 156 157 0 -0
 0 -.002 0 0 1 1 0 0 .01 31 156 1206 0 151 158 142 0 -0 0 -.002 0 0 1 1 0 0 .01
 31 157 1831 0 159 142 160 0 -0 0 -.0231 0 0 -1 -1 0 0 .01 16 159 1845 161 ?162
 163 164 157 0 0 1 31 160 2011 0 164 157 20 0 -0 0 -.0238 0 0 -1 -1 0 0 .00875 1
6 164 2023 165 ?166 159 167 160 0 0 1 31 20 2289 0 25 160 6 0 -0 0 -.02551132486
54052 0 0 -1 -1 0 0 .00875 16 25 2286 168 ?169 9 133 20 0 0 1 81 1 168 2479 152
 25 0 0 170 171 172 17 169 0 173 169 169 0 174 25 0 0 +15 173 2287 0 169 15 175
 17 174 0 176 174 174 0 169 25 0 0 -15 176 2304 0 174 17 0 14 255 17 2302 177 ?1
78 179 180 4 5 +0 0 178 179 22 81 1 177 3058 181 17 182 0 183 184 185 14 178 234
4 184 ?186 17 187 4 188 -189 189 186 17 22 14 179 80 183 ?17 190 191 4 192 +0 0
 17 190 22 15 180 2303 0 193 17 176 13 22 4 0 0 0 0 0 0 8 15 14 15 1862 194 ?195
 0 173 4 196 +0 0 195 0 22 81 1 194 2976 181 15 197 0 0 198 199 14 195 48 198 ?2
00 15 201 4 202 +134 134 200 15 22 51 255 196 1887 0 15 203 204 0 +0 0 -.02585 0
 0 -1 .00875 -1 0 0 50 255 203 2069 0 205 206 196 0 +0 0 -.0238 0 0 -1 -1 0 0 50
 204 1886 0 207 196 208 0 +0 0 -.0231 0 0 -1 -1 0 0 14 207 1867 209 ?210 143 211
 4 204 +0 0 210 143 22 50 208 1662 0 143 204 212 0 +.00753442101292462 .00435 -.
002 0 0 1 1 0 0 14 143 1647 213 ?207 214 138 4 208 +0 0 207 214 22 50 212 1659 0
 214 208 215 0 +.00828442101292463 .00305096189432332 -.002 .5 -.86602540378444
 0 .86602540378444 .5 0 14 214 1639 216 ?143 217 218 4 212 -0 0 143 217 22 51 21
5 1658 0 217 212 219 0 +.00753442101292462 .00435 -.002 0 0 1 .0015 1 0 0 14 217
 1635 220 ?214 221 222 4 215 -0 0 214 221 22 50 219 1657 0 221 215 223 0 +.00791
025403784441 .00629903810567664 -.002 -.5 .86602540378444 0 -.86602540378444 -.5
 0 14 221 1631 224 ?217 225 226 4 219 -0 0 217 225 22 50 223 1384 0 225 219 227
 0 +867361737988404e-33 -.0087 -.002 0 0 1 1 0 0 14 225 1369 228 ?221 229 230 4
 223 +0 0 221 229 22 50 227 1381 0 229 223 231 0 +-.0015 -.0087 -.002 -1 1000802
005371232e-30 0 -1000802005371232e-30 -1 0 14 229 1361 232 ?225 233 234 4 227 -0
 0 225 233 22 51 231 1380 0 233 227 235 0 +867361737988404e-33 -.0087 -.002 0 0
 1 .0015 1 0 0 14 233 1357 236 ?229 237 238 4 231 -0 0 229 237 22 50 235 1379 0
 237 231 239 0 +.001499999999999988 -.01 -.002 1 -1334402673828314e-30 0 1334402
673828314e-30 1 0 14 237 1353 240 ?233 241 242 4 235 -0 0 233 241 22 50 239 1112
 0 241 235 243 0 +-.00753442101292462 .00435 -.002 0 0 1 1 0 0 14 241 1097 244 ?
237 245 246 4 239 +0 0 237 245 22 50 243 1109 0 245 239 247 0 +-.006784421012924
62 .00564903810567666 -.002 .5 .866025403784439 0 -.866025403784439 .5 0 14 245
 1089 248 ?241 249 250 4 243 -0 0 241 249 22 51 247 1108 0 249 243 251 0 +-.0075
3442101292462 .00435 -.002 0 0 1 .0015 1 0 0 14 249 1085 252 ?245 253 254 4 247
 -0 0 245 253 22 50 251 1107 0 253 247 255 0 +-.00941025403784439 .0037009618943
2334 -.002 -.5 -.866025403784439 0 .866025403784439 -.5 0 14 253 1081 256 ?249 2
57 258 4 251 -0 0 249 257 22 50 255 896 0 259 251 260 0 +.00606217782649107 -.00
35 -.003 0 0 -1 .5 .866025403784438 0 14 259 879 261 ?257 262 263 4 255 -0 0 257
 262 22 51 260 894 0 257 255 264 0 +.00606217782649107 -.0035 0 0 0 -1 .001025 .
5 .866025403784438 0 14 257 887 265 ?253 259 266 4 260 -0 0 253 259 22 50 264 85
3 0 267 260 268 0 +-.00606217782649107 -.0035 -.003 0 0 -1 .5 -.866025403784439
 0 14 267 836 269 ?262 270 271 4 264 -0 0 262 270 22 51 268 851 0 262 264 272 0
 +-.00606217782649107 -.0035 0 0 0 -1 .001025 .5 -.866025403784439 0 14 262 844
 273 ?259 267 274 4 268 -0 0 259 267 22 50 272 806 0 275 268 276 0 +0 .007 -.003
 0 0 -1 -1 0 0 14 275 789 277 ?270 278 279 4 272 -0 0 270 278 22 51 276 804 0 27
0 272 280 0 +0 .007 0 0 0 -1 .001025 -1 0 0 14 270 797 281 ?267 275 282 4 276 -0
 0 267 275 22 50 280 628 0 283 276 284 0 +.002 -.0015 .0063 0 346944695195359e-2
9 -1 0 1 346944695195359e-29 14 283 611 285 ?278 286 287 4 280 -0 0 278 286 22 5
0 284 627 0 286 280 288 289 +.002 -.0015 .0143 0 1 56920614055489e-29 0 -5692061
4055489e-29 1 14 286 607 290 ?283 291 292 4 284 -0 0 283 291 22 50 288 423 0 200
 284 293 0 +0 0 .0143 0 0 -1 -1 0 0 141 255 289 294 295 295 284 38 255 294 712 0
 296 297 298 0 +18 284 299 300 301 141 295 298 289 289 284 38 298 719 0 302 294
 303 0 +18 284 304 305 306 16 302 717 307 ?50 308 296 298 0 0 1 31 303 726 0 308
 298 158 0 -0 0 .0143 0 0 -1 -1 0 0 .0018 52 18 748 0 278 309 5 310 +0 0 .0141 0
 0 -1 .002 .707106781186547 .707106781186548 -1 0 0 40 255 2 304 0 1 2 164124088
5988565e-20 .0794058827328561 ??.0013228756555323 -.0015 .0141 .0009949874371066
23 -.0015 .0143 41 255 1 305 L.0013228756555323 -.0015 .0141 41 1 306 L.00099498
7437106623 -.0015 .0143 14 278 736 311 ?275 283 312 4 18 +0 0 275 283 22 51 309
 18 0 313 314 18 0 +0 0 0 0 0 1 .0045 1 0 0 141 310 294 315 315 18 141 315 298 3
10 310 18 14 313 2 316 ?317 318 319 4 309 +0 0 317 318 22 50 314 17 0 318 202 30
9 0 +0 0 .0012 0 0 1 1 0 0 14 318 15 320 ?313 134 321 4 314 +0 0 313 134 22 51 2
02 54 0 195 322 314 0 +0 0 0 0 0 -1 .01 -1 0 0 50 322 55 0 317 192 202 0 +0 0 0
 0 0 1 1 0 0 14 317 44 323 ?324 313 325 4 322 +0 0 324 313 22 50 192 95 0 179 32
6 322 0 +-542101086242752e-34 0 -.0286 0 0 -1 -1 0 0 50 326 174 0 327 328 192 0
 +0 0 -.0042 0 0 -1 -1 0 0 14 327 167 329 ?330 331 332 4 326 -0 0 330 331 22 50
 328 176 0 331 333 326 0 +0 0 -.004199 0 0 -1 -1 0 0 14 331 157 334 ?327 324 335
 4 328 +0 0 327 324 22 51 333 177 0 324 336 328 0 +0 0 -.0041995 0 0 -1 .009995
 -1 0 0 14 324 152 337 ?331 317 338 4 333 +0 0 331 317 22 51 336 248 0 339 340 3
33 0 +867361737988404e-33 0 0 0 0 1 .003 1 0 0 14 339 241 341 ?134 200 342 4 336
 +0 0 134 200 22 50 340 250 0 343 344 336 0 +867361737988404e-33 0 .00355 0 0 1
 1 0 0 14 343 233 345 ?291 346 347 4 340 +0 0 291 346 22 50 344 341 0 346 348 34
0 0 +867361737988404e-33 0 .00255 0 0 1 1 0 0 14 346 322 349 ?343 330 350 4 344
 +0 0 343 330 22 51 348 342 0 330 293 344 0 +867361737988404e-33 0 .00305 0 0 1
 .0022 1 0 0 14 330 317 351 ?346 327 352 4 348 +0 0 346 327 22 51 293 421 0 291
 288 348 0 +0 0 .0143 0 0 -1 .002 -1 0 0 14 291 406 353 ?286 343 354 4 293 +0 0
 286 343 22 81 1 353 3004 181 291 355 0 345 290 356 15 354 468 0 357 291 358 17
 357 0 354 359 360 51 59 361 0 362 -15 358 409 0 363 291 0 17 363 0 358 363 363
 0 364 365 0 0 +17 364 0 347 364 364 0 363 365 0 0 -16 365 384 366 ?363 367 368
 369 0 0 1 81 1 366 2467 152 365 0 0 370 371 372 16 367 460 373 ?62 374 365 375
 0 0 1 16 368 208 370 ?376 365 377 378 0 0 1 31 369 387 0 365 379 375 0 +0 0 .00
355 0 0 1 1 0 0 .002 31 379 289 0 380 378 369 0 -867361737988404e-33 0 .00255 0
 0 1 1 0 0 .003 31 375 462 0 367 369 297 0 -0 0 .0063 0 346944695195359e-29 -1 0
 1 346944695195359e-29 .002 31 297 697 0 374 375 294 0 +0 0 .0141 0 0 -1 -1 0 0
 .002 16 374 695 381 ?359 296 367 297 0 0 1 81 1 381 2495 152 374 0 0 307 382 38
3 17 359 0 354 384 357 54 362 374 0 385 +16 296 710 386 ?53 302 374 294 0 0 1 81
 1 386 2497 152 296 0 0 382 387 388 17 53 0 292 59 389 51 390 296 0 357 +15 292
 610 0 385 286 0 17 59 0 292 391 53 57 357 361 0 360 +17 389 0 292 53 50 43 392
 393 0 390 +17 390 0 312 394 362 43 53 296 0 0 -15 312 737 0 390 278 0 17 394 0
 312 56 390 48 47 308 0 0 -17 362 0 312 390 56 51 359 374 0 0 -17 56 0 312 362 3
94 54 50 302 0 359 -17 50 0 292 389 385 48 56 302 0 392 +17 385 0 292 50 391 54
 384 395 0 0 +17 392 0 396 47 47 48 389 393 0 394 -15 396 452 0 392 200 0 17 47
 0 396 392 392 43 394 308 0 389 +16 393 703 397 ?389 361 398 399 0 0 1 81 1 397
 2493 152 393 0 0 373 307 400 16 361 691 401 ?59 395 393 402 0 0 1 16 398 527 40
3 ?404 393 405 406 0 0 1 30 255 399 636 0 393 406 402 0 +.002 -.0015 .0143 -1 0
 0 30 406 637 0 398 407 399 0 +.002 -.0015 .0063 -1 0 0 30 402 633 0 361 399 408
 0 +-.0013228756555323 -.0015 .0143 0 0 -1 30 408 632 0 395 402 409 0 -.00132287
56555323 -.0015 .0143 0 0 -1 16 395 529 410 ?385 411 361 408 0 0 1 31 409 346 0
 412 408 413 0 +867361737988404e-33 0 .00355 0 0 1 1 0 0 .0022 16 412 298 414 ?4
15 380 411 409 0 0 1 31 413 343 0 411 409 416 0 +867361737988404e-33 0 .00255 0
 0 1 1 0 0 .0022 16 411 301 417 ?418 412 395 413 0 0 1 31 416 181 0 419 413 420
 0 +0 0 -.0042 0 0 -1 -1 0 0 .009995 16 419 135 421 ?422 423 424 416 0 0 1 31 42
0 178 0 424 416 425 0 +0 0 -.004199 0 0 -1 -1 0 0 .009995 16 424 138 426 ?427 41
9 380 420 0 0 1 31 425 58 0 428 420 429 0 +0 0 0 0 0 -1 -1 0 0 .01 16 428 38 387
 ?136 430 431 425 431 432 1 31 429 57 0 430 425 433 0 -0 0 0 0 0 1 1 0 0 .0045 1
6 430 37 434 ?435 377 428 429 0 0 1 31 433 16 0 377 429 436 0 +0 0 .0012 0 0 -1
 -1 0 0 .0045 16 377 12 437 ?438 368 430 433 0 0 1 31 436 115 0 423 433 439 0 -0
 0 -.0042 0 0 -1 -1 0 0 .01 16 423 134 440 ?441 442 419 436 0 0 1 31 439 123 0 4
42 436 378 0 -0 0 -.004199 0 0 -1 -1 0 0 .01 16 442 137 443 ?444 432 423 439 0 0
 1 31 378 211 0 368 439 379 0 +867361737988404e-33 0 .0012 0 0 1 1 0 0 .003 81 1
 443 2465 152 442 0 0 440 370 445 17 444 0 135 444 444 0 446 442 0 0 +16 432 118
4 447 ?68 431 442 425 428 431 1 81 1 447 2488 152 432 0 0 448 401 449 17 68 0 29
 450 37 66 451 432 0 452 +16 431 1461 453 ?89 428 432 425 432 428 1 81 1 453 250
0 152 431 0 0 387 454 455 17 89 0 29 456 30 87 457 431 0 458 +17 456 0 29 38 89
 80 458 459 0 0 -17 30 0 29 89 27 111 149 460 0 457 -17 457 0 325 461 462 111 89
 431 0 0 -17 458 0 242 100 463 87 456 459 0 462 +15 242 1356 0 458 237 0 17 100
 0 242 464 458 98 462 465 0 466 +17 463 0 242 458 464 80 105 467 0 456 +16 459 1
264 468 ?458 469 470 471 0 0 1 17 462 0 325 457 472 87 100 465 0 0 -15 325 1474
 0 473 317 474 17 472 0 325 462 475 98 476 477 0 0 -16 465 1248 478 ?100 477 137
 479 0 0 1 81 1 478 2514 152 465 0 0 480 481 482 16 477 1303 483 ?476 484 465 48
5 0 0 1 16 137 1542 486 ?110 465 460 487 0 0 1 30 479 1396 0 465 488 485 0 +.001
499999999999988 -.01 0 1334402673828314e-30 1 0 30 488 1398 0 489 490 479 0 --.0
015 -.0087 -.002 -1000802005371232e-30 -1 0 31 485 1395 0 477 479 491 0 +8673617
37988404e-33 -.0087 0 0 0 1 -.5 .866025403784439 0 .0015 30 491 1394 0 484 485 4
92 0 +-.0015 -.0087 0 -1000802005371232e-30 -1 0 16 484 1307 493 ?92 467 477 491
 0 0 1 30 492 1391 0 494 491 495 0 --.0015 -.0087 -.002 0 0 1 16 494 1285 496 ?1
03 497 489 492 0 0 1 30 495 1390 0 497 492 498 0 -.0015 -.0087 -.002 0 0 1 16 49
7 1281 499 ?464 470 494 495 0 0 1 30 498 1387 0 470 495 471 0 +-.0015 -.00988685
996664259 0 0 0 -1 16 470 1267 500 ?501 459 497 498 0 0 1 30 471 1386 0 459 498
 502 0 -.001499999999999988 -.0098868599666426 0 0 0 -1 30 502 1127 0 503 471 50
4 0 +-.00941025403784439 .00370096189432334 -.002 .866025403784439 -.5 0 16 503
 990 505 ?84 506 507 502 0 0 1 31 504 1126 0 506 502 508 0 +-.00753442101292462
 .00435 -.002 0 0 1 1 0 0 .0015 16 506 1011 454 ?509 510 503 504 0 0 1 30 508 11
25 0 510 504 511 0 +-.00678442101292462 .00564903810567666 -.002 -.8660254037844
39 .5 0 16 510 1015 512 ?513 514 506 508 0 0 1 30 511 1123 0 469 508 515 0 +-.00
941025403784439 .00370096189432334 0 .866025403784439 -.5 0 16 469 976 516 ?79 5
17 459 511 0 0 1 31 515 1122 0 517 511 518 0 +-.00753442101292462 .00435 0 0 0 1
 1 0 0 .0015 16 517 1031 519 ?520 507 469 515 0 0 1 30 518 1121 0 507 515 521 0
 +-.00678442101292462 .00564903810567666 0 -.866025403784439 .5 0 16 507 1035 52
2 ?71 503 517 518 0 0 1 30 521 1118 0 514 518 523 0 +-.00678442101292462 .005649
03810567666 -.002 0 0 1 16 514 1013 524 ?75 525 510 521 0 0 1 30 523 1117 0 525
 521 526 0 +-.00828442101292462 .00305096189432334 -.002 0 0 1 16 525 1009 527 ?
528 529 514 523 0 0 1 30 526 1114 0 529 523 530 0 +-.00781227189477186 .00624246
808899795 0 0 0 -1 16 529 995 531 ?532 533 525 526 0 0 1 30 530 1113 0 533 526 5
34 0 --.00931227189477186 .003644391877644635 0 0 0 -1 16 533 992 535 ?452 536 5
29 530 0 0 1 31 534 898 0 537 530 538 0 +.00606217782649107 -.0035 -.003 0 0 -1
 .5 .866025403784438 0 .001025 16 537 873 539 ?540 541 536 534 0 0 1 31 538 897
 0 536 534 542 0 +.00606217782649107 -.0035 0 0 0 -1 .5 .866025403784438 0 .0010
25 16 536 875 543 ?544 537 533 538 0 0 1 31 542 855 0 545 538 546 0 +-.006062177
82649107 -.0035 -.003 0 0 -1 .5 -.866025403784439 0 .001025 16 545 830 547 ?548
 549 541 542 0 0 1 31 546 854 0 541 542 550 0 +-.00606217782649107 -.0035 0 0 0
 -1 .5 -.866025403784439 0 .001025 16 541 832 551 ?552 545 537 546 0 0 1 31 550
 808 0 405 546 407 0 +0 .007 -.003 0 0 -1 -1 0 0 .001025 16 405 783 371 ?553 398
 549 550 0 0 1 31 407 807 0 549 550 406 0 +0 .007 0 0 0 -1 -1 0 0 .001025 16 549
 785 554 ?555 405 545 407 0 0 1 81 1 554 2469 152 549 0 0 371 539 556 17 555 0 5
57 555 555 0 558 549 0 0 +15 557 772 0 555 317 559 17 558 0 560 558 558 0 555 54
9 0 0 -15 560 801 0 558 270 0 15 559 46 0 435 317 0 17 435 0 559 435 435 0 561 4
30 0 0 +17 561 0 562 561 561 0 435 430 0 0 -15 562 7 0 561 313 0 80 255 1 152 56
3 564 9000 1 1 1 1 1 1 1 1 0 FFFFTFTFFFFFFF3 81 1 371 2468 152 405 0 0 366 554 5
65 81 1 539 2470 152 537 0 0 554 543 566 84 255 32 556 0f66521af5a5453c348bbbf8a
3e3c9e581 1 543 2471 152 536 0 0 539 547 567 84 32 566 17fc7523b6e7b591c03f95f97
1ab9b3081 1 547 2472 152 545 0 0 543 551 568 84 32 567 e37d7293d20effa935fb56303
cb23c4181 1 551 2473 152 541 0 0 547 161 569 84 32 568 49da15eeb985196510952b99c
8da12f881 1 161 2474 152 159 0 0 551 570 571 84 32 569 7a0f16f2418a09bccd4c8716e
bfe4a7381 1 570 2475 152 167 0 0 161 572 573 84 32 571 d213948de7cd6034cc0343071
eeab04b16 167 2026 570 ?574 164 575 576 0 0 1 81 1 572 2476 152 575 0 0 570 165
 577 84 32 573 32cced1c7f3f738d38f6d2bc8483751816 575 2024 572 ?578 167 579 580
 0 0 1 81 1 165 2477 152 164 0 0 572 170 581 84 32 577 862871abccbe599e8b32d3e95
48f922d81 1 170 2478 152 579 0 0 165 168 582 84 32 581 de049ed99ed5a3c006e7cf050
deb46ce16 579 2223 170 ?583 575 584 585 0 0 1 84 32 582 f0455360fbe750b0934a99a6
db7b681417 583 0 586 583 583 0 587 579 0 0 +16 584 2226 171 ?588 579 589 590 0 0
 1 31 585 2271 0 579 591 590 0 +0 0 -.0286 0 0 -1 -1 0 0 .00825 31 591 2365 0 59
2 593 585 0 +0 0 -.0286 0 0 1 1 0 0 .00689 31 590 2268 0 584 585 576 0 +0 0 -.02
58 0 0 -1 -1 0 0 .00825 31 576 2077 0 167 590 580 0 +0 0 -.0238 0 0 -1 -1 0 0 .0
0825 31 580 2074 0 575 576 594 0 +0 0 -.0231 0 0 -1 -1 0 0 .00825 30 594 1678 0
 595 580 596 0 -.00791025403784441 .00629903810567664 -.002 -.86602540378444 -.5
 0 16 595 1540 597 ?140 598 599 594 0 0 1 31 596 1677 0 598 594 600 0 -.00753442
101292462 .00435 -.002 0 0 1 -.5 -.866025403784438 0 .0015 16 598 1561 601 ?602
 148 595 596 0 0 1 30 600 1676 0 148 596 603 0 -.00828442101292463 .003050961894
32332 -.002 .86602540378444 .5 0 16 148 1565 604 ?147 605 598 600 0 0 1 30 603 1
674 0 163 600 606 0 +.00791025403784441 .00629903810567664 0 -.86602540378444 -.
5 0 16 163 1526 607 ?121 608 159 603 0 0 1 31 606 1673 0 608 603 609 0 +.0075344
2101292462 .00435 0 0 0 1 -.5 -.866025403784438 0 .0015 16 608 1581 610 ?611 599
 163 606 0 0 1 30 609 1672 0 599 606 612 0 +.00828442101292463 .0030509618943233
2 0 .86602540378444 .5 0 16 599 1585 613 ?113 595 608 609 0 0 1 30 612 1669 0 60
5 609 614 0 -.00828442101292462 .00305096189432334 -.002 0 0 1 16 605 1563 615 ?
124 616 148 612 0 0 1 30 614 1668 0 616 612 617 0 -.00678442101292463 .005649038
10567664 -.002 0 0 1 16 616 1559 618 ?619 460 605 614 0 0 1 30 617 1665 0 460 61
4 487 0 +.00931227189477186 .003644391877644615 0 0 0 -1 16 460 1545 620 ?149 13
7 616 617 0 0 1 30 487 1664 0 137 617 621 0 -.00781227189477187 .006242468088997
93 0 0 0 -1 30 621 1400 0 467 487 490 0 -.001499999999999988 -.01 -.002 13344026
73828314e-30 1 0 16 467 1262 480 ?463 622 484 621 0 0 1 31 490 1399 0 622 621 48
8 0 -867361737988404e-33 -.0087 -.002 0 0 1 -.5 .866025403784439 0 .0015 16 622
 1283 623 ?624 489 467 490 0 0 1 81 1 623 2521 152 622 0 0 499 607 625 17 624 0
 238 466 103 97 626 622 0 0 +16 489 1287 481 ?627 494 622 488 0 0 1 81 1 481 251
5 152 489 0 0 478 493 628 17 627 0 234 96 501 93 41 489 0 0 +15 234 1364 0 501 2
29 0 17 96 0 234 92 627 94 103 494 0 476 -17 501 0 234 627 92 28 37 470 0 0 +17
 41 0 230 39 626 28 627 489 0 501 -15 230 1372 0 39 225 0 17 39 0 230 629 41 129
 35 40 0 629 -17 626 0 230 41 105 93 624 622 0 627 -17 105 0 230 626 86 97 463 4
67 0 464 -17 86 0 230 105 629 80 38 151 0 463 -17 464 0 242 463 100 97 466 497 0
 624 +17 466 0 238 476 624 98 464 497 0 472 -15 238 1360 0 476 233 0 17 476 0 23
8 103 466 94 472 477 0 475 +17 103 0 238 624 476 93 96 494 0 626 +17 475 0 325 4
72 451 94 92 484 0 0 -17 451 0 325 475 630 90 68 432 0 0 -17 92 0 234 501 96 90
 475 484 0 37 +17 37 0 29 68 35 90 501 470 0 451 -17 630 0 325 451 631 66 79 469
 0 0 -17 631 0 325 630 632 77 520 517 0 0 -17 79 0 258 633 452 77 630 469 0 528
 +15 258 1084 0 452 253 0 17 633 0 258 634 79 76 528 525 0 635 -17 452 0 258 79
 634 66 450 533 0 630 +17 528 0 254 520 635 77 633 525 0 631 +15 254 1088 0 520
 249 0 17 520 0 254 82 528 73 631 517 0 632 +17 635 0 254 528 82 76 509 506 0 0
 -17 82 0 254 635 520 72 75 514 0 509 -17 509 0 246 513 84 72 635 506 0 636 +15
 246 1100 0 637 241 0 17 513 0 246 637 509 36 636 510 0 532 +17 84 0 246 509 65
 76 634 503 0 633 +17 636 0 250 75 532 72 513 510 0 0 -15 250 1092 0 532 245 0 1
7 75 0 250 71 636 73 82 514 0 520 +17 532 0 250 636 71 36 638 529 0 0 +17 71 0 2
50 532 75 69 632 507 0 638 +17 638 0 29 136 42 69 532 529 0 639 -17 136 0 29 132
 638 108 639 428 0 0 +17 42 0 29 638 128 36 637 640 0 513 +17 639 0 325 632 473
 69 136 428 0 0 -17 632 0 325 631 639 73 71 507 0 0 -17 473 0 325 639 641 108 12
1 163 0 136 -17 641 0 325 473 461 119 611 608 0 0 -17 121 0 226 619 110 119 473
 163 0 642 +15 226 1634 0 110 221 0 17 619 0 226 140 121 118 642 616 0 602 +17 1
10 0 226 121 140 108 132 137 0 473 +17 642 0 222 611 602 119 619 616 0 641 -15 2
22 1638 0 611 217 0 17 611 0 222 124 642 115 641 608 0 461 +17 602 0 222 642 124
 118 146 598 0 0 +17 124 0 222 602 611 114 117 605 0 146 +17 146 0 138 34 126 11
4 602 598 0 147 -17 126 0 138 146 107 118 140 595 0 619 -17 147 0 218 117 149 11
4 34 148 0 0 +15 218 1642 0 149 214 0 17 117 0 218 113 147 115 124 605 0 611 -17
 149 0 218 147 113 10 30 460 0 0 +17 113 0 218 149 117 111 461 599 0 30 +17 461
 0 325 641 457 115 113 599 0 0 -17 140 0 226 110 619 101 126 595 0 132 +17 128 0
 29 42 450 122 65 643 0 637 +17 637 0 246 644 513 122 42 640 0 644 -16 640 2779
 645 ?42 643 308 158 643 643 1 81 1 645 2955 152 640 0 0 646 647 648 16 643 932
 646 ?128 40 640 158 640 640 1 16 308 724 382 ?47 640 302 303 0 0 1 31 158 934 0
 643 303 156 0 -0 0 -.002 0 0 1 1 0 0 .01 81 1 382 2496 152 308 0 0 381 386 649
 84 32 649 6d1a84419aae1af29caf709af8507e8281 1 646 2954 152 643 0 0 650 645 651
 16 40 2826 647 ?35 151 643 156 151 151 1 81 1 647 2956 152 40 0 0 645 141 652 8
1 1 141 2957 152 133 0 0 647 153 653 84 32 652 97455fef715f04019efe77e088c4ef598
1 1 153 2958 152 151 0 0 141 150 654 84 32 653 1744f41aa3437fadd5c465fbbe6aa5fd8
4 32 654 c91efe496b6357307c058e1a4c0c446381 1 650 2953 152 655 0 0 656 646 657 8
4 32 651 2d3382b73a8bdfeb51bdbf35d141023416 655 2739 650 ?658 659 660 661 0 0 1
 81 1 656 2952 152 662 0 0 23 650 663 84 32 657 17b2d7dffadec59df47fc4e9937473ec
16 662 2845 656 ?664 665 666 667 0 0 1 81 1 23 2951 152 9 0 0 668 656 669 84 32
 663 33575dd4603d373518e896dc3d336ce881 1 668 2950 152 145 0 0 670 23 671 84 32
 669 ddbbe127a2482de32d76fda5dcad2ebf16 145 2892 668 ?144 666 0 672 0 0 1 81 1 6
70 2949 152 666 0 0 673 668 674 84 32 671 d1ee27964373ba6b71fd8d345b39703c16 666
 2896 670 ?675 662 145 676 0 0 1 81 1 673 2948 152 665 0 0 677 670 678 84 32 674
 65acd4aee0aa482ce9e9ae0e0e74248f16 665 2849 673 ?679 680 662 681 0 0 1 81 1 677
 2947 152 680 0 0 682 673 683 84 32 678 d69185ee5da408d8e814e5bf5f5da83516 680 2
798 677 ?684 660 665 685 0 0 1 81 1 682 2946 152 660 0 0 686 677 687 84 32 683 a
bb4304756f1a748e3f96fe58f50b99716 660 2802 682 ?688 655 680 689 0 0 1 81 1 686 2
945 152 659 0 0 690 682 691 84 32 687 240d5e29bed34ec5354182c0627c090b16 659 273
1 686 ?692 693 655 694 0 0 1 81 1 690 2944 152 693 0 0 695 686 696 84 32 691 484
ad2b6ffb5069adb0c859388d0c9c416 693 2737 690 ?697 698 659 699 0 0 1 81 1 695 257
8 152 221 0 700 701 690 702 84 32 696 0379a8d02ee06135f6b377076d7684e681 1 700 3
039 703 221 695 224 704 705 706 81 1 701 2577 152 217 0 705 707 695 708 84 32 70
2 8a0910f2896b7ee9bb8a9af2a2972cf281 1 705 3041 703 217 701 220 700 709 710 81 1
 707 2575 152 214 0 709 711 701 712 84 32 708 b064fbc9fcccecc0538060ff855b2c9c81
 1 709 3043 703 214 707 216 705 713 714 81 1 711 2574 152 233 0 715 716 707 717
 84 32 712 b0738db829e1f357e26849ae261f425081 1 715 3033 703 233 711 236 718 719
 720 81 1 716 2572 152 229 0 719 721 711 722 84 32 717 fdf24c261ed4eb48ce6cb2ba7
bc63af981 1 719 3035 703 229 716 232 715 704 723 81 1 721 2571 152 237 0 718 724
 716 725 84 32 722 2f8b8a64f220899208a47b88f06ada2e81 1 718 3031 703 237 721 240
 726 715 727 81 1 724 2570 152 245 0 728 729 721 730 84 32 725 3a8c8e2d3bce24cb9
1eb3950c4bf554e81 1 728 3027 703 245 724 248 731 726 732 81 1 729 2569 152 253 0
 733 734 724 735 84 32 730 e4bc807656db65be828989d1a339206f81 1 733 3023 703 253
 729 256 736 731 737 81 1 734 2568 152 249 0 731 738 729 739 84 32 735 07e675118
61f3726a4db2ce0e0e6511a81 1 731 3025 703 249 734 252 733 728 740 81 1 738 2567 1
52 346 0 741 742 734 743 84 32 739 7f43ff404ad947a04e91006c81b2f7c481 1 741 2999
 703 346 738 349 744 745 746 81 1 742 2566 152 330 0 744 747 738 748 84 32 743 6
0047dd2e1301a636c0b03f2f121953181 1 744 2997 703 330 742 351 749 741 750 81 1 74
7 2565 152 751 0 752 753 742 754 84 32 748 37c26edd191e4fbcfd471d2c8aa3fd3514 75
1 2435 755 ?189 756 757 4 758 -0 0 189 756 22 81 1 752 3071 703 751 747 755 759
 760 761 81 1 753 2564 152 756 0 759 762 747 763 84 32 754 c346af89f2dd58994c41d
fc242d65c3c14 756 2425 764 ?751 765 766 4 767 -0 0 751 765 22 81 1 759 3069 703
 756 753 764 768 752 769 81 1 762 2562 152 186 0 770 771 753 772 84 32 763 8cc29
13a2ef5532e79b9bfab95e679e314 186 2354 773 ?774 178 775 4 776 -0 0 774 178 22 81
 1 770 3061 703 186 762 773 777 778 779 81 1 771 2560 152 17 0 182 780 762 781 8
4 32 772 01cb0d7c9b56112c90b6fa1e3373e98781 1 182 3057 703 17 771 177 782 777 78
3 81 1 780 2559 152 190 0 784 785 771 786 84 32 781 cb249704d1975817640d105f3679
189114 190 2242 787 ?179 205 788 4 789 +0 0 179 205 22 81 1 784 3053 703 190 780
 787 790 782 791 81 1 785 2558 152 205 0 790 792 780 793 84 32 786 8c594d4760fc7
399be6709af55a49c3a14 205 2062 794 ?190 210 795 4 203 -0 0 190 210 22 81 1 790 3
051 703 205 785 794 796 784 797 81 1 792 2557 152 210 0 796 798 785 799 84 32 79
3 bf016893eaa5050bf10a907c096d9a8b14 210 2047 800 ?205 207 801 4 206 +0 0 205 20
7 22 81 1 796 3049 703 210 792 800 802 790 803 81 1 798 2556 152 207 0 802 804 7
92 805 84 32 799 572c9896c8ed425fc88daa05cdd1211081 1 802 3047 703 207 798 209 7
13 796 806 81 1 804 2555 152 15 0 197 807 798 808 84 32 805 ba1900e23358c8cbe991
eaad749f7a7181 1 197 2975 703 15 804 194 0 809 810 81 1 807 2554 152 278 0 811 8
12 804 813 84 32 808 189baf3264d6804fef9c97a1d91f24c881 1 811 3009 703 278 807 3
11 814 815 816 81 1 812 2553 152 283 0 814 817 807 818 84 32 813 9ad3ec48d4fba54
02e8bb7331a87385381 1 814 3007 703 283 812 285 819 811 820 81 1 817 2552 152 286
 0 819 821 812 822 84 32 818 4aa0bae06b93dbc2aaf1b12007b9afc881 1 819 3005 703 2
86 817 290 355 814 823 81 1 821 2551 152 267 0 824 825 817 826 84 32 822 7e69de4
9ecbceeb6f877bb0e592089db81 1 824 3015 703 267 821 269 827 828 829 81 1 825 2550
 152 262 0 828 830 821 831 84 32 826 34e04ba4c45df4f99fe8289ed9a37cb981 1 828 30
17 703 262 825 273 824 832 833 81 1 830 2549 152 259 0 832 834 825 835 84 32 831
 38e3401d5c8ba96d364ae0706a80f54581 1 832 3019 703 259 830 261 828 736 836 81 1
 834 2548 152 257 0 736 837 830 838 84 32 835 6bc61c1a9e8ba4e29bcd2ce091d09f8181
 1 736 3021 703 257 834 265 832 733 839 81 1 837 2547 152 270 0 827 840 834 841
 84 32 838 6e5fc5b3d04e5a64e60eeefff1a18ba281 1 827 3013 703 270 837 281 815 824
 842 81 1 840 2546 152 275 0 815 843 837 844 84 32 841 cf3b0c98679490d6f5d46fb4f
e43ece981 1 815 3011 703 275 840 277 811 827 845 81 1 843 2545 152 343 0 745 846
 840 847 84 32 844 3a095cabd793363a466f6ef45f7bf61181 1 745 3001 703 343 843 345
 741 355 848 81 1 846 2544 152 339 0 849 850 843 851 84 32 847 f37948c8855e597ff
635179e688b903881 1 849 2981 703 339 846 341 852 853 854 81 1 850 2543 152 291 0
 355 855 846 856 84 32 851 a6ad52ce8bc977e13b7b81ad7b42c2b481 1 355 3003 703 291
 850 353 745 819 857 81 1 855 2542 152 200 0 852 858 850 859 84 32 856 718bd3b45
b01c925d93833d83dc7c0fc14 200 411 860 ?339 195 396 4 288 -0 0 339 195 22 81 1 85
2 2979 703 200 855 860 809 849 861 81 1 858 2540 152 327 0 749 862 855 863 84 32
 859 01d842a57870403e7e26f372f08c39b681 1 749 2995 703 327 858 329 864 744 865 8
1 1 862 2539 152 331 0 864 866 858 867 84 32 863 c5ed33af1f721906fbd8e84e39773b0
781 1 864 2993 703 331 862 334 868 749 869 81 1 866 2538 152 324 0 868 870 862 8
71 84 32 867 0f85eecc9c95e208573b5c61d914bd9a81 1 868 2991 703 324 866 337 872 8
64 873 81 1 870 2537 152 179 0 782 874 866 875 84 32 871 ce7956a5fad578ce56dd08b
e3789532a81 1 782 3055 703 179 870 183 784 182 876 81 1 874 2536 152 317 0 872 8
77 870 878 84 32 875 b248c2f74d05ef6616a44e841b2e0a6e81 1 872 2989 703 317 874 3
23 879 868 880 81 1 877 2535 152 195 0 809 881 874 882 84 32 878 d9561f6c3f521d4
fdb241575d5e20b3a81 1 809 2977 703 195 877 198 197 852 883 81 1 881 2534 152 318
 0 884 885 877 886 84 32 882 cfc3e6630a35820e390e76dd65327d2781 1 884 2985 703 3
18 881 320 853 879 887 81 1 885 2533 152 313 0 879 597 881 888 84 32 886 eef335f
4b689310beaf9c5493f2c0be181 1 879 2987 703 313 885 316 884 872 889 81 1 597 2532
 152 595 0 0 620 885 890 84 32 888 7e0a2f4401f66b1fa3eb42e91bbf9b9481 1 620 2531
 152 460 0 0 615 597 891 84 32 890 ae08a78575509de52c89fa8205d085ec81 1 615 2530
 152 605 0 0 610 620 892 84 32 891 ea7602666276d0f897041c3f376d63e481 1 610 2529
 152 608 0 0 601 615 893 84 32 892 d85c577e513c5c2b4301695dc1b2040a81 1 601 2528
 152 598 0 0 618 610 894 84 32 893 a7a364464bea096fdfab88be42396d6181 1 618 2527
 152 616 0 0 613 601 895 84 32 894 4a3db3affa00290acd701a072749bd1681 1 613 2525
 152 599 0 0 604 618 896 84 32 895 defef170086e72faf989eba8c02b5f6181 1 604 2524
 152 148 0 0 486 613 897 84 32 896 d1431947716c500b67e66e22cebc599481 1 486 2523
 152 137 0 0 607 604 898 84 32 897 75bd02eb332137b4c83225a884b8a1ed81 1 607 2522
 152 163 0 0 623 486 899 84 32 898 f10e7a0841d532f35cdff959517c24bb84 32 899 95f
c36f71d18893942f74a35ee2c085280 1 703 900 901 8015 0 0 0 0 3 5 0 0 0 FFFFTFFFFFF
FFF2 81 1 316 2988 181 313 879 0 320 323 902 83 255 1 889 0 80 1 181 0 903 8001
 0 0 0 0 3 5 0 0 0 FFFFTFTFFFFFFF2 81 1 320 2986 181 318 884 0 904 316 905 81 1
 323 2990 181 317 872 0 316 337 906 83 3 902 .6 .6 .6 81 1 337 2992 181 324 868
 0 323 334 907 83 3 906 .6 .6 .6 81 1 334 2994 181 331 864 0 337 329 908 83 3 90
7 .6 .6 .6 81 1 329 2996 181 327 749 0 334 351 909 83 3 908 .6 .6 .6 81 1 351 29
98 181 330 744 0 329 349 910 83 3 909 .6 .6 .6 81 1 349 3000 181 346 741 0 351 3
45 911 83 3 910 .6 .6 .6 81 1 345 3002 181 343 745 0 349 353 912 83 3 911 .6 .6
 .6 83 3 912 .6 .6 .6 81 1 904 2984 181 134 853 0 341 320 913 83 3 905 .6 .6 .6
 14 134 124 904 ?318 339 29 4 202 +195 195 318 339 22 81 1 853 2983 703 134 154
 904 849 884 914 81 1 341 2982 181 339 849 0 860 904 915 83 3 913 .6 .6 .6 81 1
 860 2980 181 200 852 0 198 341 916 83 3 915 .6 .6 .6 81 1 198 2978 181 195 809
 0 194 860 917 83 3 916 .6 .6 .6 83 3 917 .6 .6 .6 81 1 154 2960 152 134 0 853 1
50 918 919 83 1 914 0 81 1 918 2961 152 178 0 777 154 920 921 84 32 919 e7d2fd10
48e89b90a045a3a82114819c81 1 777 3059 703 178 918 184 182 770 922 81 1 920 2962
 152 765 0 768 918 923 924 84 32 921 09c5f0a704bd82d803b82145c86d4af214 765 2753
 925 ?756 926 927 4 928 -0 0 756 926 22 81 1 768 3067 703 765 920 925 929 759 93
0 81 1 923 2963 152 774 0 778 920 931 932 84 32 924 fceecdb14a2868690fb7c2169da6
c84114 774 2743 933 ?926 186 934 4 935 +0 0 926 186 22 81 1 778 3063 703 774 923
 933 770 929 936 81 1 931 2964 152 926 0 929 923 937 938 84 32 932 ff5a98f81fb3e
9f8d3194c1feaf0167e14 926 2748 939 ?765 774 940 4 941 -0 0 765 774 22 81 1 929 3
065 703 926 931 939 778 768 942 81 1 937 2965 152 241 0 726 931 943 944 84 32 93
8 d2fc30c624b18dd8fb54bcae626f6d1581 1 726 3029 703 241 937 244 728 718 945 81 1
 943 2966 152 946 0 947 937 948 949 84 32 944 0d20d147b6e787950c29d8d2131370a214
 946 2805 950 ?951 189 952 4 953 -0 0 951 189 22 81 1 947 3075 703 946 943 950 7
60 954 955 81 1 948 2967 152 951 0 954 943 956 957 84 32 949 92c8be4a6f7e2f7c220
27bb0e2220cec14 951 2810 958 ?959 946 960 4 961 +0 0 959 946 22 81 1 954 3077 70
3 951 948 958 947 962 963 81 1 956 2968 152 225 0 704 948 964 965 84 32 957 87ce
4bf2d92b8d78fa6b074fef7bee8a81 1 704 3037 703 225 956 228 719 700 966 81 1 964 2
969 152 959 0 962 956 967 968 84 32 965 c64d2c14c0e5d3bed29c2ead2ea8f43214 959 2
852 969 ?970 951 971 4 972 -0 0 970 951 22 81 1 962 3079 703 959 964 969 954 973
 974 81 1 967 2970 152 970 0 973 964 975 976 84 32 968 3517c612e7ea6a62405e202bc
a80787f14 970 2857 977 ?978 959 979 4 980 +0 0 978 959 22 81 1 973 3081 703 970
 967 977 962 981 982 81 1 975 2971 152 143 0 713 967 983 984 84 32 976 3ec452215
1b53d6be537714d6ea3730c81 1 713 3045 703 143 975 213 709 802 985 81 1 983 2972 1
52 978 0 981 975 986 987 84 32 984 333db0b629d3d48bafd65ba1cc70f8a214 978 2899 9
88 ?989 970 990 4 991 -0 0 989 970 22 81 1 981 3083 703 978 983 988 973 992 993
 81 1 986 2973 152 989 0 992 983 994 995 84 32 987 f0bc7e5efdc0f8fcca96ca6f83897
9a214 989 2904 996 ?0 978 997 4 998 +0 0 0 978 22 81 1 992 3085 703 989 986 996
 981 0 999 81 1 994 2974 152 189 0 760 986 0 1000 84 32 995 0cfef6c8cad82b59f03a
5d42bc48fd6a14 189 2707 1001 ?946 751 1002 4 188 -178 178 946 751 22 81 1 760 30
73 703 189 994 1001 752 947 1003 84 32 1000 ed90af04ab7017e7559cd48ea8e8716981 1
 1001 3074 181 189 760 0 755 950 1004 83 1 1003 0 81 1 755 3072 181 751 752 0 76
4 1001 1005 81 1 950 3076 181 946 947 0 1001 958 1006 83 3 1004 .6 .6 .6 81 1 95
8 3078 181 951 954 0 950 969 1007 83 3 1006 .6 .6 .6 81 1 969 3080 181 959 962 0
 958 977 1008 83 3 1007 .6 .6 .6 81 1 977 3082 181 970 973 0 969 988 1009 83 3 1
008 .6 .6 .6 81 1 988 3084 181 978 981 0 977 996 1010 83 3 1009 .6 .6 .6 81 1 99
6 3086 181 989 992 0 988 0 1011 83 3 1010 .6 .6 .6 83 3 1011 .6 .6 .6 81 1 764 3
070 181 756 759 0 925 755 1012 83 3 1005 .6 .6 .6 81 1 925 3068 181 765 768 0 93
9 764 1013 83 3 1012 .6 .6 .6 81 1 939 3066 181 926 929 0 933 925 1014 83 3 1013
 .6 .6 .6 81 1 933 3064 181 774 778 0 773 939 1015 83 3 1014 .6 .6 .6 81 1 773 3
062 181 186 770 0 184 933 1016 83 3 1015 .6 .6 .6 81 1 184 3060 181 178 777 0 17
7 773 1017 83 3 1016 .6 .6 .6 83 3 1017 .6 .6 .6 15 1002 2397 0 1018 189 1019 50
 188 2364 0 178 758 776 0 +0 0 -.02805 0 0 1 1 0 0 51 758 2443 0 751 767 188 0 +
0 0 -.0286 0 0 1 .0037 1 0 0 51 776 2362 0 186 188 789 0 +0 0 -.0286 0 0 1 .0068
9 1 0 0 51 789 2267 0 190 776 206 0 +0 0 -.0272 0 0 -1 .00825 -1 0 0 51 206 2072
 0 210 789 203 0 +0 0 -.02345 0 0 -1 .00825 -1 0 0 50 767 2445 0 756 935 758 0 +
0 0 -.02505 0 0 1 1 0 0 51 935 2763 0 774 941 767 0 +0 0 -.02815 0 0 1 .0066 1 0
 0 51 941 2764 0 926 928 935 0 +0 0 -.02815 0 0 1 .00385 1 0 0 50 928 2766 0 765
 953 941 0 +0 0 -.02815 0 0 1 1 0 0 52 953 2818 0 946 961 928 0 --.0075344210129
2462 .00435 -.002 0 0 -1 .0013 .0523359562429438 .998629534754574 1 0 0 50 961 2
820 0 951 972 953 0 +-.00753442101292462 .00435 -.0011 0 0 1 1 0 0 52 972 2865 0
 959 980 961 0 --260208521396521e-32 -.0087 -.002 0 0 -1 .0013 .0523359562429438
 .998629534754574 -.5 .866025403784439 0 50 980 2867 0 970 991 972 0 +-260208521
396521e-32 -.0087 -.0011 0 0 1 1 0 0 52 991 2912 0 978 998 980 0 -.0075344210129
2462 .00435 -.002 0 0 -1 .0013 .0523359562429438 .998629534754574 -.5 -.86602540
3784438 0 50 998 2914 0 989 0 991 0 +.00753442101292462 .00435 -.0011 0 0 1 1 0
 0 17 1018 0 1002 1018 1018 0 1020 19 0 0 +15 1019 2706 0 1021 189 0 17 1021 0 1
019 1021 1021 0 24 9 0 0 -17 24 0 1022 24 24 0 1021 9 0 0 +15 1022 2752 0 24 926
 0 17 1020 0 1023 1020 1020 0 1018 19 0 0 -16 19 2412 1024 ?1018 592 698 6 0 0 1
 81 1 1024 2484 152 19 0 0 1025 417 1026 16 592 2340 1027 ?1028 589 19 591 0 0 1
 16 698 2415 1025 ?1029 19 693 1030 0 0 1 81 1 1025 2483 152 698 0 0 1027 1024 1
031 17 1029 0 757 1029 1029 0 1032 698 0 0 +31 1030 2447 0 698 26 593 0 +0 0 -.0
2505 0 0 1 1 0 0 .0037 31 26 2767 0 9 661 1030 0 +0 0 -.02805 0 0 1 -1 122464679
9147352e-31 0 .00385 31 593 2366 0 589 1030 591 0 +0 0 -.02805 0 0 1 1 0 0 .0068
9 16 589 2338 1033 ?1034 584 592 593 0 0 1 81 1 1033 2481 152 589 0 0 171 1027 1
035 17 1034 0 775 1034 1034 0 1036 589 0 0 +15 775 2358 0 1034 186 1037 17 1036
 0 1038 1036 1036 0 1034 589 0 0 -15 1038 2348 0 1036 178 0 15 1037 2359 0 1039
 186 0 17 1039 0 1037 1039 1039 0 1028 592 0 0 -17 1028 0 191 1028 1028 0 1039 5
92 0 0 +15 191 2326 0 1028 179 586 15 586 2203 0 583 179 0 81 1 171 2480 152 584
 0 0 168 1033 1040 81 1 1027 2482 152 592 0 0 1033 1025 1041 84 32 1035 8a51a3ee
4439d2934a3e98f381da461a84 32 1041 b50e96ee7b13892f0e276ccda8a526ca84 32 1040 bd
f432f65f75e5db0e7e86ed5688797a31 661 2768 0 655 699 26 0 +0 0 -.02805 0 0 1 -1 1
224646799147352e-31 0 .0066 31 699 2769 0 693 694 661 0 +0 0 -.02815 0 0 1 -1 12
24646799147352e-31 0 .00385 31 694 2770 0 659 689 699 0 +0 0 -.02815 0 0 1 -1 12
24646799147352e-31 0 .0066 31 689 2821 0 660 685 694 0 +-.00753442101292462 .004
35 -.0011 0 0 1 1 0 0 .001252832998645262 31 685 2822 0 680 681 689 0 +-.0075344
2101292462 .00435 -.002 0 0 1 1 0 0 .0013 31 681 2868 0 665 667 685 0 +-26020852
1396521e-32 -.0087 -.0011 0 0 1 1 0 0 .001252832998645262 31 667 2869 0 662 676
 681 0 +-260208521396521e-32 -.0087 -.002 0 0 1 -.5 .866025403784439 0 .0013 31
 676 2915 0 666 672 667 0 +.00753442101292462 .00435 -.0011 0 0 1 1 0 0 .0012528
32998645262 31 672 2916 0 145 0 676 0 +.00753442101292462 .00435 -.002 0 0 1 -.5
 -.866025403784438 0 .0013 15 757 2423 0 1029 751 1023 17 1032 0 766 1032 1032 0
 1029 698 0 0 -15 766 2429 0 1032 756 0 15 1023 2424 0 1020 751 0 84 32 1031 731
b6c46c4f1e3451de4bcd0c26ba44681 1 417 2485 152 411 0 0 1024 414 1042 84 32 1026
 a360ff9c87d9f27e24103bbc372063f181 1 414 2486 152 412 0 0 417 448 1043 84 32 10
42 59dbe7dc2c7bbeb8d978ac2d62fd521b81 1 448 2487 152 380 0 0 414 447 1044 84 32
 1043 47e5d526d97127ce5c58cd4af7f7580c16 380 300 448 ?1045 424 412 379 0 0 1 84
 32 1044 81cf16efdcccfba09dc2b86bd493d83b17 1045 0 1046 1045 1045 0 1047 380 0 0
 +15 1046 287 0 1045 339 0 17 1047 0 350 1047 1047 0 1045 380 0 0 -15 350 325 0
 1047 346 1048 15 1048 326 0 1049 346 0 17 1049 0 1048 1049 1049 0 418 411 0 0 -
17 418 0 1050 418 418 0 1049 411 0 0 +15 1050 321 0 418 330 0 83 1 999 0 15 997
 2907 0 675 989 0 17 675 0 997 675 675 0 1051 666 0 0 +17 1051 0 990 1051 1051 0
 675 666 0 0 -15 990 2902 0 1051 978 1052 15 1052 2903 0 144 978 0 17 144 0 1052
 144 144 131 139 145 0 0 +83 1 993 0 81 1 213 3046 181 143 713 0 216 209 1053 83
 1 985 0 81 1 216 3044 181 214 709 0 220 213 1054 81 1 209 3048 181 207 802 0 21
3 800 1055 83 3 1053 .6 .6 .6 81 1 800 3050 181 210 796 0 209 794 1056 83 3 1055
 .6 .6 .6 81 1 794 3052 181 205 790 0 800 787 1057 83 3 1056 .6 .6 .6 81 1 787 3
054 181 190 784 0 794 183 1058 83 3 1057 .6 .6 .6 81 1 183 3056 181 179 782 0 78
7 177 1059 83 3 1058 .6 .6 .6 83 3 1059 .6 .6 .6 81 1 220 3042 181 217 705 0 224
 216 1060 83 3 1054 .6 .6 .6 81 1 224 3040 181 221 700 0 228 220 1061 83 3 1060
 .6 .6 .6 81 1 228 3038 181 225 704 0 232 224 1062 83 3 1061 .6 .6 .6 81 1 232 3
036 181 229 719 0 236 228 1063 83 3 1062 .6 .6 .6 81 1 236 3034 181 233 715 0 24
0 232 1064 83 3 1063 .6 .6 .6 81 1 240 3032 181 237 718 0 244 236 1065 83 3 1064
 .6 .6 .6 81 1 244 3030 181 241 726 0 248 240 1066 83 3 1065 .6 .6 .6 81 1 248 3
028 181 245 728 0 252 244 1067 83 3 1066 .6 .6 .6 81 1 252 3026 181 249 731 0 25
6 248 1068 83 3 1067 .6 .6 .6 81 1 256 3024 181 253 733 0 265 252 1069 83 3 1068
 .6 .6 .6 81 1 265 3022 181 257 736 0 261 256 1070 83 3 1069 .6 .6 .6 81 1 261 3
020 181 259 832 0 273 265 1071 83 3 1070 .6 .6 .6 81 1 273 3018 181 262 828 0 26
9 261 1072 83 3 1071 .6 .6 .6 81 1 269 3016 181 267 824 0 281 273 1073 83 3 1072
 .6 .6 .6 81 1 281 3014 181 270 827 0 277 269 1074 83 3 1073 .6 .6 .6 81 1 277 3
012 181 275 815 0 311 281 1075 83 3 1074 .6 .6 .6 81 1 311 3010 181 278 811 0 28
5 277 1076 83 3 1075 .6 .6 .6 81 1 285 3008 181 283 814 0 290 311 1077 83 3 1076
 .6 .6 .6 81 1 290 3006 181 286 819 0 353 285 1078 83 3 1077 .6 .6 .6 83 3 1078
 .6 .6 .6 83 1 982 0 15 979 2860 0 679 970 0 17 679 0 979 679 679 0 1079 665 0 0
 +17 1079 0 971 1079 1079 0 679 665 0 0 -15 971 2855 0 1079 959 1080 15 1080 285
6 0 664 959 0 17 664 0 1080 664 664 129 629 662 0 0 +17 629 0 230 86 39 129 664
 662 0 664 -83 1 974 0 83 1 966 0 83 1 963 0 15 960 2813 0 688 951 0 17 688 0 96
0 688 688 0 1081 660 0 0 +17 1081 0 952 1081 1081 0 688 660 0 0 -15 952 2808 0 1
081 946 1082 15 1082 2809 0 684 946 0 17 684 0 1082 684 684 122 644 680 0 0 +17
 644 0 246 65 637 122 684 680 0 684 -17 65 0 246 84 644 63 128 643 0 634 -17 634
 0 258 452 633 63 84 503 0 450 -17 450 0 29 128 68 63 452 533 0 0 -83 1 955 0 83
 1 945 0 83 1 942 0 15 940 2751 0 1083 926 1022 17 1083 0 940 1083 1083 0 697 69
3 0 0 -17 697 0 1084 697 697 0 1083 693 0 0 +15 1084 2757 0 697 765 0 83 1 936 0
 15 934 2746 0 692 774 1085 17 692 0 934 692 692 0 1086 659 0 0 +15 1085 2747 0
 1087 774 0 17 1087 0 1085 1087 1087 0 658 655 0 0 -17 658 0 187 658 658 0 1087
 655 0 0 +15 187 2713 0 658 178 1038 17 1086 0 927 1086 1086 0 692 659 0 0 -15 9
27 2756 0 1086 765 1084 83 1 930 0 83 1 922 0 79 255 15 903 SDL/TYSA_COLOUR79 21
 901 SDL/TYSA_TRANSLUCENCY83 1 887 0 83 1 883 0 83 1 880 0 83 1 876 0 83 1 873 0
 83 1 869 0 83 1 865 0 83 1 861 0 83 1 857 0 83 1 854 0 83 1 848 0 83 1 845 0 83
 1 842 0 83 1 839 0 83 1 836 0 83 1 833 0 83 1 829 0 83 1 823 0 83 1 820 0 83 1
 816 0 83 1 810 0 83 1 806 0 83 1 803 0 15 801 2050 0 1088 210 1089 17 1088 0 80
1 1088 1088 0 574 167 0 0 -15 1089 2051 0 578 210 0 17 578 0 1089 578 578 0 1090
 575 0 0 +17 1090 0 1091 1090 1090 0 578 575 0 0 -15 1091 2040 0 1090 207 0 17 5
74 0 1092 574 574 0 1088 167 0 0 +15 1092 2066 0 574 205 0 83 1 797 0 15 795 206
5 0 166 205 1092 17 166 0 795 166 166 0 1093 164 0 0 +17 1093 0 175 1093 1093 0
 166 164 0 0 -15 175 2010 0 1093 15 0 83 1 791 0 15 788 2245 0 587 190 1094 17 5
87 0 788 587 587 0 583 579 0 0 -15 1094 2246 0 588 190 0 17 588 0 1094 588 588 0
 193 584 0 0 +17 193 0 180 193 193 0 588 584 0 0 -83 1 783 0 83 1 779 0 83 1 769
 0 83 1 761 0 83 1 750 0 83 1 746 0 83 1 740 0 83 1 737 0 83 1 732 0 83 1 727 0
 83 1 723 0 83 1 720 0 83 1 714 0 83 1 710 0 83 1 706 0 84 32 648 32222bd4cf6617
0f7819282485f3a72b17 38 0 29 35 456 129 86 151 0 39 +81 1 493 2516 152 484 0 0 4
81 468 1095 84 32 628 b5e4557a6ff7e1485ef9bb479de1250a81 1 468 2517 152 459 0 0
 493 500 1096 84 32 1095 d0c348612c90e16a5e9fa798b65b273981 1 500 2518 152 470 0
 0 468 499 1097 84 32 1096 2e649e6b0e22b749293f8b0f75126eec81 1 499 2519 152 497
 0 0 500 623 1098 84 32 1097 79a4196745eca55b01d9c469c77e780784 32 1098 1197ca01
e3f8db74cdc7a1070d54a35e84 32 625 1247a4363a924cc9d7584af81636ba0081 1 480 2513
 152 467 0 0 496 478 1099 81 1 496 2512 152 494 0 0 483 480 1100 84 32 1099 8d5e
f18a26a512ddd84ca1518249d3f181 1 483 2511 152 477 0 0 527 496 1101 84 32 1100 ac
162d4f9b6f7160980548bb18ef8f4681 1 527 2510 152 525 0 0 524 483 1102 84 32 1101
 a2591c3978dec6c8e76a5ef14edd781d81 1 524 2509 152 514 0 0 522 527 1103 84 32 11
02 8d036c1a86eba8ea1cdfe68b9195867981 1 522 2508 152 507 0 0 512 524 1104 84 32
 1103 f2f1aaac069d18dd86f7d20ff84ff6e981 1 512 2507 152 510 0 0 516 522 1105 84
 32 1104 d72009be985b748ff90d97706649dc0c81 1 516 2506 152 469 0 0 505 512 1106
 84 32 1105 50e779ddfb9bd42cfdd1d3ad866e61ff81 1 505 2505 152 503 0 0 531 516 11
07 84 32 1106 79689545bbb47a2e03c061509524ea9881 1 531 2504 152 529 0 0 535 505
 1108 84 32 1107 1520192ec4248e1f181b3708d518ac9081 1 535 2503 152 533 0 0 519 5
31 1109 84 32 1108 765301dbd50da8a8e91c836f18eef97a81 1 519 2502 152 517 0 0 454
 535 1110 84 32 1109 631b39b70b073ffef46ae267fde1d7e681 1 454 2501 152 506 0 0 4
53 519 1111 84 32 1110 051275e24faaf881d139643cdfb0376184 32 1111 354678c0bda5bf
5aed64c35b9f03874884 32 565 0af3777e518e195fa6ba012dc8e4a8b479 15 564 UGS/Object
State17 553 0 282 553 553 0 1112 405 0 0 +15 282 800 0 553 270 560 17 1112 0 279
 1112 1112 0 553 405 0 0 -15 279 792 0 1112 275 0 17 552 0 1113 552 552 0 1114 5
41 0 0 +15 1113 819 0 552 317 557 17 1114 0 1115 1114 1114 0 552 541 0 0 -15 111
5 848 0 1114 262 0 17 548 0 274 548 548 0 1116 545 0 0 +15 274 847 0 548 262 111
5 17 1116 0 271 1116 1116 0 548 545 0 0 -15 271 839 0 1116 267 0 17 544 0 474 54
4 544 0 1117 536 0 0 +15 474 862 0 544 317 1113 17 1117 0 1118 1117 1117 0 544 5
36 0 0 -15 1118 891 0 1117 257 0 17 540 0 266 540 540 0 1119 537 0 0 +15 266 890
 0 540 257 1118 17 1119 0 263 1119 1119 0 540 537 0 0 -15 263 882 0 1119 259 0 8
4 32 482 38f2e029def1776aab306a7a458e80f181 1 387 2499 152 428 0 0 386 453 1120
 84 32 455 64ab6844a7953b7b9fa6c500f45ee34c84 32 1120 d6ba67894978ad52f3a624493f
9f062a81 1 401 2489 152 361 0 0 447 410 1121 84 32 449 eeb4be8264bcda0a33510bbe0
c4ae5e381 1 410 2490 152 395 0 0 401 403 1122 84 32 1121 56fa14dfb811421c8edf5d5
df44b4edc81 1 403 2491 152 398 0 0 410 373 1123 84 32 1122 7a1f7b7d16b75c4b6dcae
abf4cbbf8c281 1 373 2492 152 367 0 0 403 397 1124 84 32 1123 406c56655838a34dc85
d44eef7da340b84 32 1124 6841ab8087aba6ec8068dae065829ec215 135 121 0 444 134 0 1
7 446 0 335 446 446 0 444 442 0 0 -15 335 160 0 446 331 1125 15 1125 161 0 1126
 331 0 17 1126 0 1125 1126 1126 0 427 424 0 0 -17 427 0 1127 427 427 0 1126 424
 0 0 +15 1127 156 0 427 324 0 81 1 440 2464 152 423 0 0 426 443 1128 81 1 370 24
66 152 368 0 0 443 366 1129 84 32 445 6324edd972b6d90157228e668935074f84 32 1129
 2c982ef04b231bdaefa1d41bacba22cb81 1 426 2463 152 424 0 0 421 440 1130 84 32 11
28 0715a55b634bb9a38aa15cbda2ef770481 1 421 2462 152 419 0 0 434 426 1131 84 32
 1130 7f7b50dfa18b02d2951af2414f26bd5c81 1 434 2461 152 430 0 0 437 421 1132 84
 32 1131 c10c9e61f6c489a4c8b4342281da6d9e81 1 437 2460 152 377 0 0 0 434 1133 84
 32 1132 e2bdb17ef09e355e245a9c0d1f3ae95284 32 1133 8a1774735496d104be549bc6acf4
0d4a17 441 0 332 441 441 0 1134 423 0 0 +15 332 170 0 441 327 1135 17 1134 0 201
 1134 1134 0 441 423 0 0 -15 201 114 0 1134 195 1136 15 1136 1829 0 162 195 0 17
 162 0 1136 162 162 0 1137 159 0 0 +17 1137 0 211 1137 1137 0 162 159 0 0 -15 21
1 1870 0 1137 207 1091 15 1135 171 0 422 327 0 17 422 0 1135 422 422 0 1138 419
 0 0 +17 1138 0 338 1138 1138 0 422 419 0 0 -15 338 155 0 1138 324 1127 17 438 0
 319 438 438 0 1139 377 0 0 +15 319 13 0 438 313 562 17 1139 0 1140 1139 1139 0
 438 377 0 0 -15 1140 14 0 1139 318 0 17 415 0 1141 415 415 0 1142 412 0 0 +15 1
141 280 0 415 343 0 17 1142 0 352 1142 1142 0 415 412 0 0 -15 352 320 0 1142 330
 1050 17 404 0 287 62 62 57 391 398 0 0 +15 287 614 0 404 283 0 17 62 0 287 404
 404 60 360 367 0 391 +17 391 0 292 385 59 60 404 398 0 384 -17 384 0 354 360 35
9 60 385 395 0 0 -17 360 0 354 357 384 57 62 367 0 404 -81 1 307 2494 152 302 0
 0 397 381 1143 84 32 400 a1e65b8a4818949f18dca48b2b8899cc84 32 1143 82ac0133684
07c99e590ad299fae5c7384 32 388 e4d7219424d62bd04c542816898589b884 32 383 248a3c7
7e8bafea9cc9c530a63dc846717 376 0 342 376 376 0 1144 368 0 0 +15 342 244 0 376 3
39 1046 17 1144 0 321 1144 1144 0 376 368 0 0 -15 321 210 0 1144 318 1140 84 32
 372 85d0026c7b6c516d7fd806173c0405c215 347 386 0 364 343 1141 83 3 356 .6 .6 .6
 40 2 299 0 1 2 164124088598858e-19 .079405882732856 ??-.000994987437106624 -.00
15 .0143 -.0013228756555323 -.0015 .0141 41 1 300 L-.000994987437106624 -.0015 .
0143 41 1 301 L-.0013228756555323 -.0015 .0141 83 3 199 .6 .6 .6 83 3 185 .6 .6
 .6 84 32 172 4b8a6c99486a5ed1521e857ef544391784 32 155 dc37a37113bfc5b0cd24be80
cb6edb5019 16 5 0 1 0 8 4 S0 74 4 CI16 index_map_offset0 0 1 dCCZ20 14 5 0 0 994
 12 992 996 2 0 0 0 0 0 0 0 0 0 0 0 0 0 0 0 81 2 12 2943 1145 1 0 2 0 0 1146 114
7 80 2 1145 1148 1149 8004 0 0 0 0 3 5 0 0 0 FFTFFFFFFFFFFT2 3 83 1 1146 .001 84
 8 1147 Kg/Cu M 79 16 1149 SDL/TYSA_DENSITY80 1 11 1150 1151 9000 0 0 0 0 3 5 0
 0 0 FFTFFFFFFFFFFF1 82 255 1 13 87 79 24 1151 UG2/BODY_COLOR_ATTRIBUTE1 0 
