**ABCDEFGHIJKLMNOPQRSTUVWXYZabcdefghijklmnopqrstuvwxyz**************************
**PARASOLID !"#$%&'()*+,-./:;<=>?@[\]^_`{|}~0123456789**************************
**PART1;
MC=x64/Windows NT;
MC_MODEL=genuineintel family 6 model 10 stepping 5, intel(r) xeon(r) cpu           w3550  @ 3.07ghz;
MC_ID=pc1401;
OS=windows nt (x64);
OS_RELEASE=6.1 windows 7 professional (build 7601) service pack 1;
FRU=mdc_ugii_v7.0_djl_can_vrh;
APPL=unigraphics;
SITE=unknown;
USER=huge;
FORMAT=text;
GUISE=transmit;
KEY=20-1_flange_a;
FILE=D:\Daten-Huge\PLM_Export\A_Internet_Modelle\Getriebe\20-x\20-1\20-1_flange_a.x_t;
DATE=26-aug-2016;
**PART2;
SCH=SCH_2701211_26105;
USFLD_SIZE=0;
**PART3;
**END_OF_HEADER*****************************************************************
T51 : TRANSMIT FILE created by modeller version 270121123 SCH_2701211_26105_1300
6200 0 12 30 CCCCCCCCCCCCCDI5 owner1040 0 CCCCCCCCCA13 boundary_mesh1006 0 A16 i
ndex_map_offset0 0 1 dA9 index_map82 0 A17 node_id_index_map82 0 A20 schema_embe
dding_map82 0 A5 child12 0 A14 lowest_node_id0 0 1 dZ1 909 2 3 0 0 0 0 1e3 1e-8
 0 0 0 1 0 1 1 4 5 6 0 7 8 0 0 0 0 0 0 0 0 81 255 1 2 909 9 1 10 0 0 0 11 70 11
 CI9 list_type0 0 1 uI10 notransmit0 0 1 lCCCDCCDI12 finger_index0 0 1 dI12 fing
er_block1012 0 CZ3 0 4 T1 0 0 6 20 1 12 12 13 255 4 3 0 1 0 13 0 0 14 0 52 255 5
 844 0 15 16 0 0 -0 0 .0073 0 0 1 .00830358983848623 .2588190451025215 .96592582
6289068 1 0 0 31 255 6 824 0 8 17 0 0 +0 0 .0071 0 0 1 1 0 0 .00825 19 8 CCCCCCC
A5 owner12 0 Z7 1 0 1 14 0 18 V0 16 255 8 821 19 ?20 0 21 6 0 0 1 81 1 19 854 22
 8 0 0 23 24 25 17 255 20 0 26 20 20 0 27 8 0 0 +16 21 815 23 ?28 8 29 17 0 0 1
 81 1 23 853 22 21 0 0 30 19 31 17 28 0 32 28 28 0 33 21 0 0 +16 29 12 34 ?35 21
 36 37 0 0 1 31 17 818 0 21 38 6 0 -0 0 .0073 0 0 1 1 0 0 .00830358983848623 31
 38 731 0 39 40 17 0 -0 0 .0099 0 0 1 1 0 0 .0085 16 39 750 41 ?42 43 44 38 0 0
 1 31 40 372 0 45 46 38 0 +.00519615242270663 -.003 0 0 0 -1 -1 0 0 .0011 16 45
 385 47 ?48 49 50 40 0 0 1 31 46 268 0 51 52 40 0 +0 .006 0 0 0 -1 -1 0 0 .0011
 16 51 281 53 ?54 55 56 46 0 0 1 31 52 164 0 57 58 46 0 +-.00519615242270663 -.0
03 0 0 0 -1 -1 0 0 .0011 16 57 177 59 ?60 61 62 52 0 0 1 31 58 48 0 63 37 52 0 +
0 0 0 0 0 -1 -1 0 0 .003 16 63 68 64 ?65 36 66 58 0 0 1 31 37 16 0 29 67 58 0 +0
 0 .0105 0 0 -1 1 0 0 .01 31 67 10 0 36 68 37 0 +0 0 0 0 0 1 1 0 0 .01 16 36 6 6
9 ?70 29 63 67 0 0 1 31 68 123 0 66 71 67 0 -0 0 .0051 0 0 -1 -1 0 0 .003 16 66
 73 72 ?73 63 61 68 0 0 1 31 71 124 0 61 74 68 0 -0 0 .0051 0 0 -1 -1 0 0 .00825
 16 61 75 75 ?76 66 57 71 0 0 1 31 74 232 0 62 77 71 0 --.00519615242270663 -.00
3 .0035 0 0 -1 -1 0 0 .0011 16 62 182 78 ?79 57 80 74 0 0 1 31 77 233 0 80 81 74
 0 --.00519615242270663 -.003 .0035 0 0 -1 -1 0 0 .00215 16 80 184 82 ?83 62 55
 77 0 0 1 31 81 234 0 55 84 77 0 +-.00519615242270663 -.003 .0051 0 0 -1 -1 0 0
 .00215 16 55 186 85 ?86 80 51 81 0 0 1 31 84 336 0 56 87 81 0 -0 .006 .0035 0 0
 -1 -1 0 0 .0011 16 56 286 88 ?89 51 90 84 0 0 1 31 87 337 0 90 91 84 0 -0 .006
 .0035 0 0 -1 -1 0 0 .00215 16 90 288 92 ?93 56 49 87 0 0 1 31 91 338 0 49 94 87
 0 +0 .006 .0051 0 0 -1 -1 0 0 .00215 16 49 290 95 ?96 90 45 91 0 0 1 31 94 440
 0 50 97 91 0 -.00519615242270663 -.003 .0035 0 0 -1 -1 0 0 .0011 16 50 390 98 ?
99 45 100 94 0 0 1 31 97 441 0 100 101 94 0 -.00519615242270663 -.003 .0035 0 0
 -1 -1 0 0 .00215 16 100 392 102 ?103 50 104 97 0 0 1 31 101 442 0 104 105 97 0
 +.00519615242270663 -.003 .0051 0 0 -1 -1 0 0 .00215 16 104 394 106 ?107 100 10
8 101 0 0 1 31 105 560 0 108 109 101 0 -0 0 .0073 0 0 1 1 0 0 .009 16 108 516 11
0 ?111 104 112 105 0 0 1 31 109 561 0 112 113 105 0 -0 0 .0079 0 0 1 1 0 0 .009
 16 112 513 114 ?115 108 116 109 0 0 1 31 113 689 0 116 117 109 0 -0 0 .0099 0 0
 1 1 0 0 .009 16 116 645 118 ?119 112 43 113 0 0 1 31 117 690 0 43 120 113 0 +0
 0 .0105 0 0 1 1 0 0 .009 16 43 642 121 ?122 116 39 117 0 0 1 31 120 790 0 44 0
 117 0 +0 0 .0079 0 0 1 1 0 0 .0085 16 44 753 123 ?124 39 0 120 0 0 1 81 1 123 8
08 22 44 0 0 41 125 126 17 124 0 127 124 124 0 128 44 0 0 +15 255 127 738 0 124
 129 130 17 128 0 131 128 128 0 124 44 0 0 -15 131 776 0 128 132 0 14 255 132 77
2 133 ?15 134 135 4 136 +0 0 15 134 18 81 1 133 906 137 132 138 0 139 140 141 14
 15 837 140 ?0 132 142 4 5 +0 0 0 132 18 14 134 662 139 ?132 143 144 4 145 -0 0
 132 143 18 15 135 775 0 146 132 131 51 255 136 787 0 132 0 145 0 -0 0 .0105 0 0
 -1 .0085 -1 0 0 13 18 4 0 0 0 0 0 0 7 13 14 13 506 147 ?148 0 26 4 149 -0 0 148
 0 18 81 1 147 866 137 13 150 0 0 151 152 14 148 15 151 ?153 13 154 4 155 +0 0 1
53 13 18 15 26 822 0 20 13 156 51 149 117 0 13 157 158 0 +0 0 .0105 0 0 -1 .0082
5 -1 0 0 50 255 157 118 0 159 160 149 0 +0 0 .0051 0 0 -1 -1 0 0 50 158 11 0 153
 149 155 0 +0 0 0 0 0 -1 -1 0 0 14 153 9 161 ?162 148 163 4 158 +0 0 162 148 18
 50 155 17 0 148 158 16 0 +0 0 .0105 0 0 1 1 0 0 51 16 18 0 162 155 5 0 +0 0 0 0
 0 1 .01 1 0 0 14 162 2 164 ?165 153 166 4 16 +0 0 165 153 18 81 1 164 872 137 1
62 167 0 161 168 169 14 165 97 168 ?159 162 170 4 160 -0 0 159 162 18 15 166 13
 0 35 162 171 17 35 0 166 35 35 0 172 29 0 0 +15 171 7 0 70 162 0 17 70 0 171 70
 70 0 173 36 0 0 +17 173 0 174 173 173 0 70 36 0 0 -15 174 8 0 173 153 0 17 172
 0 175 172 172 0 35 29 0 0 -15 175 14 0 172 148 0 81 1 168 874 137 165 176 0 164
 177 178 14 159 103 177 ?179 165 180 4 157 -0 0 179 165 18 15 170 101 0 65 165 1
81 51 160 119 0 165 182 157 0 +0 0 -.01134369232570014 0 0 -1 .003 -1 0 0 51 182
 226 0 183 184 160 0 +-.00519615242270663 -.003 .0051 0 0 -1 .00215 -1 0 0 14 18
3 218 185 ?186 187 188 4 182 -0 0 186 187 18 50 184 227 0 187 189 182 0 +-.00519
615242270663 -.003 .0035 0 0 -1 -1 0 0 14 187 212 190 ?183 179 191 4 184 -0 0 18
3 179 18 51 189 228 0 179 192 184 0 +-.00519615242270663 -.003 -.010220960700615
84 0 0 -1 .0011 -1 0 0 14 179 206 193 ?187 159 194 4 189 -0 0 187 159 18 51 192
 330 0 195 196 189 0 +0 .006 .0051 0 0 -1 .00215 -1 0 0 14 195 322 197 ?198 199
 200 4 192 -0 0 198 199 18 50 196 331 0 199 201 192 0 +0 .006 .0035 0 0 -1 -1 0
 0 14 199 316 202 ?195 186 203 4 196 -0 0 195 186 18 51 201 332 0 186 204 196 0
 +0 .006 -.01022096070061584 0 0 -1 .0011 -1 0 0 14 186 310 205 ?199 183 206 4 2
01 -0 0 199 183 18 51 204 434 0 207 208 201 0 +.00519615242270663 -.003 .0051 0
 0 -1 .00215 -1 0 0 14 207 426 209 ?210 211 212 4 204 -0 0 210 211 18 50 208 435
 0 211 213 204 0 +.00519615242270663 -.003 .0035 0 0 -1 -1 0 0 14 211 420 214 ?2
07 198 215 4 208 -0 0 207 198 18 51 213 436 0 198 216 208 0 +.00519615242270663
 -.003 -.01022096070061584 0 0 -1 .0011 -1 0 0 14 198 414 217 ?211 195 218 4 213
 -0 0 211 195 18 50 216 555 0 129 219 213 0 +0 0 .0079 0 0 1 1 0 0 14 129 548 22
0 ?221 210 127 4 216 -0 0 221 210 18 50 219 557 0 210 222 216 0 +0 0 .0073 0 0 1
 1 0 0 14 210 538 223 ?129 207 32 4 219 +0 0 129 207 18 51 222 558 0 221 224 219
 0 +0 0 .0076 0 0 1 .009 1 0 0 14 221 533 225 ?143 129 226 4 222 -0 0 143 129 18
 50 224 686 0 143 145 222 0 +0 0 .0099 0 0 1 1 0 0 14 143 667 227 ?134 221 228 4
 224 +0 0 134 221 18 51 145 687 0 134 136 224 0 +0 0 .0102 0 0 1 .009 1 0 0 81 1
 227 902 137 143 229 0 225 139 230 15 228 729 0 42 143 231 17 42 0 228 42 42 0 1
46 39 0 0 +15 231 655 0 232 143 0 17 232 0 231 232 232 0 119 116 0 0 -17 119 0 2
33 119 119 0 232 116 0 0 +15 233 666 0 119 134 0 17 146 0 135 146 146 0 42 39 0
 0 -80 255 1 137 0 234 8001 0 0 0 0 3 5 0 0 0 FFFFTFTFFFFFFF2 81 1 229 901 235 1
43 236 227 237 238 239 81 1 225 900 137 221 237 0 220 227 240 81 1 139 904 137 1
34 238 0 227 133 241 83 255 3 230 .6 .6 .6 81 1 238 903 235 134 242 139 229 138
 243 83 3 241 .6 .6 .6 80 1 235 244 245 8015 0 0 0 0 3 5 0 0 0 FFFFTFFFFFFFFF2 8
1 1 242 707 22 134 0 238 246 41 247 81 1 138 905 235 132 30 133 238 248 249 83 1
 243 0 81 1 30 811 22 132 0 138 236 23 250 81 1 248 907 235 15 251 140 138 0 252
 83 1 249 0 81 1 251 857 22 15 0 248 253 0 254 81 1 140 908 137 15 248 0 133 0 2
55 83 1 252 0 83 3 255 .6 .6 .6 80 1 22 256 257 9000 1 1 1 1 1 1 1 1 0 FFFFTFTFF
FFFFF3 81 1 253 856 22 210 0 258 24 251 259 84 255 32 254 ae101ddd45a81542634057
17b4f7888f81 1 258 895 235 210 253 223 260 261 262 81 1 24 855 22 13 0 150 19 25
3 263 84 32 259 4bca685e28744a3c5478526fdf3d76f181 1 150 865 235 13 24 147 0 264
 265 84 32 263 84a341c796bdd464b4d96787f5b5aec081 1 264 867 235 148 246 151 150
 266 267 83 1 265 0 81 1 246 705 22 148 0 264 121 242 268 81 1 151 868 137 148 2
64 0 147 161 269 81 1 266 869 235 153 270 161 264 167 271 83 1 267 0 81 1 270 45
5 22 153 0 266 106 272 273 81 1 161 870 137 153 266 0 151 164 274 81 1 167 871 2
35 162 275 164 266 176 276 83 1 271 0 81 1 275 33 22 162 0 167 69 72 277 81 1 17
6 873 235 165 278 168 167 279 280 83 1 276 0 81 1 278 140 22 165 0 176 64 78 281
 81 1 279 875 235 159 272 177 176 282 283 83 1 280 0 81 1 272 456 22 159 0 279 2
70 284 285 81 1 177 876 137 159 279 0 168 193 286 81 1 282 877 235 179 287 193 2
79 288 289 83 1 283 0 81 1 287 249 22 179 0 282 85 290 291 81 1 193 878 137 179
 282 0 177 190 292 81 1 288 879 235 187 290 190 282 293 294 83 1 289 0 81 1 290
 250 22 187 0 288 287 295 296 81 1 190 880 137 187 288 0 193 185 297 81 1 293 88
1 235 183 295 185 288 298 299 83 1 294 0 81 1 295 251 22 183 0 293 290 88 300 81
 1 185 882 137 183 293 0 190 205 301 81 1 298 883 235 186 302 205 293 303 304 83
 1 299 0 81 1 302 353 22 186 0 298 53 305 306 81 1 205 884 137 186 298 0 185 202
 307 81 1 303 885 235 199 305 202 298 308 309 83 1 304 0 81 1 305 354 22 199 0 3
03 302 310 311 81 1 202 886 137 199 303 0 205 197 312 81 1 308 887 235 195 310 1
97 303 313 314 83 1 309 0 81 1 310 355 22 195 0 308 305 98 315 81 1 197 888 137
 195 308 0 202 217 316 81 1 313 889 235 198 284 217 308 317 318 83 1 314 0 81 1
 284 457 22 198 0 313 272 319 320 81 1 217 890 137 198 313 0 197 214 321 81 1 31
7 891 235 211 319 214 313 260 322 83 1 318 0 81 1 319 458 22 211 0 317 284 323 3
24 81 1 214 892 137 211 317 0 217 209 325 81 1 260 893 235 207 323 209 317 258 3
26 83 1 322 0 81 1 323 459 22 207 0 260 319 110 327 81 1 209 894 137 207 260 0 2
14 223 328 83 1 326 0 81 1 223 896 137 210 258 0 209 220 329 83 3 328 .6 .6 .6 8
1 1 220 898 137 129 261 0 223 225 330 83 3 329 .6 .6 .6 81 1 261 897 235 129 125
 220 258 237 331 83 3 330 .6 .6 .6 81 1 125 809 22 129 0 261 123 236 332 81 1 23
7 899 235 221 333 225 261 229 334 83 1 331 0 81 1 333 577 22 221 0 237 114 118 3
35 83 1 334 0 81 1 114 573 22 112 0 0 110 333 336 81 1 118 702 22 116 0 0 333 12
1 337 84 32 335 ec75f321d69198dab39421fe3f9196d781 1 121 704 22 43 0 0 118 246 3
38 84 32 337 747f03ee96d27864fd99f7227e6cce4384 32 338 bccf4ba79b01c746c22efe955
59dbe5581 1 110 572 22 108 0 0 323 114 339 84 32 336 5ee4d76aea97b35331c80642ff8
d531384 32 339 956dc1503cec11aebdb273aa6f8e724581 1 236 810 22 143 0 229 125 30
 340 84 32 332 bc252ec33b6967fee176770f848b2ed384 32 340 a0c74cf2da040e80ce5013e
c8bab1cf484 32 327 583e54481822a8cdc46f425805f480b483 3 325 .6 .6 .6 84 32 324 e
f35fb71b15272f45d5f2af99a2702ee83 3 321 .6 .6 .6 84 32 320 bacfa9acbef63142e8435
5cef8a1874083 3 316 .6 .6 .6 81 1 98 451 22 50 0 0 310 102 341 84 32 315 25df382
cbc41cabfcb4fafe1fada467e81 1 102 452 22 100 0 0 98 47 342 84 32 341 69f22c2cc5e
ded256abe6c3609705fa881 1 47 453 22 45 0 0 102 106 343 84 32 342 22115ec23bf939e
0d470c5496db0cf0681 1 106 454 22 104 0 0 47 270 344 84 32 343 14e963b4ed30ad4d55
3342d8f754810384 32 344 6da5021662df3af13961fa6a67dfacb083 3 312 .6 .6 .6 84 32
 311 68fbe52f8737e7d63288f98d098a1d7a83 3 307 .6 .6 .6 81 1 53 350 22 51 0 0 95
 302 345 84 32 306 ca617e86e9d11182015f755a24e6688981 1 95 349 22 49 0 0 92 53 3
46 84 32 345 d7af8085eb1247e083eab14d1d36a9ba81 1 92 348 22 90 0 0 88 95 347 84
 32 346 020e131db6172288dcce43c2e7f1526e81 1 88 347 22 56 0 0 295 92 348 84 32 3
47 55e12a365efffb832df8bc32bc0a316e84 32 348 b5afcbbc0e037df3970878a734cd1d4883
 3 301 .6 .6 .6 84 32 300 e92b6d3df6a6ccd026f6ca0137c2dd7983 3 297 .6 .6 .6 84 3
2 296 c154e03ae396103949eb9b9ee443f43283 3 292 .6 .6 .6 81 1 85 246 22 55 0 0 59
 287 349 84 32 291 3f113c78372fdb0163039f164240ce8581 1 59 245 22 57 0 0 82 85 3
50 84 32 349 9cc95cc42f2ec152c164ed84b8031b5381 1 82 244 22 80 0 0 78 59 351 84
 32 350 015b9ed41234b77a2ae9904fa17f0e9381 1 78 243 22 62 0 0 278 82 352 84 32 3
51 3b95e8c8498448da8057f35976b3e73f84 32 352 d114d5cd57168a7cdbaf557300f6da2c83
 3 286 .6 .6 .6 84 32 285 56340e6815c6e06d6fc3ae30a662ff7881 1 64 137 22 63 0 0
 75 278 353 84 32 281 734136018fd220cb4ba7a349590ca7f181 1 75 135 22 61 0 0 72 6
4 354 84 32 353 7a784f48b8258db43564ea3b884467c581 1 72 134 22 66 0 0 275 75 355
 84 32 354 ed7d22168bd473263aec4a3c8b25ed0d84 32 355 f1110722c8405cc1eb77eeb378d
47d3781 1 69 31 22 36 0 0 34 275 356 84 32 277 dc6f257c8021ac601b793114a78eda6d8
1 1 34 30 22 29 0 0 0 69 357 84 32 356 fb7cbaf21ce4df7ebacaa64d2422538c84 32 357
 633b1ab4ebcc5c3185a15bdde110f82583 3 274 .6 .6 .6 84 32 273 3e9223c3e4df433ddc1
745f6dc570d7883 3 269 .6 .6 .6 84 32 268 b01cf61e5a0f9c55af90fdfdc615804483 1 26
2 0 79 255 15 257 UGS/ObjectState84 32 250 460d7aca12b31822cc23018a17eb07f281 1
 41 807 22 39 0 0 242 123 358 84 32 247 d5a006a4a0b0c826d8419cbdb5eb3fa584 32 35
8 b027de57c2f54941f9086177277432ea79 21 245 SDL/TYSA_TRANSLUCENCY83 3 240 .6 .6
 .6 83 1 239 0 79 15 234 SDL/TYSA_COLOUR15 226 536 0 359 221 360 17 359 0 226 35
9 359 0 115 112 0 0 -15 360 537 0 111 221 0 17 111 0 360 111 111 0 361 108 0 0 +
17 361 0 362 361 361 0 111 108 0 0 -15 362 526 0 361 210 0 17 115 0 130 115 115
 0 359 112 0 0 +15 130 531 0 115 129 0 15 32 816 0 28 210 362 15 218 418 0 48 19
8 363 17 48 0 218 48 48 0 364 45 0 0 +15 363 419 0 99 198 0 17 99 0 363 99 99 0
 365 50 0 0 +17 365 0 215 365 365 0 99 50 0 0 -15 215 424 0 365 211 366 15 366 4
25 0 103 211 0 17 103 0 366 103 103 0 367 100 0 0 +17 367 0 212 367 367 0 103 10
0 0 0 -15 212 430 0 367 207 368 15 368 431 0 369 207 0 17 369 0 368 369 369 0 10
7 104 0 0 -17 107 0 180 107 107 0 369 104 0 0 +15 180 363 0 107 159 370 15 370 2
59 0 96 159 371 17 96 0 370 96 96 0 372 49 0 0 +15 371 155 0 86 159 373 17 86 0
 371 86 86 0 374 55 0 0 +15 373 107 0 375 159 376 17 375 0 373 375 375 0 73 66 0
 0 -15 376 108 0 76 159 0 17 76 0 376 76 76 0 377 61 0 0 +17 377 0 156 377 377 0
 76 61 0 0 -15 156 113 0 377 13 0 17 73 0 181 73 73 0 375 66 0 0 +15 181 102 0 7
3 165 0 17 374 0 378 374 374 0 86 55 0 0 -15 378 223 0 374 183 0 17 372 0 379 37
2 372 0 96 49 0 0 -15 379 327 0 372 195 0 17 364 0 163 364 364 0 48 45 0 0 -15 1
63 371 0 364 153 380 15 380 267 0 381 153 382 17 381 0 380 381 381 0 54 51 0 0 -
15 382 163 0 383 153 384 17 383 0 382 383 383 0 60 57 0 0 -15 384 47 0 385 153 1
74 17 385 0 384 385 385 0 65 63 0 0 -17 65 0 170 65 65 0 385 63 0 0 +17 60 0 194
 60 60 0 383 57 0 0 +15 194 210 0 60 179 386 15 386 211 0 79 179 0 17 79 0 386 7
9 79 0 387 62 0 0 +17 387 0 191 387 387 0 79 62 0 0 -15 191 216 0 387 187 388 15
 388 217 0 83 187 0 17 83 0 388 83 83 0 389 80 0 0 +17 389 0 188 389 389 0 83 80
 0 0 -15 188 222 0 389 183 378 17 54 0 206 54 54 0 381 51 0 0 +15 206 314 0 54 1
86 390 15 390 315 0 89 186 0 17 89 0 390 89 89 0 391 56 0 0 +17 391 0 203 391 39
1 0 89 56 0 0 -15 203 320 0 391 199 392 15 392 321 0 93 199 0 17 93 0 392 93 93
 0 393 90 0 0 +17 393 0 200 393 393 0 93 90 0 0 -15 200 326 0 393 195 379 83 3 1
78 .6 .6 .6 83 3 169 .6 .6 .6 15 154 625 0 394 148 175 17 394 0 154 394 394 0 12
2 43 0 0 -17 122 0 144 122 122 0 394 43 0 0 +15 144 665 0 122 134 233 83 3 152 .
6 .6 .6 15 142 838 0 27 15 395 17 27 0 142 27 27 0 20 8 0 0 -15 395 839 0 33 15
 0 17 33 0 395 33 33 0 28 21 0 0 -83 3 141 .6 .6 .6 84 32 126 37de89f607b8b07269
e4ae323c2d10a484 32 31 9903c375c6e21a661a2a0885c15d568384 32 25 36d1d0aac6f31674
f67d226c3a57339219 14 5 0 1 0 7 4 S0 74 4 CI16 index_map_offset0 0 1 dCCZ20 12 6
 0 0 251 396 10 248 140 2 0 0 0 0 0 0 0 0 0 0 0 0 0 0 81 2 396 858 397 1 0 10 0
 0 398 399 81 1 10 863 400 1 396 2 0 0 401 80 1 400 402 403 9000 0 0 0 0 3 5 0 0
 0 FFTFFFFFFFFFFF1 82 255 1 401 -1 79 19 403 UG2/PMARK_ATTRIBUTE80 2 397 404 405
 8004 0 0 0 0 3 5 0 0 0 FFTFFFFFFFFFFF2 3 83 1 398 .001 84 8 399 Kg/Cu M 79 16 4
05 SDL/TYSA_DENSITY80 1 9 406 407 9000 0 0 0 0 3 5 0 0 0 FFTFFFFFFFFFFF1 82 1 11
 87 79 24 407 UG2/BODY_COLOR_ATTRIBUTE1 0 
