**ABCDEFGHIJKLMNOPQRSTUVWXYZabcdefghijklmnopqrstuvwxyz**************************
**PARASOLID !"#$%&'()*+,-./:;<=>?@[\]^_`{|}~0123456789**************************
**PART1;
MC=x64/Windows NT;
MC_MODEL=genuineintel family 6 model 10 stepping 5, intel(r) xeon(r) cpu           w3550  @ 3.07ghz;
MC_ID=pc1401;
OS=windows nt (x64);
OS_RELEASE=6.1 windows 7 professional (build 7601) service pack 1;
FRU=mdc_ugii_v7.0_djl_can_vrh;
APPL=unigraphics;
SITE=unknown;
USER=huge;
FORMAT=text;
GUISE=transmit;
KEY=20-1_flange_c;
FILE=D:\Daten-Huge\PLM_Export\A_Internet_Modelle\Getriebe\20-x\20-1\20-1_flange_c.x_t;
DATE=26-aug-2016;
**PART2;
SCH=SCH_2701211_26105;
USFLD_SIZE=0;
**PART3;
**END_OF_HEADER*****************************************************************
T51 : TRANSMIT FILE created by modeller version 270121123 SCH_2701211_26105_1300
6200 0 12 30 CCCCCCCCCCCCCDI5 owner1040 0 CCCCCCCCCA13 boundary_mesh1006 0 A16 i
ndex_map_offset0 0 1 dA9 index_map82 0 A17 node_id_index_map82 0 A20 schema_embe
dding_map82 0 A5 child12 0 A14 lowest_node_id0 0 1 dZ1 577 2 3 0 0 0 0 1e3 1e-8
 0 0 0 1 0 1 1 4 5 6 0 7 8 0 0 0 0 0 0 0 0 81 255 1 2 577 9 1 10 0 0 0 11 70 11
 CI9 list_type0 0 1 uI10 notransmit0 0 1 lCCCDCCDI12 finger_index0 0 1 dI12 fing
er_block1012 0 CZ3 0 4 T1 0 0 6 20 1 12 12 13 255 4 3 0 1 0 13 0 0 14 0 54 255 5
 320 0 15 16 0 0 +0 0 .0052 0 0 1 .00815 1e-4 1 0 0 31 255 6 304 0 8 17 0 0 +0 0
 .0051 0 0 1 1 0 0 .00815 19 8 CCCCCCCA5 owner12 0 Z7 88 0 1 14 0 18 V0 16 255 8
 301 19 ?20 0 21 6 0 0 1 81 1 19 328 22 8 0 0 23 24 25 17 255 20 0 26 20 20 0 27
 8 0 0 +16 21 295 23 ?28 8 29 17 0 0 1 81 1 23 327 22 21 0 0 30 19 31 17 28 0 32
 28 28 0 33 21 0 0 +16 29 147 34 ?35 21 36 37 0 0 1 31 17 298 0 21 37 6 0 -0 0 .
0052 0 0 1 1 0 0 .00825 31 37 180 0 29 38 17 0 +0 0 0 0 0 -1 -1 0 0 .003 31 38 1
79 0 36 39 37 0 +0 0 0 0 0 -1 -1 0 0 .01 16 36 142 40 ?41 29 42 38 0 0 1 31 39 1
78 0 42 43 38 0 +0 0 .0105 0 0 -1 -1 0 0 .01 16 42 137 44 ?45 36 46 39 0 0 1 31
 43 177 0 46 47 39 0 +0 0 .0105 0 0 -1 -1 0 0 .009 16 46 132 48 ?49 42 50 43 0 0
 1 31 47 176 0 50 51 43 0 +0 0 .0099 0 0 -1 -1 0 0 .009 16 50 127 52 ?53 46 54 4
7 0 0 1 31 51 175 0 54 55 47 0 +0 0 .0099 0 0 -1 -1 0 0 .0085 16 54 122 56 ?57 5
0 58 51 0 0 1 31 55 174 0 58 59 51 0 +0 0 .0079 0 0 -1 -1 0 0 .0085 16 58 117 60
 ?61 54 62 55 0 0 1 31 59 173 0 62 63 55 0 +0 0 .0079 0 0 -1 -1 0 0 .009 16 62 1
12 64 ?65 58 66 59 0 0 1 31 63 172 0 66 67 59 0 +0 0 .0073 0 0 -1 -1 0 0 .009 16
 66 107 68 ?69 62 70 63 0 0 1 31 67 171 0 70 71 63 0 +0 0 .0073 0 0 -1 -1 0 0 .0
0830358983848622 16 70 102 72 ?73 66 74 67 0 0 1 31 71 170 0 74 75 67 0 +0 0 .00
71 0 0 -1 -1 0 0 .00825 16 74 97 76 ?77 70 78 71 0 0 1 31 75 168 0 78 79 71 0 +0
 0 .0051 0 0 -1 -1 0 0 .003 16 78 90 80 ?81 74 82 75 0 0 1 31 79 381 0 82 83 75
 0 +0 .005 0 0 0 -1 -1 0 0 85e-5 16 82 352 84 ?85 78 86 79 0 0 1 31 83 382 0 86
 87 79 0 +0 .005 .0037 0 0 -1 -1 0 0 85e-5 16 86 353 88 ?89 82 90 83 0 0 1 31 87
 383 0 90 91 83 0 +0 .005 .0037 0 0 -1 -1 0 0 .00165 16 90 354 92 ?93 86 94 87 0
 0 1 31 91 384 0 94 95 87 0 +0 .005 .0051 0 0 -1 -1 0 0 .00165 16 94 355 96 ?97
 90 98 91 0 0 1 31 95 445 0 98 99 91 0 +-.004330127018922195 -.0025 0 0 0 -1 .5
 -.866025403784439 0 85e-5 16 98 416 100 ?101 94 102 95 0 0 1 31 99 446 0 102 10
3 95 0 +-.004330127018922195 -.0025 .0037 0 0 -1 .5 -.866025403784439 0 85e-5 16
 102 417 104 ?105 98 106 99 0 0 1 31 103 447 0 106 107 99 0 +-.00433012701892219
5 -.0025 .0037 0 0 -1 .5 -.866025403784439 0 .00165 16 106 418 108 ?109 102 110
 103 0 0 1 31 107 448 0 110 111 103 0 +-.004330127018922195 -.0025 .0051 0 0 -1
 .5 -.866025403784439 0 .00165 16 110 419 112 ?113 106 114 107 0 0 1 31 111 496
 0 114 115 107 0 +.004330127018922195 -.0025 0 0 0 -1 .5 .866025403784438 0 85e-
5 16 114 467 116 ?117 110 118 111 0 0 1 31 115 497 0 118 119 111 0 +.00433012701
8922195 -.0025 .0037 0 0 -1 .5 .866025403784438 0 85e-5 16 118 468 120 ?121 114
 122 115 0 0 1 31 119 498 0 122 123 115 0 +.004330127018922195 -.0025 .0037 0 0
 -1 .5 .866025403784438 0 .00165 16 122 469 124 ?125 118 126 119 0 0 1 31 123 49
9 0 126 0 119 0 +.004330127018922195 -.0025 .0051 0 0 -1 .5 .866025403784438 0 .
00165 16 126 470 127 ?128 122 0 123 0 0 1 81 1 127 505 22 126 0 0 108 116 129 17
 128 0 130 128 128 0 131 126 0 0 +15 255 130 453 0 128 132 133 17 131 0 134 131
 131 0 128 126 0 0 -15 134 488 0 131 135 0 14 255 135 485 136 ?0 137 138 4 139 -
0 0 0 137 18 81 1 136 576 140 135 141 0 142 0 143 14 137 481 142 ?135 144 145 4
 146 -0 0 135 144 18 15 138 487 0 125 135 134 51 255 139 491 0 135 146 147 0 +.0
04330127018922195 -.0025 .0051 0 0 -1 .00165 .5 .866025403784438 0 13 18 87 0 0
 0 0 0 0 7 13 14 13 153 148 ?149 0 150 4 16 +0 0 149 0 18 81 1 148 532 140 13 15
1 0 0 152 153 14 149 150 152 ?154 13 155 4 156 +0 0 154 13 18 15 150 259 0 35 13
 157 51 16 167 0 13 156 5 0 -0 0 0 0 0 -1 .003 -1 0 0 50 255 156 166 0 149 158 1
6 0 +-.003 0 0 0 0 -1 -1 0 0 51 158 165 0 154 159 156 0 +0 0 0 0 0 -1 .01 -1 0 0
 14 154 145 160 ?161 149 162 4 158 +0 0 161 149 18 50 159 164 0 161 163 158 0 +-
.01 0 .0105 0 0 1 1 0 0 14 161 140 164 ?165 154 166 4 159 +0 0 165 154 18 51 163
 163 0 165 167 159 0 -0 0 0 0 0 -1 .009 -1 0 0 14 165 135 168 ?169 161 170 4 163
 +0 0 169 161 18 50 167 162 0 169 171 163 0 +-.009 0 .0099 0 0 1 1 0 0 14 169 13
0 172 ?173 165 174 4 167 +0 0 173 165 18 51 171 161 0 173 175 167 0 -0 0 0 0 0 -
1 .0085 -1 0 0 14 173 125 176 ?177 169 178 4 171 +0 0 177 169 18 50 175 160 0 17
7 179 171 0 +-.0085 0 .0079 0 0 -1 -1 0 0 14 177 120 180 ?181 173 182 4 175 +0 0
 181 173 18 51 179 159 0 181 183 175 0 -0 0 0 0 0 -1 .009 -1 0 0 14 181 115 184
 ?185 177 186 4 179 +0 0 185 177 18 50 183 158 0 185 187 179 0 +-.009 0 .0073 0
 0 1 1 0 0 14 185 110 188 ?189 181 190 4 183 +0 0 189 181 18 52 255 187 157 0 18
9 191 183 0 -0 0 .0073 0 0 1 .00830358983848622 .2588190451025135 .9659258262890
7 1 0 0 14 189 105 192 ?193 185 194 4 187 +0 0 193 185 18 51 191 156 0 193 195 1
87 0 -0 0 0 0 0 -1 .00825 -1 0 0 14 193 100 196 ?132 189 32 4 191 +0 0 132 189 1
8 50 195 155 0 132 197 191 0 +-.00825 0 .0051 0 0 1 1 0 0 14 132 95 198 ?15 193
 130 4 195 +0 0 15 193 18 51 197 376 0 199 200 195 0 +0 .005 .0051 0 0 -1 .00165
 -1 0 0 14 199 370 201 ?202 203 204 4 197 -0 0 202 203 18 50 200 377 0 203 205 1
97 0 +0 .005 .0037 0 0 -1 -1 0 0 14 203 366 206 ?199 207 208 4 200 -0 0 199 207
 18 51 205 378 0 207 209 200 0 +0 .005 0 0 0 -1 85e-5 -1 0 0 14 207 362 210 ?203
 15 211 4 205 -0 0 203 15 18 51 209 440 0 212 213 205 0 +-.004330127018922195 -.
0025 .0051 0 0 -1 .00165 .5 -.866025403784439 0 14 212 434 214 ?144 215 216 4 20
9 -0 0 144 215 18 50 213 441 0 215 147 209 0 +-.004330127018922195 -.0025 .0037
 0 0 -1 .5 -.866025403784439 0 14 215 430 217 ?212 202 218 4 213 -0 0 212 202 18
 51 147 442 0 202 139 213 0 +-.004330127018922195 -.0025 0 0 0 -1 85e-5 .5 -.866
025403784439 0 14 202 426 219 ?215 199 220 4 147 -0 0 215 199 18 81 1 219 566 14
0 202 221 0 201 217 222 15 220 428 0 101 202 223 17 101 0 220 101 101 0 224 98 0
 0 +15 223 429 0 225 202 0 17 225 0 223 225 225 0 105 102 0 0 -17 105 0 218 105
 105 0 225 102 0 0 +15 218 432 0 105 215 226 15 226 433 0 227 215 0 17 227 0 226
 227 227 0 109 106 0 0 -17 109 0 216 109 109 0 227 106 0 0 +15 216 436 0 109 212
 228 15 228 437 0 229 212 0 17 229 0 228 229 229 0 113 110 0 0 -17 113 0 133 113
 113 0 229 110 0 0 +15 133 402 0 113 132 230 15 230 338 0 97 132 26 17 97 0 230
 97 97 0 231 94 0 0 +15 26 302 0 20 132 232 15 232 247 0 81 132 0 17 81 0 232 81
 81 0 233 78 0 0 +17 233 0 157 233 233 0 81 78 0 0 -15 157 152 0 233 13 0 17 231
 0 234 231 231 0 97 94 0 0 -15 234 373 0 231 199 0 17 224 0 235 224 224 0 101 98
 0 0 -15 235 408 0 224 149 236 15 236 344 0 237 149 238 17 237 0 236 237 237 0 8
5 82 0 0 -15 238 258 0 41 149 239 17 41 0 238 41 41 0 240 36 0 0 +15 239 149 0 2
41 149 0 17 241 0 239 241 241 0 35 29 0 0 -17 35 0 150 35 35 0 241 29 0 0 +17 24
0 0 242 240 240 0 41 36 0 0 -15 242 144 0 240 154 0 17 85 0 211 85 85 0 237 82 0
 0 +15 211 364 0 85 207 243 15 243 365 0 244 207 0 17 244 0 243 244 244 0 89 86
 0 0 -17 89 0 208 89 89 0 244 86 0 0 +15 208 368 0 89 203 245 15 245 369 0 246 2
03 0 17 246 0 245 246 246 0 93 90 0 0 -17 93 0 204 93 93 0 246 90 0 0 +15 204 37
2 0 93 199 234 80 255 1 140 0 247 8001 0 0 0 0 3 5 0 0 0 FFFFTFTFFFFFFF2 81 1 22
1 565 248 202 249 219 250 251 252 81 1 201 564 140 199 250 0 206 219 253 81 1 21
7 568 140 215 251 0 219 214 254 83 255 3 222 .6 .6 .6 81 1 251 567 248 215 255 2
17 221 256 257 81 1 214 570 140 212 256 0 217 258 259 83 3 254 .6 .6 .6 81 1 256
 569 248 212 260 214 251 261 262 81 1 258 572 140 144 261 0 214 142 263 83 3 259
 .6 .6 .6 14 144 477 258 ?137 212 264 4 265 -0 0 137 212 18 81 1 261 571 248 144
 266 258 256 267 268 81 1 142 574 140 137 267 0 258 136 269 83 3 263 .6 .6 .6 81
 1 267 573 248 137 270 142 261 141 271 83 3 269 .6 .6 .6 80 1 248 272 273 8015 0
 0 0 0 3 5 0 0 0 FFFFTFFFFFFFFF2 81 1 270 513 22 137 0 267 274 260 275 81 1 141
 575 248 135 276 136 267 0 277 83 1 271 0 81 1 276 517 22 135 0 141 249 266 278
 83 1 277 0 80 1 22 279 280 9000 1 1 1 1 1 1 1 1 0 FFFFTFTFFFFFFF3 81 1 249 516
 22 202 0 221 255 276 281 81 1 266 518 22 144 0 261 276 0 282 84 255 32 278 6d72
b8f506c21ad4ae212a156c1d4c1384 32 282 5869d124a9d6f68778089830a838508981 1 255 5
15 22 215 0 251 260 249 283 84 32 281 5e9f68a19a49a9f8b906b713ffda85f681 1 260 5
14 22 212 0 256 270 255 284 84 32 283 82ba48e64a5522a4beb1906e63f39a6284 32 284
 f0339763c7b5ac8031f0217f4601bd2879 255 15 280 UGS/ObjectState81 1 274 512 22 13
2 0 285 286 270 287 84 32 275 5668b1b5775d6c7aa1deb014f04e312281 1 285 555 248 1
32 274 198 288 289 290 81 1 286 511 22 149 0 291 104 274 292 84 32 287 c5d551966
bd150b14acc6ada168314ef81 1 291 533 248 149 286 152 151 293 294 81 1 104 510 22
 102 0 0 120 286 295 84 32 292 bbed47caf488fd45ccff06f03e87b36081 1 120 509 22 1
18 0 0 124 104 296 84 32 295 71fcec2ee4cb5fcc014ca5948bcf8d0381 1 124 508 22 122
 0 0 100 120 297 84 32 296 a77cca4d0c2f4e29dafd37675dc275a981 1 100 507 22 98 0
 0 116 124 298 84 32 297 8fdcdb6f4428569ae5e36078169d1f3381 1 116 506 22 114 0 0
 127 100 299 84 32 298 4f4bb6a333bafc1080496b1274e3af5a84 32 299 ffa0e0fb05bb149
d525987fc44b641e481 1 152 534 140 149 291 0 148 160 300 81 1 151 531 248 13 301
 148 0 291 302 81 1 293 535 248 154 303 160 291 304 305 83 1 294 0 81 1 303 286
 22 154 0 293 306 307 308 81 1 160 536 140 154 293 0 152 164 309 81 1 304 537 24
8 161 310 164 293 311 312 83 1 305 0 81 1 310 289 22 161 0 304 313 30 314 81 1 1
64 538 140 161 304 0 160 168 315 81 1 311 539 248 165 316 168 304 317 318 83 1 3
12 0 81 1 316 281 22 165 0 311 301 319 320 81 1 168 540 140 165 311 0 164 172 32
1 81 1 317 541 248 169 322 172 311 323 324 83 1 318 0 81 1 322 284 22 169 0 317
 319 306 325 81 1 172 542 140 169 317 0 168 176 326 81 1 323 543 248 173 307 176
 317 327 328 83 1 324 0 81 1 307 287 22 173 0 323 303 313 329 81 1 176 544 140 1
73 323 0 172 180 330 81 1 327 545 248 177 30 180 323 331 332 83 1 328 0 81 1 30
 290 22 177 0 327 310 23 333 81 1 180 546 140 177 327 0 176 184 334 81 1 331 547
 248 181 319 184 327 335 336 83 1 332 0 81 1 319 282 22 181 0 331 316 322 337 81
 1 184 548 140 181 331 0 180 188 338 81 1 335 549 248 185 306 188 331 339 340 83
 1 336 0 81 1 306 285 22 185 0 335 322 303 341 81 1 188 550 140 185 335 0 184 19
2 342 81 1 339 551 248 189 313 192 335 288 343 83 1 340 0 81 1 313 288 22 189 0
 339 307 310 344 81 1 192 552 140 189 339 0 188 196 345 81 1 288 553 248 193 24
 196 339 285 346 83 1 343 0 81 1 24 329 22 193 0 288 19 347 348 81 1 196 554 140
 193 288 0 192 198 349 83 1 346 0 81 1 198 556 140 132 285 0 196 350 351 83 3 34
9 .6 .6 .6 81 1 350 558 140 15 289 0 198 210 352 83 3 351 .6 .6 .6 14 15 313 350
 ?207 132 353 4 5 -0 0 207 132 18 81 1 289 557 248 15 347 350 285 354 355 81 1 2
10 560 140 207 354 0 350 206 356 83 3 352 .6 .6 .6 81 1 354 559 248 207 357 210
 289 358 359 81 1 206 562 140 203 358 0 210 201 360 83 3 356 .6 .6 .6 81 1 358 5
61 248 203 361 206 354 250 362 83 3 360 .6 .6 .6 81 1 361 395 22 203 0 358 357 3
63 364 81 1 250 563 248 199 363 201 358 221 365 83 1 362 0 81 1 363 396 22 199 0
 250 361 112 366 83 1 365 0 81 1 112 503 22 110 0 0 363 108 367 84 32 366 90a6c3
738f6e07d33fec38e806fefd7081 1 108 504 22 106 0 0 112 127 368 84 32 367 d9744b62
f2b6c414bf210ddda5c5a84784 32 368 9797cf5f38c2c1f27e4ca5779a5e92f081 1 357 394 2
2 207 0 354 96 361 369 84 32 364 b3d40690526981414398fd09a781129681 1 96 391 22
 94 0 0 84 357 370 84 32 369 3a7682a76ab558029ad303d3ed23648081 1 84 390 22 82 0
 0 92 96 371 84 32 370 65afffc9468b5c9ac76d3b3883b5120681 1 92 389 22 90 0 0 88
 84 372 84 32 371 4b879d0f38e2e87c56d98d59c513050a81 1 88 388 22 86 0 0 347 92 3
73 84 32 372 bc799928ca1f38e133ae9ad691d0277481 1 347 331 22 15 0 289 24 88 374
 84 32 373 f7c87e9c601c33939bed39250afa5d8484 32 374 bcb111257643e5d2d654e7d233d
3536383 1 359 0 83 1 355 0 15 353 314 0 27 15 375 17 27 0 353 27 27 0 20 8 0 0 -
15 375 315 0 33 15 0 17 33 0 375 33 33 0 28 21 0 0 -84 32 348 9c6b8fe254da8ba83f
cf772f18890cef83 3 345 .6 .6 .6 84 32 344 7eeb14effc6b598cbf80e91db7e6c2a383 3 3
42 .6 .6 .6 84 32 341 f61e449a29d25bc45147aa7c1b8736b883 3 338 .6 .6 .6 84 32 33
7 d4f044f1fc182c05309a067d658c5b5e83 3 334 .6 .6 .6 84 32 333 56e4728659cb4a1828
6aefc0100c4b5a83 3 330 .6 .6 .6 84 32 329 ce7993660a11ef21ae437c3cc8da8c1283 3 3
26 .6 .6 .6 84 32 325 fc0876ae9ed9888cfaab5d7a37b5ded183 3 321 .6 .6 .6 81 1 301
 280 22 13 0 151 34 316 376 84 32 320 3360f9e4cc6b477373404f879ec3e07981 1 34 27
9 22 29 0 0 80 301 377 84 32 376 e91fadf8e310fcbb2fd52dc903cfb4bc81 1 80 278 22
 78 0 0 76 34 378 84 32 377 7a784f48b8258db43564ea3b884467c581 1 76 276 22 74 0
 0 60 80 379 84 32 378 77f250612df75596253b5b7efd632e0f81 1 60 275 22 58 0 0 44
 76 380 84 32 379 d375b6c751fbd684321a07a304e5f70881 1 44 274 22 42 0 0 72 60 38
1 84 32 380 536b503d6d73b01bb5e8431063e8d75181 1 72 273 22 70 0 0 56 44 382 84 3
2 381 197039c9dbcac010a50b85ee568ec18581 1 56 272 22 54 0 0 40 72 383 84 32 382
 f84715746d511463325e42882749f50881 1 40 271 22 36 0 0 68 56 384 84 32 383 662bc
97d60e929e9a163c0a4641ae30081 1 68 270 22 66 0 0 52 40 385 84 32 384 9720427cc6f
2705f70f85d66a1da1c7f81 1 52 269 22 50 0 0 64 68 386 84 32 385 94356d8c623415d02
94f6e2e4caa20cc81 1 64 268 22 62 0 0 48 52 387 84 32 386 44114548da4f6d4babb0234
6d6cc1a6381 1 48 267 22 46 0 0 0 64 388 84 32 387 a033e137c30b80af8d1e16a246fd83
5684 32 388 e685f897c4578a7429375efa5ffeb9ab83 3 315 .6 .6 .6 84 32 314 096d9f51
89a44041ffbbdbf4b003fc9283 3 309 .6 .6 .6 84 32 308 cc71552a8b1aaf60a777a1f56630
e1c883 1 302 0 83 3 300 .6 .6 .6 83 1 290 0 79 21 273 SDL/TYSA_TRANSLUCENCY83 1
 268 0 15 264 479 0 117 144 389 51 265 493 0 144 0 146 0 +.004330127018922195 -.
0025 0 0 0 -1 85e-5 .5 .866025403784438 0 50 146 492 0 137 265 139 0 +.004330127
018922195 -.0025 .0037 0 0 -1 .5 .866025403784438 0 17 117 0 264 117 117 0 390 1
14 0 0 +15 389 480 0 391 144 0 17 391 0 389 391 391 0 121 118 0 0 -17 121 0 145
 121 121 0 391 118 0 0 +15 145 483 0 121 137 392 15 392 484 0 393 137 0 17 393 0
 392 393 393 0 125 122 0 0 -17 125 0 138 125 125 0 393 122 0 0 +17 390 0 155 390
 390 0 117 114 0 0 -15 155 459 0 390 149 235 83 1 262 0 83 1 257 0 83 3 253 .6 .
6 .6 83 1 252 0 79 15 247 SDL/TYSA_COLOUR15 32 296 0 28 193 394 15 394 99 0 395
 193 0 17 395 0 394 395 395 0 77 74 0 0 -17 77 0 194 77 77 0 395 74 0 0 +15 194
 249 0 77 189 396 15 396 104 0 397 189 0 17 397 0 396 397 397 0 73 70 0 0 -17 73
 0 190 73 73 0 397 70 0 0 +15 190 250 0 73 185 398 15 398 109 0 399 185 0 17 399
 0 398 399 399 0 69 66 0 0 -17 69 0 186 69 69 0 399 66 0 0 +15 186 251 0 69 181
 400 15 400 114 0 401 181 0 17 401 0 400 401 401 0 65 62 0 0 -17 65 0 182 65 65
 0 401 62 0 0 +15 182 252 0 65 177 402 15 402 119 0 403 177 0 17 403 0 402 403 4
03 0 61 58 0 0 -17 61 0 178 61 61 0 403 58 0 0 +15 178 253 0 61 173 404 15 404 1
24 0 405 173 0 17 405 0 404 405 405 0 57 54 0 0 -17 57 0 174 57 57 0 405 54 0 0
 +15 174 254 0 57 169 406 15 406 129 0 407 169 0 17 407 0 406 407 407 0 53 50 0
 0 -17 53 0 170 53 53 0 407 50 0 0 +15 170 255 0 53 165 408 15 408 134 0 409 165
 0 17 409 0 408 409 409 0 49 46 0 0 -17 49 0 166 49 49 0 409 46 0 0 +15 166 256
 0 49 161 410 15 410 139 0 411 161 0 17 411 0 410 411 411 0 45 42 0 0 -17 45 0 1
62 45 45 0 411 42 0 0 +15 162 257 0 45 154 242 83 3 153 .6 .6 .6 83 3 143 .6 .6
 .6 84 32 129 869df0871f1e4f55b99c481b2b28eb6484 32 31 98962f09d9413d7ab3a5596ee
21534fa84 32 25 97da8519c7fd495f0ddf333bb3d7e8aa19 14 1 0 1 0 7 4 S0 74 4 CI16 i
ndex_map_offset0 0 1 dCCZ20 12 6 0 0 266 412 10 141 136 2 0 0 0 0 0 0 0 0 0 0 0
 0 0 0 81 2 412 502 413 1 0 10 0 0 414 415 81 1 10 529 416 1 412 2 0 0 417 80 1
 416 418 419 9000 0 0 0 0 3 5 0 0 0 FFTFFFFFFFFFFF1 82 255 1 417 -1 79 19 419 UG
2/PMARK_ATTRIBUTE80 2 413 420 421 8004 0 0 0 0 3 5 0 0 0 FFTFFFFFFFFFFF2 3 83 1
 414 .001 84 8 415 Kg/Cu M 79 16 421 SDL/TYSA_DENSITY80 1 9 422 423 9000 0 0 0 0
 3 5 0 0 0 FFTFFFFFFFFFFF1 82 1 11 87 79 24 423 UG2/BODY_COLOR_ATTRIBUTE1 0 
