**ABCDEFGHIJKLMNOPQRSTUVWXYZabcdefghijklmnopqrstuvwxyz**************************
**PARASOLID !"#$%&'()*+,-./:;<=>?@[\]^_`{|}~0123456789**************************
**PART1;
MC=x64/Windows NT;
MC_MODEL=genuineintel family 6 model 10 stepping 5, intel(r) xeon(r) cpu           w3550  @ 3.07ghz;
MC_ID=pc1401;
OS=windows nt (x64);
OS_RELEASE=6.1 windows 7 professional (build 7601) service pack 1;
FRU=mdc_ugii_v7.0_djl_can_vrh;
APPL=unigraphics;
SITE=unknown;
USER=huge;
FORMAT=text;
GUISE=transmit;
KEY=20-1R_1stage;
FILE=D:\Daten-Huge\PLM_Export\A_Internet_Modelle\Getriebe\20-x\20-1R\20-1R_1stage.x_t;
DATE=22-mar-2017;
**PART2;
SCH=SCH_2701211_26105;
USFLD_SIZE=0;
**PART3;
**END_OF_HEADER*****************************************************************
T51 : TRANSMIT FILE created by modeller version 270121123 SCH_2701211_26105_1300
6200 0 12 30 CCCCCCCCCCCCCDI5 owner1040 0 CCCCCCCCCA13 boundary_mesh1006 0 A16 i
ndex_map_offset0 0 1 dA9 index_map82 0 A17 node_id_index_map82 0 A20 schema_embe
dding_map82 0 A5 child12 0 A14 lowest_node_id0 0 1 dZ1 2972 2 3 0 0 0 0 1e3 1e-8
 0 0 0 1 0 1 1 4 5 6 7 8 9 10 0 0 0 0 0 0 0 81 255 1 2 2972 11 1 12 0 0 0 13 70
 11 CI9 list_type0 0 1 uI10 notransmit0 0 1 lCCCDCCDI12 finger_index0 0 1 dI12 f
inger_block1012 0 CZ3 0 4 T1 0 0 5 20 1 14 14 13 255 4 3 0 1 0 15 0 0 16 0 52 25
5 5 2204 0 17 18 0 0 +0 0 -.0102113248654052 0 0 1 .00875 .866025403784439 .5 1
 0 0 31 255 6 2294 0 19 20 0 0 +0 0 -.01275 0 0 1 1 0 0 .0037 29 255 7 1378 0 10
 21 0 .00931227189477186 .003644391877644615 -.002 19 8 CCCCCCCA5 owner12 0 Z8 1
 0 1 16 0 22 V0 16 255 9 2477 23 ?24 0 25 26 0 0 1 18 255 10 1376 0 27 0 28 7 ?1
 17 255 27 0 29 30 31 10 32 33 0 34 +18 28 1098 0 35 10 36 21 ?1 17 35 0 29 37 3
8 28 39 40 0 41 +18 36 825 0 42 28 43 44 ?1 29 21 1100 0 28 44 7 -.0015 -.009886
85996664259 -.002 29 44 827 0 36 45 21 -.00781227189477186 .00624246808899795 -.
002 29 45 613 0 43 46 44 -.000994987437106621 -.0015 .0143 18 43 610 0 47 36 48
 45 ?1 29 46 609 0 48 49 45 .000994987437106624 -.0015 .0143 18 48 606 0 50 43 5
1 46 ?1 29 49 598 0 51 52 46 -.0013228756555323 -.0015 .0141 18 51 595 0 53 48 5
4 49 ?1 29 52 594 0 54 55 49 .0013228756555323 -.0015 .0141 18 54 591 0 56 51 57
 52 ?1 29 55 560 0 57 58 52 -.001322875655532304 -.0015 .0063 18 57 482 0 59 54
 60 55 ?1 29 58 561 0 60 61 55 .001322875655532304 -.0015 .0063 18 60 475 0 62 5
7 63 58 ?1 29 61 1022 0 63 64 58 -.00931227189477185 .003644391877644635 -.002 1
8 63 933 0 65 60 66 61 ?1 29 64 1023 0 66 67 61 -.00931227189477185 .00364439187
7644635 0 18 66 945 0 68 63 69 64 ?1 29 67 1025 0 69 70 64 -.00781227189477185 .
00624246808899795 0 18 69 936 0 71 66 72 67 ?1 29 70 1029 0 73 74 67 -.006784421
01292462 .00564903810567666 0 18 73 940 0 75 76 77 70 ?1 29 74 1030 0 77 78 70 -
.00828442101292462 .00305096189432334 0 18 77 946 0 79 73 80 74 ?1 29 78 1033 0
 72 81 74 -.00678442101292462 .00564903810567666 -.002 18 72 941 0 82 69 76 78 ?
1 29 81 1034 0 76 83 78 -.00828442101292462 .00305096189432334 -.002 18 76 939 0
 84 72 73 81 ?1 29 83 1296 0 80 85 81 .001499999999999988 -.0098868599666426 -.0
02 18 80 1206 0 86 77 87 83 ?1 29 85 1297 0 87 88 83 .001499999999999988 -.00988
68599666426 0 18 87 1218 0 89 80 90 85 ?1 29 88 1299 0 90 91 85 -.0015 -.0098868
5996664259 0 18 90 1209 0 92 87 93 88 ?1 29 91 1303 0 94 95 88 -.0015 -.0087 0 1
8 94 1213 0 96 97 98 91 ?1 29 95 1304 0 98 99 91 .0015 -.0087 0 18 98 1219 0 100
 94 101 95 ?1 29 99 1307 0 93 102 95 -.0015 -.0087 -.002 18 93 1214 0 103 90 97
 99 ?1 29 102 1308 0 97 104 99 .0015 -.0087 -.002 18 97 1212 0 105 93 94 102 ?1
 29 104 1574 0 101 106 102 .00781227189477187 .00624246808899793 -.002 18 101 14
84 0 107 98 108 104 ?1 29 106 1575 0 108 109 104 .00781227189477187 .00624246808
899793 0 18 108 1496 0 110 101 111 106 ?1 29 109 1577 0 111 112 106 .00931227189
477186 .003644391877644615 0 18 111 1487 0 113 108 114 109 ?1 29 112 1581 0 115
 116 109 .00828442101292462 .00305096189432334 0 18 115 1491 0 117 118 119 112 ?
1 29 116 1582 0 119 120 112 .00678442101292463 .00564903810567664 0 18 119 1497
 0 121 115 122 116 ?1 29 120 1585 0 114 123 116 .00828442101292462 .003050961894
32334 -.002 18 114 1492 0 124 111 118 120 ?1 29 123 1586 0 118 125 120 .00678442
101292463 .00564903810567664 -.002 18 118 1490 0 126 114 115 123 ?1 29 125 2596
 0 122 127 123 -.00866025403784441 .005 -.002 18 122 2577 0 128 119 129 125 ?1 2
9 127 2643 0 129 130 125 -2991354665902615e-33 -.01 -.002 18 129 2624 0 38 122 1
31 127 ?1 29 130 2690 0 131 0 127 .0086602540378444 .005 -.002 18 131 2671 0 31
 129 0 130 ?1 17 31 0 29 27 132 131 107 133 0 32 +15 255 29 1385 0 132 134 135 1
7 132 0 29 31 136 101 110 137 0 0 -17 107 0 138 126 139 101 31 133 0 140 -16 133
 1377 141 ?31 25 33 142 33 33 1 17 32 0 138 139 34 131 27 33 0 139 -15 138 1545
 0 32 143 0 17 139 0 138 107 32 131 144 145 0 144 -17 34 0 138 32 146 10 147 148
 0 149 -16 33 2646 150 ?27 133 151 142 133 133 1 81 1 150 2802 152 33 0 0 153 15
4 155 16 151 1099 154 ?38 33 40 156 40 40 1 31 142 1379 0 133 156 157 0 -0 0 -.0
02 0 0 1 1 0 0 .01 31 156 1101 0 151 158 142 0 -0 0 -.002 0 0 1 1 0 0 .01 31 157
 1726 0 159 142 160 0 -0 0 -.0078 0 0 -1 -1 0 0 .01 16 159 1740 161 ?162 163 164
 157 0 0 1 31 160 1906 0 164 157 20 0 -0 0 -.0085 0 0 -1 -1 0 0 .00875 16 164 19
18 165 ?166 159 167 160 0 0 1 31 20 2184 0 25 160 6 0 -0 0 -.0102113248654052 0
 0 -1 -1 0 0 .00875 16 25 2181 168 ?169 9 133 20 0 0 1 81 1 168 2737 152 25 0 0
 170 171 172 17 169 0 173 169 169 0 174 25 0 0 +15 173 2182 0 169 15 175 17 174
 0 176 174 174 0 169 25 0 0 -15 176 2199 0 174 17 0 14 255 17 2197 177 ?178 179
 180 4 5 +0 0 178 179 22 81 1 177 2943 181 17 182 0 183 184 185 14 178 2239 184
 ?186 17 187 4 188 -189 189 186 17 22 14 179 70 183 ?17 190 191 4 192 +0 0 17 19
0 22 15 180 2198 0 193 17 176 13 22 4 0 0 0 0 0 0 8 15 14 15 1757 194 ?195 0 173
 4 196 +0 0 195 0 22 81 1 194 2861 181 15 197 0 0 198 199 14 195 48 198 ?200 15
 201 4 202 +134 134 200 15 22 51 255 196 1782 0 15 203 204 0 +0 0 -.01055 0 0 -1
 .00875 -1 0 0 50 255 203 1964 0 205 206 196 0 +0 0 -.0085 0 0 -1 -1 0 0 50 204
 1781 0 207 196 208 0 +0 0 -.0078 0 0 -1 -1 0 0 14 207 1762 209 ?210 143 211 4 2
04 +0 0 210 143 22 50 208 1557 0 143 204 212 0 +.00753442101292462 .00435 -.002
 0 0 1 1 0 0 14 143 1542 213 ?207 214 138 4 208 +0 0 207 214 22 50 212 1554 0 21
4 208 215 0 +.00828442101292463 .00305096189432332 -.002 .5 -.86602540378444 0 .
86602540378444 .5 0 14 214 1534 216 ?143 217 218 4 212 -0 0 143 217 22 51 215 15
53 0 217 212 219 0 +.00753442101292462 .00435 -.002 0 0 1 .0015 1 0 0 14 217 153
0 220 ?214 221 222 4 215 -0 0 214 221 22 50 219 1552 0 221 215 223 0 +.007910254
03784441 .00629903810567664 -.002 -.5 .86602540378444 0 -.86602540378444 -.5 0 1
4 221 1526 224 ?217 225 226 4 219 -0 0 217 225 22 50 223 1279 0 225 219 227 0 +8
67361737988404e-33 -.0087 -.002 0 0 1 1 0 0 14 225 1264 228 ?221 229 230 4 223 +
0 0 221 229 22 50 227 1276 0 229 223 231 0 +-.0015 -.0087 -.002 -1 1000802005371
232e-30 0 -1000802005371232e-30 -1 0 14 229 1256 232 ?225 233 234 4 227 -0 0 225
 233 22 51 231 1275 0 233 227 235 0 +867361737988404e-33 -.0087 -.002 0 0 1 .001
5 1 0 0 14 233 1252 236 ?229 237 238 4 231 -0 0 229 237 22 50 235 1274 0 237 231
 239 0 +.001499999999999988 -.01 -.002 1 -1334402673828314e-30 0 133440267382831
4e-30 1 0 14 237 1248 240 ?233 241 242 4 235 -0 0 233 241 22 50 239 1006 0 241 2
35 243 0 +-.00753442101292462 .00435 -.002 0 0 1 1 0 0 14 241 991 244 ?237 245 2
46 4 239 +0 0 237 245 22 50 243 1003 0 245 239 247 0 +-.00678442101292462 .00564
903810567666 -.002 .5 .866025403784439 0 -.866025403784439 .5 0 14 245 983 248 ?
241 249 250 4 243 -0 0 241 249 22 51 247 1002 0 249 243 251 0 +-.007534421012924
62 .00435 -.002 0 0 1 .0015 1 0 0 14 249 979 252 ?245 253 254 4 247 -0 0 245 253
 22 50 251 1001 0 253 247 255 0 +-.00941025403784439 .00370096189432334 -.002 -.
5 -.866025403784439 0 .866025403784439 -.5 0 14 253 975 256 ?249 257 258 4 251 -
0 0 249 257 22 50 255 789 0 259 251 260 0 +.00606217782649107 -.0035 -.003 0 0 -
1 .5 .866025403784438 0 14 259 772 261 ?257 262 263 4 255 -0 0 257 262 22 51 260
 787 0 257 255 264 0 +.00606217782649107 -.0035 0 0 0 -1 .001025 .5 .86602540378
4438 0 14 257 780 265 ?253 259 266 4 260 -0 0 253 259 22 50 264 746 0 267 260 26
8 0 +-.00606217782649107 -.0035 -.003 0 0 -1 .5 -.866025403784439 0 14 267 729 2
69 ?262 270 271 4 264 -0 0 262 270 22 51 268 744 0 262 264 272 0 +-.006062177826
49107 -.0035 0 0 0 -1 .001025 .5 -.866025403784439 0 14 262 737 273 ?259 267 274
 4 268 -0 0 259 267 22 50 272 697 0 275 268 276 0 +0 .007 -.003 0 0 -1 -1 0 0 14
 275 683 277 ?270 278 279 4 272 -0 0 270 278 22 51 276 695 0 270 272 280 0 +0 .0
07 0 0 0 -1 .001025 -1 0 0 14 270 689 281 ?267 275 282 4 276 -0 0 267 275 22 50
 280 540 0 283 276 284 0 +.002 -.0015 .0063 0 346944695195359e-29 -1 0 1 3469446
95195359e-29 14 283 523 285 ?278 286 287 4 280 -0 0 278 286 22 50 284 539 0 286
 280 288 289 +.002 -.0015 .0143 0 1 56920614055489e-29 0 -56920614055489e-29 1 1
4 286 519 290 ?283 291 292 4 284 -0 0 283 291 22 50 288 338 0 200 284 293 0 +0 0
 .0143 0 0 -1 -1 0 0 141 255 289 294 295 295 284 38 255 294 616 0 296 297 298 0
 +18 284 299 300 301 141 295 298 289 289 284 38 298 623 0 302 294 303 0 +18 284
 304 305 306 16 302 621 307 ?50 308 296 298 0 0 1 31 303 630 0 308 298 158 0 -0
 0 .0143 0 0 -1 -1 0 0 .0018 52 18 652 0 278 309 5 310 +0 0 .0141 0 0 -1 .002 .7
07106781186547 .707106781186548 -1 0 0 40 255 2 304 0 1 2 1641240885988565e-20 .
0794058827328561 ??.0013228756555323 -.0015 .0141 .000994987437106623 -.0015 .01
43 41 255 1 305 L.0013228756555323 -.0015 .0141 41 1 306 L.000994987437106623 -.
0015 .0143 14 278 640 311 ?275 283 312 4 18 +0 0 275 283 22 51 309 18 0 313 314
 18 0 +0 0 0 0 0 1 .0045 1 0 0 141 310 294 315 315 18 141 315 298 310 310 18 14
 313 2 316 ?317 318 319 4 309 +0 0 317 318 22 50 314 17 0 318 202 309 0 +0 0 .00
12 0 0 1 1 0 0 14 318 15 320 ?313 134 321 4 314 +0 0 313 134 22 51 202 54 0 195
 322 314 0 +0 0 0 0 0 -1 .01 -1 0 0 50 322 55 0 317 192 202 0 +0 0 0 0 0 1 1 0 0
 14 317 44 323 ?324 313 325 4 322 +0 0 324 313 22 50 192 83 0 179 326 322 0 +-54
2101086242752e-34 0 -.0133 0 0 -1 -1 0 0 50 326 139 0 327 328 192 0 +0 0 -.0042
 0 0 -1 -1 0 0 14 327 133 329 ?330 331 332 4 326 -0 0 330 331 22 50 328 141 0 33
1 333 326 0 +0 0 -.004199 0 0 -1 -1 0 0 14 331 125 334 ?327 324 335 4 328 +0 0 3
27 324 22 51 333 142 0 324 336 328 0 +0 0 -.0041995 0 0 -1 .009995 -1 0 0 14 324
 121 337 ?331 317 338 4 333 +0 0 331 317 22 51 336 197 0 339 340 333 0 +86736173
7988404e-33 0 0 0 0 1 .003 1 0 0 14 339 191 341 ?134 200 342 4 336 +0 0 134 200
 22 50 340 199 0 343 344 336 0 +867361737988404e-33 0 .00355 0 0 1 1 0 0 14 343
 185 345 ?291 346 347 4 340 +0 0 291 346 22 50 344 254 0 346 348 340 0 +86736173
7988404e-33 0 .00255 0 0 1 1 0 0 14 346 238 349 ?343 330 350 4 344 +0 0 343 330
 22 51 348 255 0 330 293 344 0 +867361737988404e-33 0 .00305 0 0 1 .0022 1 0 0 1
4 330 234 351 ?346 327 352 4 348 +0 0 346 327 22 51 293 336 0 291 288 348 0 +0 0
 .0143 0 0 -1 .002 -1 0 0 14 291 321 353 ?286 343 354 4 293 +0 0 286 343 22 81 1
 353 2889 181 291 355 0 345 290 356 15 354 380 0 357 291 358 17 357 0 354 359 36
0 51 59 361 0 362 -15 358 324 0 363 291 0 17 363 0 358 363 363 0 364 365 0 0 +17
 364 0 347 364 364 0 363 365 0 0 -16 365 299 366 ?363 367 368 369 0 0 1 81 1 366
 2725 152 365 0 0 370 371 372 16 367 372 373 ?62 374 365 375 0 0 1 16 368 168 37
0 ?376 365 377 378 0 0 1 31 369 302 0 365 379 375 0 +0 0 .00355 0 0 1 1 0 0 .002
 31 379 213 0 380 378 369 0 -867361737988404e-33 0 .00255 0 0 1 1 0 0 .003 31 37
5 374 0 367 369 297 0 -0 0 .0063 0 346944695195359e-29 -1 0 1 346944695195359e-2
9 .002 31 297 601 0 374 375 294 0 +0 0 .0141 0 0 -1 -1 0 0 .002 16 374 599 381 ?
359 296 367 297 0 0 1 81 1 381 2763 152 374 0 0 307 382 383 17 359 0 354 384 357
 54 362 374 0 385 +16 296 614 386 ?53 302 374 294 0 0 1 81 1 386 2765 152 296 0
 0 382 387 388 17 53 0 292 59 389 51 390 296 0 357 +15 292 522 0 385 286 0 17 59
 0 292 391 53 57 357 361 0 360 +17 389 0 292 53 50 43 392 393 0 390 +17 390 0 31
2 394 362 43 53 296 0 0 -15 312 641 0 390 278 0 17 394 0 312 56 390 48 47 308 0
 0 -17 362 0 312 390 56 51 359 374 0 0 -17 56 0 312 362 394 54 50 302 0 359 -17
 50 0 292 389 385 48 56 302 0 392 +17 385 0 292 50 391 54 384 395 0 0 +17 392 0
 396 47 47 48 389 393 0 394 -15 396 364 0 392 200 0 17 47 0 396 392 392 43 394 3
08 0 389 +16 393 607 397 ?389 361 398 399 0 0 1 81 1 397 2761 152 393 0 0 373 30
7 400 16 361 596 401 ?59 395 393 402 0 0 1 16 398 439 403 ?404 393 405 406 0 0 1
 30 255 399 548 0 393 406 402 0 +.002 -.0015 .0143 -1 0 0 30 406 549 0 398 407 3
99 0 +.002 -.0015 .0063 -1 0 0 30 402 545 0 361 399 408 0 +-.0013228756555323 -.
0015 .0143 0 0 -1 30 408 544 0 395 402 409 0 -.0013228756555323 -.0015 .0143 0 0
 -1 16 395 441 410 ?385 411 361 408 0 0 1 31 409 259 0 412 408 413 0 +8673617379
88404e-33 0 .00355 0 0 1 1 0 0 .0022 16 412 221 414 ?415 380 411 409 0 0 1 31 41
3 256 0 411 409 416 0 +867361737988404e-33 0 .00255 0 0 1 1 0 0 .0022 16 411 223
 417 ?418 412 395 413 0 0 1 31 416 146 0 419 413 420 0 +0 0 -.0042 0 0 -1 -1 0 0
 .009995 16 419 109 421 ?422 423 424 416 0 0 1 31 420 143 0 424 416 425 0 +0 0 -
.004199 0 0 -1 -1 0 0 .009995 16 424 111 426 ?427 419 380 420 0 0 1 31 425 58 0
 428 420 429 0 +0 0 0 0 0 -1 -1 0 0 .01 16 428 38 430 ?136 431 432 425 432 433 1
 31 429 57 0 431 425 434 0 -0 0 0 0 0 1 1 0 0 .0045 16 431 37 435 ?436 377 428 4
29 0 0 1 31 434 16 0 377 429 437 0 +0 0 .0012 0 0 -1 -1 0 0 .0045 16 377 12 438
 ?439 368 431 434 0 0 1 31 437 92 0 423 434 440 0 -0 0 -.004199 0 0 -1 -1 0 0 .0
1 16 423 110 441 ?442 443 419 437 0 0 1 31 440 99 0 443 437 378 0 -0 0 -.0042 0
 0 -1 -1 0 0 .01 16 443 108 444 ?445 433 423 440 0 0 1 31 378 171 0 368 440 379
 0 +867361737988404e-33 0 .0012 0 0 1 1 0 0 .003 81 1 444 2722 152 443 0 0 426 4
41 446 17 445 0 332 445 445 0 447 443 0 0 +16 433 1079 448 ?68 432 443 425 428 4
32 1 81 1 448 2756 152 433 0 0 449 401 450 17 68 0 29 451 37 66 452 433 0 453 +1
6 432 1356 454 ?89 428 433 425 433 428 1 81 1 454 2769 152 432 0 0 430 455 456 1
7 89 0 29 457 30 87 458 432 0 459 +17 457 0 29 38 89 80 459 460 0 0 -17 30 0 29
 89 27 111 149 461 0 458 -17 458 0 325 462 463 111 89 432 0 0 -17 459 0 242 100
 464 87 457 460 0 463 +15 242 1251 0 459 237 0 17 100 0 242 465 459 98 463 466 0
 467 +17 464 0 242 459 465 80 105 468 0 457 +16 460 1159 469 ?459 470 471 472 0
 0 1 17 463 0 325 458 473 87 100 466 0 0 -15 325 1369 0 474 317 475 17 473 0 325
 463 476 98 477 478 0 0 -16 466 1143 479 ?100 478 137 480 0 0 1 81 1 479 2783 15
2 466 0 0 481 482 483 16 478 1198 484 ?477 485 466 486 0 0 1 16 137 1437 487 ?11
0 466 461 488 0 0 1 30 480 1291 0 466 489 486 0 +.001499999999999988 -.01 0 1334
402673828314e-30 1 0 30 489 1293 0 490 491 480 0 --.0015 -.0087 -.002 -100080200
5371232e-30 -1 0 31 486 1290 0 478 480 492 0 +867361737988404e-33 -.0087 0 0 0 1
 -.5 .866025403784439 0 .0015 30 492 1289 0 485 486 493 0 +-.0015 -.0087 0 -1000
802005371232e-30 -1 0 16 485 1202 494 ?92 468 478 492 0 0 1 30 493 1286 0 495 49
2 496 0 --.0015 -.0087 -.002 0 0 1 16 495 1180 497 ?103 498 490 493 0 0 1 30 496
 1285 0 498 493 499 0 -.0015 -.0087 -.002 0 0 1 16 498 1176 500 ?465 471 495 496
 0 0 1 30 499 1282 0 471 496 472 0 +-.0015 -.00988685996664259 0 0 0 -1 16 471 1
162 501 ?502 460 498 499 0 0 1 30 472 1281 0 460 499 503 0 -.001499999999999988
 -.0098868599666426 0 0 0 -1 30 503 1021 0 504 472 505 0 +-.00941025403784439 .0
0370096189432334 -.002 .866025403784439 -.5 0 16 504 884 506 ?84 507 508 503 0 0
 1 31 505 1020 0 507 503 509 0 +-.00753442101292462 .00435 -.002 0 0 1 1 0 0 .00
15 16 507 905 455 ?510 511 504 505 0 0 1 30 509 1019 0 511 505 512 0 +-.00678442
101292462 .00564903810567666 -.002 -.866025403784439 .5 0 16 511 909 513 ?514 51
5 507 509 0 0 1 30 512 1017 0 470 509 516 0 +-.00941025403784439 .00370096189432
334 0 .866025403784439 -.5 0 16 470 870 517 ?79 518 460 512 0 0 1 31 516 1016 0
 518 512 519 0 +-.00753442101292462 .00435 0 0 0 1 1 0 0 .0015 16 518 925 520 ?5
21 508 470 516 0 0 1 30 519 1015 0 508 516 522 0 +-.00678442101292462 .005649038
10567666 0 -.866025403784439 .5 0 16 508 929 523 ?71 504 518 519 0 0 1 30 522 10
12 0 515 519 524 0 +-.00678442101292462 .00564903810567666 -.002 0 0 1 16 515 90
7 525 ?75 526 511 522 0 0 1 30 524 1011 0 526 522 527 0 +-.00828442101292462 .00
305096189432334 -.002 0 0 1 16 526 903 528 ?529 530 515 524 0 0 1 30 527 1008 0
 530 524 531 0 +-.00781227189477186 .00624246808899795 0 0 0 -1 16 530 889 532 ?
533 534 526 527 0 0 1 30 531 1007 0 534 527 535 0 --.00931227189477186 .00364439
1877644635 0 0 0 -1 16 534 886 536 ?453 537 530 531 0 0 1 31 535 791 0 538 531 5
39 0 +.00606217782649107 -.0035 -.003 0 0 -1 .5 .866025403784438 0 .001025 16 53
8 766 540 ?541 542 537 535 0 0 1 31 539 790 0 537 535 543 0 +.00606217782649107
 -.0035 0 0 0 -1 .5 .866025403784438 0 .001025 16 537 768 544 ?545 538 534 539 0
 0 1 31 543 748 0 546 539 547 0 +-.00606217782649107 -.0035 -.003 0 0 -1 .5 -.86
6025403784439 0 .001025 16 546 723 548 ?549 550 542 543 0 0 1 31 547 747 0 542 5
43 551 0 +-.00606217782649107 -.0035 0 0 0 -1 .5 -.866025403784439 0 .001025 16
 542 725 552 ?553 546 538 547 0 0 1 31 551 699 0 405 547 407 0 +0 .007 -.003 0 0
 -1 -1 0 0 .001025 16 405 681 371 ?554 398 550 551 0 0 1 31 407 698 0 550 551 40
6 0 +0 .007 0 0 0 -1 -1 0 0 .001025 16 550 682 555 ?556 405 546 407 0 0 1 81 1 5
55 2727 152 550 0 0 371 540 557 17 556 0 558 556 556 0 559 550 0 0 +15 558 673 0
 556 317 560 17 559 0 561 559 559 0 556 550 0 0 -15 561 692 0 559 270 0 15 560 4
6 0 436 317 0 17 436 0 560 436 436 0 562 431 0 0 +17 562 0 563 562 562 0 436 431
 0 0 -15 563 7 0 562 313 0 80 255 1 152 564 565 9000 1 1 1 1 1 1 1 1 0 FFFFTFTFF
FFFFF3 81 1 371 2726 152 405 0 0 366 555 566 81 1 540 2728 152 538 0 0 555 544 5
67 84 255 32 557 0f66521af5a5453c348bbbf8a3e3c9e581 1 544 2729 152 537 0 0 540 5
48 568 84 32 567 17fc7523b6e7b591c03f95f971ab9b3081 1 548 2730 152 546 0 0 544 5
52 569 84 32 568 e37d7293d20effa935fb56303cb23c4181 1 552 2731 152 542 0 0 548 1
61 570 84 32 569 49da15eeb985196510952b99c8da12f881 1 161 2732 152 159 0 0 552 5
71 572 84 32 570 7a0f16f2418a09bccd4c8716ebfe4a7381 1 571 2733 152 167 0 0 161 5
73 574 84 32 572 8b6b8e43f56bc800e27b20692180daca16 167 1921 571 ?575 164 576 57
7 0 0 1 81 1 573 2734 152 576 0 0 571 165 578 84 32 574 fae16607feba7225a9a31808
2d2aa6f716 576 1919 573 ?579 167 580 581 0 0 1 81 1 165 2735 152 164 0 0 573 170
 582 84 32 578 561d7a7507dd7880c760f7d9cb0013d481 1 170 2736 152 580 0 0 165 168
 583 84 32 582 df5e68717ea46d53beb365779d68e5bc16 580 2118 170 ?584 576 585 586
 0 0 1 84 32 583 7502e8d8ab74a435c4f2aba76edbff6217 584 0 587 584 584 0 588 580
 0 0 +16 585 2121 171 ?589 580 590 591 0 0 1 31 586 2166 0 580 592 591 0 +0 0 -.
0133 0 0 -1 -1 0 0 .00825 31 592 2260 0 593 594 586 0 +0 0 -.0133 0 0 1 1 0 0 .0
0689 31 591 2163 0 585 586 577 0 +0 0 -.0105 0 0 -1 -1 0 0 .00825 31 577 1972 0
 167 591 581 0 +0 0 -.0085 0 0 -1 -1 0 0 .00825 31 581 1969 0 576 577 595 0 +0 0
 -.0078 0 0 -1 -1 0 0 .00825 30 595 1573 0 596 581 597 0 -.00791025403784441 .00
629903810567664 -.002 -.86602540378444 -.5 0 16 596 1435 153 ?140 598 599 595 0
 0 1 31 597 1572 0 598 595 600 0 -.00753442101292462 .00435 -.002 0 0 1 -.5 -.86
6025403784438 0 .0015 16 598 1456 601 ?602 148 596 597 0 0 1 30 600 1571 0 148 5
97 603 0 -.00828442101292463 .00305096189432332 -.002 .86602540378444 .5 0 16 14
8 1460 604 ?147 605 598 600 0 0 1 30 603 1569 0 163 600 606 0 +.0079102540378444
1 .00629903810567664 0 -.86602540378444 -.5 0 16 163 1421 607 ?121 608 159 603 0
 0 1 31 606 1568 0 608 603 609 0 +.00753442101292462 .00435 0 0 0 1 -.5 -.866025
403784438 0 .0015 16 608 1476 610 ?611 599 163 606 0 0 1 30 609 1567 0 599 606 6
12 0 +.00828442101292463 .00305096189432332 0 .86602540378444 .5 0 16 599 1480 6
13 ?113 596 608 609 0 0 1 30 612 1564 0 605 609 614 0 -.00828442101292462 .00305
096189432334 -.002 0 0 1 16 605 1458 615 ?124 616 148 612 0 0 1 30 614 1563 0 61
6 612 617 0 -.00678442101292463 .00564903810567664 -.002 0 0 1 16 616 1454 618 ?
619 461 605 614 0 0 1 30 617 1560 0 461 614 488 0 +.00931227189477186 .003644391
877644615 0 0 0 -1 16 461 1440 620 ?149 137 616 617 0 0 1 30 488 1559 0 137 617
 621 0 -.00781227189477187 .00624246808899793 0 0 0 -1 30 621 1295 0 468 488 491
 0 -.001499999999999988 -.01 -.002 1334402673828314e-30 1 0 16 468 1157 481 ?464
 622 485 621 0 0 1 31 491 1294 0 622 621 489 0 -867361737988404e-33 -.0087 -.002
 0 0 1 -.5 .866025403784439 0 .0015 16 622 1178 623 ?624 490 468 491 0 0 1 81 1
 623 2790 152 622 0 0 625 607 626 17 624 0 238 467 103 97 627 622 0 0 +16 490 11
82 482 ?628 495 622 489 0 0 1 81 1 482 2784 152 490 0 0 479 494 629 17 628 0 234
 96 502 93 41 490 0 0 +15 234 1259 0 502 229 0 17 96 0 234 92 628 94 103 495 0 4
77 -17 502 0 234 628 92 28 37 471 0 0 +17 41 0 230 39 627 28 628 490 0 502 -15 2
30 1267 0 39 225 0 17 39 0 230 630 41 129 35 40 0 630 -17 627 0 230 41 105 93 62
4 622 0 628 -17 105 0 230 627 86 97 464 468 0 465 -17 86 0 230 105 630 80 38 151
 0 464 -17 465 0 242 464 100 97 467 498 0 624 +17 467 0 238 477 624 98 465 498 0
 473 -15 238 1255 0 477 233 0 17 477 0 238 103 467 94 473 478 0 476 +17 103 0 23
8 624 477 93 96 495 0 627 +17 476 0 325 473 452 94 92 485 0 0 -17 452 0 325 476
 631 90 68 433 0 0 -17 92 0 234 502 96 90 476 485 0 37 +17 37 0 29 68 35 90 502
 471 0 452 -17 631 0 325 452 632 66 79 470 0 0 -17 632 0 325 631 633 77 521 518
 0 0 -17 79 0 258 634 453 77 631 470 0 529 +15 258 978 0 453 253 0 17 634 0 258
 635 79 76 529 526 0 636 -17 453 0 258 79 635 66 451 534 0 631 +17 529 0 254 521
 636 77 634 526 0 632 +15 254 982 0 521 249 0 17 521 0 254 82 529 73 632 518 0 6
33 +17 636 0 254 529 82 76 510 507 0 0 -17 82 0 254 636 521 72 75 515 0 510 -17
 510 0 246 514 84 72 636 507 0 637 +15 246 994 0 638 241 0 17 514 0 246 638 510
 36 637 511 0 533 +17 84 0 246 510 65 76 635 504 0 634 +17 637 0 250 75 533 72 5
14 511 0 0 -15 250 986 0 533 245 0 17 75 0 250 71 637 73 82 515 0 521 +17 533 0
 250 637 71 36 639 530 0 0 +17 71 0 250 533 75 69 633 508 0 639 +17 639 0 29 136
 42 69 533 530 0 640 -17 136 0 29 132 639 108 640 428 0 0 +17 42 0 29 639 128 36
 638 641 0 514 +17 640 0 325 633 474 69 136 428 0 0 -17 633 0 325 632 640 73 71
 508 0 0 -17 474 0 325 640 642 108 121 163 0 136 -17 642 0 325 474 462 119 611 6
08 0 0 -17 121 0 226 619 110 119 474 163 0 643 +15 226 1529 0 110 221 0 17 619 0
 226 140 121 118 643 616 0 602 +17 110 0 226 121 140 108 132 137 0 474 +17 643 0
 222 611 602 119 619 616 0 642 -15 222 1533 0 611 217 0 17 611 0 222 124 643 115
 642 608 0 462 +17 602 0 222 643 124 118 146 598 0 0 +17 124 0 222 602 611 114 1
17 605 0 146 +17 146 0 138 34 126 114 602 598 0 147 -17 126 0 138 146 107 118 14
0 596 0 619 -17 147 0 218 117 149 114 34 148 0 0 +15 218 1537 0 149 214 0 17 117
 0 218 113 147 115 124 605 0 611 -17 149 0 218 147 113 10 30 461 0 0 +17 113 0 2
18 149 117 111 462 599 0 30 +17 462 0 325 642 458 115 113 599 0 0 -17 140 0 226
 110 619 101 126 596 0 132 +17 128 0 29 42 451 122 65 644 0 638 +17 638 0 246 64
5 514 122 42 641 0 645 -16 641 2552 646 ?42 644 308 158 644 644 1 81 1 646 2767
 152 641 0 0 387 430 647 16 644 826 387 ?128 40 641 158 641 641 1 16 308 628 382
 ?47 641 302 303 0 0 1 31 158 828 0 644 303 156 0 -0 0 -.002 0 0 1 1 0 0 .01 81
 1 382 2764 152 308 0 0 381 386 648 84 32 648 6d1a84419aae1af29caf709af8507e8281
 1 387 2766 152 644 0 0 386 646 649 16 40 2599 625 ?35 151 644 156 151 151 1 81
 1 625 2789 152 40 0 0 500 623 650 81 1 500 2788 152 498 0 0 501 625 651 84 32 6
50 97455fef715f04019efe77e088c4ef5981 1 501 2787 152 471 0 0 469 500 652 84 32 6
51 1197ca01e3f8db74cdc7a1070d54a35e81 1 469 2786 152 460 0 0 494 501 653 84 32 6
52 79a4196745eca55b01d9c469c77e780781 1 494 2785 152 485 0 0 482 469 654 84 32 6
53 2e649e6b0e22b749293f8b0f75126eec84 32 654 d0c348612c90e16a5e9fa798b65b273984
 32 649 2d3382b73a8bdfeb51bdbf35d141023481 1 430 2768 152 428 0 0 646 454 655 84
 32 647 32222bd4cf66170f7819282485f3a72b84 32 655 d6ba67894978ad52f3a624493f9f06
2a17 645 0 246 65 638 122 656 657 0 656 -17 65 0 246 84 645 63 128 644 0 635 -17
 656 0 658 656 656 122 645 657 0 0 +16 657 2571 659 ?656 660 661 662 0 0 1 81 1
 659 2744 152 657 0 0 663 664 665 16 660 2575 663 ?666 667 657 668 0 0 1 16 661
 2622 669 ?670 657 671 672 0 0 1 31 662 2595 0 657 672 668 0 +-.0075344210129246
2 .00435 -.002 0 0 1 1 0 0 .0013 31 672 2641 0 661 673 662 0 +-260208521396521e-
32 -.0087 -.0011 0 0 1 1 0 0 .001252832998645262 31 668 2594 0 660 662 674 0 +-.
00753442101292462 .00435 -.0011 0 0 1 1 0 0 .001252832998645262 31 674 2543 0 67
5 668 676 0 +0 0 -.01285 0 0 1 -1 1224646799147352e-31 0 .0066 16 675 2504 677 ?
678 679 667 674 0 0 1 31 676 2542 0 679 674 680 0 +0 0 -.01285 0 0 1 -1 12246467
99147352e-31 0 .00385 16 679 2510 681 ?682 683 675 676 0 0 1 31 680 2541 0 667 6
76 26 0 +0 0 -.01275 0 0 1 -1 1224646799147352e-31 0 .0066 16 667 2512 449 ?684
 675 660 680 0 0 1 31 26 2540 0 9 680 685 0 +0 0 -.01275 0 0 1 -1 12246467991473
52e-31 0 .00385 31 685 2342 0 683 26 594 0 +0 0 -.00975 0 0 1 1 0 0 .0037 16 683
 2310 664 ?686 19 679 685 0 0 1 31 594 2261 0 590 685 592 0 +0 0 -.01275 0 0 1 1
 0 0 .00689 16 590 2233 687 ?688 585 593 594 0 0 1 81 1 687 2739 152 590 0 0 171
 689 690 17 688 0 691 688 688 0 692 590 0 0 +16 593 2235 689 ?693 590 19 592 0 0
 1 81 1 689 2740 152 593 0 0 687 681 694 17 693 0 191 693 693 0 695 593 0 0 +16
 19 2307 696 ?697 593 683 6 0 0 1 81 1 696 2746 152 19 0 0 664 417 698 17 697 0
 699 697 697 0 700 19 0 0 +15 699 2292 0 697 189 701 17 700 0 702 700 700 0 697
 19 0 0 -15 702 2319 0 700 703 0 14 703 2330 704 ?189 705 706 4 707 -0 0 189 705
 22 81 1 704 2957 181 703 708 0 709 710 711 14 189 2480 710 ?712 703 699 4 188 -
178 178 712 703 22 14 705 2320 709 ?703 713 714 4 715 -0 0 703 713 22 15 706 231
8 0 686 703 702 51 707 2338 0 703 715 188 0 +0 0 -.0133 0 0 1 .0037 1 0 0 50 715
 2340 0 705 716 707 0 +0 0 -.00975 0 0 1 1 0 0 50 188 2259 0 178 707 717 0 +0 0
 -.01275 0 0 1 1 0 0 51 717 2257 0 186 188 718 0 +0 0 -.0133 0 0 1 .00689 1 0 0
 14 186 2249 719 ?720 178 691 4 717 -0 0 720 178 22 51 718 2162 0 190 717 206 0
 +0 0 -.0119 0 0 -1 .00825 -1 0 0 14 190 2137 721 ?179 205 722 4 718 +0 0 179 20
5 22 51 206 1967 0 210 718 203 0 +0 0 -.00815 0 0 -1 .00825 -1 0 0 14 210 1942 7
23 ?205 207 724 4 206 +0 0 205 207 22 81 1 723 2935 181 210 725 0 209 726 727 14
 205 1957 726 ?190 210 728 4 203 -0 0 190 210 22 15 724 1945 0 729 210 730 17 72
9 0 724 729 729 0 575 167 0 0 -15 730 1946 0 579 210 0 17 579 0 730 579 579 0 73
1 576 0 0 +17 731 0 732 731 731 0 579 576 0 0 -15 732 1935 0 731 207 0 17 575 0
 733 575 575 0 729 167 0 0 +15 733 1961 0 575 205 0 81 1 726 2937 181 205 734 0
 723 721 735 15 728 1960 0 166 205 733 17 166 0 728 166 166 0 736 164 0 0 +17 73
6 0 175 736 736 0 166 164 0 0 -15 175 1905 0 736 15 0 80 1 181 0 737 8001 0 0 0
 0 3 5 0 0 0 FFFFTFTFFFFFFF2 81 1 734 2936 738 205 739 726 725 740 741 81 1 721
 2939 181 190 740 0 726 183 742 83 255 3 735 .6 .6 .6 81 1 740 2938 738 190 743
 721 734 744 745 81 1 183 2941 181 179 744 0 721 177 746 83 3 742 .6 .6 .6 81 1
 744 2940 738 179 747 183 740 182 748 83 3 746 .6 .6 .6 80 1 738 749 750 8015 0
 0 0 0 3 5 0 0 0 FFFFTFFFFFFFFF2 81 1 747 2808 152 179 0 744 751 752 753 81 1 18
2 2942 738 17 754 177 744 755 756 83 1 748 0 81 1 754 2831 152 17 0 182 743 757
 758 81 1 755 2944 738 178 757 184 182 759 760 83 1 756 0 81 1 757 2832 152 178
 0 755 754 761 762 81 1 184 2945 181 178 755 0 177 719 763 81 1 759 2946 738 186
 761 719 755 764 765 83 1 760 0 81 1 761 2833 152 186 0 759 757 766 767 81 1 719
 2947 181 186 759 0 184 768 769 81 1 764 2948 738 720 770 768 759 771 772 83 1 7
65 0 14 720 2516 768 ?773 186 774 4 716 +0 0 773 186 22 81 1 770 2835 152 720 0
 764 766 775 776 81 1 768 2949 181 720 764 0 719 777 778 81 1 771 2950 738 773 7
75 777 764 779 780 83 1 772 0 14 773 2521 777 ?713 720 781 4 782 -0 0 713 720 22
 81 1 775 2836 152 773 0 771 770 783 784 81 1 777 2951 181 773 771 0 768 785 786
 81 1 779 2952 738 713 766 785 771 787 788 83 1 780 0 14 713 2526 785 ?705 773 7
89 4 790 -0 0 705 773 22 81 1 766 2834 152 713 0 779 761 770 791 81 1 785 2953 1
81 713 779 0 777 709 792 81 1 787 2954 738 705 793 709 779 708 794 83 1 788 0 81
 1 793 2840 152 705 0 787 795 796 797 81 1 709 2955 181 705 787 0 785 704 798 81
 1 708 2956 738 703 796 704 787 799 800 83 1 794 0 81 1 796 2841 152 703 0 708 7
93 801 802 81 1 799 2958 738 189 803 710 708 804 805 83 1 800 0 81 1 803 2859 15
2 189 0 799 806 0 807 81 1 710 2959 181 189 799 0 704 808 809 81 1 804 2960 738
 712 810 808 799 811 812 83 1 805 0 14 712 2578 808 ?813 189 814 4 815 -0 0 813
 189 22 81 1 810 2838 152 712 0 804 783 795 816 81 1 808 2961 181 712 804 0 710
 817 818 81 1 811 2962 738 813 795 817 804 819 820 83 1 812 0 14 813 2583 817 ?8
21 712 822 4 823 +0 0 821 712 22 81 1 795 2839 152 813 0 811 810 793 824 81 1 81
7 2963 181 813 811 0 808 825 826 81 1 819 2964 738 821 827 825 811 828 829 83 1
 820 0 14 821 2625 825 ?830 813 831 4 832 -0 0 830 813 22 81 1 827 2851 152 821
 0 819 833 834 835 81 1 825 2965 181 821 819 0 817 836 837 81 1 828 2966 738 830
 834 836 819 838 839 83 1 829 0 14 830 2630 836 ?840 821 841 4 842 +0 0 840 821
 22 81 1 834 2852 152 830 0 828 827 843 844 81 1 836 2967 181 830 828 0 825 845
 846 81 1 838 2968 738 840 847 845 828 848 849 83 1 839 0 14 840 2672 845 ?850 8
30 851 4 852 -0 0 850 830 22 81 1 847 2857 152 840 0 838 853 806 854 81 1 845 29
69 181 840 838 0 836 855 856 81 1 848 2970 738 850 806 855 838 0 857 83 1 849 0
 14 850 2677 855 ?0 840 858 4 859 +0 0 0 840 22 81 1 806 2858 152 850 0 848 847
 803 860 81 1 855 2971 181 850 848 0 845 0 861 83 1 857 0 83 3 861 .6 .6 .6 84 3
2 860 0cfef6c8cad82b59f03a5d42bc48fd6a15 858 2680 0 862 850 0 50 859 2687 0 850
 0 852 0 +.00753442101292462 .00435 -.0011 0 0 1 1 0 0 52 852 2685 0 840 859 842
 0 -.00753442101292462 .00435 -.002 0 0 -1 .0013 .0523359562429438 .998629534754
574 -.5 -.866025403784438 0 50 842 2640 0 830 852 832 0 +-260208521396521e-32 -.
0087 -.0011 0 0 1 1 0 0 52 832 2638 0 821 842 823 0 --260208521396521e-32 -.0087
 -.002 0 0 -1 .0013 .0523359562429438 .998629534754574 -.5 .866025403784439 0 50
 823 2593 0 813 832 815 0 +-.00753442101292462 .00435 -.0011 0 0 1 1 0 0 52 815
 2591 0 712 823 790 0 --.00753442101292462 .00435 -.002 0 0 -1 .0013 .0523359562
429438 .998629534754574 1 0 0 50 790 2539 0 713 815 782 0 +0 0 -.01285 0 0 1 1 0
 0 51 782 2537 0 773 790 716 0 +0 0 -.01285 0 0 1 .00385 1 0 0 51 716 2536 0 720
 782 715 0 +0 0 -.01285 0 0 1 .0066 1 0 0 17 862 0 858 862 862 0 863 864 0 0 +17
 863 0 851 863 863 0 862 864 0 0 -16 864 2669 865 ?862 671 145 866 0 0 1 81 1 86
5 2751 152 864 0 0 669 867 868 16 671 2618 867 ?869 661 864 673 0 0 1 16 145 266
5 870 ?144 864 0 871 0 0 1 31 866 2688 0 864 871 673 0 +.00753442101292462 .0043
5 -.0011 0 0 1 1 0 0 .001252832998645262 31 871 2689 0 145 0 866 0 +.00753442101
292462 .00435 -.002 0 0 1 -.5 -.866025403784438 0 .0013 31 673 2642 0 671 866 67
2 0 +-260208521396521e-32 -.0087 -.002 0 0 1 -.5 .866025403784439 0 .0013 81 1 8
70 2753 152 145 0 0 867 23 872 17 144 0 873 144 144 131 139 145 0 0 +15 873 2676
 0 144 840 0 81 1 867 2752 152 671 0 0 865 870 874 81 1 23 2754 152 9 0 0 870 44
9 875 84 32 872 d1ee27964373ba6b71fd8d345b39703c81 1 449 2755 152 667 0 0 23 448
 876 84 32 875 34d9e0a5f5928c9824cf28659ad110b684 32 876 c337ebd9fd0f372d5fa57cb
0a1b6e45684 32 874 33575dd4603d373518e896dc3d336ce817 869 0 877 869 869 129 630
 671 0 0 +15 877 2629 0 869 821 0 17 630 0 230 86 39 129 869 671 0 869 -81 1 669
 2750 152 661 0 0 878 865 879 84 32 868 65acd4aee0aa482ce9e9ae0e0e74248f81 1 878
 2749 152 380 0 0 414 669 880 84 32 879 d69185ee5da408d8e814e5bf5f5da83516 380 2
22 878 ?881 424 412 379 0 0 1 81 1 414 2748 152 412 0 0 417 878 882 84 32 880 81
cf16efdcccfba09dc2b86bd493d83b81 1 417 2747 152 411 0 0 696 414 883 84 32 882 47
e5d526d97127ce5c58cd4af7f7580c84 32 883 59dbe7dc2c7bbeb8d978ac2d62fd521b17 881 0
 884 881 881 0 885 380 0 0 +15 884 211 0 881 339 0 17 885 0 350 885 885 0 881 38
0 0 0 -15 350 240 0 885 346 886 15 886 241 0 887 346 0 17 887 0 886 887 887 0 41
8 411 0 0 -17 418 0 888 418 418 0 887 411 0 0 +15 888 237 0 418 330 0 15 851 267
5 0 863 840 873 83 3 856 .6 .6 .6 81 1 853 2856 152 221 0 889 890 847 891 84 32
 854 f0bc7e5efdc0f8fcca96ca6f838979a281 1 889 2924 738 221 853 224 892 893 894 8
1 1 890 2855 152 217 0 893 895 853 896 84 32 891 8a0910f2896b7ee9bb8a9af2a2972cf
281 1 893 2926 738 217 890 220 889 897 898 81 1 895 2854 152 143 0 899 843 890 9
00 84 32 896 b064fbc9fcccecc0538060ff855b2c9c81 1 899 2930 738 143 895 213 897 9
01 902 81 1 843 2853 152 214 0 897 834 895 903 84 32 900 333db0b629d3d48bafd65ba
1cc70f8a281 1 897 2928 738 214 843 216 893 899 904 84 32 903 b0738db829e1f357e26
849ae261f425081 1 216 2929 181 214 897 0 220 213 905 83 1 904 0 81 1 220 2927 18
1 217 893 0 224 216 906 81 1 213 2931 181 143 899 0 216 209 907 83 3 905 .6 .6 .
6 81 1 209 2933 181 207 901 0 213 723 908 83 3 907 .6 .6 .6 81 1 901 2932 738 20
7 909 209 899 725 910 83 3 908 .6 .6 .6 81 1 909 2827 152 207 0 901 911 912 913
 81 1 725 2934 738 210 912 723 901 734 914 83 1 910 0 81 1 912 2828 152 210 0 72
5 909 739 915 83 1 914 0 81 1 739 2829 152 205 0 734 912 743 916 84 32 915 4b458
15260978a4e0be2f0dbcaaeae0a81 1 743 2830 152 190 0 740 739 754 917 84 32 916 977
b859d15ad7722d18812cfcb77863c84 32 917 c3a4b3e7154976f530efef1b903b05d581 1 911
 2826 152 15 0 197 918 909 919 84 32 913 f563533cb926349a800a93efbdee45e281 1 19
7 2860 738 15 911 194 0 920 921 81 1 918 2825 152 278 0 922 923 911 924 84 32 91
9 05b40f63bf6e11d085d6b0889a5d875181 1 922 2894 738 278 918 311 925 926 927 81 1
 923 2824 152 283 0 925 928 918 929 84 32 924 9ad3ec48d4fba5402e8bb7331a87385381
 1 925 2892 738 283 923 285 930 922 931 81 1 928 2823 152 286 0 930 932 923 933
 84 32 929 4aa0bae06b93dbc2aaf1b12007b9afc881 1 930 2890 738 286 928 290 355 925
 934 81 1 932 2822 152 267 0 935 936 928 937 84 32 933 7e69de49ecbceeb6f877bb0e5
92089db81 1 935 2900 738 267 932 269 938 939 940 81 1 936 2821 152 262 0 939 941
 932 942 84 32 937 34e04ba4c45df4f99fe8289ed9a37cb981 1 939 2902 738 262 936 273
 935 943 944 81 1 941 2820 152 259 0 943 945 936 946 84 32 942 38e3401d5c8ba96d3
64ae0706a80f54581 1 943 2904 738 259 941 261 939 947 948 81 1 945 2819 152 257 0
 947 949 941 950 84 32 946 6bc61c1a9e8ba4e29bcd2ce091d09f8181 1 947 2906 738 257
 945 265 943 951 952 81 1 949 2818 152 270 0 938 953 945 954 84 32 950 6e5fc5b3d
04e5a64e60eeefff1a18ba281 1 938 2898 738 270 949 281 926 935 955 81 1 953 2817 1
52 275 0 926 956 949 957 84 32 954 cf3b0c98679490d6f5d46fb4fe43ece981 1 926 2896
 738 275 953 277 922 938 958 81 1 956 2816 152 343 0 959 960 953 961 84 32 957 3
a095cabd793363a466f6ef45f7bf61181 1 959 2886 738 343 956 345 962 355 963 81 1 96
0 2815 152 339 0 964 965 956 966 84 32 961 f37948c8855e597ff635179e688b903881 1
 964 2866 738 339 960 341 967 968 969 81 1 965 2814 152 291 0 355 970 960 971 84
 32 966 a6ad52ce8bc977e13b7b81ad7b42c2b481 1 355 2888 738 291 965 353 959 930 97
2 81 1 970 2813 152 200 0 967 973 965 974 84 32 971 718bd3b45b01c925d93833d83dc7
c0fc14 200 326 975 ?339 195 396 4 288 -0 0 339 195 22 81 1 967 2864 738 200 970
 975 920 964 976 81 1 973 2812 152 134 0 968 977 970 978 84 32 974 01d842a578704
03e7e26f372f08c39b614 134 93 979 ?318 339 29 4 202 +195 195 318 339 22 81 1 968
 2868 738 134 973 979 964 980 981 81 1 977 2811 152 327 0 982 983 973 984 84 32
 978 e7d2fd1048e89b90a045a3a82114819c81 1 982 2880 738 327 977 329 985 986 987 8
1 1 983 2810 152 331 0 985 752 977 988 84 32 984 c5ed33af1f721906fbd8e84e39773b0
781 1 985 2878 738 331 983 334 989 982 990 81 1 752 2809 152 324 0 989 747 983 9
91 84 32 988 0f85eecc9c95e208573b5c61d914bd9a81 1 989 2876 738 324 752 337 992 9
85 993 84 32 991 ce7956a5fad578ce56dd08be3789532a81 1 337 2877 181 324 989 0 323
 334 994 81 1 992 2874 738 317 751 323 995 989 996 83 1 993 0 81 1 751 2807 152
 317 0 992 997 747 998 81 1 323 2875 181 317 992 0 316 337 999 81 1 995 2872 738
 313 1000 316 980 992 1001 83 1 996 0 81 1 1000 2804 152 313 0 995 154 1002 1003
 81 1 316 2873 181 313 995 0 320 323 1004 81 1 980 2870 738 318 1002 320 968 995
 1005 83 1 1001 0 81 1 1002 2805 152 318 0 980 1000 997 1006 81 1 320 2871 181 3
18 980 0 979 316 1007 83 1 1005 0 81 1 979 2869 181 134 968 0 341 320 1008 83 3
 1007 .6 .6 .6 81 1 341 2867 181 339 964 0 975 979 1009 83 3 1008 .6 .6 .6 81 1
 975 2865 181 200 967 0 198 341 1010 83 3 1009 .6 .6 .6 81 1 198 2863 181 195 92
0 0 194 975 1011 83 3 1010 .6 .6 .6 81 1 920 2862 738 195 997 198 197 967 1012 8
3 3 1011 .6 .6 .6 81 1 997 2806 152 195 0 920 1002 751 1013 83 1 1012 0 84 32 10
13 b35b2215e59568f570c9c113927cf5a384 32 1006 eef335f4b689310beaf9c5493f2c0be183
 3 1004 .6 .6 .6 81 1 154 2803 152 151 0 0 150 1000 1014 84 32 1003 7e0a2f4401f6
6b1fa3eb42e91bbf9b9484 32 1014 c91efe496b6357307c058e1a4c0c446383 3 999 .6 .6 .6
 84 32 998 d9561f6c3f521d4fdb241575d5e20b3a81 1 334 2879 181 331 985 0 337 329 1
015 83 3 994 .6 .6 .6 81 1 329 2881 181 327 982 0 334 351 1016 83 3 1015 .6 .6 .
6 81 1 351 2883 181 330 986 0 329 349 1017 83 3 1016 .6 .6 .6 81 1 986 2882 738
 330 801 351 982 962 1018 81 1 349 2885 181 346 962 0 351 345 1019 83 3 1017 .6
 .6 .6 81 1 962 2884 738 346 1020 349 986 959 1021 81 1 345 2887 181 343 959 0 3
49 353 1022 83 3 1019 .6 .6 .6 83 3 1022 .6 .6 .6 81 1 1020 2843 152 346 0 962 8
01 1023 1024 83 1 1021 0 81 1 801 2842 152 330 0 986 796 1020 1025 81 1 1023 284
4 152 249 0 1026 1020 1027 1028 84 32 1024 60047dd2e1301a636c0b03f2f121953181 1
 1026 2910 738 249 1023 252 951 1029 1030 81 1 1027 2845 152 253 0 951 1023 1031
 1032 84 32 1028 7f43ff404ad947a04e91006c81b2f7c481 1 951 2908 738 253 1027 256
 947 1026 1033 81 1 1031 2846 152 245 0 1029 1027 1034 1035 84 32 1032 07e675118
61f3726a4db2ce0e0e6511a81 1 1029 2912 738 245 1031 248 1026 1036 1037 81 1 1034
 2847 152 237 0 1038 1031 1039 1040 84 32 1035 e4bc807656db65be828989d1a339206f8
1 1 1038 2916 738 237 1034 240 1036 1041 1042 81 1 1039 2848 152 229 0 1043 1034
 1044 1045 84 32 1040 3a8c8e2d3bce24cb91eb3950c4bf554e81 1 1043 2920 738 229 103
9 232 1041 892 1046 81 1 1044 2849 152 225 0 892 1039 833 1047 84 32 1045 2f8b8a
64f220899208a47b88f06ada2e81 1 892 2922 738 225 1044 228 1043 889 1048 81 1 833
 2850 152 233 0 1041 1044 827 1049 84 32 1047 c64d2c14c0e5d3bed29c2ead2ea8f43281
 1 1041 2918 738 233 833 236 1038 1043 1050 84 32 1049 fdf24c261ed4eb48ce6cb2ba7
bc63af981 1 236 2919 181 233 1041 0 240 232 1051 83 1 1050 0 81 1 240 2917 181 2
37 1038 0 244 236 1052 81 1 232 2921 181 229 1043 0 236 228 1053 83 3 1051 .6 .6
 .6 81 1 228 2923 181 225 892 0 232 224 1054 83 3 1053 .6 .6 .6 81 1 224 2925 18
1 221 889 0 228 220 1055 83 3 1054 .6 .6 .6 83 3 1055 .6 .6 .6 81 1 244 2915 181
 241 1036 0 248 240 1056 83 3 1052 .6 .6 .6 81 1 1036 2914 738 241 783 244 1029
 1038 1057 81 1 248 2913 181 245 1029 0 252 244 1058 83 3 1056 .6 .6 .6 81 1 252
 2911 181 249 1026 0 256 248 1059 83 3 1058 .6 .6 .6 81 1 256 2909 181 253 951 0
 265 252 1060 83 3 1059 .6 .6 .6 81 1 265 2907 181 257 947 0 261 256 1061 83 3 1
060 .6 .6 .6 81 1 261 2905 181 259 943 0 273 265 1062 83 3 1061 .6 .6 .6 81 1 27
3 2903 181 262 939 0 269 261 1063 83 3 1062 .6 .6 .6 81 1 269 2901 181 267 935 0
 281 273 1064 83 3 1063 .6 .6 .6 81 1 281 2899 181 270 938 0 277 269 1065 83 3 1
064 .6 .6 .6 81 1 277 2897 181 275 926 0 311 281 1066 83 3 1065 .6 .6 .6 81 1 31
1 2895 181 278 922 0 285 277 1067 83 3 1066 .6 .6 .6 81 1 285 2893 181 283 925 0
 290 311 1068 83 3 1067 .6 .6 .6 81 1 290 2891 181 286 930 0 353 285 1069 83 3 1
068 .6 .6 .6 83 3 1069 .6 .6 .6 81 1 783 2837 152 241 0 1036 775 810 1070 83 1 1
057 0 84 32 1070 0d20d147b6e787950c29d8d2131370a283 1 1048 0 83 1 1046 0 83 1 10
42 0 83 1 1037 0 83 1 1033 0 83 1 1030 0 84 32 1025 37c26edd191e4fbcfd471d2c8aa3
fd3583 1 1018 0 83 1 990 0 83 1 987 0 83 1 981 0 83 1 976 0 83 1 972 0 83 1 969
 0 83 1 963 0 83 1 958 0 83 1 955 0 83 1 952 0 83 1 948 0 83 1 944 0 83 1 940 0
 83 1 934 0 83 1 931 0 83 1 927 0 83 1 921 0 83 3 906 .6 .6 .6 83 1 902 0 83 1 8
98 0 83 1 894 0 83 3 846 .6 .6 .6 84 32 844 3ec4522151b53d6be537714d6ea3730c15 8
41 2633 0 670 830 0 17 670 0 841 670 670 0 1071 661 0 0 +17 1071 0 831 1071 1071
 0 670 661 0 0 -15 831 2628 0 1071 821 877 83 3 837 .6 .6 .6 84 32 835 3517c612e
7ea6a62405e202bca80787f83 3 826 .6 .6 .6 84 32 824 87ce4bf2d92b8d78fa6b074fef7be
e8a15 822 2586 0 666 813 0 17 666 0 822 666 666 0 1072 660 0 0 +17 1072 0 814 10
72 1072 0 666 660 0 0 -15 814 2581 0 1072 712 658 15 658 2582 0 656 712 0 83 3 8
18 .6 .6 .6 84 32 816 92c8be4a6f7e2f7c22027bb0e2220cec83 3 809 .6 .6 .6 84 32 80
7 7858f4fc1b71ab793968a02b4f1364e084 32 802 d472656cf231bb7d6dfc1b38113e585f83 3
 798 .6 .6 .6 84 32 797 842177d66a213566a92ca9dbe80976ca83 3 792 .6 .6 .6 84 32
 791 ba4446ec90107b582a4d198e279b117215 789 2529 0 1073 713 1074 17 1073 0 789 1
073 1073 0 678 675 0 0 -15 1074 2530 0 682 713 0 17 682 0 1074 682 682 0 1075 67
9 0 0 +17 1075 0 781 1075 1075 0 682 679 0 0 -15 781 2524 0 1075 773 1076 15 107
6 2525 0 24 773 0 17 24 0 1076 24 24 0 1077 9 0 0 +17 1077 0 701 1077 1077 0 24
 9 0 0 -15 701 2479 0 1077 189 0 17 678 0 774 678 678 0 1073 675 0 0 +15 774 251
9 0 678 720 1078 15 1078 2520 0 1079 720 0 17 1079 0 1078 1079 1079 0 684 667 0
 0 -17 684 0 187 684 684 0 1079 667 0 0 +15 187 2486 0 684 178 1080 15 1080 2243
 0 692 178 0 17 692 0 1080 692 692 0 688 590 0 0 -83 3 786 .6 .6 .6 84 32 784 84
de9ad2b76f9ec9eb80244b48c19fd483 3 778 .6 .6 .6 84 32 776 41bafc208e8682322153ad
32ec286de283 3 769 .6 .6 .6 84 32 767 e55e68f86697681f195be431ff28ed9d83 3 763 .
6 .6 .6 84 32 762 82b7530117ae65e9c0afd74766b25c2a84 32 758 6fbb4b5e10f5b8e75f95
a67e21d9e44484 32 753 3818b1f1918a0b803263d2fed944740879 255 21 750 SDL/TYSA_TRA
NSLUCENCY83 1 745 0 83 1 741 0 79 15 737 SDL/TYSA_COLOUR83 3 727 .6 .6 .6 15 722
 2140 0 588 190 1081 17 588 0 722 588 588 0 584 580 0 0 -15 1081 2141 0 589 190
 0 17 589 0 1081 589 589 0 193 585 0 0 +17 193 0 180 193 193 0 589 585 0 0 -15 6
91 2253 0 688 186 1082 15 1082 2254 0 695 186 0 17 695 0 1082 695 695 0 693 593
 0 0 -17 686 0 706 686 686 0 1083 683 0 0 +17 1083 0 714 1083 1083 0 686 683 0 0
 -15 714 2324 0 1083 705 0 83 3 711 .6 .6 .6 81 1 664 2745 152 683 0 0 659 696 1
084 84 32 698 b5c5fd0b12087fb31c192f20b863e8af84 32 1084 f5dcb5baffe216ca46a87ed
ed174201715 191 2221 0 693 179 587 15 587 2098 0 584 179 0 81 1 681 2741 152 679
 0 0 689 677 1085 84 32 694 a3fffda1d905024774e2ae5015b5351881 1 677 2742 152 67
5 0 0 681 663 1086 84 32 1085 043c12235fec98bb340857b34310357481 1 663 2743 152
 660 0 0 677 659 1087 84 32 1086 098d43f57ba04afd011720d432a6bf6684 32 1087 240d
5e29bed34ec5354182c0627c090b81 1 171 2738 152 585 0 0 168 687 1088 84 32 690 14f
82afa6a8065e0100de2c7bf4157b284 32 1088 362056394bd05c6a3653dd92ee9128ce84 32 66
5 abb4304756f1a748e3f96fe58f50b99717 635 0 258 453 634 63 84 504 0 451 -17 451 0
 29 128 68 63 453 534 0 0 -17 38 0 29 35 457 129 86 151 0 39 +84 32 629 b5e4557a
6ff7e1485ef9bb479de1250a81 1 607 2791 152 163 0 0 623 487 1089 84 32 626 1247a43
63a924cc9d7584af81636ba0081 1 487 2792 152 137 0 0 607 604 1090 84 32 1089 95fc3
6f71d18893942f74a35ee2c085281 1 604 2793 152 148 0 0 487 613 1091 84 32 1090 f10
e7a0841d532f35cdff959517c24bb81 1 613 2794 152 599 0 0 604 141 1092 84 32 1091 7
5bd02eb332137b4c83225a884b8a1ed81 1 141 2795 152 133 0 0 613 618 1093 84 32 1092
 d1431947716c500b67e66e22cebc599481 1 618 2796 152 616 0 0 141 601 1094 84 32 10
93 1744f41aa3437fadd5c465fbbe6aa5fd81 1 601 2797 152 598 0 0 618 610 1095 84 32
 1094 defef170086e72faf989eba8c02b5f6181 1 610 2798 152 608 0 0 601 615 1096 84
 32 1095 4a3db3affa00290acd701a072749bd1681 1 615 2799 152 605 0 0 610 620 1097
 84 32 1096 a7a364464bea096fdfab88be42396d6181 1 620 2800 152 461 0 0 615 153 10
98 84 32 1097 d85c577e513c5c2b4301695dc1b2040a81 1 153 2801 152 596 0 0 620 150
 1099 84 32 1098 ea7602666276d0f897041c3f376d63e484 32 1099 ae08a78575509de52c89
fa8205d085ec81 1 481 2782 152 468 0 0 497 479 1100 81 1 497 2781 152 495 0 0 484
 481 1101 84 32 1100 8d5ef18a26a512ddd84ca1518249d3f181 1 484 2780 152 478 0 0 5
28 497 1102 84 32 1101 ac162d4f9b6f7160980548bb18ef8f4681 1 528 2779 152 526 0 0
 525 484 1103 84 32 1102 a2591c3978dec6c8e76a5ef14edd781d81 1 525 2778 152 515 0
 0 523 528 1104 84 32 1103 8d036c1a86eba8ea1cdfe68b9195867981 1 523 2777 152 508
 0 0 513 525 1105 84 32 1104 f2f1aaac069d18dd86f7d20ff84ff6e981 1 513 2776 152 5
11 0 0 517 523 1106 84 32 1105 d72009be985b748ff90d97706649dc0c81 1 517 2775 152
 470 0 0 506 513 1107 84 32 1106 50e779ddfb9bd42cfdd1d3ad866e61ff81 1 506 2774 1
52 504 0 0 532 517 1108 84 32 1107 79689545bbb47a2e03c061509524ea9881 1 532 2773
 152 530 0 0 536 506 1109 84 32 1108 1520192ec4248e1f181b3708d518ac9081 1 536 27
72 152 534 0 0 520 532 1110 84 32 1109 765301dbd50da8a8e91c836f18eef97a81 1 520
 2771 152 518 0 0 455 536 1111 84 32 1110 631b39b70b073ffef46ae267fde1d7e681 1 4
55 2770 152 507 0 0 454 520 1112 84 32 1111 051275e24faaf881d139643cdfb0376184 3
2 1112 354678c0bda5bf5aed64c35b9f03874884 32 566 0af3777e518e195fa6ba012dc8e4a8b
479 15 565 UGS/ObjectState17 554 0 282 554 554 0 1113 405 0 0 +15 282 691 0 554
 270 561 17 1113 0 279 1113 1113 0 554 405 0 0 -15 279 685 0 1113 275 0 17 553 0
 1114 553 553 0 1115 542 0 0 +15 1114 712 0 553 317 558 17 1115 0 1116 1115 1115
 0 553 542 0 0 -15 1116 741 0 1115 262 0 17 549 0 274 549 549 0 1117 546 0 0 +15
 274 740 0 549 262 1116 17 1117 0 271 1117 1117 0 549 546 0 0 -15 271 732 0 1117
 267 0 17 545 0 475 545 545 0 1118 537 0 0 +15 475 755 0 545 317 1114 17 1118 0
 1119 1118 1118 0 545 537 0 0 -15 1119 784 0 1118 257 0 17 541 0 266 541 541 0 1
120 538 0 0 +15 266 783 0 541 257 1119 17 1120 0 263 1120 1120 0 541 538 0 0 -15
 263 775 0 1120 259 0 84 32 483 38f2e029def1776aab306a7a458e80f184 32 456 64ab68
44a7953b7b9fa6c500f45ee34c81 1 401 2757 152 361 0 0 448 410 1121 84 32 450 eeb4b
e8264bcda0a33510bbe0c4ae5e381 1 410 2758 152 395 0 0 401 403 1122 84 32 1121 56f
a14dfb811421c8edf5d5df44b4edc81 1 403 2759 152 398 0 0 410 373 1123 84 32 1122 7
a1f7b7d16b75c4b6dcaeabf4cbbf8c281 1 373 2760 152 367 0 0 403 397 1124 84 32 1123
 406c56655838a34dc85d44eef7da340b84 32 1124 6841ab8087aba6ec8068dae065829ec215 3
32 135 0 445 327 1125 17 447 0 201 447 447 0 445 443 0 0 -15 201 98 0 447 195 11
26 15 1126 1724 0 162 195 0 17 162 0 1126 162 162 0 1127 159 0 0 +17 1127 0 211
 1127 1127 0 162 159 0 0 -15 211 1765 0 1127 207 732 15 1125 136 0 422 327 0 17
 422 0 1125 422 422 0 1128 419 0 0 +17 1128 0 338 1128 1128 0 422 419 0 0 -15 33
8 123 0 1128 324 1129 15 1129 124 0 427 324 0 17 427 0 1129 427 427 0 1130 424 0
 0 +17 1130 0 1131 1130 1130 0 427 424 0 0 -15 1131 128 0 1130 331 0 81 1 426 27
21 152 424 0 0 421 444 1132 81 1 441 2723 152 423 0 0 444 370 1133 84 32 446 071
5a55b634bb9a38aa15cbda2ef770481 1 370 2724 152 368 0 0 441 366 1134 84 32 1133 6
324edd972b6d90157228e668935074f84 32 1134 2c982ef04b231bdaefa1d41bacba22cb81 1 4
21 2720 152 419 0 0 435 426 1135 84 32 1132 7f7b50dfa18b02d2951af2414f26bd5c81 1
 435 2719 152 431 0 0 438 421 1136 84 32 1135 c10c9e61f6c489a4c8b4342281da6d9e81
 1 438 2718 152 377 0 0 0 435 1137 84 32 1136 e2bdb17ef09e355e245a9c0d1f3ae95284
 32 1137 8a1774735496d104be549bc6acf40d4a17 442 0 135 442 442 0 1138 423 0 0 +15
 135 90 0 442 134 0 17 1138 0 335 1138 1138 0 442 423 0 0 -15 335 127 0 1138 331
 1131 17 439 0 319 439 439 0 1139 377 0 0 +15 319 13 0 439 313 563 17 1139 0 114
0 1139 1139 0 439 377 0 0 -15 1140 14 0 1139 318 0 17 415 0 1141 415 415 0 1142
 412 0 0 +15 1141 205 0 415 343 0 17 1142 0 352 1142 1142 0 415 412 0 0 -15 352
 236 0 1142 330 888 17 404 0 287 62 62 57 391 398 0 0 +15 287 526 0 404 283 0 17
 62 0 287 404 404 60 360 367 0 391 +17 391 0 292 385 59 60 404 398 0 384 -17 384
 0 354 360 359 60 385 395 0 0 -17 360 0 354 357 384 57 62 367 0 404 -81 1 307 27
62 152 302 0 0 397 381 1143 84 32 400 a1e65b8a4818949f18dca48b2b8899cc84 32 1143
 82ac013368407c99e590ad299fae5c7384 32 388 e4d7219424d62bd04c542816898589b884 32
 383 248a3c77e8bafea9cc9c530a63dc846717 376 0 342 376 376 0 1144 368 0 0 +15 342
 193 0 376 339 884 17 1144 0 321 1144 1144 0 376 368 0 0 -15 321 170 0 1144 318
 1140 84 32 372 85d0026c7b6c516d7fd806173c0405c215 347 301 0 364 343 1141 83 3 3
56 .6 .6 .6 40 2 299 0 1 2 164124088598858e-19 .079405882732856 ??-.000994987437
106624 -.0015 .0143 -.0013228756555323 -.0015 .0141 41 1 300 L-.0009949874371066
24 -.0015 .0143 41 1 301 L-.0013228756555323 -.0015 .0141 83 3 199 .6 .6 .6 83 3
 185 .6 .6 .6 84 32 172 9e79b0374609b6c0c1cf0fd5a10efa4d84 32 155 dc37a37113bfc5
b0cd24be80cb6edb5019 16 5 0 1 0 8 4 S0 74 4 CI16 index_map_offset0 0 1 dCCZ20 14
 5 0 0 12 803 848 855 2 0 0 0 0 0 0 0 0 0 0 0 0 0 0 0 81 2 12 2717 1145 1 0 2 0
 0 1146 1147 80 2 1145 1148 1149 8004 0 0 0 0 3 5 0 0 0 FFTFFFFFFFFFFT2 3 83 1 1
146 .001 84 8 1147 Kg/Cu M 79 16 1149 SDL/TYSA_DENSITY80 1 11 1150 1151 9000 0 0
 0 0 3 5 0 0 0 FFTFFFFFFFFFFF1 82 255 1 13 87 79 24 1151 UG2/BODY_COLOR_ATTRIBUT
E1 0 
