**ABCDEFGHIJKLMNOPQRSTUVWXYZabcdefghijklmnopqrstuvwxyz**************************
**PARASOLID !"#$%&'()*+,-./:;<=>?@[\]^_`{|}~0123456789**************************
**PART1;
MC=AMD64;
MC_MODEL=Intel64 Family 6 Model 42 Stepping 7, GenuineIntel;
MC_ID=unknown;
OS=Windows_NT;
OS_RELEASE=6.1;
FRU=Autodesk;
APPL=Autodesk Inventor 2012;
SITE=unknown;
USER=unknown;
FORMAT=text;
GUISE=transmit;
KEY=2036UxxxB;
FILE=G:\Disegni\Progetti\D8500÷D8599\D8514\Motori\4 - STEP_IPT non ancora pubblicati\BLM Step_ipt\BLM CAD\2036UxxxB.x_t;
DATE=Fri, 20 Sep 2013 11:19:59 GMT;
**PART2;
SCH=SCH_2300208_20000;
USFLD_SIZE=0;
**PART3;
**END_OF_HEADER*****************************************************************
T51 : TRANSMIT FILE created by modeller version 230020817 SCH_2300208_200000 12
 1 331 2 3 0 0 0 0 1e3 1e-8 0 0 0 1 0 1 1 4 5 6 7 8 9 10 0 0 0 0 81 1 2 331 11 1
 0 0 0 0 12 70 3 0 4 T1 0 0 4 20 1 13 13 13 4 4 0 1 0 14 0 0 15 0 51 5 206 0 16
 17 0 0 +0 -470781180400227e-32 5e-4 0 -3090247206149755e-31 -1 .003 0 1 0 137 6
 329 0 1 18 0 19 +20 21 0 ?29 7 263 0 22 23 0 0 .003 .001 19 8 2 0 1 15 0 24 V16
 9 7 0 ?25 0 26 27 0 0 1 18 10 8 0 28 0 29 30 ?1 17 28 0 31 28 28 10 25 9 0 25 -
18 29 12 0 32 10 33 34 16180364879226e-19 1 29 30 239 0 10 0 34 -.002 -.014 -.03
4 29 34 240 0 29 30 35 .001833030277982335 -.00983056458195564 -.0332 29 35 241
 0 36 34 37 0 -.01 -.036 18 36 13 0 38 39 40 35 1624788193661365e-21 1 29 37 242
 0 33 35 41 .000871779788708164 -.00996192752432985 -.0322 18 33 15 0 42 29 43 3
7 162466985446615e-20 1 29 41 243 0 43 37 44 -.000871779788708164 -.009961927524
32985 -.0322 18 43 17 0 45 33 39 41 162466985446615e-20 1 29 44 244 0 39 41 46 -
.001833030277982335 -.00983056458195564 -.0332 18 39 19 0 47 43 36 44 1624788193
661365e-21 1 29 46 245 0 40 44 48 -.001 -.00994987437106623 -.0288 18 40 25 0 49
 36 50 46 271373713663605e-21 1 29 48 246 0 51 46 52 -.001 -.00994987437106623 -
.0268 18 51 26 0 53 54 55 48 271373713663758e-21 1 29 52 247 0 50 48 56 -.001 -.
014 -.0288 18 50 28 0 57 40 54 52 ?1 29 56 248 0 54 52 58 -.001 -.014 -.0268 18
 54 30 0 59 50 51 56 ?1 29 58 249 0 55 56 60 .001 -.00994987437106623 -.0288 18
 55 35 0 61 51 62 58 2713737136636275e-22 1 29 60 250 0 62 58 63 .001 -.014 -.02
88 18 62 37 0 64 55 65 60 ?1 29 63 251 0 66 60 67 .001 -.00994987437106623 -.026
8 18 66 42 0 68 65 69 63 2713737136637555e-22 1 29 67 252 0 65 63 70 .001 -.014
 -.0268 18 65 44 0 71 62 66 67 ?1 29 70 253 0 69 67 72 0 .01 0 18 69 62 0 73 66
 74 70 ?1 29 72 254 0 74 70 75 .00597965242270663 -.003 293573484584227e-32 18 7
4 66 0 76 69 77 72 ?1 29 75 255 0 77 72 78 .00597965242270663 -.003 -.0025 18 77
 69 0 79 74 80 75 ?1 29 78 256 0 80 75 81 7835e-7 .006 1545123603074905e-34 18 8
0 75 0 82 77 83 78 ?1 29 81 257 0 83 78 84 7835e-7 .006 -.0025 18 83 78 0 85 80
 86 81 ?1 29 84 258 0 86 81 87 -.00441265242270663 -.003 293573484584227e-32 18
 86 84 0 88 83 89 84 ?1 29 87 259 0 89 84 90 -.00441265242270663 -.003 -.0025 18
 89 87 0 91 86 92 87 ?1 29 90 260 0 92 87 93 0 .003 246519032881566e-48 18 92 97
 0 94 89 95 90 ?1 29 93 261 0 95 90 23 0 .001 .0081 18 95 105 0 96 92 97 93 ?1 2
9 23 262 0 97 93 7 0 .001 .001 18 97 109 0 98 95 22 23 ?1 17 98 0 99 98 98 97 10
0 101 0 100 -18 22 114 0 102 97 0 7 ?1 17 102 0 103 102 102 22 104 105 0 104 -15
 103 112 0 102 106 107 17 104 0 108 104 104 22 102 105 0 0 +16 105 113 0 ?104 10
1 0 109 0 0 1 16 101 108 0 ?100 110 105 111 0 0 1 31 109 238 0 105 111 112 0 +0
 -455329944369478e-32 .001 0 -3090247206149755e-31 -1 0 1 0 .003 31 111 237 0 10
1 113 109 0 +0 -455329944369478e-32 .001 0 -3090247206149755e-31 -1 0 1 0 .001 1
33 112 264 0 114 109 115 0 +115 0 -.01 -.036 0 -.01 -.036 3.141592653589795 9.42
477796076938 16 114 54 0 ?116 117 110 112 0 0 1 31 115 265 0 1 112 118 119 +0 -1
598721410644885e-32 -.036 0 -3090247206149755e-31 -1 0 1 0 .01 133 118 272 0 120
 115 121 0 +121 .00183303027798234 -.00983056458195564 -.0332 -.0018330302779823
4 -.00983056458195564 -.0332 3.325938016668775 9.2404325976904 141 119 112 119 1
19 115 16 120 55 0 ?122 123 124 118 0 0 1 31 121 273 0 1 118 125 126 +0 -1512194
488872695e-32 -.0332 0 4440448053695245e-31 1 0 1 0 .01 133 125 276 0 117 121 12
7 0 +127 -.000871779788708164 -.00996192752432985 -.0322 .000871779788708164 -.0
0996192752432985 -.0322 3.228881437272845 9.33748917708633 141 126 118 126 126 1
21 16 117 58 0 ?128 124 114 125 0 0 1 31 127 277 0 1 125 129 130 +0 -14812920168
11196e-32 -.0322 0 -4440448053695245e-31 -1 0 1 0 .01 133 129 282 0 131 127 132
 0 +132 -.001 -.014 -.0268 -.001 -.00994987437106623 -.0268 -.004 50125628933799
e-18 141 130 125 130 130 127 16 131 31 0 ?133 134 135 129 0 0 1 30 132 283 0 1 1
29 136 137 +-.001 -.01 -.0268 0 1 0 133 136 284 0 138 132 139 0 +139 -.001 -.009
94987437106623 -.0268 .001 -.00994987437106623 -.0268 3.041425232428235 3.241760
074751355 141 137 129 137 137 132 16 138 41 0 ?68 140 141 136 0 0 1 31 139 285 0
 1 136 142 143 +0 -131441866767911e-31 -.0268 0 0 1 0 1 0 .01 133 142 286 0 26 1
39 144 0 +144 -.001 -.00994987437106623 -.0288 -.001 -.014 -.0288 -5012562893379
9e-18 .004 141 143 136 143 143 139 16 26 27 0 ?145 9 134 142 0 0 1 30 144 287 0
 1 142 146 147 +-.001 -.01 -.0288 0 -1 0 133 146 288 0 148 144 149 0 +149 .001 -
.00994987437106623 -.0288 -.001 -.00994987437106623 -.0288 3.041425232428235 3.2
41760074751355 141 147 142 147 147 144 16 148 34 0 ?150 151 140 146 0 0 1 31 149
 289 0 1 146 152 153 +0 -1376223611802104e-32 -.0288 0 0 -1 0 1 0 .01 133 152 29
0 0 154 149 155 0 +155 .001 -.014 -.0288 .001 -.00994987437106623 -.0288 -.004 5
0125628933799e-18 141 153 146 153 153 149 16 154 36 0 ?156 157 158 152 0 0 1 30
 155 291 0 1 152 159 160 +.001 -.01 -.0288 0 1 0 133 159 294 0 161 155 162 0 +16
2 .001 -.00994987437106623 -.0268 .001 -.014 -.0268 -50125628933799e-18 .004 141
 160 152 160 160 155 16 161 45 0 ?71 163 157 159 0 0 1 30 162 295 0 1 159 164 16
5 +.001 -.01 -.0268 0 -1 0 133 164 296 0 53 162 166 0 +166 -.001 -.0099498743710
6623 -.0288 -.001 -.00994987437106623 -.0268 0 1 141 165 159 165 165 162 17 53 0
 167 68 150 51 49 140 164 133 +137 166 297 0 1 164 168 169 +170 171 0 ?133 168 2
98 0 49 166 172 0 +172 -.001 -.00994987437106623 -.0268 -.001 -.0099498743710662
3 -.0288 0 1 141 169 164 169 169 166 51 170 193 0 173 174 175 176 +0 -1042476913
53793e-31 -.018 0 -3090247206149755e-31 -1 .01 0 1 0 134 171 0 0 0 0 0 0 +177 17
8 136 177 2 33 2 17 5 FFF1 179 180 181 135 178 1 0 45 66 179 3.241760074751355 .
0108 3.25136908108386 .0107999907124124 3.261087015448585 .01078110339208382 3.2
71065398404155 .01076170987611944 3.28025270331463 .01072409546257846 3.28942604
6229585 .01068653821185924 3.29791859384547 .01063026349982166 3.306171615296915
 .01057557597534414 3.31304098088883 .01050811543780562 3.31990191852717 .010440
73766690272 3.325496178707875 .01035923781285992 3.331263283436935 .010275219876
8889 3.335127575475985 .01018410299256652 3.338997774573925 .01009284682456776 3
.34100079564625 .00999313250602676 3.34294528495597 .00989633201345706 3.3429505
74380125 .0098 3.34295583233301 .00970424114737784 3.34100079564625 .00960686749
397326 3.33900065623355 .00950724742891123 3.335127575475985 .00941589700743349
 3.3312680624932 .00932486659527706 3.325496178707875 .00924076218714009 3.31990
808342038 .00915933583410727 3.31304098088883 .00909188456219439 3.3061791010775
4 .0090244845898103 3.29791859384547 .00896973650017835 3.28943475819876 .008913
50825881741 3.28025270331463 .00887590453742156 3.271074874210265 .0088383181220
6963 3.261087015448585 .00881889660791621 3.251373877737865 .00880000929222381 3
.241760074751355 .0088 127 17 180 3 2 2 2 2 2 2 2 2 2 2 2 2 2 2 2 3 128 17 181 0
 .0625 .125 .1875 .25 .3125 .375 .4375 .5 .5625 .625 .6875 .75 .8125 .875 .9375
 1 14 173 56 182 ?183 184 185 4 170 +0 0 183 184 24 51 174 192 0 184 186 170 187
 +0 -104247691353793e-31 -.018 0 -3090247206149755e-31 -1 .01 0 1 0 51 175 194 0
 183 170 188 0 +.00519615242270663 -.003 -.00125 0 3090247206149755e-31 1 7835e-
7 1 0 0 141 176 166 189 190 170 141 189 191 190 176 170 141 190 192 176 189 170
 137 192 302 0 1 193 194 195 +170 196 0 ?133 193 301 0 197 172 192 0 +192 .001 -
.00994987437106623 -.0268 .001 -.00994987437106623 -.0288 0 1 133 194 303 0 198
 192 199 0 +199 .001 -.00994987437106623 -.0288 .001 -.00994987437106623 -.0268
 0 1 141 195 193 195 195 192 134 196 0 0 0 0 0 0 +200 201 136 200 2 33 2 17 5 FF
F1 202 203 204 135 201 1 0 45 66 202 3.041425232428235 .0088 3.03181622609024 .0
0880000928758761 3.022098291731 .00881889660791621 3.01211990876706 .00883829012
390782 3.00293260386496 .00887590453742156 2.993759260940215 .00891346178818786
 2.98526671333412 .00896973650017835 2.977013691877275 .00902442402470889 2.9701
44326290755 .00909188456219439 2.963283388653165 .00915926233308994 2.9576891284
7171 .00924076218714009 2.95192202374462 .00932478012307872 2.9480577317036 .009
41589700743348 2.9441875326062 .00950715317540538 2.942184511533335 .00960686749
397326 2.940240022223615 .00970366798654296 2.940234732799465 .0098 2.9402294748
4658 .00989575885262217 2.942184511533335 .00999313250602675 2.944184650946035 .
0100927525710888 2.9480577317036 .01018410299256652 2.95191724468639 .0102751334
0472294 2.95768912847171 .01035923781285992 2.963277223759205 .01044066416589272
 2.970144326290755 .01050811543780562 2.977006206097595 .01057551541014598 2.985
26671333412 .01063026349982166 2.993750548978555 .0106864917411822 3.00293260386
496 .01072409546257846 3.01211043297175 .01076168187793146 3.022098291731 .01078
11033920838 3.031811429439885 .0107999907077762 3.041425232428235 .0108 127 17 2
03 3 2 2 2 2 2 2 2 2 2 2 2 2 2 2 2 3 128 17 204 0 .0625 .125 .1875 .25 .3125 .37
5 .4375 .5 .5625 .625 .6875 .75 .8125 .875 .9375 1 17 198 0 205 71 156 66 197 14
1 194 0 -137 199 304 0 1 194 206 207 +208 209 0 ?133 206 306 0 210 199 211 0 +21
1 .00183303027798234 -.00983056458195564 -.0332 1224646799147356e-33 -.01 -.036
 0 1 141 207 194 207 207 199 51 208 190 0 212 213 186 214 +.001 -.01 -.0278 0 1
 0 .001 -2775557561562895e-31 0 1 134 209 0 0 0 0 0 0 +215 216 136 215 2 33 2 17
 5 FFF1 217 218 219 135 216 1 0 45 66 217 3.141592653589795 50125628933799e-18 3
.05214576242209 591158381310202e-19 2.948242369942305 713553732814391e-19 2.8577
39907177665 820163156026708e-19 2.74945841329616 959791342125885e-19 2.739980019
625155 972013660713993e-19 2.55077017386973 .000121958794629201 2.43284314893036
 .0001373891221753918 2.35762230728377 .0001466130020581386 2.253875071084135 .0
001593349023177565 2.164442889420995 .0001686365850036545 2.05845908978536 .0001
79659772135215 1.965032454926045 .0001866950057339835 1.86448601658322 .00019426
63763857365 1.765203513438425 .0001981413549142965 1.665312925048105 .0002020400
669023815 1.570796326794895 .0002020410288672855 1.476375122631162 .000202041989
8612935 1.37638914015137 .0001981413549142965 1.277202672958968 .000194271910512
147 1.176560198663748 .0001866950057339835 1.083230293336012 .000179668630333584
 .977149764168804 .000168636585003658 .88780930470243 .0001593454548936655 .7839
70346306021 .0001466130020581386 .708832445908869 .0001373997954953856 .59082247
972007 .000121958794629203 .4014805624857545 971843725829971e-19 .39213424029363
5 959791342125867e-19 .2839466181690765 820279916446666e-19 .1933502836474885 71
3553732814374e-19 .0894613776674945 591168356899007e-19 0 50125628933799e-18 127
 17 218 3 2 2 2 2 2 2 2 2 2 2 2 2 2 2 2 3 128 17 219 0 .0625 .125 .1875 .25 .312
5 .375 .4375 .5 .5625 .625 .6875 .75 .8125 .875 .9375 1 14 212 46 220 ?221 222 2
05 4 208 +0 0 221 222 24 50 213 189 0 222 223 208 0 +.001 -.01 -.0268 0 0 1 .707
106781186548 .707106781186548 0 50 186 191 0 221 208 174 0 +-.00135070907740206
 -.014 -.0278 -491918608136637e-44 1 1056510140920994e-44 .707106781186548 -3992
26501432326e-44 .707106781186548 141 214 199 214 214 208 14 221 50 224 ?184 212
 225 4 186 -0 0 184 212 24 81 1 224 139 226 221 227 0 220 228 229 14 184 52 228
 ?173 221 230 4 174 +0 0 173 221 24 15 225 51 0 57 221 0 13 24 3 0 0 0 0 0 0 8 1
4 14 14 5 231 ?232 0 31 4 233 +0 0 232 0 24 81 1 231 121 226 14 234 0 0 235 236
 14 232 9 235 ?237 14 238 4 20 +0 0 237 14 24 15 31 6 0 28 14 0 50 233 185 0 14
 0 20 0 +0 -.014 -.034 0 -1 0 .707106781186548 0 .707106781186548 51 20 186 0 23
2 233 239 240 +0 -.01 -.034 0 1 0 .002 1 0 0 51 239 187 0 237 20 223 241 +-.001
 -.01 -.0278 0 1 0 .001 2775557561562885e-31 0 -1 141 240 242 243 244 20 137 242
 309 0 1 245 246 247 +20 248 0 ?141 243 6 249 240 20 141 244 250 240 251 20 137
 250 314 0 1 252 253 254 +20 255 0 ?141 251 256 244 249 20 137 256 319 0 1 257 2
58 259 +20 260 0 ?141 249 261 251 243 20 137 261 324 0 1 262 263 264 +20 265 0 ?
133 262 323 0 47 266 261 0 +261 -.000871779788708161 -.00996192752432985 -.0322
 -.00183303027798234 -.00983056458195564 -.0332 0 1 133 263 326 0 267 261 268 0
 +268 1224646799147356e-33 -.01 -.036 -.00183303027798234 -.00983056458195564 -.
0332 0 1 141 264 262 264 264 261 134 265 0 0 0 0 0 0 +269 270 136 269 2 5 2 3 5
 FFF1 271 272 273 135 270 1 0 45 10 271 4.261362168588415 3807247567018215e-20 4
.14670139038115 561348146726709e-19 3.9083419701373 .0001042724621881634 3.67774
5941427905 .0001508422614313795 3.55310949965728 .00016943541804439 127 3 272 3
 2 3 128 3 273 0 .5 1 17 267 0 230 274 38 39 275 276 263 122 +137 268 327 0 1 26
3 18 277 +174 278 0 ?133 18 328 0 275 268 6 0 +6 -.00183303027798234 -.009830564
58195564 -.0332 1224646799147352e-34 -.01 -.036 0 1 141 277 263 277 277 268 134
 278 0 0 0 0 0 0 +279 280 136 279 2 13 2 7 5 FFF1 281 282 283 135 280 1 0 45 26
 281 3.141592653589795 .018 3.16595653444206 .0179999806569199 3.19025795170467
 .0179394565520184 3.21495971124568 .01787793537119355 3.237195905897795 .017757
138341892 3.28144312088935 .0175167675316222 3.30927510786193 .01710110036004245
 3.337805885892845 .01667499683323485 3.342230052882135 .01616482502345685 3.344
31772367005 .0159240857415374 3.34027843985751 .01568067875912675 3.336101539759
31 .0154289790282045 3.325938016668775 .0152 127 7 282 3 2 2 2 2 2 3 128 7 283 0
 .125 .25 .5 .75 .875 1 17 275 0 238 284 47 36 267 276 18 210 -15 238 10 0 284 2
32 285 17 284 0 238 42 275 29 210 158 245 274 -17 47 0 238 275 286 39 45 124 262
 267 -16 276 20 0 1624788193661365e-21 267 158 151 0 0 0 1 17 210 0 230 38 274 3
6 284 158 206 116 +15 230 53 0 210 184 0 17 38 0 230 267 210 36 116 114 0 275 -1
7 274 0 230 210 267 29 122 120 0 0 -16 158 11 0 16180364879226e-19 210 154 276 0
 0 0 1 17 116 0 287 116 116 36 38 114 0 0 +15 287 101 0 116 288 0 14 288 100 289
 ?290 291 287 4 292 +0 0 290 291 24 81 1 289 172 226 288 293 0 294 295 296 14 29
0 102 295 ?297 288 298 4 299 +0 0 297 288 24 14 291 98 294 ?288 300 301 4 302 +0
 0 288 300 24 50 292 202 0 288 302 299 0 +0 .005 -.036 0 -3090247206149755e-31 -
1 .707106781186548 .707106781186548 -2185134755011275e-31 51 302 201 0 291 303 2
92 304 +0 -104247691353793e-31 -.018 0 -3090247206149755e-31 -1 .01 0 1 0 50 299
 203 0 290 292 305 0 +0 5e-4 .0081 0 3090247206149755e-31 1 .707106781186548 .70
7106781186548 -2185134755011275e-31 51 305 204 0 297 299 17 0 +0 -34562616855116
2e-32 .00455 0 -3090247206149755e-31 -1 .001 0 1 0 14 297 106 306 ?106 290 99 4
 305 +0 0 106 290 24 50 17 205 0 106 305 5 0 +0 .002 .001 0 3090247206149755e-31
 1 .707106781186548 .707106781186548 -2185134755011275e-31 14 106 111 307 ?16 29
7 103 4 17 +0 0 16 297 24 81 1 307 181 226 106 308 0 306 309 310 14 16 116 309 ?
0 106 311 4 5 +0 0 0 106 24 81 1 309 184 226 16 312 0 307 0 313 15 311 117 0 94
 16 108 17 94 0 311 94 94 92 314 315 0 314 -15 108 118 0 104 16 0 17 314 0 316 3
14 314 92 94 315 0 0 +16 315 96 0 ?314 317 123 318 0 0 1 16 317 83 0 ?319 320 31
5 321 0 0 1 16 123 14 0 133266791888702e-20 32 315 120 0 0 0 1 31 318 235 0 315
 322 113 0 +0 -486232416430976e-32 927074161844928e-33 0 -3090247206149755e-31 -
1 0 1 0 .003 31 322 234 0 323 321 318 0 +-.00519615242270663 -.003 -.0025 0 3090
247206149755e-31 1 1 0 0 7835e-7 31 113 236 0 110 318 111 0 +0 -2359223927328455
e-33 .0081 0 -3090247206149755e-31 -1 0 1 0 .001 16 110 104 0 ?324 114 101 113 0
 0 1 17 324 0 325 324 324 95 96 110 0 0 +15 325 110 0 324 297 0 17 96 0 298 96 9
6 95 324 110 0 324 -15 298 103 0 96 290 0 16 323 86 0 ?326 327 328 322 0 0 1 31
 321 233 0 317 329 322 0 +-.00519615242270663 -.003 2914335439641035e-33 0 -3090
247206149755e-31 -1 1 0 0 7835e-7 31 329 232 0 327 330 321 0 +1031076266033714e-
33 .006 -.0025 0 3090247206149755e-31 1 1 0 0 7835e-7 16 327 77 0 ?331 332 323 3
29 0 0 1 31 330 231 0 320 333 329 0 +1031076266033714e-33 .006 1387778780781446e
-34 0 -3090247206149755e-31 -1 1 0 0 7835e-7 16 320 74 0 ?334 328 317 330 0 0 1
 31 333 230 0 332 335 330 0 +.00519615242270663 -.003 -.0025 0 3090247206149755e
-31 1 1 0 0 7835e-7 16 332 68 0 ?336 337 327 333 0 0 1 31 335 229 0 328 338 333
 0 +.00519615242270663 -.003 2914335439641035e-33 0 -3090247206149755e-31 -1 1 0
 0 7835e-7 16 328 65 0 ?339 323 320 335 0 0 1 31 338 228 0 337 340 335 0 +0 -486
232416430976e-32 4440892098500625e-33 0 -3090247206149755e-31 -1 0 1 0 .01 16 33
7 61 0 ?341 141 332 338 0 0 1 31 340 224 0 157 342 338 0 +.001 -.014 -.0278 0 1
 0 -2775557561562895e-31 0 1 .001 16 157 49 0 ?343 161 154 340 0 0 1 30 342 221
 0 163 344 340 0 +-.001 -.014 -.0268 1 0 0 16 163 43 0 ?345 135 161 342 0 0 1 30
 344 219 0 135 346 342 0 +.001 -.014 -.0288 -1 0 0 16 135 38 0 ?347 131 163 344
 0 0 1 31 346 215 0 134 27 344 0 +-.001 -.014 -.0278 0 1 0 2775557561562885e-31
 0 -1 .001 16 134 29 0 ?348 26 131 346 0 0 1 31 27 207 0 9 0 346 0 +0 -.014 -.03
4 0 1 0 1 0 0 .002 17 348 0 349 133 145 54 57 134 0 350 +15 349 23 0 49 237 0 17
 133 0 349 49 348 51 59 131 0 351 +17 145 0 349 348 49 50 352 26 0 347 +17 57 0
 225 353 350 50 348 134 0 145 -17 350 0 225 57 354 54 345 163 0 0 -17 354 0 225
 350 353 65 343 157 0 0 -17 345 0 355 356 59 65 350 163 0 354 +15 355 40 0 351 2
22 0 17 356 0 355 351 345 66 71 161 0 198 -17 59 0 355 345 351 54 133 131 0 348
 -17 351 0 355 59 356 51 68 138 0 0 -17 68 0 167 197 53 66 351 138 0 356 +15 167
 59 0 150 173 357 17 197 0 167 150 68 55 198 141 193 0 +17 150 0 167 53 197 40 6
1 148 0 0 +16 141 48 0 271372713659178e-21 197 138 337 0 0 0 1 17 61 0 358 64 35
2 55 150 148 0 156 -15 358 33 0 61 359 0 17 64 0 358 347 61 62 156 154 0 353 -17
 352 0 358 61 347 40 145 26 0 150 -17 156 0 205 198 343 55 64 154 0 197 +15 205
 47 0 198 212 0 17 343 0 205 156 71 62 354 157 0 0 +17 71 0 205 343 198 65 356 1
61 0 345 +17 347 0 358 352 64 50 353 135 0 0 +17 353 0 225 354 57 62 347 135 0 3
43 -14 359 32 360 ?222 237 358 4 223 +0 0 222 237 24 81 1 360 130 226 359 361 0
 362 363 364 14 222 39 363 ?212 359 355 4 213 +0 0 212 359 24 14 237 22 362 ?359
 232 349 4 239 +0 0 359 232 24 50 223 188 0 359 239 213 0 +-.001 -.01 -.0288 0 0
 -1 .707106781186548 .707106781186548 0 81 1 362 127 226 237 365 0 235 360 366 8
0 1 226 367 368 8015 0 0 0 0 3 5 0 0 0 FFFFTFFFFFFFFF2 81 2 365 126 367 237 369
 362 370 361 371 372 81 1 235 124 226 232 370 0 231 362 373 83 1 366 0 81 2 370
 123 367 232 374 235 234 365 375 376 83 1 373 0 80 2 367 377 378 8014 0 0 0 0 3
 5 0 0 0 FFFFTFFFFFFFFF2 1 81 1 374 122 379 232 0 370 380 369 381 81 2 234 120 3
67 14 380 231 0 370 382 383 83 4 375 1 0 .752941176470588 .752941176470588 82 1
 376 20 81 1 380 119 379 14 0 234 0 374 384 83 4 382 1 0 .752941176470588 .75294
1176470588 82 1 383 20 80 1 379 0 385 8001 0 0 0 0 3 5 0 0 0 FFFFTFTFFFFFFF2 83
 3 384 .835294127464294 .835294127464294 .835294127464294 79 15 385 SDL/TYSA_COL
OUR81 1 369 125 379 237 0 365 374 386 387 83 3 381 .835294127464294 .83529412746
4294 .835294127464294 81 1 386 128 379 359 0 361 369 388 389 83 3 387 .835294127
464294 .835294127464294 .835294127464294 81 2 361 129 367 359 386 360 365 390 39
1 392 81 1 388 131 379 222 0 390 386 393 394 83 3 389 .835294127464294 .83529412
7464294 .835294127464294 81 2 390 132 367 222 388 363 361 395 396 397 81 1 393 1
34 379 212 0 395 388 398 399 83 3 394 .835294127464294 .835294127464294 .8352941
27464294 81 2 395 135 367 212 393 220 390 227 400 401 81 1 398 137 379 221 0 227
 393 402 403 83 3 399 .835294127464294 .835294127464294 .835294127464294 81 2 22
7 138 367 221 398 224 395 404 405 406 81 1 402 140 379 184 0 404 398 407 408 83
 3 403 .835294127464294 .835294127464294 .835294127464294 81 2 404 141 367 184 4
02 228 227 409 410 411 81 1 407 143 379 173 0 409 402 412 413 83 3 408 .44052299
8571396 .440522998571396 .440522998571396 81 2 409 144 367 173 407 182 404 414 4
15 416 81 1 412 146 379 183 0 414 407 417 418 83 3 413 .440522998571396 .4405229
98571396 .440522998571396 14 183 63 419 ?420 173 421 4 175 -0 0 420 173 24 81 2
 414 147 367 183 412 419 409 422 423 424 81 1 417 149 379 420 0 422 412 425 426
 83 3 418 .835294127464294 .835294127464294 .835294127464294 14 420 70 427 ?428
 183 429 4 188 -0 0 428 183 24 81 2 422 150 367 420 417 427 414 430 431 432 81 1
 425 152 379 428 0 430 417 433 434 83 3 426 .835294127464294 .835294127464294 .8
35294127464294 14 428 72 435 ?436 420 437 4 438 -0 0 436 420 24 81 2 430 153 367
 428 425 435 422 439 440 441 81 1 433 155 379 436 0 439 425 442 443 83 3 434 .83
5294127464294 .835294127464294 .835294127464294 14 436 79 444 ?445 428 446 4 447
 -0 0 445 428 24 81 2 439 156 367 436 433 444 430 448 449 450 81 1 442 158 379 4
45 0 448 433 451 452 83 3 443 .835294127464294 .835294127464294 .835294127464294
 14 445 81 453 ?454 436 455 4 456 -0 0 454 436 24 81 2 448 159 367 445 442 453 4
39 457 458 459 81 1 451 161 379 454 0 457 442 460 461 83 3 452 .835294127464294
 .835294127464294 .835294127464294 14 454 88 462 ?300 445 463 4 464 -0 0 300 445
 24 81 2 457 162 367 454 451 462 448 465 466 467 81 1 460 164 379 300 0 465 451
 468 469 83 3 461 .835294127464294 .835294127464294 .835294127464294 14 300 90 4
70 ?291 454 471 4 303 +0 0 291 454 24 81 2 465 165 367 300 460 470 457 472 473 4
74 81 1 468 167 379 291 0 472 460 475 476 83 3 469 .440522998571396 .44052299857
1396 .440522998571396 81 2 472 168 367 291 468 294 465 293 477 478 81 1 475 170
 379 288 0 293 468 479 480 83 3 476 .835294127464294 .835294127464294 .835294127
464294 81 2 293 171 367 288 475 289 472 481 482 483 81 1 479 173 379 290 0 481 4
75 484 485 83 3 480 .440522998571396 .440522998571396 .440522998571396 81 2 481
 174 367 290 479 295 293 486 487 488 81 1 484 176 379 297 0 486 479 489 490 83 3
 485 .835294127464294 .835294127464294 .835294127464294 81 2 486 177 367 297 484
 306 481 308 491 492 81 1 489 179 379 106 0 308 484 493 494 83 3 490 .8352941274
64294 .835294127464294 .835294127464294 81 2 308 180 367 106 489 307 486 312 495
 496 81 1 493 182 379 16 0 312 489 0 497 83 3 494 .835294127464294 .835294127464
294 .835294127464294 81 2 312 183 367 16 493 309 308 0 498 499 83 3 497 .8352941
27464294 .835294127464294 .835294127464294 83 4 498 1 0 .752941176470588 .752941
176470588 82 1 499 20 83 4 495 1 0 .752941176470588 .752941176470588 82 1 496 20
 81 1 306 178 226 297 486 0 295 307 500 83 4 491 1 0 .752941176470588 .752941176
470588 82 1 492 20 81 1 295 175 226 290 481 0 289 306 501 83 1 500 0 83 1 501 0
 83 4 487 1 0 .752941176470588 .752941176470588 82 1 488 20 83 4 482 1 0 .321568
6274509805 0 82 1 483 41 81 1 294 169 226 291 472 0 470 289 502 83 4 477 1 0 .75
2941176470588 .752941176470588 82 1 478 20 81 1 470 166 226 300 465 0 462 294 50
3 83 1 502 0 81 1 462 163 226 454 457 0 453 470 504 83 1 503 0 81 1 453 160 226
 445 448 0 444 462 505 83 1 504 0 81 1 444 157 226 436 439 0 435 453 506 83 1 50
5 0 81 1 435 154 226 428 430 0 427 444 507 83 1 506 0 81 1 427 151 226 420 422 0
 419 435 508 83 1 507 0 81 1 419 148 226 183 414 0 182 427 509 83 1 508 0 81 1 1
82 145 226 173 409 0 228 419 510 83 1 509 0 81 1 228 142 226 184 404 0 224 182 5
11 83 1 510 0 83 1 511 0 83 4 473 1 0 .3215686274509805 0 82 1 474 41 15 471 91
 0 339 300 512 50 303 200 0 300 464 302 0 +0 .0065 123259516440783e-48 0 3090247
206149755e-31 1 .707106781186548 .707106781186548 -2185134755011275e-31 50 464 1
99 0 454 456 303 0 +-.00519615242270663 -.003 -.0025 0 -3090247206149755e-31 -1
 .707106781186548 .707106781186548 -2185134755011275e-31 51 456 198 0 445 447 46
4 0 +-.00519615242270663 -.003 -.00125 0 3090247206149755e-31 1 7835e-7 1 0 0 50
 447 197 0 436 438 456 0 +1031076266033714e-33 .006 -.0025 0 -3090247206149755e-
31 -1 .707106781186548 .707106781186548 -2185134755011275e-31 51 438 196 0 428 1
88 447 0 +1031076266033714e-33 .006 -.00125 0 3090247206149755e-31 1 7835e-7 1 0
 0 50 188 195 0 420 175 438 0 +.00519615242270663 -.003 -.0025 0 -30902472061497
55e-31 -1 .707106781186548 .707106781186548 -2185134755011275e-31 17 339 0 471 3
39 339 74 76 328 0 0 +15 512 92 0 334 300 513 17 334 0 512 334 334 80 82 320 0 0
 +15 513 93 0 319 300 514 17 319 0 513 319 319 86 88 317 0 0 +15 514 94 0 73 300
 316 17 73 0 514 73 73 69 341 337 0 341 -15 316 95 0 314 300 0 17 341 0 357 341
 341 69 73 337 0 0 +15 357 60 0 341 173 0 17 88 0 455 88 88 86 319 317 0 319 -15
 455 82 0 88 445 515 15 515 85 0 91 445 0 17 91 0 515 91 91 89 326 323 0 326 -17
 326 0 463 326 326 89 91 323 0 0 +15 463 89 0 326 454 0 17 82 0 437 82 82 80 334
 320 0 334 -15 437 73 0 82 428 516 15 516 76 0 85 428 0 17 85 0 516 85 85 83 331
 327 0 331 -17 331 0 446 331 331 83 85 327 0 0 +15 446 80 0 331 436 0 17 76 0 42
1 76 76 74 339 328 0 339 -15 421 64 0 76 183 517 15 517 67 0 79 183 0 17 79 0 51
7 79 79 77 336 332 0 336 -17 336 0 429 336 336 77 79 332 0 0 +15 429 71 0 336 42
0 0 83 4 466 1 0 .752941176470588 .752941176470588 82 1 467 20 83 4 458 1 0 .752
941176470588 .752941176470588 82 1 459 20 83 4 449 1 0 .752941176470588 .7529411
76470588 82 1 450 20 83 4 440 1 0 .752941176470588 .752941176470588 82 1 441 20
 83 4 431 1 0 .752941176470588 .752941176470588 82 1 432 20 83 4 423 1 0 .752941
176470588 .752941176470588 82 1 424 20 83 4 415 1 0 .3215686274509805 0 82 1 416
 41 83 4 410 1 0 .3215686274509805 0 82 1 411 41 83 4 405 1 0 .752941176470588 .
752941176470588 82 1 406 20 81 1 220 136 226 212 395 0 363 224 518 83 4 400 1 0
 .752941176470588 .752941176470588 82 1 401 20 81 1 363 133 226 222 390 0 360 22
0 519 83 1 518 0 83 1 519 0 83 4 396 1 0 .752941176470588 .752941176470588 82 1
 397 20 83 4 391 1 0 .752941176470588 .752941176470588 82 1 392 20 79 21 378 SDL
/TYSA_REFLECTIVITY83 4 371 1 0 .752941176470588 .752941176470588 82 1 372 20 79
 21 368 SDL/TYSA_TRANSLUCENCY83 1 364 0 17 49 0 349 145 133 40 53 140 168 352 -1
6 140 24 0 2713727136591615e-22 53 148 138 0 0 0 1 17 32 0 301 122 128 29 42 123
 246 284 +15 301 99 0 32 291 0 17 122 0 301 45 32 39 274 120 0 0 +17 128 0 301 3
2 45 33 520 117 0 0 +17 42 0 238 286 284 33 32 123 252 521 -133 246 311 0 32 242
 522 0 +522 .000871779788708165 -.00996192752432985 -.0322 .00183303027798234 -.
00983056458195564 -.0332 0 1 137 522 312 0 1 246 252 523 +302 524 0 ?133 252 313
 0 42 522 250 0 +250 .00183303027798234 -.00983056458195564 -.0332 .000871779788
708161 -.00996192752432985 -.0322 0 1 141 523 246 523 523 522 134 524 0 0 0 0 0
 0 +525 526 136 525 2 5 2 3 5 FFF1 527 528 529 135 526 1 0 45 10 527 3.054303869
906745 .0142 3.02198063015106 .01435597932688564 2.9970572040332 .01461241625078
176 2.971798249294815 .0148723054258619 2.957247290510815 .0152 127 3 528 3 2 3
 128 3 529 0 .5 1 17 286 0 238 47 42 43 521 151 257 520 -17 521 0 185 520 520 33
 286 151 253 128 +15 185 57 0 521 173 167 17 520 0 185 521 521 43 128 117 0 0 -1
6 151 16 0 162466985446615e-20 521 276 148 0 0 0 1 133 253 316 0 521 250 191 0 +
191 -.000871779788708162 -.00996192752432985 -.0322 .000871779788708165 -.009961
92752432985 -.0322 0 1 137 191 317 0 1 253 257 530 +170 531 0 ?133 257 318 0 286
 191 256 0 +256 .000871779788708161 -.00996192752432985 -.0322 -.000871779788708
161 -.00996192752432985 -.0322 0 1 141 530 253 530 530 191 134 531 0 0 0 0 0 0 +
532 533 136 532 2 5 2 3 5 FFF1 534 535 536 135 533 1 0 45 10 534 3.2288814372728
45 .0142 3.18742423301994 .01400001821396254 3.141592653589795 .014 3.0957686252
24935 .01399998178903832 3.054303869906745 .0142 127 3 535 3 2 3 128 3 536 0 .5
 1 17 45 0 301 128 122 43 47 124 258 286 +16 124 18 0 1329258029677486e-21 45 12
0 117 0 0 0 1 133 258 321 0 45 256 266 0 +266 -.00183303027798234 -.009830564581
95564 -.0332 -.000871779788708162 -.00996192752432985 -.0322 0 1 137 266 322 0 1
 258 262 537 +302 538 0 ?141 537 258 537 537 266 134 538 0 0 0 0 0 0 +539 540 13
6 539 2 5 2 3 5 FFF1 541 542 543 135 540 1 0 45 10 541 3.325938016668775 .0152 3
.311389765413035 .0148723662453761 3.28612810314639 .01461241625078176 3.2612106
1551707 .0143560079152504 3.228881437272845 .0142 127 3 542 3 2 3 128 3 543 0 .5
 1 83 1 313 0 83 1 310 0 15 99 107 0 98 297 325 141 304 522 544 544 302 141 544
 266 304 304 302 83 1 296 0 133 245 308 0 284 211 242 0 +242 1224646799147352e-3
4 -.01 -.036 .00183303027798234 -.00983056458195564 -.0332 0 1 137 211 307 0 1 2
06 245 545 +174 546 0 ?141 545 206 545 545 211 134 546 0 0 0 0 0 0 +547 548 136
 547 2 13 2 7 5 FFF1 549 550 551 135 548 1 0 45 26 549 2.957247290510815 .0152 2
.947086956238595 .01542890698134035 2.942906867322075 .01568067875912675 2.93886
816455299 .01592393467937875 2.940955254297455 .01616482502345685 2.945374126526
43 .01667484796544995 2.97391019931766 .01710110036004245 3.0017303573435 .01751
66589081025 3.04598940128179 .017757138341892 3.068211180589095 .017877879334694
95 3.09292735547492 .0179394565520184 3.117220856521215 .01799998073103825 3.141
592653589795 .018 127 7 550 3 2 2 2 2 2 3 128 7 551 0 .125 .25 .5 .75 .875 1 15
 285 21 0 25 232 0 17 25 0 285 25 25 10 28 9 0 0 +141 259 257 259 259 256 134 26
0 0 0 0 0 0 0 +552 553 136 552 2 5 2 3 5 FFF1 554 555 556 135 553 1 0 45 10 554
 5.16341579218097 3807247567018215e-20 4.92172321833585 3453563733649385e-24 4.7
1238898038469 -3469446951953615e-33 4.50309858980569 -3452840353459535e-24 4.261
362168588415 3807247567018215e-20 127 3 555 3 2 3 128 3 556 0 .5 1 141 254 252 2
54 254 250 134 255 0 0 0 0 0 0 +557 558 136 557 2 5 2 3 5 FFF1 559 560 561 135 5
58 1 0 45 10 559 5.8716684611121 .00016943541804439 5.74703528437038 .0001508427
45558434 5.51643599063208 .000104272462188167 5.27807254819468 561341835340278e-
19 5.16341579218097 3807247567018045e-20 127 3 560 3 2 3 128 3 561 0 .5 1 141 24
7 245 247 247 242 134 248 0 0 0 0 0 0 +562 563 136 562 2 11 2 6 5 FFF1 564 565 5
66 135 563 1 0 45 22 564 1.570796326794895 -3469446951953615e-33 1.3438011824092
82 745026521134737e-23 1.073147126864166 45710812514253e-18 .977357106758859 618
861695762353e-19 .826187560115917 922795386985985e-19 .64016354497757 .000129680
5674327666 .583197523633292 .000140297705944037 .2519167582171305 .0002020407185
249265 0 .0002020410286833505 -.1929031476133285 .000202041266184566 -.411516846
067485 .00016943541804439 127 6 565 3 2 2 2 2 3 128 6 566 0 .25 .375 .5 .7927551
26953125 1 141 241 172 241 241 239 137 172 299 0 1 168 193 567 +239 568 0 ?141 5
67 168 567 567 172 134 568 0 0 0 0 0 0 +569 570 136 569 2 33 2 17 5 FFF1 571 572
 573 135 570 1 0 45 66 571 3.141592653589795 50125628933799e-18 3.05214576253979
 591158381191468e-19 2.948242369942305 713553732814374e-19 2.857739907096735 820
163156104663e-19 2.74945841329616 959791342125867e-19 2.739980016073725 97201366
5295833e-19 2.55077017386972 .000121958794629201 2.43284314901166 .0001373891221
688096 2.357622307283775 .000146613002058137 2.253875071006415 .0001593349023226
125 2.164442889420995 .000168636585003658 2.05845908982148 .0001796597721352915
 1.96503245492604 .0001866950057339835 1.86448601659863 .000194266376381567 1.76
5203513438425 .0001981413549143 1.665312925140305 .0002020400669023805 1.5707963
26794895 .0002020410288672855 1.476375122734306 .0002020419898612925 1.376389140
151362 .0001981413549143 1.277202673069238 .000194271910520449 1.176560198663744
 .0001866950057339835 1.083230293335552 .0001796686303335495 .977149764168797 .0
00168636585003658 .887809304517117 .0001593454548743835 .783970346306016 .000146
613002058137 .708832444991076 .0001373997953803568 .590822479720065 .00012195879
4629201 .401480566762391 971843731344523e-19 .392134240293629 959791342125867e-1
9 .283946618127512 820279916396747e-19 .193350283647486 713553732814374e-19 .089
4613776611295 59116835689261e-18 0 50125628933799e-18 127 17 572 3 2 2 2 2 2 2 2
 2 2 2 2 2 2 2 2 3 128 17 573 0 .0625 .125 .1875 .25 .3125 .375 .4375 .5 .5625 .
625 .6875 .75 .8125 .875 .9375 1 83 1 236 0 83 1 229 0 141 187 211 574 574 174 1
41 574 268 187 187 174 17 100 0 107 100 100 97 98 101 0 0 +15 107 115 0 100 106
 0 19 15 1 0 1 0 8 4 S141 19 18 19 19 6 134 21 0 0 0 0 0 0 +575 576 136 575 2 11
 2 6 5 FFF1 577 578 579 135 576 1 0 45 22 577 3.55310949965728 .0001694354180443
9 3.290143500429195 .0002086563099815065 3.059076272992995 .0002005682185035015
 2.840798791160265 .000192927808999133 2.55839512995651 .0001402977059440386 2.5
0143652536488 .000129682626745866 2.31540509347388 922795386985985e-19 2.1643009
8062032 618988638851215e-19 2.06844552672563 45710812514253e-18 1.79781916378718
 74822648143277e-22 1.570796326794895 -3469446951953615e-33 127 6 578 3 2 2 2 2
 3 128 6 579 0 .25 .5 .625 .75 1 74 20 13 4 0 0 493 312 309 2 0 0 0 0 0 0 0 0 0
 0 0 0 0 0 0 0 80 1 11 580 581 8017 0 0 0 0 0 0 0 0 0 TTTTTTTTTTTTTF3 84 7 12 So
lido179 13 581 SDL/TYSA_NAME1 0 
